%TF.GenerationSoftware,KiCad,Pcbnew,10.0.3*%
%TF.CreationDate,2026-06-20T17:44:15+04:00*%
%TF.ProjectId,Resistor_board,52657369-7374-46f7-925f-626f6172642e,rev?*%
%TF.SameCoordinates,Original*%
%TF.FileFunction,Legend,Bot*%
%TF.FilePolarity,Positive*%
%FSLAX46Y46*%
G04 Gerber Fmt 4.6, Leading zero omitted, Abs format (unit mm)*
G04 Created by KiCad (PCBNEW 10.0.3) date 2026-06-20 17:44:15*
%MOMM*%
%LPD*%
G01*
G04 APERTURE LIST*
%ADD10C,0.100000*%
%ADD11C,0.150000*%
%ADD12C,0.152400*%
%ADD13C,1.320000*%
G04 APERTURE END LIST*
D10*
X126838972Y-55672419D02*
X126267544Y-55672419D01*
X126553258Y-56672419D02*
X126553258Y-55672419D01*
X125553258Y-56624800D02*
X125648496Y-56672419D01*
X125648496Y-56672419D02*
X125838972Y-56672419D01*
X125838972Y-56672419D02*
X125934210Y-56624800D01*
X125934210Y-56624800D02*
X125981829Y-56529561D01*
X125981829Y-56529561D02*
X125981829Y-56148609D01*
X125981829Y-56148609D02*
X125934210Y-56053371D01*
X125934210Y-56053371D02*
X125838972Y-56005752D01*
X125838972Y-56005752D02*
X125648496Y-56005752D01*
X125648496Y-56005752D02*
X125553258Y-56053371D01*
X125553258Y-56053371D02*
X125505639Y-56148609D01*
X125505639Y-56148609D02*
X125505639Y-56243847D01*
X125505639Y-56243847D02*
X125981829Y-56339085D01*
X125124686Y-56624800D02*
X125029448Y-56672419D01*
X125029448Y-56672419D02*
X124838972Y-56672419D01*
X124838972Y-56672419D02*
X124743734Y-56624800D01*
X124743734Y-56624800D02*
X124696115Y-56529561D01*
X124696115Y-56529561D02*
X124696115Y-56481942D01*
X124696115Y-56481942D02*
X124743734Y-56386704D01*
X124743734Y-56386704D02*
X124838972Y-56339085D01*
X124838972Y-56339085D02*
X124981829Y-56339085D01*
X124981829Y-56339085D02*
X125077067Y-56291466D01*
X125077067Y-56291466D02*
X125124686Y-56196228D01*
X125124686Y-56196228D02*
X125124686Y-56148609D01*
X125124686Y-56148609D02*
X125077067Y-56053371D01*
X125077067Y-56053371D02*
X124981829Y-56005752D01*
X124981829Y-56005752D02*
X124838972Y-56005752D01*
X124838972Y-56005752D02*
X124743734Y-56053371D01*
X124410400Y-56005752D02*
X124029448Y-56005752D01*
X124267543Y-55672419D02*
X124267543Y-56529561D01*
X124267543Y-56529561D02*
X124219924Y-56624800D01*
X124219924Y-56624800D02*
X124124686Y-56672419D01*
X124124686Y-56672419D02*
X124029448Y-56672419D01*
X123696114Y-56005752D02*
X123696114Y-57005752D01*
X123696114Y-56053371D02*
X123600876Y-56005752D01*
X123600876Y-56005752D02*
X123410400Y-56005752D01*
X123410400Y-56005752D02*
X123315162Y-56053371D01*
X123315162Y-56053371D02*
X123267543Y-56100990D01*
X123267543Y-56100990D02*
X123219924Y-56196228D01*
X123219924Y-56196228D02*
X123219924Y-56481942D01*
X123219924Y-56481942D02*
X123267543Y-56577180D01*
X123267543Y-56577180D02*
X123315162Y-56624800D01*
X123315162Y-56624800D02*
X123410400Y-56672419D01*
X123410400Y-56672419D02*
X123600876Y-56672419D01*
X123600876Y-56672419D02*
X123696114Y-56624800D01*
X122648495Y-56672419D02*
X122743733Y-56624800D01*
X122743733Y-56624800D02*
X122791352Y-56577180D01*
X122791352Y-56577180D02*
X122838971Y-56481942D01*
X122838971Y-56481942D02*
X122838971Y-56196228D01*
X122838971Y-56196228D02*
X122791352Y-56100990D01*
X122791352Y-56100990D02*
X122743733Y-56053371D01*
X122743733Y-56053371D02*
X122648495Y-56005752D01*
X122648495Y-56005752D02*
X122505638Y-56005752D01*
X122505638Y-56005752D02*
X122410400Y-56053371D01*
X122410400Y-56053371D02*
X122362781Y-56100990D01*
X122362781Y-56100990D02*
X122315162Y-56196228D01*
X122315162Y-56196228D02*
X122315162Y-56481942D01*
X122315162Y-56481942D02*
X122362781Y-56577180D01*
X122362781Y-56577180D02*
X122410400Y-56624800D01*
X122410400Y-56624800D02*
X122505638Y-56672419D01*
X122505638Y-56672419D02*
X122648495Y-56672419D01*
X121886590Y-56672419D02*
X121886590Y-56005752D01*
X121886590Y-55672419D02*
X121934209Y-55720038D01*
X121934209Y-55720038D02*
X121886590Y-55767657D01*
X121886590Y-55767657D02*
X121838971Y-55720038D01*
X121838971Y-55720038D02*
X121886590Y-55672419D01*
X121886590Y-55672419D02*
X121886590Y-55767657D01*
X121410400Y-56005752D02*
X121410400Y-56672419D01*
X121410400Y-56100990D02*
X121362781Y-56053371D01*
X121362781Y-56053371D02*
X121267543Y-56005752D01*
X121267543Y-56005752D02*
X121124686Y-56005752D01*
X121124686Y-56005752D02*
X121029448Y-56053371D01*
X121029448Y-56053371D02*
X120981829Y-56148609D01*
X120981829Y-56148609D02*
X120981829Y-56672419D01*
X120648495Y-56005752D02*
X120267543Y-56005752D01*
X120505638Y-55672419D02*
X120505638Y-56529561D01*
X120505638Y-56529561D02*
X120458019Y-56624800D01*
X120458019Y-56624800D02*
X120362781Y-56672419D01*
X120362781Y-56672419D02*
X120267543Y-56672419D01*
X119981828Y-56624800D02*
X119886590Y-56672419D01*
X119886590Y-56672419D02*
X119696114Y-56672419D01*
X119696114Y-56672419D02*
X119600876Y-56624800D01*
X119600876Y-56624800D02*
X119553257Y-56529561D01*
X119553257Y-56529561D02*
X119553257Y-56481942D01*
X119553257Y-56481942D02*
X119600876Y-56386704D01*
X119600876Y-56386704D02*
X119696114Y-56339085D01*
X119696114Y-56339085D02*
X119838971Y-56339085D01*
X119838971Y-56339085D02*
X119934209Y-56291466D01*
X119934209Y-56291466D02*
X119981828Y-56196228D01*
X119981828Y-56196228D02*
X119981828Y-56148609D01*
X119981828Y-56148609D02*
X119934209Y-56053371D01*
X119934209Y-56053371D02*
X119838971Y-56005752D01*
X119838971Y-56005752D02*
X119696114Y-56005752D01*
X119696114Y-56005752D02*
X119600876Y-56053371D01*
X141243734Y-63318800D02*
X141100877Y-63366419D01*
X141100877Y-63366419D02*
X140862782Y-63366419D01*
X140862782Y-63366419D02*
X140767544Y-63318800D01*
X140767544Y-63318800D02*
X140719925Y-63271180D01*
X140719925Y-63271180D02*
X140672306Y-63175942D01*
X140672306Y-63175942D02*
X140672306Y-63080704D01*
X140672306Y-63080704D02*
X140719925Y-62985466D01*
X140719925Y-62985466D02*
X140767544Y-62937847D01*
X140767544Y-62937847D02*
X140862782Y-62890228D01*
X140862782Y-62890228D02*
X141053258Y-62842609D01*
X141053258Y-62842609D02*
X141148496Y-62794990D01*
X141148496Y-62794990D02*
X141196115Y-62747371D01*
X141196115Y-62747371D02*
X141243734Y-62652133D01*
X141243734Y-62652133D02*
X141243734Y-62556895D01*
X141243734Y-62556895D02*
X141196115Y-62461657D01*
X141196115Y-62461657D02*
X141148496Y-62414038D01*
X141148496Y-62414038D02*
X141053258Y-62366419D01*
X141053258Y-62366419D02*
X140815163Y-62366419D01*
X140815163Y-62366419D02*
X140672306Y-62414038D01*
X140338972Y-62699752D02*
X140148496Y-63366419D01*
X140148496Y-63366419D02*
X139958020Y-62890228D01*
X139958020Y-62890228D02*
X139767544Y-63366419D01*
X139767544Y-63366419D02*
X139577068Y-62699752D01*
X139196115Y-63366419D02*
X139196115Y-62699752D01*
X139196115Y-62366419D02*
X139243734Y-62414038D01*
X139243734Y-62414038D02*
X139196115Y-62461657D01*
X139196115Y-62461657D02*
X139148496Y-62414038D01*
X139148496Y-62414038D02*
X139196115Y-62366419D01*
X139196115Y-62366419D02*
X139196115Y-62461657D01*
X138862782Y-62699752D02*
X138481830Y-62699752D01*
X138719925Y-62366419D02*
X138719925Y-63223561D01*
X138719925Y-63223561D02*
X138672306Y-63318800D01*
X138672306Y-63318800D02*
X138577068Y-63366419D01*
X138577068Y-63366419D02*
X138481830Y-63366419D01*
X137719925Y-63318800D02*
X137815163Y-63366419D01*
X137815163Y-63366419D02*
X138005639Y-63366419D01*
X138005639Y-63366419D02*
X138100877Y-63318800D01*
X138100877Y-63318800D02*
X138148496Y-63271180D01*
X138148496Y-63271180D02*
X138196115Y-63175942D01*
X138196115Y-63175942D02*
X138196115Y-62890228D01*
X138196115Y-62890228D02*
X138148496Y-62794990D01*
X138148496Y-62794990D02*
X138100877Y-62747371D01*
X138100877Y-62747371D02*
X138005639Y-62699752D01*
X138005639Y-62699752D02*
X137815163Y-62699752D01*
X137815163Y-62699752D02*
X137719925Y-62747371D01*
X137291353Y-63366419D02*
X137291353Y-62366419D01*
X136862782Y-63366419D02*
X136862782Y-62842609D01*
X136862782Y-62842609D02*
X136910401Y-62747371D01*
X136910401Y-62747371D02*
X137005639Y-62699752D01*
X137005639Y-62699752D02*
X137148496Y-62699752D01*
X137148496Y-62699752D02*
X137243734Y-62747371D01*
X137243734Y-62747371D02*
X137291353Y-62794990D01*
D11*
X147010732Y-63407200D02*
X146867875Y-63454819D01*
X146867875Y-63454819D02*
X146629780Y-63454819D01*
X146629780Y-63454819D02*
X146534542Y-63407200D01*
X146534542Y-63407200D02*
X146486923Y-63359580D01*
X146486923Y-63359580D02*
X146439304Y-63264342D01*
X146439304Y-63264342D02*
X146439304Y-63169104D01*
X146439304Y-63169104D02*
X146486923Y-63073866D01*
X146486923Y-63073866D02*
X146534542Y-63026247D01*
X146534542Y-63026247D02*
X146629780Y-62978628D01*
X146629780Y-62978628D02*
X146820256Y-62931009D01*
X146820256Y-62931009D02*
X146915494Y-62883390D01*
X146915494Y-62883390D02*
X146963113Y-62835771D01*
X146963113Y-62835771D02*
X147010732Y-62740533D01*
X147010732Y-62740533D02*
X147010732Y-62645295D01*
X147010732Y-62645295D02*
X146963113Y-62550057D01*
X146963113Y-62550057D02*
X146915494Y-62502438D01*
X146915494Y-62502438D02*
X146820256Y-62454819D01*
X146820256Y-62454819D02*
X146582161Y-62454819D01*
X146582161Y-62454819D02*
X146439304Y-62502438D01*
X146105970Y-62454819D02*
X145867875Y-63454819D01*
X145867875Y-63454819D02*
X145677399Y-62740533D01*
X145677399Y-62740533D02*
X145486923Y-63454819D01*
X145486923Y-63454819D02*
X145248828Y-62454819D01*
X144344066Y-63454819D02*
X144915494Y-63454819D01*
X144629780Y-63454819D02*
X144629780Y-62454819D01*
X144629780Y-62454819D02*
X144725018Y-62597676D01*
X144725018Y-62597676D02*
X144820256Y-62692914D01*
X144820256Y-62692914D02*
X144915494Y-62740533D01*
%TO.C,SW1*%
D12*
X134735800Y-57274400D02*
X134735800Y-60525600D01*
X134735800Y-60525600D02*
X135980400Y-60525600D01*
X135980400Y-55877400D02*
X135980400Y-57274400D01*
X135980400Y-57274400D02*
X134735800Y-57274400D01*
X135980400Y-60525600D02*
X135980400Y-61922600D01*
X135980400Y-61922600D02*
X148934400Y-61922600D01*
X148934400Y-55877400D02*
X135980400Y-55877400D01*
X148934400Y-61922600D02*
X148934400Y-55877400D01*
D13*
X152007400Y-58900000D02*
G75*
G02*
X150687400Y-58900000I-660000J0D01*
G01*
X150687400Y-58900000D02*
G75*
G02*
X152007400Y-58900000I660000J0D01*
G01*
%TD*%
M02*
