%TF.GenerationSoftware,KiCad,Pcbnew,10.0.3*%
%TF.CreationDate,2026-06-20T17:44:15+04:00*%
%TF.ProjectId,Resistor_board,52657369-7374-46f7-925f-626f6172642e,rev?*%
%TF.SameCoordinates,Original*%
%TF.FileFunction,Legend,Top*%
%TF.FilePolarity,Positive*%
%FSLAX46Y46*%
G04 Gerber Fmt 4.6, Leading zero omitted, Abs format (unit mm)*
G04 Created by KiCad (PCBNEW 10.0.3) date 2026-06-20 17:44:15*
%MOMM*%
%LPD*%
G01*
G04 APERTURE LIST*
%ADD10C,0.100000*%
%ADD11C,0.150000*%
%ADD12C,0.127000*%
%ADD13C,0.120000*%
%ADD14C,1.320000*%
G04 APERTURE END LIST*
D10*
X120836265Y-53034800D02*
X120979122Y-53082419D01*
X120979122Y-53082419D02*
X121217217Y-53082419D01*
X121217217Y-53082419D02*
X121312455Y-53034800D01*
X121312455Y-53034800D02*
X121360074Y-52987180D01*
X121360074Y-52987180D02*
X121407693Y-52891942D01*
X121407693Y-52891942D02*
X121407693Y-52796704D01*
X121407693Y-52796704D02*
X121360074Y-52701466D01*
X121360074Y-52701466D02*
X121312455Y-52653847D01*
X121312455Y-52653847D02*
X121217217Y-52606228D01*
X121217217Y-52606228D02*
X121026741Y-52558609D01*
X121026741Y-52558609D02*
X120931503Y-52510990D01*
X120931503Y-52510990D02*
X120883884Y-52463371D01*
X120883884Y-52463371D02*
X120836265Y-52368133D01*
X120836265Y-52368133D02*
X120836265Y-52272895D01*
X120836265Y-52272895D02*
X120883884Y-52177657D01*
X120883884Y-52177657D02*
X120931503Y-52130038D01*
X120931503Y-52130038D02*
X121026741Y-52082419D01*
X121026741Y-52082419D02*
X121264836Y-52082419D01*
X121264836Y-52082419D02*
X121407693Y-52130038D01*
X122264836Y-53082419D02*
X122264836Y-52558609D01*
X122264836Y-52558609D02*
X122217217Y-52463371D01*
X122217217Y-52463371D02*
X122121979Y-52415752D01*
X122121979Y-52415752D02*
X121931503Y-52415752D01*
X121931503Y-52415752D02*
X121836265Y-52463371D01*
X122264836Y-53034800D02*
X122169598Y-53082419D01*
X122169598Y-53082419D02*
X121931503Y-53082419D01*
X121931503Y-53082419D02*
X121836265Y-53034800D01*
X121836265Y-53034800D02*
X121788646Y-52939561D01*
X121788646Y-52939561D02*
X121788646Y-52844323D01*
X121788646Y-52844323D02*
X121836265Y-52749085D01*
X121836265Y-52749085D02*
X121931503Y-52701466D01*
X121931503Y-52701466D02*
X122169598Y-52701466D01*
X122169598Y-52701466D02*
X122264836Y-52653847D01*
X122741027Y-52415752D02*
X122741027Y-53082419D01*
X122741027Y-52510990D02*
X122788646Y-52463371D01*
X122788646Y-52463371D02*
X122883884Y-52415752D01*
X122883884Y-52415752D02*
X123026741Y-52415752D01*
X123026741Y-52415752D02*
X123121979Y-52463371D01*
X123121979Y-52463371D02*
X123169598Y-52558609D01*
X123169598Y-52558609D02*
X123169598Y-53082419D01*
X123645789Y-53082419D02*
X123645789Y-52082419D01*
X123741027Y-52701466D02*
X124026741Y-53082419D01*
X124026741Y-52415752D02*
X123645789Y-52796704D01*
X124836265Y-53034800D02*
X124741027Y-53082419D01*
X124741027Y-53082419D02*
X124550551Y-53082419D01*
X124550551Y-53082419D02*
X124455313Y-53034800D01*
X124455313Y-53034800D02*
X124407694Y-52939561D01*
X124407694Y-52939561D02*
X124407694Y-52558609D01*
X124407694Y-52558609D02*
X124455313Y-52463371D01*
X124455313Y-52463371D02*
X124550551Y-52415752D01*
X124550551Y-52415752D02*
X124741027Y-52415752D01*
X124741027Y-52415752D02*
X124836265Y-52463371D01*
X124836265Y-52463371D02*
X124883884Y-52558609D01*
X124883884Y-52558609D02*
X124883884Y-52653847D01*
X124883884Y-52653847D02*
X124407694Y-52749085D01*
X125169599Y-52415752D02*
X125550551Y-52415752D01*
X125312456Y-52082419D02*
X125312456Y-52939561D01*
X125312456Y-52939561D02*
X125360075Y-53034800D01*
X125360075Y-53034800D02*
X125455313Y-53082419D01*
X125455313Y-53082419D02*
X125550551Y-53082419D01*
X127074361Y-53034800D02*
X126979123Y-53082419D01*
X126979123Y-53082419D02*
X126788647Y-53082419D01*
X126788647Y-53082419D02*
X126693409Y-53034800D01*
X126693409Y-53034800D02*
X126645790Y-52987180D01*
X126645790Y-52987180D02*
X126598171Y-52891942D01*
X126598171Y-52891942D02*
X126598171Y-52606228D01*
X126598171Y-52606228D02*
X126645790Y-52510990D01*
X126645790Y-52510990D02*
X126693409Y-52463371D01*
X126693409Y-52463371D02*
X126788647Y-52415752D01*
X126788647Y-52415752D02*
X126979123Y-52415752D01*
X126979123Y-52415752D02*
X127074361Y-52463371D01*
X127645790Y-53082419D02*
X127550552Y-53034800D01*
X127550552Y-53034800D02*
X127502933Y-52987180D01*
X127502933Y-52987180D02*
X127455314Y-52891942D01*
X127455314Y-52891942D02*
X127455314Y-52606228D01*
X127455314Y-52606228D02*
X127502933Y-52510990D01*
X127502933Y-52510990D02*
X127550552Y-52463371D01*
X127550552Y-52463371D02*
X127645790Y-52415752D01*
X127645790Y-52415752D02*
X127788647Y-52415752D01*
X127788647Y-52415752D02*
X127883885Y-52463371D01*
X127883885Y-52463371D02*
X127931504Y-52510990D01*
X127931504Y-52510990D02*
X127979123Y-52606228D01*
X127979123Y-52606228D02*
X127979123Y-52891942D01*
X127979123Y-52891942D02*
X127931504Y-52987180D01*
X127931504Y-52987180D02*
X127883885Y-53034800D01*
X127883885Y-53034800D02*
X127788647Y-53082419D01*
X127788647Y-53082419D02*
X127645790Y-53082419D01*
X128407695Y-52415752D02*
X128407695Y-53082419D01*
X128407695Y-52510990D02*
X128455314Y-52463371D01*
X128455314Y-52463371D02*
X128550552Y-52415752D01*
X128550552Y-52415752D02*
X128693409Y-52415752D01*
X128693409Y-52415752D02*
X128788647Y-52463371D01*
X128788647Y-52463371D02*
X128836266Y-52558609D01*
X128836266Y-52558609D02*
X128836266Y-53082419D01*
X129312457Y-52415752D02*
X129312457Y-53082419D01*
X129312457Y-52510990D02*
X129360076Y-52463371D01*
X129360076Y-52463371D02*
X129455314Y-52415752D01*
X129455314Y-52415752D02*
X129598171Y-52415752D01*
X129598171Y-52415752D02*
X129693409Y-52463371D01*
X129693409Y-52463371D02*
X129741028Y-52558609D01*
X129741028Y-52558609D02*
X129741028Y-53082419D01*
X130598171Y-53034800D02*
X130502933Y-53082419D01*
X130502933Y-53082419D02*
X130312457Y-53082419D01*
X130312457Y-53082419D02*
X130217219Y-53034800D01*
X130217219Y-53034800D02*
X130169600Y-52939561D01*
X130169600Y-52939561D02*
X130169600Y-52558609D01*
X130169600Y-52558609D02*
X130217219Y-52463371D01*
X130217219Y-52463371D02*
X130312457Y-52415752D01*
X130312457Y-52415752D02*
X130502933Y-52415752D01*
X130502933Y-52415752D02*
X130598171Y-52463371D01*
X130598171Y-52463371D02*
X130645790Y-52558609D01*
X130645790Y-52558609D02*
X130645790Y-52653847D01*
X130645790Y-52653847D02*
X130169600Y-52749085D01*
X131502933Y-53034800D02*
X131407695Y-53082419D01*
X131407695Y-53082419D02*
X131217219Y-53082419D01*
X131217219Y-53082419D02*
X131121981Y-53034800D01*
X131121981Y-53034800D02*
X131074362Y-52987180D01*
X131074362Y-52987180D02*
X131026743Y-52891942D01*
X131026743Y-52891942D02*
X131026743Y-52606228D01*
X131026743Y-52606228D02*
X131074362Y-52510990D01*
X131074362Y-52510990D02*
X131121981Y-52463371D01*
X131121981Y-52463371D02*
X131217219Y-52415752D01*
X131217219Y-52415752D02*
X131407695Y-52415752D01*
X131407695Y-52415752D02*
X131502933Y-52463371D01*
X131788648Y-52415752D02*
X132169600Y-52415752D01*
X131931505Y-52082419D02*
X131931505Y-52939561D01*
X131931505Y-52939561D02*
X131979124Y-53034800D01*
X131979124Y-53034800D02*
X132074362Y-53082419D01*
X132074362Y-53082419D02*
X132169600Y-53082419D01*
X132883886Y-53034800D02*
X132788648Y-53082419D01*
X132788648Y-53082419D02*
X132598172Y-53082419D01*
X132598172Y-53082419D02*
X132502934Y-53034800D01*
X132502934Y-53034800D02*
X132455315Y-52939561D01*
X132455315Y-52939561D02*
X132455315Y-52558609D01*
X132455315Y-52558609D02*
X132502934Y-52463371D01*
X132502934Y-52463371D02*
X132598172Y-52415752D01*
X132598172Y-52415752D02*
X132788648Y-52415752D01*
X132788648Y-52415752D02*
X132883886Y-52463371D01*
X132883886Y-52463371D02*
X132931505Y-52558609D01*
X132931505Y-52558609D02*
X132931505Y-52653847D01*
X132931505Y-52653847D02*
X132455315Y-52749085D01*
X133360077Y-53082419D02*
X133360077Y-52415752D01*
X133360077Y-52606228D02*
X133407696Y-52510990D01*
X133407696Y-52510990D02*
X133455315Y-52463371D01*
X133455315Y-52463371D02*
X133550553Y-52415752D01*
X133550553Y-52415752D02*
X133645791Y-52415752D01*
X128508646Y-53972419D02*
X129127693Y-53972419D01*
X129127693Y-53972419D02*
X128794360Y-54353371D01*
X128794360Y-54353371D02*
X128937217Y-54353371D01*
X128937217Y-54353371D02*
X129032455Y-54400990D01*
X129032455Y-54400990D02*
X129080074Y-54448609D01*
X129080074Y-54448609D02*
X129127693Y-54543847D01*
X129127693Y-54543847D02*
X129127693Y-54781942D01*
X129127693Y-54781942D02*
X129080074Y-54877180D01*
X129080074Y-54877180D02*
X129032455Y-54924800D01*
X129032455Y-54924800D02*
X128937217Y-54972419D01*
X128937217Y-54972419D02*
X128651503Y-54972419D01*
X128651503Y-54972419D02*
X128556265Y-54924800D01*
X128556265Y-54924800D02*
X128508646Y-54877180D01*
X131527693Y-54872419D02*
X130956265Y-54872419D01*
X131241979Y-54872419D02*
X131241979Y-53872419D01*
X131241979Y-53872419D02*
X131146741Y-54015276D01*
X131146741Y-54015276D02*
X131051503Y-54110514D01*
X131051503Y-54110514D02*
X130956265Y-54158133D01*
D11*
X114378095Y-52564819D02*
X114949523Y-52564819D01*
X114663809Y-53564819D02*
X114663809Y-52564819D01*
X115282857Y-53564819D02*
X115282857Y-52564819D01*
X115282857Y-52564819D02*
X115663809Y-52564819D01*
X115663809Y-52564819D02*
X115759047Y-52612438D01*
X115759047Y-52612438D02*
X115806666Y-52660057D01*
X115806666Y-52660057D02*
X115854285Y-52755295D01*
X115854285Y-52755295D02*
X115854285Y-52898152D01*
X115854285Y-52898152D02*
X115806666Y-52993390D01*
X115806666Y-52993390D02*
X115759047Y-53041009D01*
X115759047Y-53041009D02*
X115663809Y-53088628D01*
X115663809Y-53088628D02*
X115282857Y-53088628D01*
X116187619Y-52564819D02*
X116806666Y-52564819D01*
X116806666Y-52564819D02*
X116473333Y-52945771D01*
X116473333Y-52945771D02*
X116616190Y-52945771D01*
X116616190Y-52945771D02*
X116711428Y-52993390D01*
X116711428Y-52993390D02*
X116759047Y-53041009D01*
X116759047Y-53041009D02*
X116806666Y-53136247D01*
X116806666Y-53136247D02*
X116806666Y-53374342D01*
X116806666Y-53374342D02*
X116759047Y-53469580D01*
X116759047Y-53469580D02*
X116711428Y-53517200D01*
X116711428Y-53517200D02*
X116616190Y-53564819D01*
X116616190Y-53564819D02*
X116330476Y-53564819D01*
X116330476Y-53564819D02*
X116235238Y-53517200D01*
X116235238Y-53517200D02*
X116187619Y-53469580D01*
X110378095Y-60144819D02*
X110949523Y-60144819D01*
X110663809Y-61144819D02*
X110663809Y-60144819D01*
X111282857Y-61144819D02*
X111282857Y-60144819D01*
X111282857Y-60144819D02*
X111663809Y-60144819D01*
X111663809Y-60144819D02*
X111759047Y-60192438D01*
X111759047Y-60192438D02*
X111806666Y-60240057D01*
X111806666Y-60240057D02*
X111854285Y-60335295D01*
X111854285Y-60335295D02*
X111854285Y-60478152D01*
X111854285Y-60478152D02*
X111806666Y-60573390D01*
X111806666Y-60573390D02*
X111759047Y-60621009D01*
X111759047Y-60621009D02*
X111663809Y-60668628D01*
X111663809Y-60668628D02*
X111282857Y-60668628D01*
X112711428Y-60478152D02*
X112711428Y-61144819D01*
X112473333Y-60097200D02*
X112235238Y-60811485D01*
X112235238Y-60811485D02*
X112854285Y-60811485D01*
X113848095Y-57144819D02*
X114419523Y-57144819D01*
X114133809Y-58144819D02*
X114133809Y-57144819D01*
X114752857Y-58144819D02*
X114752857Y-57144819D01*
X114752857Y-57144819D02*
X115133809Y-57144819D01*
X115133809Y-57144819D02*
X115229047Y-57192438D01*
X115229047Y-57192438D02*
X115276666Y-57240057D01*
X115276666Y-57240057D02*
X115324285Y-57335295D01*
X115324285Y-57335295D02*
X115324285Y-57478152D01*
X115324285Y-57478152D02*
X115276666Y-57573390D01*
X115276666Y-57573390D02*
X115229047Y-57621009D01*
X115229047Y-57621009D02*
X115133809Y-57668628D01*
X115133809Y-57668628D02*
X114752857Y-57668628D01*
X116276666Y-58144819D02*
X115705238Y-58144819D01*
X115990952Y-58144819D02*
X115990952Y-57144819D01*
X115990952Y-57144819D02*
X115895714Y-57287676D01*
X115895714Y-57287676D02*
X115800476Y-57382914D01*
X115800476Y-57382914D02*
X115705238Y-57430533D01*
X119478095Y-60934819D02*
X120049523Y-60934819D01*
X119763809Y-61934819D02*
X119763809Y-60934819D01*
X120382857Y-61934819D02*
X120382857Y-60934819D01*
X120382857Y-60934819D02*
X120763809Y-60934819D01*
X120763809Y-60934819D02*
X120859047Y-60982438D01*
X120859047Y-60982438D02*
X120906666Y-61030057D01*
X120906666Y-61030057D02*
X120954285Y-61125295D01*
X120954285Y-61125295D02*
X120954285Y-61268152D01*
X120954285Y-61268152D02*
X120906666Y-61363390D01*
X120906666Y-61363390D02*
X120859047Y-61411009D01*
X120859047Y-61411009D02*
X120763809Y-61458628D01*
X120763809Y-61458628D02*
X120382857Y-61458628D01*
X121335238Y-61030057D02*
X121382857Y-60982438D01*
X121382857Y-60982438D02*
X121478095Y-60934819D01*
X121478095Y-60934819D02*
X121716190Y-60934819D01*
X121716190Y-60934819D02*
X121811428Y-60982438D01*
X121811428Y-60982438D02*
X121859047Y-61030057D01*
X121859047Y-61030057D02*
X121906666Y-61125295D01*
X121906666Y-61125295D02*
X121906666Y-61220533D01*
X121906666Y-61220533D02*
X121859047Y-61363390D01*
X121859047Y-61363390D02*
X121287619Y-61934819D01*
X121287619Y-61934819D02*
X121906666Y-61934819D01*
X132724819Y-63288333D02*
X133439104Y-63288333D01*
X133439104Y-63288333D02*
X133581961Y-63335952D01*
X133581961Y-63335952D02*
X133677200Y-63431190D01*
X133677200Y-63431190D02*
X133724819Y-63574047D01*
X133724819Y-63574047D02*
X133724819Y-63669285D01*
X133724819Y-62288333D02*
X133724819Y-62859761D01*
X133724819Y-62574047D02*
X132724819Y-62574047D01*
X132724819Y-62574047D02*
X132867676Y-62669285D01*
X132867676Y-62669285D02*
X132962914Y-62764523D01*
X132962914Y-62764523D02*
X133010533Y-62859761D01*
%TO.C,TP3*%
D12*
X112294100Y-51670000D02*
X112725900Y-51670000D01*
X112294100Y-51855000D02*
X112294100Y-51670000D01*
X112294100Y-54210000D02*
X112294100Y-54025000D01*
X112725900Y-51670000D02*
X112725900Y-51855000D01*
X112725900Y-54025000D02*
X112725900Y-54210000D01*
X112725900Y-54210000D02*
X112294100Y-54210000D01*
%TO.C,TP4*%
X112294100Y-61670000D02*
X112725900Y-61670000D01*
X112294100Y-61855000D02*
X112294100Y-61670000D01*
X112294100Y-64210000D02*
X112294100Y-64025000D01*
X112725900Y-61670000D02*
X112725900Y-61855000D01*
X112725900Y-64025000D02*
X112725900Y-64210000D01*
X112725900Y-64210000D02*
X112294100Y-64210000D01*
%TO.C,TP1*%
X113160000Y-59304100D02*
X113345000Y-59304100D01*
X113160000Y-59735900D02*
X113160000Y-59304100D01*
X113345000Y-59735900D02*
X113160000Y-59735900D01*
X115515000Y-59304100D02*
X115700000Y-59304100D01*
X115700000Y-59304100D02*
X115700000Y-59735900D01*
X115700000Y-59735900D02*
X115515000Y-59735900D01*
%TO.C,TP2*%
X119740000Y-59354100D02*
X119925000Y-59354100D01*
X119740000Y-59785900D02*
X119740000Y-59354100D01*
X119925000Y-59785900D02*
X119740000Y-59785900D01*
X122095000Y-59354100D02*
X122280000Y-59354100D01*
X122280000Y-59354100D02*
X122280000Y-59785900D01*
X122280000Y-59785900D02*
X122095000Y-59785900D01*
%TO.C,J1*%
D13*
X125490000Y-58377358D02*
X125490000Y-58762642D01*
X125490000Y-60917358D02*
X125490000Y-61230000D01*
X125490000Y-69990000D02*
X125490000Y-63990000D01*
X126350000Y-58377358D02*
X126350000Y-58762642D01*
X126350000Y-60917358D02*
X126350000Y-61230000D01*
X126350000Y-63990000D02*
X126350000Y-69990000D01*
X126350000Y-69990000D02*
X125490000Y-69990000D01*
X127190000Y-61230000D02*
X127190000Y-63990000D01*
X128030000Y-58377358D02*
X128030000Y-58762642D01*
X128030000Y-60917358D02*
X128030000Y-61230000D01*
X128030000Y-69990000D02*
X128030000Y-63990000D01*
X128890000Y-58377358D02*
X128890000Y-58762642D01*
X128890000Y-60917358D02*
X128890000Y-61230000D01*
X128890000Y-63990000D02*
X128890000Y-69990000D01*
X128890000Y-69990000D02*
X128030000Y-69990000D01*
X129730000Y-61230000D02*
X129730000Y-63990000D01*
X130570000Y-58460000D02*
X130570000Y-58762642D01*
X130570000Y-60917358D02*
X130570000Y-61230000D01*
X131000000Y-56030000D02*
X132270000Y-56030000D01*
X131430000Y-58460000D02*
X131430000Y-58762642D01*
X131430000Y-60917358D02*
X131430000Y-61230000D01*
X132270000Y-56030000D02*
X132270000Y-57300000D01*
X130570000Y-63990000D02*
X131430000Y-63990000D01*
X131430000Y-69990000D01*
X130570000Y-69990000D01*
X130570000Y-63990000D01*
G36*
X130570000Y-63990000D02*
G01*
X131430000Y-63990000D01*
X131430000Y-69990000D01*
X130570000Y-69990000D01*
X130570000Y-63990000D01*
G37*
X124540000Y-61230000D02*
X132380000Y-61230000D01*
X132380000Y-63990000D01*
X124540000Y-63990000D01*
X124540000Y-61230000D01*
%TO.C,SW1*%
D14*
X152007400Y-58900000D02*
G75*
G02*
X150687400Y-58900000I-660000J0D01*
G01*
X150687400Y-58900000D02*
G75*
G02*
X152007400Y-58900000I660000J0D01*
G01*
%TD*%
M02*
