%TF.GenerationSoftware,KiCad,Pcbnew,10.0.3*%
%TF.CreationDate,2026-06-20T17:44:15+04:00*%
%TF.ProjectId,Resistor_board,52657369-7374-46f7-925f-626f6172642e,rev?*%
%TF.SameCoordinates,Original*%
%TF.FileFunction,Copper,L1,Top*%
%TF.FilePolarity,Positive*%
%FSLAX46Y46*%
G04 Gerber Fmt 4.6, Leading zero omitted, Abs format (unit mm)*
G04 Created by KiCad (PCBNEW 10.0.3) date 2026-06-20 17:44:15*
%MOMM*%
%LPD*%
G01*
G04 APERTURE LIST*
%TA.AperFunction,ComponentPad*%
%ADD10C,1.530000*%
%TD*%
%TA.AperFunction,ComponentPad*%
%ADD11R,1.700000X1.700000*%
%TD*%
%TA.AperFunction,ComponentPad*%
%ADD12C,1.700000*%
%TD*%
%TA.AperFunction,ComponentPad*%
%ADD13C,1.701800*%
%TD*%
%TA.AperFunction,Conductor*%
%ADD14C,0.200000*%
%TD*%
G04 APERTURE END LIST*
D10*
%TO.P,TP3,TP*%
%TO.N,/BurnWireIN*%
X112510000Y-52940000D03*
%TD*%
%TO.P,TP4,TP*%
%TO.N,/GND*%
X112510000Y-62940000D03*
%TD*%
%TO.P,TP1,TP*%
%TO.N,/BurnWireIN*%
X114430000Y-59520000D03*
%TD*%
%TO.P,TP2,TP*%
%TO.N,/GND*%
X121010000Y-59570000D03*
%TD*%
D11*
%TO.P,J1,1,Pin_1*%
%TO.N,/DeployerDetectionSWOUT*%
X131000000Y-57300000D03*
D12*
%TO.P,J1,2,Pin_2*%
%TO.N,/DeployerDetectionSWIN*%
X131000000Y-59840000D03*
%TO.P,J1,3,Pin_3*%
%TO.N,/BurnWireIN*%
X128460000Y-57300000D03*
%TO.P,J1,4,Pin_4*%
%TO.N,/GND*%
X128460000Y-59840000D03*
%TO.P,J1,5,Pin_5*%
%TO.N,/BurnWireIN*%
X125920000Y-57300000D03*
%TO.P,J1,6,Pin_6*%
%TO.N,/GND*%
X125920000Y-59840000D03*
%TD*%
D13*
%TO.P,SW1,1,B*%
%TO.N,/DeployerDetectionSWOUT*%
X147537400Y-58900000D03*
%TO.P,SW1,2,C*%
%TO.N,unconnected-(SW1-C-Pad2)*%
X142457400Y-58900000D03*
%TO.P,SW1,3,A*%
%TO.N,/DeployerDetectionSWIN*%
X137377400Y-58900000D03*
%TD*%
%TO.N,/DeployerDetectionSWOUT*%
D14*
X131000000Y-57300000D02*
X145900000Y-57300000D01*
X145900000Y-57300000D02*
X147500000Y-58900000D01*
%TO.N,/DeployerDetectionSWIN*%
X131940000Y-58900000D02*
X137340000Y-58900000D01*
X137230000Y-59000000D02*
X137490000Y-58740000D01*
X131000000Y-59840000D02*
X131940000Y-58900000D01*
%TD*%
%TA.AperFunction,Conductor*%
%TO.N,/DeployerDetectionSWIN*%
G36*
X132303120Y-58803427D02*
G01*
X132306547Y-58811700D01*
X132306547Y-58987084D01*
X132303120Y-58995357D01*
X132294847Y-58998784D01*
X132293694Y-58998727D01*
X132010711Y-58970711D01*
X131847752Y-59912649D01*
X131842965Y-59920216D01*
X131835130Y-59922303D01*
X131006049Y-59844506D01*
X130998132Y-59840321D01*
X130995493Y-59833950D01*
X130917696Y-59004869D01*
X130920335Y-58996312D01*
X130927347Y-58992248D01*
X131869289Y-58829289D01*
X131937849Y-58800891D01*
X131942326Y-58800000D01*
X132294847Y-58800000D01*
X132303120Y-58803427D01*
G37*
%TD.AperFunction*%
%TD*%
%TA.AperFunction,Conductor*%
%TO.N,/DeployerDetectionSWOUT*%
G36*
X131856239Y-56456511D02*
G01*
X131859837Y-56458680D01*
X132694296Y-57194967D01*
X132697062Y-57198593D01*
X132698809Y-57202163D01*
X132700000Y-57207305D01*
X132700000Y-57392392D01*
X132699109Y-57396871D01*
X132697589Y-57400539D01*
X132694521Y-57404833D01*
X131859981Y-58141191D01*
X131856033Y-58143486D01*
X131854145Y-58144133D01*
X131845545Y-58143732D01*
X131844176Y-58143115D01*
X131840715Y-58140726D01*
X131008933Y-57309921D01*
X131006395Y-57306129D01*
X131005710Y-57304480D01*
X131005708Y-57300014D01*
X131005705Y-57295532D01*
X131006386Y-57293885D01*
X131008925Y-57290085D01*
X131840586Y-56459401D01*
X131844373Y-56456873D01*
X131846223Y-56456108D01*
X131854834Y-56455979D01*
X131856239Y-56456511D01*
G37*
%TD.AperFunction*%
%TD*%
%TA.AperFunction,Conductor*%
%TO.N,/BurnWireIN*%
G36*
X127173139Y-51945523D02*
G01*
X127190572Y-51950642D01*
X127204579Y-51959273D01*
X127218670Y-51962836D01*
X127246201Y-51984920D01*
X127254056Y-51993319D01*
X127272063Y-52018116D01*
X129628728Y-56289571D01*
X129641205Y-56322581D01*
X129641226Y-56322675D01*
X129643889Y-56329738D01*
X129645537Y-56342040D01*
X129649599Y-56349900D01*
X129650982Y-56382682D01*
X129651313Y-56385152D01*
X129651229Y-56386030D01*
X129649500Y-56402127D01*
X129649500Y-56404338D01*
X129648987Y-56409767D01*
X129647606Y-56413225D01*
X129641843Y-56441102D01*
X129638506Y-56450125D01*
X129637062Y-56455045D01*
X129605769Y-56507782D01*
X129069702Y-57043849D01*
X129008379Y-57077334D01*
X128938687Y-57072350D01*
X128882754Y-57030478D01*
X128874634Y-57018169D01*
X128860099Y-56992993D01*
X128767007Y-56899901D01*
X128767004Y-56899899D01*
X128767000Y-56899896D01*
X128741828Y-56885363D01*
X128693613Y-56834796D01*
X128680391Y-56766189D01*
X128706359Y-56701324D01*
X128716135Y-56690310D01*
X129221716Y-56184728D01*
X129167550Y-56145375D01*
X129160189Y-56141624D01*
X128978214Y-56048902D01*
X128776130Y-55983242D01*
X128566251Y-55950000D01*
X128566246Y-55950000D01*
X128353754Y-55950000D01*
X128353749Y-55950000D01*
X128153513Y-55981715D01*
X128153505Y-55981715D01*
X128153506Y-55981716D01*
X128143865Y-55983242D01*
X127941784Y-56048903D01*
X127752438Y-56145380D01*
X127698282Y-56184727D01*
X127698282Y-56184728D01*
X128203850Y-56690296D01*
X128237335Y-56751619D01*
X128232351Y-56821311D01*
X128190479Y-56877244D01*
X128178173Y-56885362D01*
X128152996Y-56899898D01*
X128152990Y-56899903D01*
X128059903Y-56992990D01*
X128059898Y-56992996D01*
X128045362Y-57018173D01*
X127994793Y-57066387D01*
X127926185Y-57079607D01*
X127861322Y-57053637D01*
X127850296Y-57043850D01*
X127344728Y-56538282D01*
X127344727Y-56538282D01*
X127305376Y-56592443D01*
X127304386Y-56594060D01*
X127288810Y-56614408D01*
X127279350Y-56624424D01*
X127219007Y-56659646D01*
X127149201Y-56656652D01*
X127095492Y-56620486D01*
X127089415Y-56613472D01*
X127077814Y-56596216D01*
X127077174Y-56596609D01*
X127074630Y-56592458D01*
X127074616Y-56592439D01*
X127035270Y-56538282D01*
X127035268Y-56538282D01*
X126529702Y-57043849D01*
X126468379Y-57077334D01*
X126398687Y-57072350D01*
X126342754Y-57030478D01*
X126334634Y-57018169D01*
X126320099Y-56992993D01*
X126227007Y-56899901D01*
X126227004Y-56899899D01*
X126227000Y-56899896D01*
X126201828Y-56885363D01*
X126153613Y-56834796D01*
X126140391Y-56766189D01*
X126166359Y-56701324D01*
X126176135Y-56690310D01*
X126681716Y-56184728D01*
X126627550Y-56145375D01*
X126620189Y-56141624D01*
X126438214Y-56048902D01*
X126236130Y-55983242D01*
X126026251Y-55950000D01*
X126026246Y-55950000D01*
X125813754Y-55950000D01*
X125813749Y-55950000D01*
X125613513Y-55981715D01*
X125613505Y-55981715D01*
X125613506Y-55981716D01*
X125603865Y-55983242D01*
X125401784Y-56048903D01*
X125212438Y-56145380D01*
X125158282Y-56184727D01*
X125158282Y-56184728D01*
X125663850Y-56690296D01*
X125697335Y-56751619D01*
X125692351Y-56821311D01*
X125650479Y-56877244D01*
X125638173Y-56885362D01*
X125612996Y-56899898D01*
X125612990Y-56899903D01*
X125519903Y-56992990D01*
X125519898Y-56992996D01*
X125505362Y-57018173D01*
X125454793Y-57066387D01*
X125386185Y-57079607D01*
X125321322Y-57053637D01*
X125310296Y-57043850D01*
X124804728Y-56538282D01*
X124804727Y-56538282D01*
X124765380Y-56592438D01*
X124668903Y-56781784D01*
X124603242Y-56983865D01*
X124601798Y-56992990D01*
X124570000Y-57193753D01*
X124570000Y-57406246D01*
X124590442Y-57535310D01*
X124601715Y-57606485D01*
X124601713Y-57606493D01*
X124601716Y-57606493D01*
X124603242Y-57616133D01*
X124653458Y-57770679D01*
X124668904Y-57818217D01*
X124765374Y-58007548D01*
X124765375Y-58007550D01*
X124792617Y-58045047D01*
X124804728Y-58061716D01*
X125310297Y-57556147D01*
X125371619Y-57522663D01*
X125441311Y-57527647D01*
X125497244Y-57569519D01*
X125505363Y-57581828D01*
X125519896Y-57607000D01*
X125519900Y-57607005D01*
X125519901Y-57607007D01*
X125612993Y-57700099D01*
X125638169Y-57714634D01*
X125686384Y-57765202D01*
X125699606Y-57833809D01*
X125673638Y-57898673D01*
X125663849Y-57909702D01*
X125156564Y-58416985D01*
X125156560Y-58416992D01*
X125156078Y-58419290D01*
X125123030Y-58480849D01*
X125061946Y-58514769D01*
X124992221Y-58510280D01*
X124966028Y-58497023D01*
X124942740Y-58481524D01*
X124805355Y-58438781D01*
X124805352Y-58438780D01*
X124738731Y-58428109D01*
X124737011Y-58427799D01*
X124736359Y-58427729D01*
X124592499Y-58425425D01*
X124481288Y-58439601D01*
X124412298Y-58428551D01*
X124360234Y-58381956D01*
X124341610Y-58316596D01*
X124341610Y-58234967D01*
X124313056Y-58054690D01*
X124311529Y-58045049D01*
X124311528Y-58045045D01*
X124311528Y-58045044D01*
X124311527Y-58045040D01*
X124252120Y-57862204D01*
X124252112Y-57862180D01*
X124252110Y-57862175D01*
X124252110Y-57862174D01*
X124203068Y-57765925D01*
X124164814Y-57690847D01*
X124103901Y-57607007D01*
X124103900Y-57607005D01*
X124103899Y-57607003D01*
X124051811Y-57535310D01*
X124051793Y-57535286D01*
X124051785Y-57535277D01*
X123915831Y-57399323D01*
X123915823Y-57399316D01*
X123915818Y-57399312D01*
X123860034Y-57358782D01*
X123762275Y-57287756D01*
X123762239Y-57287731D01*
X123760266Y-57286297D01*
X123679149Y-57244965D01*
X123588935Y-57198999D01*
X123588932Y-57198998D01*
X123588931Y-57198997D01*
X123588928Y-57198996D01*
X123588904Y-57198988D01*
X123406064Y-57139581D01*
X123279449Y-57119527D01*
X123251751Y-57115140D01*
X123216143Y-57109500D01*
X123216142Y-57109500D01*
X123023858Y-57109500D01*
X123023857Y-57109500D01*
X122960551Y-57119527D01*
X122904360Y-57128427D01*
X122843578Y-57138054D01*
X122843570Y-57138054D01*
X122843571Y-57138055D01*
X122833930Y-57139581D01*
X122651094Y-57198988D01*
X122651070Y-57198996D01*
X122479729Y-57286300D01*
X122324198Y-57399299D01*
X122324169Y-57399321D01*
X122188211Y-57535279D01*
X122188189Y-57535308D01*
X122075190Y-57690839D01*
X121987886Y-57862180D01*
X121987878Y-57862204D01*
X121928471Y-58045040D01*
X121926945Y-58054681D01*
X121926944Y-58054690D01*
X121904266Y-58197870D01*
X121904266Y-58197871D01*
X121898390Y-58234969D01*
X121898390Y-58390015D01*
X121898389Y-58390021D01*
X121898390Y-58390024D01*
X121893727Y-58422441D01*
X121893365Y-58424959D01*
X121889716Y-58437383D01*
X121851937Y-58496158D01*
X121788379Y-58525178D01*
X121724108Y-58517336D01*
X121715519Y-58513850D01*
X121689272Y-58499275D01*
X121681167Y-58493387D01*
X121680827Y-58493097D01*
X121673259Y-58487641D01*
X121672895Y-58487458D01*
X121615135Y-58458028D01*
X121516646Y-58407845D01*
X121516646Y-58407844D01*
X121516644Y-58407844D01*
X121495785Y-58397215D01*
X121495778Y-58397212D01*
X121306343Y-58335661D01*
X121158782Y-58312290D01*
X121148945Y-58310732D01*
X121109601Y-58304500D01*
X121109597Y-58304500D01*
X120910403Y-58304500D01*
X120910399Y-58304500D01*
X120861219Y-58312290D01*
X120844822Y-58314887D01*
X120723300Y-58334134D01*
X120723292Y-58334134D01*
X120723293Y-58334135D01*
X120713654Y-58335661D01*
X120524214Y-58397214D01*
X120346740Y-58487643D01*
X120346727Y-58487651D01*
X120270388Y-58543115D01*
X120197452Y-58596106D01*
X120190073Y-58600238D01*
X120040239Y-58750072D01*
X120036106Y-58757453D01*
X120005161Y-58800045D01*
X119927645Y-58906735D01*
X119872974Y-59014032D01*
X119855932Y-59032075D01*
X119842181Y-59052738D01*
X119832359Y-59057034D01*
X119825000Y-59064827D01*
X119800908Y-59070792D01*
X119778168Y-59080741D01*
X119761796Y-59080478D01*
X119757179Y-59081622D01*
X119742878Y-59080175D01*
X119689873Y-59071685D01*
X119688153Y-59071375D01*
X119687501Y-59071305D01*
X119543642Y-59069001D01*
X115834679Y-59541782D01*
X115765689Y-59530732D01*
X115713624Y-59484137D01*
X115696826Y-59425185D01*
X115695383Y-59425299D01*
X115695000Y-59420438D01*
X115694999Y-59420430D01*
X115663852Y-59223777D01*
X115602320Y-59034405D01*
X115511924Y-58856994D01*
X115511922Y-58856991D01*
X115511921Y-58856989D01*
X115508096Y-58851724D01*
X115498559Y-58824991D01*
X115484416Y-58819133D01*
X115047022Y-59256527D01*
X114985699Y-59290012D01*
X114916007Y-59285028D01*
X114860074Y-59243156D01*
X114851958Y-59230852D01*
X114838102Y-59206853D01*
X114743147Y-59111898D01*
X114719148Y-59098042D01*
X114670934Y-59047475D01*
X114657712Y-58978868D01*
X114683680Y-58914003D01*
X114693461Y-58902983D01*
X115130864Y-58465581D01*
X115130863Y-58465580D01*
X115093007Y-58438076D01*
X115033673Y-58407844D01*
X114915594Y-58347679D01*
X114726222Y-58286147D01*
X114726216Y-58286146D01*
X114529568Y-58255000D01*
X114529563Y-58255000D01*
X114330437Y-58255000D01*
X114330433Y-58255000D01*
X114133782Y-58286146D01*
X114133780Y-58286146D01*
X114133777Y-58286147D01*
X113944405Y-58347679D01*
X113877133Y-58381956D01*
X113766989Y-58438077D01*
X113729135Y-58465580D01*
X113729135Y-58465581D01*
X114166529Y-58902975D01*
X114200014Y-58964298D01*
X114195030Y-59033990D01*
X114153158Y-59089923D01*
X114140852Y-59098041D01*
X114116856Y-59111896D01*
X114116850Y-59111900D01*
X114021900Y-59206850D01*
X114021896Y-59206856D01*
X114008041Y-59230852D01*
X113957472Y-59279066D01*
X113888865Y-59292286D01*
X113824001Y-59266316D01*
X113812975Y-59256529D01*
X113375581Y-58819135D01*
X113375580Y-58819135D01*
X113348077Y-58856989D01*
X113319027Y-58914003D01*
X113257679Y-59034405D01*
X113196147Y-59223777D01*
X113196146Y-59223780D01*
X113196146Y-59223782D01*
X113165000Y-59420430D01*
X113165000Y-59619568D01*
X113185761Y-59750648D01*
X113176806Y-59819942D01*
X113131810Y-59873393D01*
X113078967Y-59893051D01*
X111782167Y-60058353D01*
X111713177Y-60047303D01*
X111661112Y-60000708D01*
X111647455Y-59970090D01*
X111576970Y-59728568D01*
X111572006Y-59693631D01*
X111572029Y-59679747D01*
X111591825Y-59612744D01*
X111644703Y-59567076D01*
X111646738Y-59566151D01*
X111651828Y-59563838D01*
X111703147Y-59552720D01*
X111726141Y-59552720D01*
X111726142Y-59552720D01*
X111726143Y-59552720D01*
X111916061Y-59522639D01*
X111916064Y-59522638D01*
X111916065Y-59522638D01*
X112098932Y-59463221D01*
X112098935Y-59463220D01*
X112270263Y-59375924D01*
X112425825Y-59262902D01*
X112561792Y-59126935D01*
X112674814Y-58971373D01*
X112762110Y-58800045D01*
X112821529Y-58617171D01*
X112851610Y-58427253D01*
X112851610Y-58234967D01*
X112821529Y-58045049D01*
X112821528Y-58045045D01*
X112821528Y-58045044D01*
X112821527Y-58045040D01*
X112762120Y-57862204D01*
X112762112Y-57862180D01*
X112762110Y-57862175D01*
X112762110Y-57862174D01*
X112713068Y-57765925D01*
X112674814Y-57690847D01*
X112613901Y-57607007D01*
X112611296Y-57603421D01*
X112611292Y-57603415D01*
X112561811Y-57535310D01*
X112561793Y-57535286D01*
X112561785Y-57535277D01*
X112425829Y-57399321D01*
X112425824Y-57399317D01*
X112425823Y-57399316D01*
X112425818Y-57399312D01*
X112270266Y-57286298D01*
X112270265Y-57286297D01*
X112270263Y-57286296D01*
X112215373Y-57258328D01*
X112098935Y-57198999D01*
X112098932Y-57198998D01*
X112098931Y-57198997D01*
X112098928Y-57198996D01*
X112098904Y-57198988D01*
X111916064Y-57139581D01*
X111789449Y-57119527D01*
X111761751Y-57115140D01*
X111726143Y-57109500D01*
X111726142Y-57109500D01*
X111533854Y-57109500D01*
X111512489Y-57112884D01*
X111498244Y-57115140D01*
X111478033Y-57118341D01*
X111361007Y-57136876D01*
X111325723Y-57137381D01*
X111311959Y-57135603D01*
X111295631Y-57128427D01*
X111291713Y-57127921D01*
X111288691Y-57125377D01*
X111247994Y-57107492D01*
X111209381Y-57049262D01*
X111205531Y-57036812D01*
X111200000Y-57000188D01*
X111200000Y-53688320D01*
X111200159Y-53687778D01*
X111205021Y-53653393D01*
X111208207Y-53642540D01*
X111217848Y-53627534D01*
X111219685Y-53621281D01*
X111228244Y-53611356D01*
X111245977Y-53583759D01*
X111309531Y-53554730D01*
X111378686Y-53564668D01*
X111380025Y-53565279D01*
X111423089Y-53597877D01*
X111424520Y-53599565D01*
X111426157Y-53601495D01*
X111429441Y-53608894D01*
X111435583Y-53614167D01*
X111441859Y-53635180D01*
X111455579Y-53640863D01*
X111455579Y-53640862D01*
X111455580Y-53640863D01*
X111455580Y-53640864D01*
X111892977Y-53203465D01*
X111954297Y-53169983D01*
X112023988Y-53174967D01*
X112079922Y-53216838D01*
X112088041Y-53229147D01*
X112092123Y-53236216D01*
X112101898Y-53253147D01*
X112196853Y-53348102D01*
X112220847Y-53361955D01*
X112269063Y-53412522D01*
X112282285Y-53481129D01*
X112256317Y-53545994D01*
X112246528Y-53557023D01*
X111809133Y-53994416D01*
X111809134Y-53994416D01*
X111809134Y-53994417D01*
X111846994Y-54021924D01*
X112024405Y-54112320D01*
X112213777Y-54173852D01*
X112410437Y-54205000D01*
X112609562Y-54205000D01*
X112609563Y-54205000D01*
X112806222Y-54173852D01*
X112995594Y-54112320D01*
X113173005Y-54021924D01*
X113210863Y-53994418D01*
X113210863Y-53994417D01*
X112773469Y-53557023D01*
X112739985Y-53495701D01*
X112744969Y-53426009D01*
X112786841Y-53370076D01*
X112799151Y-53361956D01*
X112799153Y-53361955D01*
X112823147Y-53348102D01*
X112918102Y-53253147D01*
X112931956Y-53229150D01*
X112982523Y-53180935D01*
X113051130Y-53167712D01*
X113115995Y-53193680D01*
X113127024Y-53203470D01*
X113564417Y-53640863D01*
X113564418Y-53640863D01*
X113591924Y-53603005D01*
X113682320Y-53425594D01*
X113743852Y-53236222D01*
X113775000Y-53039563D01*
X113775000Y-52840436D01*
X113743852Y-52643777D01*
X113682320Y-52454405D01*
X113591924Y-52276994D01*
X113500970Y-52151807D01*
X113484501Y-52120596D01*
X113480149Y-52108400D01*
X113476158Y-52038647D01*
X113510513Y-51977807D01*
X113567136Y-51946362D01*
X113576140Y-51944132D01*
X113605937Y-51940500D01*
X127138203Y-51940500D01*
X127173139Y-51945523D01*
G37*
%TD.AperFunction*%
%TD*%
%TA.AperFunction,Conductor*%
%TO.N,/GND*%
G36*
X124725407Y-58937919D02*
G01*
X124777472Y-58984514D01*
X124796080Y-59051860D01*
X124775324Y-59118575D01*
X124772415Y-59122758D01*
X124765378Y-59132443D01*
X124668904Y-59321782D01*
X124603242Y-59523869D01*
X124603242Y-59523872D01*
X124570000Y-59733753D01*
X124570000Y-59946246D01*
X124603242Y-60156127D01*
X124603242Y-60156130D01*
X124668904Y-60358217D01*
X124765375Y-60547550D01*
X124804728Y-60601716D01*
X125437037Y-59969408D01*
X125454075Y-60032993D01*
X125519901Y-60147007D01*
X125612993Y-60240099D01*
X125727007Y-60305925D01*
X125790590Y-60322962D01*
X125158282Y-60955269D01*
X125158282Y-60955270D01*
X125212449Y-60994624D01*
X125401782Y-61091095D01*
X125603870Y-61156757D01*
X125813754Y-61190000D01*
X126026246Y-61190000D01*
X126236127Y-61156757D01*
X126236130Y-61156757D01*
X126438217Y-61091095D01*
X126627554Y-60994622D01*
X126681716Y-60955270D01*
X126681717Y-60955270D01*
X126049408Y-60322962D01*
X126112993Y-60305925D01*
X126227007Y-60240099D01*
X126320099Y-60147007D01*
X126385925Y-60032993D01*
X126402962Y-59969408D01*
X127035270Y-60601717D01*
X127035270Y-60601716D01*
X127074622Y-60547554D01*
X127079514Y-60537954D01*
X127127488Y-60487157D01*
X127195308Y-60470361D01*
X127261444Y-60492897D01*
X127300486Y-60537954D01*
X127305375Y-60547550D01*
X127344728Y-60601716D01*
X127977037Y-59969408D01*
X127994075Y-60032993D01*
X128059901Y-60147007D01*
X128152993Y-60240099D01*
X128267007Y-60305925D01*
X128330590Y-60322962D01*
X127698282Y-60955269D01*
X127698282Y-60955270D01*
X127752449Y-60994624D01*
X127941782Y-61091095D01*
X128143870Y-61156757D01*
X128353754Y-61190000D01*
X128566246Y-61190000D01*
X128776127Y-61156757D01*
X128776130Y-61156757D01*
X128978217Y-61091095D01*
X129167554Y-60994622D01*
X129221716Y-60955270D01*
X129221717Y-60955270D01*
X128589408Y-60322962D01*
X128652993Y-60305925D01*
X128767007Y-60240099D01*
X128860099Y-60147007D01*
X128925925Y-60032993D01*
X128942962Y-59969409D01*
X129575270Y-60601717D01*
X129575270Y-60601716D01*
X129575682Y-60601151D01*
X129631012Y-60558486D01*
X129700626Y-60552507D01*
X129762421Y-60585113D01*
X129796778Y-60645952D01*
X129800000Y-60674037D01*
X129800000Y-62854791D01*
X129780315Y-62921830D01*
X129727511Y-62967585D01*
X129696197Y-62977135D01*
X125532209Y-63664524D01*
X125027482Y-63747844D01*
X125007287Y-63749500D01*
X113719632Y-63749500D01*
X113652593Y-63729815D01*
X113606838Y-63677011D01*
X113596894Y-63607853D01*
X113609147Y-63569205D01*
X113682320Y-63425594D01*
X113743852Y-63236222D01*
X113775000Y-63039563D01*
X113775000Y-62840436D01*
X113743852Y-62643777D01*
X113682320Y-62454405D01*
X113591924Y-62276994D01*
X113564417Y-62239135D01*
X113564417Y-62239134D01*
X113001127Y-62802423D01*
X112985245Y-62743147D01*
X112918102Y-62626853D01*
X112823147Y-62531898D01*
X112706853Y-62464755D01*
X112647574Y-62448871D01*
X113210864Y-61885581D01*
X113210863Y-61885580D01*
X113173008Y-61858077D01*
X112995594Y-61767679D01*
X112806222Y-61706147D01*
X112609563Y-61675000D01*
X112410437Y-61675000D01*
X112213777Y-61706147D01*
X112024405Y-61767679D01*
X111846990Y-61858077D01*
X111809135Y-61885580D01*
X111809135Y-61885581D01*
X112372425Y-62448871D01*
X112313147Y-62464755D01*
X112196853Y-62531898D01*
X112101898Y-62626853D01*
X112034755Y-62743147D01*
X112018871Y-62802425D01*
X111455581Y-62239135D01*
X111455580Y-62239135D01*
X111428077Y-62276990D01*
X111337677Y-62454407D01*
X111324134Y-62496089D01*
X111284696Y-62553764D01*
X111220337Y-62580961D01*
X111151490Y-62569045D01*
X111100015Y-62521800D01*
X111082213Y-62459302D01*
X111061364Y-60770552D01*
X111080220Y-60703277D01*
X111132455Y-60656874D01*
X111169672Y-60646020D01*
X113412416Y-60360138D01*
X113481405Y-60371188D01*
X113515775Y-60395462D01*
X113605582Y-60485269D01*
X113766734Y-60602353D01*
X113864023Y-60651924D01*
X113944219Y-60692786D01*
X114133657Y-60754338D01*
X114133658Y-60754338D01*
X114133661Y-60754339D01*
X114330403Y-60785500D01*
X114330404Y-60785500D01*
X114529596Y-60785500D01*
X114529597Y-60785500D01*
X114726339Y-60754339D01*
X114726342Y-60754338D01*
X114726343Y-60754338D01*
X114915780Y-60692786D01*
X114915780Y-60692785D01*
X114915783Y-60692785D01*
X115093266Y-60602353D01*
X115254418Y-60485269D01*
X115395269Y-60344418D01*
X115512353Y-60183266D01*
X115532069Y-60144570D01*
X115580039Y-60093777D01*
X115626866Y-60077863D01*
X119607561Y-59570445D01*
X119676549Y-59581495D01*
X119728614Y-59628090D01*
X119745711Y-59674052D01*
X119776148Y-59866222D01*
X119837679Y-60055594D01*
X119928077Y-60233008D01*
X119955580Y-60270863D01*
X119955580Y-60270864D01*
X120518871Y-59707572D01*
X120534755Y-59766853D01*
X120601898Y-59883147D01*
X120696853Y-59978102D01*
X120813147Y-60045245D01*
X120872425Y-60061128D01*
X120309134Y-60624417D01*
X120346994Y-60651924D01*
X120524405Y-60742320D01*
X120713777Y-60803852D01*
X120910437Y-60835000D01*
X121109563Y-60835000D01*
X121306220Y-60803852D01*
X121348607Y-60790080D01*
X121348608Y-60790079D01*
X121495594Y-60742320D01*
X121673005Y-60651924D01*
X121710863Y-60624418D01*
X121710863Y-60624417D01*
X121147574Y-60061128D01*
X121206853Y-60045245D01*
X121323147Y-59978102D01*
X121418102Y-59883147D01*
X121485245Y-59766853D01*
X121501128Y-59707574D01*
X122064417Y-60270863D01*
X122064418Y-60270863D01*
X122091924Y-60233005D01*
X122182320Y-60055594D01*
X122243852Y-59866222D01*
X122275000Y-59669563D01*
X122275000Y-59470537D01*
X122294685Y-59403498D01*
X122347489Y-59357743D01*
X122416647Y-59347799D01*
X122471887Y-59370220D01*
X122475915Y-59373147D01*
X122479737Y-59375924D01*
X122651064Y-59463220D01*
X122651067Y-59463221D01*
X122773056Y-59502857D01*
X122833939Y-59522639D01*
X123023857Y-59552720D01*
X123023858Y-59552720D01*
X123216142Y-59552720D01*
X123216143Y-59552720D01*
X123406061Y-59522639D01*
X123406064Y-59522638D01*
X123406065Y-59522638D01*
X123588932Y-59463221D01*
X123588935Y-59463220D01*
X123760263Y-59375924D01*
X123915825Y-59262902D01*
X124051792Y-59126935D01*
X124118781Y-59034731D01*
X124174110Y-58992066D01*
X124203411Y-58984614D01*
X124656419Y-58926869D01*
X124725407Y-58937919D01*
G37*
%TD.AperFunction*%
%TA.AperFunction,Conductor*%
G36*
X127630767Y-58567574D02*
G01*
X127682832Y-58614169D01*
X127701440Y-58681515D01*
X127701074Y-58689258D01*
X127698282Y-58724728D01*
X128330591Y-59357037D01*
X128267007Y-59374075D01*
X128152993Y-59439901D01*
X128059901Y-59532993D01*
X127994075Y-59647007D01*
X127977037Y-59710591D01*
X127344728Y-59078282D01*
X127344727Y-59078282D01*
X127305380Y-59132440D01*
X127300483Y-59142051D01*
X127252506Y-59192845D01*
X127184684Y-59209638D01*
X127118550Y-59187098D01*
X127079516Y-59142048D01*
X127074626Y-59132452D01*
X127035270Y-59078282D01*
X127035269Y-59078282D01*
X126402962Y-59710590D01*
X126385925Y-59647007D01*
X126320099Y-59532993D01*
X126227007Y-59439901D01*
X126112993Y-59374075D01*
X126049408Y-59357037D01*
X126718456Y-58687988D01*
X126775711Y-58656723D01*
X126788974Y-58655033D01*
X126795247Y-58655395D01*
X126795102Y-58654252D01*
X127561778Y-58556524D01*
X127630767Y-58567574D01*
G37*
%TD.AperFunction*%
%TA.AperFunction,Conductor*%
G36*
X129619169Y-58308460D02*
G01*
X129638819Y-58311608D01*
X129650552Y-58322108D01*
X129664994Y-58328389D01*
X129688587Y-58354638D01*
X129696634Y-58366672D01*
X129706204Y-58392331D01*
X129777246Y-58487231D01*
X129779079Y-58489972D01*
X129788582Y-58520286D01*
X129799684Y-58550050D01*
X129798958Y-58553384D01*
X129799980Y-58556643D01*
X129800000Y-58558897D01*
X129800000Y-59005962D01*
X129780315Y-59073001D01*
X129727511Y-59118756D01*
X129658353Y-59128700D01*
X129594797Y-59099675D01*
X129575682Y-59078847D01*
X129575271Y-59078282D01*
X129575269Y-59078282D01*
X128942962Y-59710590D01*
X128925925Y-59647007D01*
X128860099Y-59532993D01*
X128767007Y-59439901D01*
X128652993Y-59374075D01*
X128589409Y-59357037D01*
X129221716Y-58724728D01*
X129167547Y-58685373D01*
X129167547Y-58685372D01*
X129158500Y-58680763D01*
X129107706Y-58632788D01*
X129090912Y-58564966D01*
X129113451Y-58498832D01*
X129158508Y-58459793D01*
X129167816Y-58455051D01*
X129314466Y-58348503D01*
X129371668Y-58325818D01*
X129569831Y-58300558D01*
X129585379Y-58303048D01*
X129600921Y-58300525D01*
X129619169Y-58308460D01*
G37*
%TD.AperFunction*%
%TD*%
%TA.AperFunction,Conductor*%
%TO.N,/DeployerDetectionSWOUT*%
G36*
X146395717Y-57649657D02*
G01*
X146743191Y-57758772D01*
X147773248Y-58082236D01*
X147780114Y-58087984D01*
X147780907Y-58096896D01*
X147524199Y-58916254D01*
X147518455Y-58923124D01*
X147516201Y-58924019D01*
X146733716Y-59144029D01*
X146724824Y-59142970D01*
X146719507Y-59136633D01*
X146645047Y-58924019D01*
X146249963Y-57795892D01*
X146250462Y-57786953D01*
X146252729Y-57783757D01*
X146383940Y-57652546D01*
X146392212Y-57649120D01*
X146395717Y-57649657D01*
G37*
%TD.AperFunction*%
%TD*%
%TA.AperFunction,Conductor*%
%TO.N,/DeployerDetectionSWIN*%
G36*
X136981687Y-58159545D02*
G01*
X137379481Y-58894430D01*
X137380406Y-58903337D01*
X137379481Y-58905570D01*
X136981687Y-59640454D01*
X136974735Y-59646098D01*
X136966152Y-59645342D01*
X135686151Y-59003237D01*
X135680293Y-58996464D01*
X135679697Y-58992779D01*
X135679697Y-58807220D01*
X135683124Y-58798947D01*
X135686149Y-58796763D01*
X136966154Y-58154656D01*
X136975083Y-58154011D01*
X136981687Y-58159545D01*
G37*
%TD.AperFunction*%
%TD*%
M02*
