ISO-10303-21;
HEADER;
/* Generated by software containing ST-Developer
 * from STEP Tools, Inc. (www.steptools.com) 
 */

FILE_DESCRIPTION(
/* description */ (''),
/* implementation_level */ '2;1');

FILE_NAME(
/* name */ 'Mod4_1.step',
/* time_stamp */ '2026-06-16T16:55:54+05:30',
/* author */ (''),
/* organization */ (''),
/* preprocessor_version */ 'ST-DEVELOPER v20.1',
/* originating_system */ 'Autodesk Translation Framework v15.8.0.0',
/* authorisation */ '');

FILE_SCHEMA (('AUTOMOTIVE_DESIGN { 1 0 10303 214 3 1 1 }'));
ENDSEC;

DATA;
#10=MECHANICAL_DESIGN_GEOMETRIC_PRESENTATION_REPRESENTATION('',(#35,#36,
#37,#38,#39,#40,#41,#42,#43,#44,#45,#46,#47,#48,#49),#2007);
#11=ITEM_DEFINED_TRANSFORMATION($,$,#1248,#1339);
#12=ITEM_DEFINED_TRANSFORMATION($,$,#1272,#1340);
#13=ITEM_DEFINED_TRANSFORMATION($,$,#1285,#1341);
#14=ITEM_DEFINED_TRANSFORMATION($,$,#1330,#1342);
#15=(
REPRESENTATION_RELATIONSHIP($,$,#2027,#2026)
REPRESENTATION_RELATIONSHIP_WITH_TRANSFORMATION(#11)
SHAPE_REPRESENTATION_RELATIONSHIP()
);
#16=(
REPRESENTATION_RELATIONSHIP($,$,#2028,#2026)
REPRESENTATION_RELATIONSHIP_WITH_TRANSFORMATION(#12)
SHAPE_REPRESENTATION_RELATIONSHIP()
);
#17=(
REPRESENTATION_RELATIONSHIP($,$,#2029,#2026)
REPRESENTATION_RELATIONSHIP_WITH_TRANSFORMATION(#13)
SHAPE_REPRESENTATION_RELATIONSHIP()
);
#18=(
REPRESENTATION_RELATIONSHIP($,$,#2030,#2026)
REPRESENTATION_RELATIONSHIP_WITH_TRANSFORMATION(#14)
SHAPE_REPRESENTATION_RELATIONSHIP()
);
#19=CONTEXT_DEPENDENT_SHAPE_REPRESENTATION(#15,#2022);
#20=CONTEXT_DEPENDENT_SHAPE_REPRESENTATION(#16,#2023);
#21=CONTEXT_DEPENDENT_SHAPE_REPRESENTATION(#17,#2024);
#22=CONTEXT_DEPENDENT_SHAPE_REPRESENTATION(#18,#2025);
#23=NEXT_ASSEMBLY_USAGE_OCCURRENCE('Mod4p3:1','Mod4p3:1','Mod4p3:1',#2032,
#2033,'Mod4p3:1');
#24=NEXT_ASSEMBLY_USAGE_OCCURRENCE('Copperfoil^Mod4:1',
'Copperfoil^Mod4:1','Copperfoil^Mod4:1',#2032,#2034,'Copperfoil^Mod4:1');
#25=NEXT_ASSEMBLY_USAGE_OCCURRENCE('d2f-01l:1','d2f-01l:1','d2f-01l:1',
#2032,#2035,'d2f-01l:1');
#26=NEXT_ASSEMBLY_USAGE_OCCURRENCE('Part1^Mod4:1','Part1^Mod4:1',
'Part1^Mod4:1',#2032,#2036,'Part1^Mod4:1');
#27=SHAPE_REPRESENTATION_RELATIONSHIP('SRR','None',#2027,#31);
#28=SHAPE_REPRESENTATION_RELATIONSHIP('SRR','None',#2028,#32);
#29=SHAPE_REPRESENTATION_RELATIONSHIP('SRR','None',#2029,#33);
#30=SHAPE_REPRESENTATION_RELATIONSHIP('SRR','None',#2030,#34);
#31=ADVANCED_BREP_SHAPE_REPRESENTATION('',(#50),#2003);
#32=ADVANCED_BREP_SHAPE_REPRESENTATION('',(#51),#2004);
#33=ADVANCED_BREP_SHAPE_REPRESENTATION('',(#52),#2005);
#34=ADVANCED_BREP_SHAPE_REPRESENTATION('',(#53),#2006);
#35=STYLED_ITEM('',(#2055),#50);
#36=STYLED_ITEM('',(#2056),#51);
#37=STYLED_ITEM('',(#2058),#1154);
#38=STYLED_ITEM('',(#2058),#1155);
#39=STYLED_ITEM('',(#2058),#1156);
#40=STYLED_ITEM('',(#2058),#1157);
#41=STYLED_ITEM('',(#2058),#1158);
#42=STYLED_ITEM('',(#2058),#1159);
#43=STYLED_ITEM('',(#2058),#1160);
#44=STYLED_ITEM('',(#2058),#1161);
#45=STYLED_ITEM('',(#2058),#1162);
#46=STYLED_ITEM('',(#2058),#1163);
#47=STYLED_ITEM('',(#2058),#1164);
#48=STYLED_ITEM('',(#2057),#52);
#49=STYLED_ITEM('',(#2059),#53);
#50=MANIFOLD_SOLID_BREP('Body1',#1198);
#51=MANIFOLD_SOLID_BREP('Body1',#1199);
#52=MANIFOLD_SOLID_BREP('Body1',#1200);
#53=MANIFOLD_SOLID_BREP('Body1',#1201);
#54=CONICAL_SURFACE('',#1266,3.15,0.785398163397449);
#55=CONICAL_SURFACE('',#1271,3.15,0.785398163397448);
#56=CYLINDRICAL_SURFACE('',#1264,1.5);
#57=CYLINDRICAL_SURFACE('',#1265,1.5);
#58=CYLINDRICAL_SURFACE('',#1268,1.6);
#59=CYLINDRICAL_SURFACE('',#1269,1.6);
#60=CYLINDRICAL_SURFACE('',#1283,1.5);
#61=CYLINDRICAL_SURFACE('',#1284,1.5);
#62=CYLINDRICAL_SURFACE('',#1298,1.);
#63=CYLINDRICAL_SURFACE('',#1299,1.1);
#64=CYLINDRICAL_SURFACE('',#1301,1.1);
#65=CYLINDRICAL_SURFACE('',#1327,0.61);
#66=(
BOUNDED_CURVE()
B_SPLINE_CURVE(2,(#1691,#1692,#1693),.UNSPECIFIED.,.F.,.F.)
B_SPLINE_CURVE_WITH_KNOTS((3,3),(0.225828793347709,0.364594783417312),
 .UNSPECIFIED.)
CURVE()
GEOMETRIC_REPRESENTATION_ITEM()
RATIONAL_B_SPLINE_CURVE((1.16,1.17870967741935,1.16))
REPRESENTATION_ITEM('')
);
#67=FACE_BOUND('',#176,.T.);
#68=FACE_BOUND('',#177,.T.);
#69=FACE_BOUND('',#180,.T.);
#70=FACE_BOUND('',#182,.T.);
#71=FACE_BOUND('',#183,.T.);
#72=FACE_BOUND('',#185,.T.);
#73=FACE_BOUND('',#186,.T.);
#74=FACE_BOUND('',#198,.T.);
#75=FACE_BOUND('',#199,.T.);
#76=FACE_BOUND('',#201,.T.);
#77=FACE_BOUND('',#202,.T.);
#78=FACE_BOUND('',#207,.T.);
#79=FACE_BOUND('',#208,.T.);
#80=FACE_BOUND('',#211,.T.);
#81=FACE_BOUND('',#212,.T.);
#82=FACE_BOUND('',#213,.T.);
#83=FACE_BOUND('',#215,.T.);
#84=FACE_BOUND('',#216,.T.);
#85=FACE_BOUND('',#218,.T.);
#86=FACE_BOUND('',#219,.T.);
#87=CIRCLE('',#1251,1.6);
#88=CIRCLE('',#1252,1.6);
#89=CIRCLE('',#1255,3.15);
#90=CIRCLE('',#1256,3.15);
#91=CIRCLE('',#1257,3.15);
#92=CIRCLE('',#1259,1.5);
#93=CIRCLE('',#1260,1.5);
#94=CIRCLE('',#1262,1.5);
#95=CIRCLE('',#1263,1.5);
#96=CIRCLE('',#1267,1.6);
#97=CIRCLE('',#1270,1.6);
#98=CIRCLE('',#1278,1.5);
#99=CIRCLE('',#1279,1.5);
#100=CIRCLE('',#1281,1.5);
#101=CIRCLE('',#1282,1.5);
#102=CIRCLE('',#1291,1.);
#103=CIRCLE('',#1292,1.1);
#104=CIRCLE('',#1293,1.1);
#105=CIRCLE('',#1295,1.);
#106=CIRCLE('',#1296,1.1);
#107=CIRCLE('',#1297,1.1);
#108=CIRCLE('',#1326,0.61);
#109=CIRCLE('',#1328,0.61);
#110=FACE_OUTER_BOUND('',#174,.T.);
#111=FACE_OUTER_BOUND('',#175,.T.);
#112=FACE_OUTER_BOUND('',#178,.T.);
#113=FACE_OUTER_BOUND('',#179,.T.);
#114=FACE_OUTER_BOUND('',#181,.T.);
#115=FACE_OUTER_BOUND('',#184,.T.);
#116=FACE_OUTER_BOUND('',#187,.T.);
#117=FACE_OUTER_BOUND('',#188,.T.);
#118=FACE_OUTER_BOUND('',#189,.T.);
#119=FACE_OUTER_BOUND('',#190,.T.);
#120=FACE_OUTER_BOUND('',#191,.T.);
#121=FACE_OUTER_BOUND('',#192,.T.);
#122=FACE_OUTER_BOUND('',#193,.T.);
#123=FACE_OUTER_BOUND('',#194,.T.);
#124=FACE_OUTER_BOUND('',#195,.T.);
#125=FACE_OUTER_BOUND('',#196,.T.);
#126=FACE_OUTER_BOUND('',#197,.T.);
#127=FACE_OUTER_BOUND('',#200,.T.);
#128=FACE_OUTER_BOUND('',#203,.T.);
#129=FACE_OUTER_BOUND('',#204,.T.);
#130=FACE_OUTER_BOUND('',#205,.T.);
#131=FACE_OUTER_BOUND('',#206,.T.);
#132=FACE_OUTER_BOUND('',#209,.T.);
#133=FACE_OUTER_BOUND('',#210,.T.);
#134=FACE_OUTER_BOUND('',#214,.T.);
#135=FACE_OUTER_BOUND('',#217,.T.);
#136=FACE_OUTER_BOUND('',#220,.T.);
#137=FACE_OUTER_BOUND('',#221,.T.);
#138=FACE_OUTER_BOUND('',#222,.T.);
#139=FACE_OUTER_BOUND('',#223,.T.);
#140=FACE_OUTER_BOUND('',#224,.T.);
#141=FACE_OUTER_BOUND('',#225,.T.);
#142=FACE_OUTER_BOUND('',#226,.T.);
#143=FACE_OUTER_BOUND('',#227,.T.);
#144=FACE_OUTER_BOUND('',#228,.T.);
#145=FACE_OUTER_BOUND('',#229,.T.);
#146=FACE_OUTER_BOUND('',#230,.T.);
#147=FACE_OUTER_BOUND('',#231,.T.);
#148=FACE_OUTER_BOUND('',#232,.T.);
#149=FACE_OUTER_BOUND('',#233,.T.);
#150=FACE_OUTER_BOUND('',#234,.T.);
#151=FACE_OUTER_BOUND('',#235,.T.);
#152=FACE_OUTER_BOUND('',#236,.T.);
#153=FACE_OUTER_BOUND('',#237,.T.);
#154=FACE_OUTER_BOUND('',#238,.T.);
#155=FACE_OUTER_BOUND('',#239,.T.);
#156=FACE_OUTER_BOUND('',#240,.T.);
#157=FACE_OUTER_BOUND('',#241,.T.);
#158=FACE_OUTER_BOUND('',#242,.T.);
#159=FACE_OUTER_BOUND('',#243,.T.);
#160=FACE_OUTER_BOUND('',#244,.T.);
#161=FACE_OUTER_BOUND('',#245,.T.);
#162=FACE_OUTER_BOUND('',#246,.T.);
#163=FACE_OUTER_BOUND('',#247,.T.);
#164=FACE_OUTER_BOUND('',#248,.T.);
#165=FACE_OUTER_BOUND('',#249,.T.);
#166=FACE_OUTER_BOUND('',#250,.T.);
#167=FACE_OUTER_BOUND('',#251,.T.);
#168=FACE_OUTER_BOUND('',#252,.T.);
#169=FACE_OUTER_BOUND('',#253,.T.);
#170=FACE_OUTER_BOUND('',#254,.T.);
#171=FACE_OUTER_BOUND('',#255,.T.);
#172=FACE_OUTER_BOUND('',#256,.T.);
#173=FACE_OUTER_BOUND('',#257,.T.);
#174=EDGE_LOOP('',(#774,#775,#776,#777));
#175=EDGE_LOOP('',(#778,#779,#780,#781));
#176=EDGE_LOOP('',(#782));
#177=EDGE_LOOP('',(#783));
#178=EDGE_LOOP('',(#784,#785,#786,#787,#788,#789));
#179=EDGE_LOOP('',(#790,#791,#792,#793,#794,#795,#796));
#180=EDGE_LOOP('',(#797));
#181=EDGE_LOOP('',(#798,#799,#800,#801));
#182=EDGE_LOOP('',(#802));
#183=EDGE_LOOP('',(#803));
#184=EDGE_LOOP('',(#804,#805,#806,#807));
#185=EDGE_LOOP('',(#808));
#186=EDGE_LOOP('',(#809));
#187=EDGE_LOOP('',(#810,#811,#812,#813));
#188=EDGE_LOOP('',(#814,#815,#816,#817));
#189=EDGE_LOOP('',(#818,#819,#820,#821,#822,#823));
#190=EDGE_LOOP('',(#824,#825,#826,#827));
#191=EDGE_LOOP('',(#828,#829,#830,#831));
#192=EDGE_LOOP('',(#832,#833,#834,#835));
#193=EDGE_LOOP('',(#836,#837,#838,#839));
#194=EDGE_LOOP('',(#840,#841,#842,#843));
#195=EDGE_LOOP('',(#844,#845,#846,#847));
#196=EDGE_LOOP('',(#848,#849,#850,#851));
#197=EDGE_LOOP('',(#852,#853,#854,#855));
#198=EDGE_LOOP('',(#856));
#199=EDGE_LOOP('',(#857));
#200=EDGE_LOOP('',(#858,#859,#860,#861));
#201=EDGE_LOOP('',(#862));
#202=EDGE_LOOP('',(#863));
#203=EDGE_LOOP('',(#864,#865,#866,#867));
#204=EDGE_LOOP('',(#868,#869,#870,#871));
#205=EDGE_LOOP('',(#872,#873,#874,#875));
#206=EDGE_LOOP('',(#876,#877,#878,#879));
#207=EDGE_LOOP('',(#880,#881,#882,#883));
#208=EDGE_LOOP('',(#884,#885,#886,#887));
#209=EDGE_LOOP('',(#888,#889,#890,#891));
#210=EDGE_LOOP('',(#892,#893,#894,#895));
#211=EDGE_LOOP('',(#896,#897,#898,#899));
#212=EDGE_LOOP('',(#900,#901,#902,#903));
#213=EDGE_LOOP('',(#904,#905,#906,#907));
#214=EDGE_LOOP('',(#908,#909,#910,#911));
#215=EDGE_LOOP('',(#912));
#216=EDGE_LOOP('',(#913,#914,#915,#916));
#217=EDGE_LOOP('',(#917,#918,#919,#920));
#218=EDGE_LOOP('',(#921));
#219=EDGE_LOOP('',(#922,#923,#924,#925));
#220=EDGE_LOOP('',(#926,#927,#928,#929));
#221=EDGE_LOOP('',(#930,#931,#932,#933));
#222=EDGE_LOOP('',(#934,#935,#936,#937));
#223=EDGE_LOOP('',(#938,#939,#940,#941));
#224=EDGE_LOOP('',(#942,#943,#944,#945));
#225=EDGE_LOOP('',(#946,#947,#948,#949,#950,#951));
#226=EDGE_LOOP('',(#952,#953,#954,#955));
#227=EDGE_LOOP('',(#956,#957,#958,#959));
#228=EDGE_LOOP('',(#960,#961,#962,#963));
#229=EDGE_LOOP('',(#964,#965,#966,#967));
#230=EDGE_LOOP('',(#968,#969,#970,#971));
#231=EDGE_LOOP('',(#972,#973,#974,#975,#976,#977));
#232=EDGE_LOOP('',(#978,#979,#980,#981));
#233=EDGE_LOOP('',(#982,#983,#984,#985));
#234=EDGE_LOOP('',(#986,#987,#988,#989));
#235=EDGE_LOOP('',(#990,#991,#992,#993));
#236=EDGE_LOOP('',(#994,#995,#996,#997));
#237=EDGE_LOOP('',(#998,#999,#1000,#1001));
#238=EDGE_LOOP('',(#1002,#1003,#1004,#1005));
#239=EDGE_LOOP('',(#1006,#1007,#1008,#1009));
#240=EDGE_LOOP('',(#1010,#1011,#1012,#1013));
#241=EDGE_LOOP('',(#1014,#1015,#1016,#1017));
#242=EDGE_LOOP('',(#1018,#1019,#1020,#1021));
#243=EDGE_LOOP('',(#1022,#1023,#1024,#1025));
#244=EDGE_LOOP('',(#1026,#1027,#1028,#1029));
#245=EDGE_LOOP('',(#1030,#1031,#1032,#1033));
#246=EDGE_LOOP('',(#1034,#1035,#1036,#1037));
#247=EDGE_LOOP('',(#1038,#1039));
#248=EDGE_LOOP('',(#1040,#1041,#1042,#1043));
#249=EDGE_LOOP('',(#1044,#1045));
#250=EDGE_LOOP('',(#1046,#1047,#1048,#1049));
#251=EDGE_LOOP('',(#1050,#1051,#1052,#1053));
#252=EDGE_LOOP('',(#1054,#1055,#1056,#1057));
#253=EDGE_LOOP('',(#1058,#1059,#1060,#1061));
#254=EDGE_LOOP('',(#1062,#1063,#1064,#1065));
#255=EDGE_LOOP('',(#1066,#1067,#1068,#1069));
#256=EDGE_LOOP('',(#1070,#1071,#1072,#1073,#1074,#1075));
#257=EDGE_LOOP('',(#1076,#1077,#1078,#1079,#1080,#1081));
#258=LINE('',#1670,#388);
#259=LINE('',#1672,#389);
#260=LINE('',#1674,#390);
#261=LINE('',#1675,#391);
#262=LINE('',#1678,#392);
#263=LINE('',#1680,#393);
#264=LINE('',#1681,#394);
#265=LINE('',#1689,#395);
#266=LINE('',#1695,#396);
#267=LINE('',#1696,#397);
#268=LINE('',#1697,#398);
#269=LINE('',#1702,#399);
#270=LINE('',#1703,#400);
#271=LINE('',#1717,#401);
#272=LINE('',#1719,#402);
#273=LINE('',#1723,#403);
#274=LINE('',#1725,#404);
#275=LINE('',#1728,#405);
#276=LINE('',#1731,#406);
#277=LINE('',#1736,#407);
#278=LINE('',#1738,#408);
#279=LINE('',#1740,#409);
#280=LINE('',#1741,#410);
#281=LINE('',#1744,#411);
#282=LINE('',#1746,#412);
#283=LINE('',#1747,#413);
#284=LINE('',#1750,#414);
#285=LINE('',#1752,#415);
#286=LINE('',#1753,#416);
#287=LINE('',#1755,#417);
#288=LINE('',#1756,#418);
#289=LINE('',#1768,#419);
#290=LINE('',#1770,#420);
#291=LINE('',#1775,#421);
#292=LINE('',#1777,#422);
#293=LINE('',#1779,#423);
#294=LINE('',#1780,#424);
#295=LINE('',#1783,#425);
#296=LINE('',#1785,#426);
#297=LINE('',#1786,#427);
#298=LINE('',#1789,#428);
#299=LINE('',#1791,#429);
#300=LINE('',#1793,#430);
#301=LINE('',#1794,#431);
#302=LINE('',#1797,#432);
#303=LINE('',#1799,#433);
#304=LINE('',#1801,#434);
#305=LINE('',#1802,#435);
#306=LINE('',#1805,#436);
#307=LINE('',#1807,#437);
#308=LINE('',#1808,#438);
#309=LINE('',#1810,#439);
#310=LINE('',#1811,#440);
#311=LINE('',#1814,#441);
#312=LINE('',#1816,#442);
#313=LINE('',#1818,#443);
#314=LINE('',#1819,#444);
#315=LINE('',#1822,#445);
#316=LINE('',#1824,#446);
#317=LINE('',#1826,#447);
#318=LINE('',#1827,#448);
#319=LINE('',#1830,#449);
#320=LINE('',#1832,#450);
#321=LINE('',#1834,#451);
#322=LINE('',#1835,#452);
#323=LINE('',#1841,#453);
#324=LINE('',#1845,#454);
#325=LINE('',#1852,#455);
#326=LINE('',#1856,#456);
#327=LINE('',#1859,#457);
#328=LINE('',#1861,#458);
#329=LINE('',#1862,#459);
#330=LINE('',#1864,#460);
#331=LINE('',#1866,#461);
#332=LINE('',#1870,#462);
#333=LINE('',#1872,#463);
#334=LINE('',#1874,#464);
#335=LINE('',#1876,#465);
#336=LINE('',#1877,#466);
#337=LINE('',#1880,#467);
#338=LINE('',#1882,#468);
#339=LINE('',#1883,#469);
#340=LINE('',#1886,#470);
#341=LINE('',#1887,#471);
#342=LINE('',#1890,#472);
#343=LINE('',#1891,#473);
#344=LINE('',#1893,#474);
#345=LINE('',#1895,#475);
#346=LINE('',#1899,#476);
#347=LINE('',#1901,#477);
#348=LINE('',#1902,#478);
#349=LINE('',#1906,#479);
#350=LINE('',#1907,#480);
#351=LINE('',#1908,#481);
#352=LINE('',#1910,#482);
#353=LINE('',#1912,#483);
#354=LINE('',#1916,#484);
#355=LINE('',#1918,#485);
#356=LINE('',#1919,#486);
#357=LINE('',#1923,#487);
#358=LINE('',#1924,#488);
#359=LINE('',#1925,#489);
#360=LINE('',#1927,#490);
#361=LINE('',#1929,#491);
#362=LINE('',#1933,#492);
#363=LINE('',#1935,#493);
#364=LINE('',#1936,#494);
#365=LINE('',#1940,#495);
#366=LINE('',#1941,#496);
#367=LINE('',#1942,#497);
#368=LINE('',#1944,#498);
#369=LINE('',#1946,#499);
#370=LINE('',#1957,#500);
#371=LINE('',#1959,#501);
#372=LINE('',#1961,#502);
#373=LINE('',#1962,#503);
#374=LINE('',#1965,#504);
#375=LINE('',#1967,#505);
#376=LINE('',#1968,#506);
#377=LINE('',#1971,#507);
#378=LINE('',#1973,#508);
#379=LINE('',#1974,#509);
#380=LINE('',#1977,#510);
#381=LINE('',#1979,#511);
#382=LINE('',#1980,#512);
#383=LINE('',#1983,#513);
#384=LINE('',#1985,#514);
#385=LINE('',#1986,#515);
#386=LINE('',#1988,#516);
#387=LINE('',#1989,#517);
#388=VECTOR('',#1349,11.);
#389=VECTOR('',#1350,6.5);
#390=VECTOR('',#1351,11.);
#391=VECTOR('',#1352,6.5);
#392=VECTOR('',#1355,20.);
#393=VECTOR('',#1356,6.5);
#394=VECTOR('',#1357,20.);
#395=VECTOR('',#1364,2.69098300562506);
#396=VECTOR('',#1365,2.69098300562506);
#397=VECTOR('',#1366,11.);
#398=VECTOR('',#1367,11.);
#399=VECTOR('',#1374,20.);
#400=VECTOR('',#1375,20.);
#401=VECTOR('',#1392,1.5);
#402=VECTOR('',#1395,1.5);
#403=VECTOR('',#1400,3.15);
#404=VECTOR('',#1403,1.6);
#405=VECTOR('',#1406,1.6);
#406=VECTOR('',#1411,3.15);
#407=VECTOR('',#1416,11.);
#408=VECTOR('',#1417,0.25);
#409=VECTOR('',#1418,11.);
#410=VECTOR('',#1419,0.25);
#411=VECTOR('',#1422,25.);
#412=VECTOR('',#1423,0.25);
#413=VECTOR('',#1424,25.);
#414=VECTOR('',#1427,11.);
#415=VECTOR('',#1428,0.25);
#416=VECTOR('',#1429,11.);
#417=VECTOR('',#1432,25.);
#418=VECTOR('',#1433,25.);
#419=VECTOR('',#1448,1.5);
#420=VECTOR('',#1451,1.5);
#421=VECTOR('',#1456,5.8);
#422=VECTOR('',#1457,6.5);
#423=VECTOR('',#1458,5.8);
#424=VECTOR('',#1459,6.5);
#425=VECTOR('',#1462,12.8);
#426=VECTOR('',#1463,5.8);
#427=VECTOR('',#1464,12.8);
#428=VECTOR('',#1465,3.);
#429=VECTOR('',#1466,0.30000400896169);
#430=VECTOR('',#1467,3.);
#431=VECTOR('',#1468,0.30000400896169);
#432=VECTOR('',#1469,2.9);
#433=VECTOR('',#1470,1.2);
#434=VECTOR('',#1471,2.9);
#435=VECTOR('',#1472,1.2);
#436=VECTOR('',#1475,6.5);
#437=VECTOR('',#1476,5.8);
#438=VECTOR('',#1477,6.5);
#439=VECTOR('',#1480,12.8);
#440=VECTOR('',#1481,12.8);
#441=VECTOR('',#1482,0.900000000000001);
#442=VECTOR('',#1483,0.4);
#443=VECTOR('',#1484,0.900000000000001);
#444=VECTOR('',#1485,0.4);
#445=VECTOR('',#1486,0.9);
#446=VECTOR('',#1487,0.4);
#447=VECTOR('',#1488,0.9);
#448=VECTOR('',#1489,0.4);
#449=VECTOR('',#1490,0.900000000000001);
#450=VECTOR('',#1491,0.4);
#451=VECTOR('',#1492,0.900000000000001);
#452=VECTOR('',#1493,0.4);
#453=VECTOR('',#1498,0.91651513899117);
#454=VECTOR('',#1501,0.91651513899117);
#455=VECTOR('',#1508,0.91651513899117);
#456=VECTOR('',#1511,0.91651513899117);
#457=VECTOR('',#1516,1.);
#458=VECTOR('',#1519,5.8);
#459=VECTOR('',#1520,5.8);
#460=VECTOR('',#1523,5.8);
#461=VECTOR('',#1526,5.8);
#462=VECTOR('',#1531,0.144970023035182);
#463=VECTOR('',#1532,12.5949700231126);
#464=VECTOR('',#1533,0.299999999999984);
#465=VECTOR('',#1534,12.8);
#466=VECTOR('',#1535,0.349990084180675);
#467=VECTOR('',#1538,3.);
#468=VECTOR('',#1539,12.5949700231126);
#469=VECTOR('',#1540,3.);
#470=VECTOR('',#1543,0.299999999999984);
#471=VECTOR('',#1544,3.);
#472=VECTOR('',#1547,12.8);
#473=VECTOR('',#1548,3.);
#474=VECTOR('',#1551,0.144970023035182);
#475=VECTOR('',#1554,0.349990084180675);
#476=VECTOR('',#1559,3.5);
#477=VECTOR('',#1560,0.4);
#478=VECTOR('',#1561,3.5);
#479=VECTOR('',#1564,0.4);
#480=VECTOR('',#1565,0.900000000000001);
#481=VECTOR('',#1566,0.900000000000001);
#482=VECTOR('',#1569,3.5);
#483=VECTOR('',#1572,3.5);
#484=VECTOR('',#1577,3.5);
#485=VECTOR('',#1578,0.4);
#486=VECTOR('',#1579,3.5);
#487=VECTOR('',#1582,0.4);
#488=VECTOR('',#1583,0.9);
#489=VECTOR('',#1584,0.9);
#490=VECTOR('',#1587,3.5);
#491=VECTOR('',#1590,3.5);
#492=VECTOR('',#1595,3.5);
#493=VECTOR('',#1596,0.4);
#494=VECTOR('',#1597,3.5);
#495=VECTOR('',#1600,0.4);
#496=VECTOR('',#1601,0.900000000000001);
#497=VECTOR('',#1602,0.900000000000001);
#498=VECTOR('',#1605,3.5);
#499=VECTOR('',#1608,3.5);
#500=VECTOR('',#1625,12.8);
#501=VECTOR('',#1626,1.57);
#502=VECTOR('',#1627,12.8);
#503=VECTOR('',#1628,1.57);
#504=VECTOR('',#1631,2.6);
#505=VECTOR('',#1632,1.57);
#506=VECTOR('',#1633,2.6);
#507=VECTOR('',#1636,26.2);
#508=VECTOR('',#1637,1.57);
#509=VECTOR('',#1638,26.2);
#510=VECTOR('',#1641,11.);
#511=VECTOR('',#1642,1.57);
#512=VECTOR('',#1643,11.);
#513=VECTOR('',#1646,39.);
#514=VECTOR('',#1647,1.57);
#515=VECTOR('',#1648,39.);
#516=VECTOR('',#1651,8.4);
#517=VECTOR('',#1652,8.4);
#518=VERTEX_POINT('',#1668);
#519=VERTEX_POINT('',#1669);
#520=VERTEX_POINT('',#1671);
#521=VERTEX_POINT('',#1673);
#522=VERTEX_POINT('',#1677);
#523=VERTEX_POINT('',#1679);
#524=VERTEX_POINT('',#1682);
#525=VERTEX_POINT('',#1684);
#526=VERTEX_POINT('',#1687);
#527=VERTEX_POINT('',#1688);
#528=VERTEX_POINT('',#1690);
#529=VERTEX_POINT('',#1694);
#530=VERTEX_POINT('',#1699);
#531=VERTEX_POINT('',#1704);
#532=VERTEX_POINT('',#1707);
#533=VERTEX_POINT('',#1709);
#534=VERTEX_POINT('',#1712);
#535=VERTEX_POINT('',#1714);
#536=VERTEX_POINT('',#1721);
#537=VERTEX_POINT('',#1727);
#538=VERTEX_POINT('',#1734);
#539=VERTEX_POINT('',#1735);
#540=VERTEX_POINT('',#1737);
#541=VERTEX_POINT('',#1739);
#542=VERTEX_POINT('',#1743);
#543=VERTEX_POINT('',#1745);
#544=VERTEX_POINT('',#1749);
#545=VERTEX_POINT('',#1751);
#546=VERTEX_POINT('',#1758);
#547=VERTEX_POINT('',#1760);
#548=VERTEX_POINT('',#1763);
#549=VERTEX_POINT('',#1765);
#550=VERTEX_POINT('',#1773);
#551=VERTEX_POINT('',#1774);
#552=VERTEX_POINT('',#1776);
#553=VERTEX_POINT('',#1778);
#554=VERTEX_POINT('',#1782);
#555=VERTEX_POINT('',#1784);
#556=VERTEX_POINT('',#1787);
#557=VERTEX_POINT('',#1788);
#558=VERTEX_POINT('',#1790);
#559=VERTEX_POINT('',#1792);
#560=VERTEX_POINT('',#1795);
#561=VERTEX_POINT('',#1796);
#562=VERTEX_POINT('',#1798);
#563=VERTEX_POINT('',#1800);
#564=VERTEX_POINT('',#1804);
#565=VERTEX_POINT('',#1806);
#566=VERTEX_POINT('',#1812);
#567=VERTEX_POINT('',#1813);
#568=VERTEX_POINT('',#1815);
#569=VERTEX_POINT('',#1817);
#570=VERTEX_POINT('',#1820);
#571=VERTEX_POINT('',#1821);
#572=VERTEX_POINT('',#1823);
#573=VERTEX_POINT('',#1825);
#574=VERTEX_POINT('',#1828);
#575=VERTEX_POINT('',#1829);
#576=VERTEX_POINT('',#1831);
#577=VERTEX_POINT('',#1833);
#578=VERTEX_POINT('',#1837);
#579=VERTEX_POINT('',#1839);
#580=VERTEX_POINT('',#1840);
#581=VERTEX_POINT('',#1842);
#582=VERTEX_POINT('',#1844);
#583=VERTEX_POINT('',#1848);
#584=VERTEX_POINT('',#1850);
#585=VERTEX_POINT('',#1851);
#586=VERTEX_POINT('',#1853);
#587=VERTEX_POINT('',#1855);
#588=VERTEX_POINT('',#1869);
#589=VERTEX_POINT('',#1871);
#590=VERTEX_POINT('',#1873);
#591=VERTEX_POINT('',#1875);
#592=VERTEX_POINT('',#1879);
#593=VERTEX_POINT('',#1881);
#594=VERTEX_POINT('',#1885);
#595=VERTEX_POINT('',#1889);
#596=VERTEX_POINT('',#1898);
#597=VERTEX_POINT('',#1900);
#598=VERTEX_POINT('',#1904);
#599=VERTEX_POINT('',#1905);
#600=VERTEX_POINT('',#1915);
#601=VERTEX_POINT('',#1917);
#602=VERTEX_POINT('',#1921);
#603=VERTEX_POINT('',#1922);
#604=VERTEX_POINT('',#1932);
#605=VERTEX_POINT('',#1934);
#606=VERTEX_POINT('',#1938);
#607=VERTEX_POINT('',#1939);
#608=VERTEX_POINT('',#1955);
#609=VERTEX_POINT('',#1956);
#610=VERTEX_POINT('',#1958);
#611=VERTEX_POINT('',#1960);
#612=VERTEX_POINT('',#1964);
#613=VERTEX_POINT('',#1966);
#614=VERTEX_POINT('',#1970);
#615=VERTEX_POINT('',#1972);
#616=VERTEX_POINT('',#1976);
#617=VERTEX_POINT('',#1978);
#618=VERTEX_POINT('',#1982);
#619=VERTEX_POINT('',#1984);
#620=EDGE_CURVE('',#518,#519,#258,.T.);
#621=EDGE_CURVE('',#520,#519,#259,.T.);
#622=EDGE_CURVE('',#521,#520,#260,.T.);
#623=EDGE_CURVE('',#521,#518,#261,.T.);
#624=EDGE_CURVE('',#519,#522,#262,.T.);
#625=EDGE_CURVE('',#523,#522,#263,.T.);
#626=EDGE_CURVE('',#520,#523,#264,.T.);
#627=EDGE_CURVE('',#524,#524,#87,.T.);
#628=EDGE_CURVE('',#525,#525,#88,.T.);
#629=EDGE_CURVE('',#526,#527,#265,.T.);
#630=EDGE_CURVE('',#526,#528,#66,.T.);
#631=EDGE_CURVE('',#529,#528,#266,.T.);
#632=EDGE_CURVE('',#523,#529,#267,.T.);
#633=EDGE_CURVE('',#522,#527,#268,.T.);
#634=EDGE_CURVE('',#530,#528,#89,.T.);
#635=EDGE_CURVE('',#526,#530,#90,.T.);
#636=EDGE_CURVE('',#527,#518,#269,.T.);
#637=EDGE_CURVE('',#529,#521,#270,.T.);
#638=EDGE_CURVE('',#531,#531,#91,.T.);
#639=EDGE_CURVE('',#532,#532,#92,.T.);
#640=EDGE_CURVE('',#533,#533,#93,.T.);
#641=EDGE_CURVE('',#534,#534,#94,.T.);
#642=EDGE_CURVE('',#535,#535,#95,.T.);
#643=EDGE_CURVE('',#535,#533,#271,.T.);
#644=EDGE_CURVE('',#534,#532,#272,.T.);
#645=EDGE_CURVE('',#536,#536,#96,.T.);
#646=EDGE_CURVE('',#536,#530,#273,.T.);
#647=EDGE_CURVE('',#525,#536,#274,.T.);
#648=EDGE_CURVE('',#524,#537,#275,.T.);
#649=EDGE_CURVE('',#537,#537,#97,.T.);
#650=EDGE_CURVE('',#537,#531,#276,.T.);
#651=EDGE_CURVE('',#538,#539,#277,.T.);
#652=EDGE_CURVE('',#540,#539,#278,.T.);
#653=EDGE_CURVE('',#541,#540,#279,.T.);
#654=EDGE_CURVE('',#541,#538,#280,.T.);
#655=EDGE_CURVE('',#539,#542,#281,.T.);
#656=EDGE_CURVE('',#543,#542,#282,.T.);
#657=EDGE_CURVE('',#540,#543,#283,.T.);
#658=EDGE_CURVE('',#542,#544,#284,.T.);
#659=EDGE_CURVE('',#545,#544,#285,.T.);
#660=EDGE_CURVE('',#543,#545,#286,.T.);
#661=EDGE_CURVE('',#544,#538,#287,.T.);
#662=EDGE_CURVE('',#545,#541,#288,.T.);
#663=EDGE_CURVE('',#546,#546,#98,.T.);
#664=EDGE_CURVE('',#547,#547,#99,.T.);
#665=EDGE_CURVE('',#548,#548,#100,.T.);
#666=EDGE_CURVE('',#549,#549,#101,.T.);
#667=EDGE_CURVE('',#549,#547,#289,.T.);
#668=EDGE_CURVE('',#548,#546,#290,.T.);
#669=EDGE_CURVE('',#550,#551,#291,.T.);
#670=EDGE_CURVE('',#552,#551,#292,.T.);
#671=EDGE_CURVE('',#553,#552,#293,.T.);
#672=EDGE_CURVE('',#550,#553,#294,.T.);
#673=EDGE_CURVE('',#554,#552,#295,.T.);
#674=EDGE_CURVE('',#555,#554,#296,.T.);
#675=EDGE_CURVE('',#553,#555,#297,.T.);
#676=EDGE_CURVE('',#556,#557,#298,.T.);
#677=EDGE_CURVE('',#557,#558,#299,.T.);
#678=EDGE_CURVE('',#558,#559,#300,.T.);
#679=EDGE_CURVE('',#559,#556,#301,.T.);
#680=EDGE_CURVE('',#560,#561,#302,.T.);
#681=EDGE_CURVE('',#561,#562,#303,.T.);
#682=EDGE_CURVE('',#562,#563,#304,.T.);
#683=EDGE_CURVE('',#563,#560,#305,.T.);
#684=EDGE_CURVE('',#564,#554,#306,.T.);
#685=EDGE_CURVE('',#565,#564,#307,.T.);
#686=EDGE_CURVE('',#555,#565,#308,.T.);
#687=EDGE_CURVE('',#551,#564,#309,.T.);
#688=EDGE_CURVE('',#565,#550,#310,.T.);
#689=EDGE_CURVE('',#566,#567,#311,.T.);
#690=EDGE_CURVE('',#567,#568,#312,.T.);
#691=EDGE_CURVE('',#568,#569,#313,.T.);
#692=EDGE_CURVE('',#569,#566,#314,.T.);
#693=EDGE_CURVE('',#570,#571,#315,.T.);
#694=EDGE_CURVE('',#571,#572,#316,.T.);
#695=EDGE_CURVE('',#572,#573,#317,.T.);
#696=EDGE_CURVE('',#573,#570,#318,.T.);
#697=EDGE_CURVE('',#574,#575,#319,.T.);
#698=EDGE_CURVE('',#575,#576,#320,.T.);
#699=EDGE_CURVE('',#576,#577,#321,.T.);
#700=EDGE_CURVE('',#577,#574,#322,.T.);
#701=EDGE_CURVE('',#578,#578,#102,.T.);
#702=EDGE_CURVE('',#579,#580,#323,.T.);
#703=EDGE_CURVE('',#580,#581,#103,.T.);
#704=EDGE_CURVE('',#581,#582,#324,.T.);
#705=EDGE_CURVE('',#582,#579,#104,.T.);
#706=EDGE_CURVE('',#583,#583,#105,.T.);
#707=EDGE_CURVE('',#584,#585,#325,.T.);
#708=EDGE_CURVE('',#585,#586,#106,.T.);
#709=EDGE_CURVE('',#586,#587,#326,.T.);
#710=EDGE_CURVE('',#587,#584,#107,.T.);
#711=EDGE_CURVE('',#583,#578,#327,.T.);
#712=EDGE_CURVE('',#585,#579,#328,.T.);
#713=EDGE_CURVE('',#582,#586,#329,.T.);
#714=EDGE_CURVE('',#580,#584,#330,.T.);
#715=EDGE_CURVE('',#587,#581,#331,.T.);
#716=EDGE_CURVE('',#588,#559,#332,.T.);
#717=EDGE_CURVE('',#589,#588,#333,.T.);
#718=EDGE_CURVE('',#590,#589,#334,.T.);
#719=EDGE_CURVE('',#591,#590,#335,.T.);
#720=EDGE_CURVE('',#556,#591,#336,.T.);
#721=EDGE_CURVE('',#592,#588,#337,.T.);
#722=EDGE_CURVE('',#592,#593,#338,.T.);
#723=EDGE_CURVE('',#593,#589,#339,.T.);
#724=EDGE_CURVE('',#593,#594,#340,.T.);
#725=EDGE_CURVE('',#594,#590,#341,.T.);
#726=EDGE_CURVE('',#595,#594,#342,.T.);
#727=EDGE_CURVE('',#595,#591,#343,.T.);
#728=EDGE_CURVE('',#592,#558,#344,.T.);
#729=EDGE_CURVE('',#595,#557,#345,.T.);
#730=EDGE_CURVE('',#596,#569,#346,.T.);
#731=EDGE_CURVE('',#596,#597,#347,.T.);
#732=EDGE_CURVE('',#566,#597,#348,.T.);
#733=EDGE_CURVE('',#598,#599,#349,.T.);
#734=EDGE_CURVE('',#597,#599,#350,.T.);
#735=EDGE_CURVE('',#598,#596,#351,.T.);
#736=EDGE_CURVE('',#568,#598,#352,.T.);
#737=EDGE_CURVE('',#599,#567,#353,.T.);
#738=EDGE_CURVE('',#600,#573,#354,.T.);
#739=EDGE_CURVE('',#600,#601,#355,.T.);
#740=EDGE_CURVE('',#570,#601,#356,.T.);
#741=EDGE_CURVE('',#602,#603,#357,.T.);
#742=EDGE_CURVE('',#601,#603,#358,.T.);
#743=EDGE_CURVE('',#602,#600,#359,.T.);
#744=EDGE_CURVE('',#572,#602,#360,.T.);
#745=EDGE_CURVE('',#603,#571,#361,.T.);
#746=EDGE_CURVE('',#604,#577,#362,.T.);
#747=EDGE_CURVE('',#604,#605,#363,.T.);
#748=EDGE_CURVE('',#574,#605,#364,.T.);
#749=EDGE_CURVE('',#606,#607,#365,.T.);
#750=EDGE_CURVE('',#605,#607,#366,.T.);
#751=EDGE_CURVE('',#606,#604,#367,.T.);
#752=EDGE_CURVE('',#576,#606,#368,.T.);
#753=EDGE_CURVE('',#607,#575,#369,.T.);
#754=EDGE_CURVE('',#563,#560,#108,.T.);
#755=EDGE_CURVE('',#561,#562,#109,.T.);
#756=EDGE_CURVE('',#608,#609,#370,.T.);
#757=EDGE_CURVE('',#610,#609,#371,.T.);
#758=EDGE_CURVE('',#611,#610,#372,.T.);
#759=EDGE_CURVE('',#611,#608,#373,.T.);
#760=EDGE_CURVE('',#609,#612,#374,.T.);
#761=EDGE_CURVE('',#613,#612,#375,.T.);
#762=EDGE_CURVE('',#610,#613,#376,.T.);
#763=EDGE_CURVE('',#612,#614,#377,.T.);
#764=EDGE_CURVE('',#615,#614,#378,.T.);
#765=EDGE_CURVE('',#613,#615,#379,.T.);
#766=EDGE_CURVE('',#614,#616,#380,.T.);
#767=EDGE_CURVE('',#617,#616,#381,.T.);
#768=EDGE_CURVE('',#615,#617,#382,.T.);
#769=EDGE_CURVE('',#616,#618,#383,.T.);
#770=EDGE_CURVE('',#619,#618,#384,.T.);
#771=EDGE_CURVE('',#617,#619,#385,.T.);
#772=EDGE_CURVE('',#618,#608,#386,.T.);
#773=EDGE_CURVE('',#619,#611,#387,.T.);
#774=ORIENTED_EDGE('',*,*,#620,.T.);
#775=ORIENTED_EDGE('',*,*,#621,.F.);
#776=ORIENTED_EDGE('',*,*,#622,.F.);
#777=ORIENTED_EDGE('',*,*,#623,.T.);
#778=ORIENTED_EDGE('',*,*,#624,.T.);
#779=ORIENTED_EDGE('',*,*,#625,.F.);
#780=ORIENTED_EDGE('',*,*,#626,.F.);
#781=ORIENTED_EDGE('',*,*,#621,.T.);
#782=ORIENTED_EDGE('',*,*,#627,.T.);
#783=ORIENTED_EDGE('',*,*,#628,.T.);
#784=ORIENTED_EDGE('',*,*,#629,.F.);
#785=ORIENTED_EDGE('',*,*,#630,.T.);
#786=ORIENTED_EDGE('',*,*,#631,.F.);
#787=ORIENTED_EDGE('',*,*,#632,.F.);
#788=ORIENTED_EDGE('',*,*,#625,.T.);
#789=ORIENTED_EDGE('',*,*,#633,.T.);
#790=ORIENTED_EDGE('',*,*,#631,.T.);
#791=ORIENTED_EDGE('',*,*,#634,.F.);
#792=ORIENTED_EDGE('',*,*,#635,.F.);
#793=ORIENTED_EDGE('',*,*,#629,.T.);
#794=ORIENTED_EDGE('',*,*,#636,.T.);
#795=ORIENTED_EDGE('',*,*,#623,.F.);
#796=ORIENTED_EDGE('',*,*,#637,.F.);
#797=ORIENTED_EDGE('',*,*,#638,.F.);
#798=ORIENTED_EDGE('',*,*,#622,.T.);
#799=ORIENTED_EDGE('',*,*,#626,.T.);
#800=ORIENTED_EDGE('',*,*,#632,.T.);
#801=ORIENTED_EDGE('',*,*,#637,.T.);
#802=ORIENTED_EDGE('',*,*,#639,.F.);
#803=ORIENTED_EDGE('',*,*,#640,.F.);
#804=ORIENTED_EDGE('',*,*,#620,.F.);
#805=ORIENTED_EDGE('',*,*,#636,.F.);
#806=ORIENTED_EDGE('',*,*,#633,.F.);
#807=ORIENTED_EDGE('',*,*,#624,.F.);
#808=ORIENTED_EDGE('',*,*,#641,.T.);
#809=ORIENTED_EDGE('',*,*,#642,.T.);
#810=ORIENTED_EDGE('',*,*,#642,.F.);
#811=ORIENTED_EDGE('',*,*,#643,.T.);
#812=ORIENTED_EDGE('',*,*,#640,.T.);
#813=ORIENTED_EDGE('',*,*,#643,.F.);
#814=ORIENTED_EDGE('',*,*,#641,.F.);
#815=ORIENTED_EDGE('',*,*,#644,.T.);
#816=ORIENTED_EDGE('',*,*,#639,.T.);
#817=ORIENTED_EDGE('',*,*,#644,.F.);
#818=ORIENTED_EDGE('',*,*,#645,.F.);
#819=ORIENTED_EDGE('',*,*,#646,.T.);
#820=ORIENTED_EDGE('',*,*,#634,.T.);
#821=ORIENTED_EDGE('',*,*,#630,.F.);
#822=ORIENTED_EDGE('',*,*,#635,.T.);
#823=ORIENTED_EDGE('',*,*,#646,.F.);
#824=ORIENTED_EDGE('',*,*,#628,.F.);
#825=ORIENTED_EDGE('',*,*,#647,.T.);
#826=ORIENTED_EDGE('',*,*,#645,.T.);
#827=ORIENTED_EDGE('',*,*,#647,.F.);
#828=ORIENTED_EDGE('',*,*,#627,.F.);
#829=ORIENTED_EDGE('',*,*,#648,.T.);
#830=ORIENTED_EDGE('',*,*,#649,.T.);
#831=ORIENTED_EDGE('',*,*,#648,.F.);
#832=ORIENTED_EDGE('',*,*,#649,.F.);
#833=ORIENTED_EDGE('',*,*,#650,.T.);
#834=ORIENTED_EDGE('',*,*,#638,.T.);
#835=ORIENTED_EDGE('',*,*,#650,.F.);
#836=ORIENTED_EDGE('',*,*,#651,.T.);
#837=ORIENTED_EDGE('',*,*,#652,.F.);
#838=ORIENTED_EDGE('',*,*,#653,.F.);
#839=ORIENTED_EDGE('',*,*,#654,.T.);
#840=ORIENTED_EDGE('',*,*,#655,.T.);
#841=ORIENTED_EDGE('',*,*,#656,.F.);
#842=ORIENTED_EDGE('',*,*,#657,.F.);
#843=ORIENTED_EDGE('',*,*,#652,.T.);
#844=ORIENTED_EDGE('',*,*,#658,.T.);
#845=ORIENTED_EDGE('',*,*,#659,.F.);
#846=ORIENTED_EDGE('',*,*,#660,.F.);
#847=ORIENTED_EDGE('',*,*,#656,.T.);
#848=ORIENTED_EDGE('',*,*,#661,.T.);
#849=ORIENTED_EDGE('',*,*,#654,.F.);
#850=ORIENTED_EDGE('',*,*,#662,.F.);
#851=ORIENTED_EDGE('',*,*,#659,.T.);
#852=ORIENTED_EDGE('',*,*,#653,.T.);
#853=ORIENTED_EDGE('',*,*,#657,.T.);
#854=ORIENTED_EDGE('',*,*,#660,.T.);
#855=ORIENTED_EDGE('',*,*,#662,.T.);
#856=ORIENTED_EDGE('',*,*,#663,.F.);
#857=ORIENTED_EDGE('',*,*,#664,.F.);
#858=ORIENTED_EDGE('',*,*,#651,.F.);
#859=ORIENTED_EDGE('',*,*,#661,.F.);
#860=ORIENTED_EDGE('',*,*,#658,.F.);
#861=ORIENTED_EDGE('',*,*,#655,.F.);
#862=ORIENTED_EDGE('',*,*,#665,.T.);
#863=ORIENTED_EDGE('',*,*,#666,.T.);
#864=ORIENTED_EDGE('',*,*,#666,.F.);
#865=ORIENTED_EDGE('',*,*,#667,.T.);
#866=ORIENTED_EDGE('',*,*,#664,.T.);
#867=ORIENTED_EDGE('',*,*,#667,.F.);
#868=ORIENTED_EDGE('',*,*,#665,.F.);
#869=ORIENTED_EDGE('',*,*,#668,.T.);
#870=ORIENTED_EDGE('',*,*,#663,.T.);
#871=ORIENTED_EDGE('',*,*,#668,.F.);
#872=ORIENTED_EDGE('',*,*,#669,.T.);
#873=ORIENTED_EDGE('',*,*,#670,.F.);
#874=ORIENTED_EDGE('',*,*,#671,.F.);
#875=ORIENTED_EDGE('',*,*,#672,.F.);
#876=ORIENTED_EDGE('',*,*,#671,.T.);
#877=ORIENTED_EDGE('',*,*,#673,.F.);
#878=ORIENTED_EDGE('',*,*,#674,.F.);
#879=ORIENTED_EDGE('',*,*,#675,.F.);
#880=ORIENTED_EDGE('',*,*,#676,.T.);
#881=ORIENTED_EDGE('',*,*,#677,.T.);
#882=ORIENTED_EDGE('',*,*,#678,.T.);
#883=ORIENTED_EDGE('',*,*,#679,.T.);
#884=ORIENTED_EDGE('',*,*,#680,.T.);
#885=ORIENTED_EDGE('',*,*,#681,.T.);
#886=ORIENTED_EDGE('',*,*,#682,.T.);
#887=ORIENTED_EDGE('',*,*,#683,.T.);
#888=ORIENTED_EDGE('',*,*,#674,.T.);
#889=ORIENTED_EDGE('',*,*,#684,.F.);
#890=ORIENTED_EDGE('',*,*,#685,.F.);
#891=ORIENTED_EDGE('',*,*,#686,.F.);
#892=ORIENTED_EDGE('',*,*,#685,.T.);
#893=ORIENTED_EDGE('',*,*,#687,.F.);
#894=ORIENTED_EDGE('',*,*,#669,.F.);
#895=ORIENTED_EDGE('',*,*,#688,.F.);
#896=ORIENTED_EDGE('',*,*,#689,.T.);
#897=ORIENTED_EDGE('',*,*,#690,.T.);
#898=ORIENTED_EDGE('',*,*,#691,.T.);
#899=ORIENTED_EDGE('',*,*,#692,.T.);
#900=ORIENTED_EDGE('',*,*,#693,.T.);
#901=ORIENTED_EDGE('',*,*,#694,.T.);
#902=ORIENTED_EDGE('',*,*,#695,.T.);
#903=ORIENTED_EDGE('',*,*,#696,.T.);
#904=ORIENTED_EDGE('',*,*,#697,.T.);
#905=ORIENTED_EDGE('',*,*,#698,.T.);
#906=ORIENTED_EDGE('',*,*,#699,.T.);
#907=ORIENTED_EDGE('',*,*,#700,.T.);
#908=ORIENTED_EDGE('',*,*,#670,.T.);
#909=ORIENTED_EDGE('',*,*,#687,.T.);
#910=ORIENTED_EDGE('',*,*,#684,.T.);
#911=ORIENTED_EDGE('',*,*,#673,.T.);
#912=ORIENTED_EDGE('',*,*,#701,.T.);
#913=ORIENTED_EDGE('',*,*,#702,.T.);
#914=ORIENTED_EDGE('',*,*,#703,.T.);
#915=ORIENTED_EDGE('',*,*,#704,.T.);
#916=ORIENTED_EDGE('',*,*,#705,.T.);
#917=ORIENTED_EDGE('',*,*,#672,.T.);
#918=ORIENTED_EDGE('',*,*,#675,.T.);
#919=ORIENTED_EDGE('',*,*,#686,.T.);
#920=ORIENTED_EDGE('',*,*,#688,.T.);
#921=ORIENTED_EDGE('',*,*,#706,.T.);
#922=ORIENTED_EDGE('',*,*,#707,.T.);
#923=ORIENTED_EDGE('',*,*,#708,.T.);
#924=ORIENTED_EDGE('',*,*,#709,.T.);
#925=ORIENTED_EDGE('',*,*,#710,.T.);
#926=ORIENTED_EDGE('',*,*,#706,.F.);
#927=ORIENTED_EDGE('',*,*,#711,.T.);
#928=ORIENTED_EDGE('',*,*,#701,.F.);
#929=ORIENTED_EDGE('',*,*,#711,.F.);
#930=ORIENTED_EDGE('',*,*,#708,.F.);
#931=ORIENTED_EDGE('',*,*,#712,.T.);
#932=ORIENTED_EDGE('',*,*,#705,.F.);
#933=ORIENTED_EDGE('',*,*,#713,.T.);
#934=ORIENTED_EDGE('',*,*,#707,.F.);
#935=ORIENTED_EDGE('',*,*,#714,.F.);
#936=ORIENTED_EDGE('',*,*,#702,.F.);
#937=ORIENTED_EDGE('',*,*,#712,.F.);
#938=ORIENTED_EDGE('',*,*,#710,.F.);
#939=ORIENTED_EDGE('',*,*,#715,.T.);
#940=ORIENTED_EDGE('',*,*,#703,.F.);
#941=ORIENTED_EDGE('',*,*,#714,.T.);
#942=ORIENTED_EDGE('',*,*,#709,.F.);
#943=ORIENTED_EDGE('',*,*,#713,.F.);
#944=ORIENTED_EDGE('',*,*,#704,.F.);
#945=ORIENTED_EDGE('',*,*,#715,.F.);
#946=ORIENTED_EDGE('',*,*,#679,.F.);
#947=ORIENTED_EDGE('',*,*,#716,.F.);
#948=ORIENTED_EDGE('',*,*,#717,.F.);
#949=ORIENTED_EDGE('',*,*,#718,.F.);
#950=ORIENTED_EDGE('',*,*,#719,.F.);
#951=ORIENTED_EDGE('',*,*,#720,.F.);
#952=ORIENTED_EDGE('',*,*,#717,.T.);
#953=ORIENTED_EDGE('',*,*,#721,.F.);
#954=ORIENTED_EDGE('',*,*,#722,.T.);
#955=ORIENTED_EDGE('',*,*,#723,.T.);
#956=ORIENTED_EDGE('',*,*,#718,.T.);
#957=ORIENTED_EDGE('',*,*,#723,.F.);
#958=ORIENTED_EDGE('',*,*,#724,.T.);
#959=ORIENTED_EDGE('',*,*,#725,.T.);
#960=ORIENTED_EDGE('',*,*,#719,.T.);
#961=ORIENTED_EDGE('',*,*,#725,.F.);
#962=ORIENTED_EDGE('',*,*,#726,.F.);
#963=ORIENTED_EDGE('',*,*,#727,.T.);
#964=ORIENTED_EDGE('',*,*,#678,.F.);
#965=ORIENTED_EDGE('',*,*,#728,.F.);
#966=ORIENTED_EDGE('',*,*,#721,.T.);
#967=ORIENTED_EDGE('',*,*,#716,.T.);
#968=ORIENTED_EDGE('',*,*,#676,.F.);
#969=ORIENTED_EDGE('',*,*,#720,.T.);
#970=ORIENTED_EDGE('',*,*,#727,.F.);
#971=ORIENTED_EDGE('',*,*,#729,.T.);
#972=ORIENTED_EDGE('',*,*,#677,.F.);
#973=ORIENTED_EDGE('',*,*,#729,.F.);
#974=ORIENTED_EDGE('',*,*,#726,.T.);
#975=ORIENTED_EDGE('',*,*,#724,.F.);
#976=ORIENTED_EDGE('',*,*,#722,.F.);
#977=ORIENTED_EDGE('',*,*,#728,.T.);
#978=ORIENTED_EDGE('',*,*,#692,.F.);
#979=ORIENTED_EDGE('',*,*,#730,.F.);
#980=ORIENTED_EDGE('',*,*,#731,.T.);
#981=ORIENTED_EDGE('',*,*,#732,.F.);
#982=ORIENTED_EDGE('',*,*,#733,.T.);
#983=ORIENTED_EDGE('',*,*,#734,.F.);
#984=ORIENTED_EDGE('',*,*,#731,.F.);
#985=ORIENTED_EDGE('',*,*,#735,.F.);
#986=ORIENTED_EDGE('',*,*,#691,.F.);
#987=ORIENTED_EDGE('',*,*,#736,.T.);
#988=ORIENTED_EDGE('',*,*,#735,.T.);
#989=ORIENTED_EDGE('',*,*,#730,.T.);
#990=ORIENTED_EDGE('',*,*,#689,.F.);
#991=ORIENTED_EDGE('',*,*,#732,.T.);
#992=ORIENTED_EDGE('',*,*,#734,.T.);
#993=ORIENTED_EDGE('',*,*,#737,.T.);
#994=ORIENTED_EDGE('',*,*,#690,.F.);
#995=ORIENTED_EDGE('',*,*,#737,.F.);
#996=ORIENTED_EDGE('',*,*,#733,.F.);
#997=ORIENTED_EDGE('',*,*,#736,.F.);
#998=ORIENTED_EDGE('',*,*,#696,.F.);
#999=ORIENTED_EDGE('',*,*,#738,.F.);
#1000=ORIENTED_EDGE('',*,*,#739,.T.);
#1001=ORIENTED_EDGE('',*,*,#740,.F.);
#1002=ORIENTED_EDGE('',*,*,#741,.T.);
#1003=ORIENTED_EDGE('',*,*,#742,.F.);
#1004=ORIENTED_EDGE('',*,*,#739,.F.);
#1005=ORIENTED_EDGE('',*,*,#743,.F.);
#1006=ORIENTED_EDGE('',*,*,#695,.F.);
#1007=ORIENTED_EDGE('',*,*,#744,.T.);
#1008=ORIENTED_EDGE('',*,*,#743,.T.);
#1009=ORIENTED_EDGE('',*,*,#738,.T.);
#1010=ORIENTED_EDGE('',*,*,#693,.F.);
#1011=ORIENTED_EDGE('',*,*,#740,.T.);
#1012=ORIENTED_EDGE('',*,*,#742,.T.);
#1013=ORIENTED_EDGE('',*,*,#745,.T.);
#1014=ORIENTED_EDGE('',*,*,#694,.F.);
#1015=ORIENTED_EDGE('',*,*,#745,.F.);
#1016=ORIENTED_EDGE('',*,*,#741,.F.);
#1017=ORIENTED_EDGE('',*,*,#744,.F.);
#1018=ORIENTED_EDGE('',*,*,#700,.F.);
#1019=ORIENTED_EDGE('',*,*,#746,.F.);
#1020=ORIENTED_EDGE('',*,*,#747,.T.);
#1021=ORIENTED_EDGE('',*,*,#748,.F.);
#1022=ORIENTED_EDGE('',*,*,#749,.T.);
#1023=ORIENTED_EDGE('',*,*,#750,.F.);
#1024=ORIENTED_EDGE('',*,*,#747,.F.);
#1025=ORIENTED_EDGE('',*,*,#751,.F.);
#1026=ORIENTED_EDGE('',*,*,#699,.F.);
#1027=ORIENTED_EDGE('',*,*,#752,.T.);
#1028=ORIENTED_EDGE('',*,*,#751,.T.);
#1029=ORIENTED_EDGE('',*,*,#746,.T.);
#1030=ORIENTED_EDGE('',*,*,#697,.F.);
#1031=ORIENTED_EDGE('',*,*,#748,.T.);
#1032=ORIENTED_EDGE('',*,*,#750,.T.);
#1033=ORIENTED_EDGE('',*,*,#753,.T.);
#1034=ORIENTED_EDGE('',*,*,#698,.F.);
#1035=ORIENTED_EDGE('',*,*,#753,.F.);
#1036=ORIENTED_EDGE('',*,*,#749,.F.);
#1037=ORIENTED_EDGE('',*,*,#752,.F.);
#1038=ORIENTED_EDGE('',*,*,#683,.F.);
#1039=ORIENTED_EDGE('',*,*,#754,.T.);
#1040=ORIENTED_EDGE('',*,*,#682,.F.);
#1041=ORIENTED_EDGE('',*,*,#755,.F.);
#1042=ORIENTED_EDGE('',*,*,#680,.F.);
#1043=ORIENTED_EDGE('',*,*,#754,.F.);
#1044=ORIENTED_EDGE('',*,*,#681,.F.);
#1045=ORIENTED_EDGE('',*,*,#755,.T.);
#1046=ORIENTED_EDGE('',*,*,#756,.T.);
#1047=ORIENTED_EDGE('',*,*,#757,.F.);
#1048=ORIENTED_EDGE('',*,*,#758,.F.);
#1049=ORIENTED_EDGE('',*,*,#759,.T.);
#1050=ORIENTED_EDGE('',*,*,#760,.T.);
#1051=ORIENTED_EDGE('',*,*,#761,.F.);
#1052=ORIENTED_EDGE('',*,*,#762,.F.);
#1053=ORIENTED_EDGE('',*,*,#757,.T.);
#1054=ORIENTED_EDGE('',*,*,#763,.T.);
#1055=ORIENTED_EDGE('',*,*,#764,.F.);
#1056=ORIENTED_EDGE('',*,*,#765,.F.);
#1057=ORIENTED_EDGE('',*,*,#761,.T.);
#1058=ORIENTED_EDGE('',*,*,#766,.T.);
#1059=ORIENTED_EDGE('',*,*,#767,.F.);
#1060=ORIENTED_EDGE('',*,*,#768,.F.);
#1061=ORIENTED_EDGE('',*,*,#764,.T.);
#1062=ORIENTED_EDGE('',*,*,#769,.T.);
#1063=ORIENTED_EDGE('',*,*,#770,.F.);
#1064=ORIENTED_EDGE('',*,*,#771,.F.);
#1065=ORIENTED_EDGE('',*,*,#767,.T.);
#1066=ORIENTED_EDGE('',*,*,#772,.T.);
#1067=ORIENTED_EDGE('',*,*,#759,.F.);
#1068=ORIENTED_EDGE('',*,*,#773,.F.);
#1069=ORIENTED_EDGE('',*,*,#770,.T.);
#1070=ORIENTED_EDGE('',*,*,#758,.T.);
#1071=ORIENTED_EDGE('',*,*,#762,.T.);
#1072=ORIENTED_EDGE('',*,*,#765,.T.);
#1073=ORIENTED_EDGE('',*,*,#768,.T.);
#1074=ORIENTED_EDGE('',*,*,#771,.T.);
#1075=ORIENTED_EDGE('',*,*,#773,.T.);
#1076=ORIENTED_EDGE('',*,*,#756,.F.);
#1077=ORIENTED_EDGE('',*,*,#772,.F.);
#1078=ORIENTED_EDGE('',*,*,#769,.F.);
#1079=ORIENTED_EDGE('',*,*,#766,.F.);
#1080=ORIENTED_EDGE('',*,*,#763,.F.);
#1081=ORIENTED_EDGE('',*,*,#760,.F.);
#1082=PLANE('',#1249);
#1083=PLANE('',#1250);
#1084=PLANE('',#1253);
#1085=PLANE('',#1254);
#1086=PLANE('',#1258);
#1087=PLANE('',#1261);
#1088=PLANE('',#1273);
#1089=PLANE('',#1274);
#1090=PLANE('',#1275);
#1091=PLANE('',#1276);
#1092=PLANE('',#1277);
#1093=PLANE('',#1280);
#1094=PLANE('',#1286);
#1095=PLANE('',#1287);
#1096=PLANE('',#1288);
#1097=PLANE('',#1289);
#1098=PLANE('',#1290);
#1099=PLANE('',#1294);
#1100=PLANE('',#1300);
#1101=PLANE('',#1302);
#1102=PLANE('',#1303);
#1103=PLANE('',#1304);
#1104=PLANE('',#1305);
#1105=PLANE('',#1306);
#1106=PLANE('',#1307);
#1107=PLANE('',#1308);
#1108=PLANE('',#1309);
#1109=PLANE('',#1310);
#1110=PLANE('',#1311);
#1111=PLANE('',#1312);
#1112=PLANE('',#1313);
#1113=PLANE('',#1314);
#1114=PLANE('',#1315);
#1115=PLANE('',#1316);
#1116=PLANE('',#1317);
#1117=PLANE('',#1318);
#1118=PLANE('',#1319);
#1119=PLANE('',#1320);
#1120=PLANE('',#1321);
#1121=PLANE('',#1322);
#1122=PLANE('',#1323);
#1123=PLANE('',#1324);
#1124=PLANE('',#1325);
#1125=PLANE('',#1329);
#1126=PLANE('',#1331);
#1127=PLANE('',#1332);
#1128=PLANE('',#1333);
#1129=PLANE('',#1334);
#1130=PLANE('',#1335);
#1131=PLANE('',#1336);
#1132=PLANE('',#1337);
#1133=PLANE('',#1338);
#1134=ADVANCED_FACE('',(#110),#1082,.F.);
#1135=ADVANCED_FACE('',(#111,#67,#68),#1083,.F.);
#1136=ADVANCED_FACE('',(#112),#1084,.F.);
#1137=ADVANCED_FACE('',(#113,#69),#1085,.F.);
#1138=ADVANCED_FACE('',(#114,#70,#71),#1086,.F.);
#1139=ADVANCED_FACE('',(#115,#72,#73),#1087,.T.);
#1140=ADVANCED_FACE('',(#116),#56,.F.);
#1141=ADVANCED_FACE('',(#117),#57,.F.);
#1142=ADVANCED_FACE('',(#118),#54,.F.);
#1143=ADVANCED_FACE('',(#119),#58,.F.);
#1144=ADVANCED_FACE('',(#120),#59,.F.);
#1145=ADVANCED_FACE('',(#121),#55,.F.);
#1146=ADVANCED_FACE('',(#122),#1088,.F.);
#1147=ADVANCED_FACE('',(#123),#1089,.F.);
#1148=ADVANCED_FACE('',(#124),#1090,.F.);
#1149=ADVANCED_FACE('',(#125),#1091,.F.);
#1150=ADVANCED_FACE('',(#126,#74,#75),#1092,.T.);
#1151=ADVANCED_FACE('',(#127,#76,#77),#1093,.F.);
#1152=ADVANCED_FACE('',(#128),#60,.F.);
#1153=ADVANCED_FACE('',(#129),#61,.F.);
#1154=ADVANCED_FACE('',(#130),#1094,.F.);
#1155=ADVANCED_FACE('',(#131,#78,#79),#1095,.F.);
#1156=ADVANCED_FACE('',(#132),#1096,.F.);
#1157=ADVANCED_FACE('',(#133,#80,#81,#82),#1097,.F.);
#1158=ADVANCED_FACE('',(#134,#83,#84),#1098,.F.);
#1159=ADVANCED_FACE('',(#135,#85,#86),#1099,.T.);
#1160=ADVANCED_FACE('',(#136),#62,.F.);
#1161=ADVANCED_FACE('',(#137),#63,.F.);
#1162=ADVANCED_FACE('',(#138),#1100,.T.);
#1163=ADVANCED_FACE('',(#139),#64,.F.);
#1164=ADVANCED_FACE('',(#140),#1101,.T.);
#1165=ADVANCED_FACE('',(#141),#1102,.T.);
#1166=ADVANCED_FACE('',(#142),#1103,.T.);
#1167=ADVANCED_FACE('',(#143),#1104,.T.);
#1168=ADVANCED_FACE('',(#144),#1105,.T.);
#1169=ADVANCED_FACE('',(#145),#1106,.T.);
#1170=ADVANCED_FACE('',(#146),#1107,.T.);
#1171=ADVANCED_FACE('',(#147),#1108,.F.);
#1172=ADVANCED_FACE('',(#148),#1109,.F.);
#1173=ADVANCED_FACE('',(#149),#1110,.F.);
#1174=ADVANCED_FACE('',(#150),#1111,.T.);
#1175=ADVANCED_FACE('',(#151),#1112,.F.);
#1176=ADVANCED_FACE('',(#152),#1113,.F.);
#1177=ADVANCED_FACE('',(#153),#1114,.F.);
#1178=ADVANCED_FACE('',(#154),#1115,.F.);
#1179=ADVANCED_FACE('',(#155),#1116,.T.);
#1180=ADVANCED_FACE('',(#156),#1117,.F.);
#1181=ADVANCED_FACE('',(#157),#1118,.F.);
#1182=ADVANCED_FACE('',(#158),#1119,.F.);
#1183=ADVANCED_FACE('',(#159),#1120,.F.);
#1184=ADVANCED_FACE('',(#160),#1121,.T.);
#1185=ADVANCED_FACE('',(#161),#1122,.F.);
#1186=ADVANCED_FACE('',(#162),#1123,.F.);
#1187=ADVANCED_FACE('',(#163),#1124,.T.);
#1188=ADVANCED_FACE('',(#164),#65,.T.);
#1189=ADVANCED_FACE('',(#165),#1125,.T.);
#1190=ADVANCED_FACE('',(#166),#1126,.F.);
#1191=ADVANCED_FACE('',(#167),#1127,.F.);
#1192=ADVANCED_FACE('',(#168),#1128,.F.);
#1193=ADVANCED_FACE('',(#169),#1129,.F.);
#1194=ADVANCED_FACE('',(#170),#1130,.F.);
#1195=ADVANCED_FACE('',(#171),#1131,.F.);
#1196=ADVANCED_FACE('',(#172),#1132,.F.);
#1197=ADVANCED_FACE('',(#173),#1133,.T.);
#1198=CLOSED_SHELL('',(#1134,#1135,#1136,#1137,#1138,#1139,#1140,#1141,
#1142,#1143,#1144,#1145));
#1199=CLOSED_SHELL('',(#1146,#1147,#1148,#1149,#1150,#1151,#1152,#1153));
#1200=CLOSED_SHELL('',(#1154,#1155,#1156,#1157,#1158,#1159,#1160,#1161,
#1162,#1163,#1164,#1165,#1166,#1167,#1168,#1169,#1170,#1171,#1172,#1173,
#1174,#1175,#1176,#1177,#1178,#1179,#1180,#1181,#1182,#1183,#1184,#1185,
#1186,#1187,#1188,#1189));
#1201=CLOSED_SHELL('',(#1190,#1191,#1192,#1193,#1194,#1195,#1196,#1197));
#1202=DERIVED_UNIT_ELEMENT(#1210,1.);
#1203=DERIVED_UNIT_ELEMENT(#2009,-3.);
#1204=DERIVED_UNIT_ELEMENT(#1210,1.);
#1205=DERIVED_UNIT_ELEMENT(#2009,-3.);
#1206=DERIVED_UNIT_ELEMENT(#1210,1.);
#1207=DERIVED_UNIT_ELEMENT(#2009,-3.);
#1208=DERIVED_UNIT_ELEMENT(#1210,1.);
#1209=DERIVED_UNIT_ELEMENT(#2009,-3.);
#1210=(
MASS_UNIT()
NAMED_UNIT(*)
SI_UNIT(.KILO.,.GRAM.)
);
#1211=DERIVED_UNIT((#1202,#1203));
#1212=DERIVED_UNIT((#1204,#1205));
#1213=DERIVED_UNIT((#1206,#1207));
#1214=DERIVED_UNIT((#1208,#1209));
#1215=MEASURE_REPRESENTATION_ITEM('density measure',
POSITIVE_RATIO_MEASURE(7850.),#1211);
#1216=MEASURE_REPRESENTATION_ITEM('density measure',
POSITIVE_RATIO_MEASURE(8900.),#1212);
#1217=MEASURE_REPRESENTATION_ITEM('density measure',
POSITIVE_RATIO_MEASURE(7850.),#1213);
#1218=MEASURE_REPRESENTATION_ITEM('density measure',
POSITIVE_RATIO_MEASURE(1850.),#1214);
#1219=PROPERTY_DEFINITION_REPRESENTATION(#1239,#1227);
#1220=PROPERTY_DEFINITION_REPRESENTATION(#1240,#1228);
#1221=PROPERTY_DEFINITION_REPRESENTATION(#1241,#1229);
#1222=PROPERTY_DEFINITION_REPRESENTATION(#1242,#1230);
#1223=PROPERTY_DEFINITION_REPRESENTATION(#1243,#1231);
#1224=PROPERTY_DEFINITION_REPRESENTATION(#1244,#1232);
#1225=PROPERTY_DEFINITION_REPRESENTATION(#1245,#1233);
#1226=PROPERTY_DEFINITION_REPRESENTATION(#1246,#1234);
#1227=REPRESENTATION('material name',(#1235),#2003);
#1228=REPRESENTATION('density',(#1215),#2003);
#1229=REPRESENTATION('material name',(#1236),#2004);
#1230=REPRESENTATION('density',(#1216),#2004);
#1231=REPRESENTATION('material name',(#1237),#2005);
#1232=REPRESENTATION('density',(#1217),#2005);
#1233=REPRESENTATION('material name',(#1238),#2006);
#1234=REPRESENTATION('density',(#1218),#2006);
#1235=DESCRIPTIVE_REPRESENTATION_ITEM('Steel','Steel');
#1236=DESCRIPTIVE_REPRESENTATION_ITEM('Copper','Copper');
#1237=DESCRIPTIVE_REPRESENTATION_ITEM('Steel','Steel');
#1238=DESCRIPTIVE_REPRESENTATION_ITEM('FR4','FR4');
#1239=PROPERTY_DEFINITION('material property','material name',#2033);
#1240=PROPERTY_DEFINITION('material property','density of part',#2033);
#1241=PROPERTY_DEFINITION('material property','material name',#2034);
#1242=PROPERTY_DEFINITION('material property','density of part',#2034);
#1243=PROPERTY_DEFINITION('material property','material name',#2035);
#1244=PROPERTY_DEFINITION('material property','density of part',#2035);
#1245=PROPERTY_DEFINITION('material property','material name',#2036);
#1246=PROPERTY_DEFINITION('material property','density of part',#2036);
#1247=AXIS2_PLACEMENT_3D('',#1665,#1343,#1344);
#1248=AXIS2_PLACEMENT_3D('',#1666,#1345,#1346);
#1249=AXIS2_PLACEMENT_3D('',#1667,#1347,#1348);
#1250=AXIS2_PLACEMENT_3D('',#1676,#1353,#1354);
#1251=AXIS2_PLACEMENT_3D('',#1683,#1358,#1359);
#1252=AXIS2_PLACEMENT_3D('',#1685,#1360,#1361);
#1253=AXIS2_PLACEMENT_3D('',#1686,#1362,#1363);
#1254=AXIS2_PLACEMENT_3D('',#1698,#1368,#1369);
#1255=AXIS2_PLACEMENT_3D('',#1700,#1370,#1371);
#1256=AXIS2_PLACEMENT_3D('',#1701,#1372,#1373);
#1257=AXIS2_PLACEMENT_3D('',#1705,#1376,#1377);
#1258=AXIS2_PLACEMENT_3D('',#1706,#1378,#1379);
#1259=AXIS2_PLACEMENT_3D('',#1708,#1380,#1381);
#1260=AXIS2_PLACEMENT_3D('',#1710,#1382,#1383);
#1261=AXIS2_PLACEMENT_3D('',#1711,#1384,#1385);
#1262=AXIS2_PLACEMENT_3D('',#1713,#1386,#1387);
#1263=AXIS2_PLACEMENT_3D('',#1715,#1388,#1389);
#1264=AXIS2_PLACEMENT_3D('',#1716,#1390,#1391);
#1265=AXIS2_PLACEMENT_3D('',#1718,#1393,#1394);
#1266=AXIS2_PLACEMENT_3D('',#1720,#1396,#1397);
#1267=AXIS2_PLACEMENT_3D('',#1722,#1398,#1399);
#1268=AXIS2_PLACEMENT_3D('',#1724,#1401,#1402);
#1269=AXIS2_PLACEMENT_3D('',#1726,#1404,#1405);
#1270=AXIS2_PLACEMENT_3D('',#1729,#1407,#1408);
#1271=AXIS2_PLACEMENT_3D('',#1730,#1409,#1410);
#1272=AXIS2_PLACEMENT_3D('',#1732,#1412,#1413);
#1273=AXIS2_PLACEMENT_3D('',#1733,#1414,#1415);
#1274=AXIS2_PLACEMENT_3D('',#1742,#1420,#1421);
#1275=AXIS2_PLACEMENT_3D('',#1748,#1425,#1426);
#1276=AXIS2_PLACEMENT_3D('',#1754,#1430,#1431);
#1277=AXIS2_PLACEMENT_3D('',#1757,#1434,#1435);
#1278=AXIS2_PLACEMENT_3D('',#1759,#1436,#1437);
#1279=AXIS2_PLACEMENT_3D('',#1761,#1438,#1439);
#1280=AXIS2_PLACEMENT_3D('',#1762,#1440,#1441);
#1281=AXIS2_PLACEMENT_3D('',#1764,#1442,#1443);
#1282=AXIS2_PLACEMENT_3D('',#1766,#1444,#1445);
#1283=AXIS2_PLACEMENT_3D('',#1767,#1446,#1447);
#1284=AXIS2_PLACEMENT_3D('',#1769,#1449,#1450);
#1285=AXIS2_PLACEMENT_3D('',#1771,#1452,#1453);
#1286=AXIS2_PLACEMENT_3D('',#1772,#1454,#1455);
#1287=AXIS2_PLACEMENT_3D('',#1781,#1460,#1461);
#1288=AXIS2_PLACEMENT_3D('',#1803,#1473,#1474);
#1289=AXIS2_PLACEMENT_3D('',#1809,#1478,#1479);
#1290=AXIS2_PLACEMENT_3D('',#1836,#1494,#1495);
#1291=AXIS2_PLACEMENT_3D('',#1838,#1496,#1497);
#1292=AXIS2_PLACEMENT_3D('',#1843,#1499,#1500);
#1293=AXIS2_PLACEMENT_3D('',#1846,#1502,#1503);
#1294=AXIS2_PLACEMENT_3D('',#1847,#1504,#1505);
#1295=AXIS2_PLACEMENT_3D('',#1849,#1506,#1507);
#1296=AXIS2_PLACEMENT_3D('',#1854,#1509,#1510);
#1297=AXIS2_PLACEMENT_3D('',#1857,#1512,#1513);
#1298=AXIS2_PLACEMENT_3D('',#1858,#1514,#1515);
#1299=AXIS2_PLACEMENT_3D('',#1860,#1517,#1518);
#1300=AXIS2_PLACEMENT_3D('',#1863,#1521,#1522);
#1301=AXIS2_PLACEMENT_3D('',#1865,#1524,#1525);
#1302=AXIS2_PLACEMENT_3D('',#1867,#1527,#1528);
#1303=AXIS2_PLACEMENT_3D('',#1868,#1529,#1530);
#1304=AXIS2_PLACEMENT_3D('',#1878,#1536,#1537);
#1305=AXIS2_PLACEMENT_3D('',#1884,#1541,#1542);
#1306=AXIS2_PLACEMENT_3D('',#1888,#1545,#1546);
#1307=AXIS2_PLACEMENT_3D('',#1892,#1549,#1550);
#1308=AXIS2_PLACEMENT_3D('',#1894,#1552,#1553);
#1309=AXIS2_PLACEMENT_3D('',#1896,#1555,#1556);
#1310=AXIS2_PLACEMENT_3D('',#1897,#1557,#1558);
#1311=AXIS2_PLACEMENT_3D('',#1903,#1562,#1563);
#1312=AXIS2_PLACEMENT_3D('',#1909,#1567,#1568);
#1313=AXIS2_PLACEMENT_3D('',#1911,#1570,#1571);
#1314=AXIS2_PLACEMENT_3D('',#1913,#1573,#1574);
#1315=AXIS2_PLACEMENT_3D('',#1914,#1575,#1576);
#1316=AXIS2_PLACEMENT_3D('',#1920,#1580,#1581);
#1317=AXIS2_PLACEMENT_3D('',#1926,#1585,#1586);
#1318=AXIS2_PLACEMENT_3D('',#1928,#1588,#1589);
#1319=AXIS2_PLACEMENT_3D('',#1930,#1591,#1592);
#1320=AXIS2_PLACEMENT_3D('',#1931,#1593,#1594);
#1321=AXIS2_PLACEMENT_3D('',#1937,#1598,#1599);
#1322=AXIS2_PLACEMENT_3D('',#1943,#1603,#1604);
#1323=AXIS2_PLACEMENT_3D('',#1945,#1606,#1607);
#1324=AXIS2_PLACEMENT_3D('',#1947,#1609,#1610);
#1325=AXIS2_PLACEMENT_3D('',#1948,#1611,#1612);
#1326=AXIS2_PLACEMENT_3D('',#1949,#1613,#1614);
#1327=AXIS2_PLACEMENT_3D('',#1950,#1615,#1616);
#1328=AXIS2_PLACEMENT_3D('',#1951,#1617,#1618);
#1329=AXIS2_PLACEMENT_3D('',#1952,#1619,#1620);
#1330=AXIS2_PLACEMENT_3D('',#1953,#1621,#1622);
#1331=AXIS2_PLACEMENT_3D('',#1954,#1623,#1624);
#1332=AXIS2_PLACEMENT_3D('',#1963,#1629,#1630);
#1333=AXIS2_PLACEMENT_3D('',#1969,#1634,#1635);
#1334=AXIS2_PLACEMENT_3D('',#1975,#1639,#1640);
#1335=AXIS2_PLACEMENT_3D('',#1981,#1644,#1645);
#1336=AXIS2_PLACEMENT_3D('',#1987,#1649,#1650);
#1337=AXIS2_PLACEMENT_3D('',#1990,#1653,#1654);
#1338=AXIS2_PLACEMENT_3D('',#1991,#1655,#1656);
#1339=AXIS2_PLACEMENT_3D('',#1992,#1657,#1658);
#1340=AXIS2_PLACEMENT_3D('',#1993,#1659,#1660);
#1341=AXIS2_PLACEMENT_3D('',#1994,#1661,#1662);
#1342=AXIS2_PLACEMENT_3D('',#1995,#1663,#1664);
#1343=DIRECTION('axis',(0.,0.,1.));
#1344=DIRECTION('refdir',(1.,0.,0.));
#1345=DIRECTION('axis',(0.,0.,1.));
#1346=DIRECTION('refdir',(1.,0.,0.));
#1347=DIRECTION('center_axis',(1.,0.,0.));
#1348=DIRECTION('ref_axis',(0.,0.,-1.));
#1349=DIRECTION('',(0.,-1.,0.));
#1350=DIRECTION('',(0.,0.,-1.));
#1351=DIRECTION('',(0.,-1.,0.));
#1352=DIRECTION('',(0.,0.,-1.));
#1353=DIRECTION('center_axis',(0.,1.,0.));
#1354=DIRECTION('ref_axis',(0.,0.,1.));
#1355=DIRECTION('',(1.,0.,0.));
#1356=DIRECTION('',(0.,0.,-1.));
#1357=DIRECTION('',(1.,0.,0.));
#1358=DIRECTION('center_axis',(0.,1.,0.));
#1359=DIRECTION('ref_axis',(0.,0.,1.));
#1360=DIRECTION('center_axis',(0.,1.,0.));
#1361=DIRECTION('ref_axis',(0.,0.,1.));
#1362=DIRECTION('center_axis',(-1.,0.,0.));
#1363=DIRECTION('ref_axis',(0.,0.,1.));
#1364=DIRECTION('',(0.,0.,-1.));
#1365=DIRECTION('',(0.,0.,-1.));
#1366=DIRECTION('',(0.,1.,0.));
#1367=DIRECTION('',(0.,1.,0.));
#1368=DIRECTION('center_axis',(0.,-1.,0.));
#1369=DIRECTION('ref_axis',(0.,0.,-1.));
#1370=DIRECTION('center_axis',(0.,1.,0.));
#1371=DIRECTION('ref_axis',(0.,0.,1.));
#1372=DIRECTION('center_axis',(0.,1.,0.));
#1373=DIRECTION('ref_axis',(0.,0.,1.));
#1374=DIRECTION('',(-1.,0.,0.));
#1375=DIRECTION('',(-1.,0.,0.));
#1376=DIRECTION('center_axis',(0.,1.,0.));
#1377=DIRECTION('ref_axis',(0.,0.,1.));
#1378=DIRECTION('center_axis',(0.,0.,-1.));
#1379=DIRECTION('ref_axis',(-1.,0.,0.));
#1380=DIRECTION('center_axis',(0.,0.,1.));
#1381=DIRECTION('ref_axis',(1.,0.,0.));
#1382=DIRECTION('center_axis',(0.,0.,1.));
#1383=DIRECTION('ref_axis',(1.,0.,0.));
#1384=DIRECTION('center_axis',(0.,0.,-1.));
#1385=DIRECTION('ref_axis',(-1.,0.,0.));
#1386=DIRECTION('center_axis',(0.,0.,1.));
#1387=DIRECTION('ref_axis',(1.,0.,0.));
#1388=DIRECTION('center_axis',(0.,0.,1.));
#1389=DIRECTION('ref_axis',(1.,0.,0.));
#1390=DIRECTION('center_axis',(0.,0.,1.));
#1391=DIRECTION('ref_axis',(1.,0.,0.));
#1392=DIRECTION('',(0.,0.,1.));
#1393=DIRECTION('center_axis',(0.,0.,1.));
#1394=DIRECTION('ref_axis',(1.,0.,0.));
#1395=DIRECTION('',(0.,0.,1.));
#1396=DIRECTION('center_axis',(0.,1.,0.));
#1397=DIRECTION('ref_axis',(0.,0.,1.));
#1398=DIRECTION('center_axis',(0.,1.,0.));
#1399=DIRECTION('ref_axis',(0.,0.,1.));
#1400=DIRECTION('',(-8.65956056235494E-17,0.707106781186547,-0.707106781186548));
#1401=DIRECTION('center_axis',(0.,1.,0.));
#1402=DIRECTION('ref_axis',(0.,0.,1.));
#1403=DIRECTION('',(0.,1.,0.));
#1404=DIRECTION('center_axis',(0.,1.,0.));
#1405=DIRECTION('ref_axis',(0.,0.,1.));
#1406=DIRECTION('',(0.,1.,0.));
#1407=DIRECTION('center_axis',(0.,1.,0.));
#1408=DIRECTION('ref_axis',(0.,0.,1.));
#1409=DIRECTION('center_axis',(0.,1.,0.));
#1410=DIRECTION('ref_axis',(0.,0.,1.));
#1411=DIRECTION('',(-8.65956056235493E-17,0.707106781186547,-0.707106781186547));
#1412=DIRECTION('axis',(0.,0.,1.));
#1413=DIRECTION('refdir',(1.,0.,0.));
#1414=DIRECTION('center_axis',(1.,0.,0.));
#1415=DIRECTION('ref_axis',(0.,0.,-1.));
#1416=DIRECTION('',(0.,-1.,0.));
#1417=DIRECTION('',(0.,0.,-1.));
#1418=DIRECTION('',(0.,-1.,0.));
#1419=DIRECTION('',(0.,0.,-1.));
#1420=DIRECTION('center_axis',(4.43872222105462E-32,1.,0.));
#1421=DIRECTION('ref_axis',(0.,0.,1.));
#1422=DIRECTION('',(1.,-4.43872222105462E-32,0.));
#1423=DIRECTION('',(0.,0.,-1.));
#1424=DIRECTION('',(1.,-4.43872222105462E-32,0.));
#1425=DIRECTION('center_axis',(-1.,0.,0.));
#1426=DIRECTION('ref_axis',(0.,0.,1.));
#1427=DIRECTION('',(0.,1.,0.));
#1428=DIRECTION('',(0.,0.,-1.));
#1429=DIRECTION('',(0.,1.,0.));
#1430=DIRECTION('center_axis',(0.,-1.,0.));
#1431=DIRECTION('ref_axis',(0.,0.,-1.));
#1432=DIRECTION('',(-1.,0.,0.));
#1433=DIRECTION('',(-1.,0.,0.));
#1434=DIRECTION('center_axis',(0.,0.,1.));
#1435=DIRECTION('ref_axis',(1.,0.,0.));
#1436=DIRECTION('center_axis',(0.,0.,1.));
#1437=DIRECTION('ref_axis',(1.,0.,0.));
#1438=DIRECTION('center_axis',(0.,0.,1.));
#1439=DIRECTION('ref_axis',(1.,0.,0.));
#1440=DIRECTION('center_axis',(0.,0.,1.));
#1441=DIRECTION('ref_axis',(1.,0.,0.));
#1442=DIRECTION('center_axis',(0.,0.,1.));
#1443=DIRECTION('ref_axis',(1.,0.,0.));
#1444=DIRECTION('center_axis',(0.,0.,1.));
#1445=DIRECTION('ref_axis',(1.,0.,0.));
#1446=DIRECTION('center_axis',(0.,0.,1.));
#1447=DIRECTION('ref_axis',(1.,0.,0.));
#1448=DIRECTION('',(0.,0.,1.));
#1449=DIRECTION('center_axis',(0.,0.,1.));
#1450=DIRECTION('ref_axis',(1.,0.,0.));
#1451=DIRECTION('',(0.,0.,1.));
#1452=DIRECTION('axis',(0.,0.,1.));
#1453=DIRECTION('refdir',(1.,0.,0.));
#1454=DIRECTION('center_axis',(-1.,0.,0.));
#1455=DIRECTION('ref_axis',(0.,0.,1.));
#1456=DIRECTION('',(0.,0.,-1.));
#1457=DIRECTION('',(0.,-1.,0.));
#1458=DIRECTION('',(0.,0.,-1.));
#1459=DIRECTION('',(0.,1.,0.));
#1460=DIRECTION('center_axis',(0.,-1.,0.));
#1461=DIRECTION('ref_axis',(0.,0.,-1.));
#1462=DIRECTION('',(1.,0.,0.));
#1463=DIRECTION('',(0.,0.,-1.));
#1464=DIRECTION('',(-1.,0.,0.));
#1465=DIRECTION('',(0.,0.,-1.));
#1466=DIRECTION('',(1.,0.,0.));
#1467=DIRECTION('',(0.,0.,1.));
#1468=DIRECTION('',(-1.,0.,0.));
#1469=DIRECTION('',(0.,0.,1.));
#1470=DIRECTION('',(-1.,0.,0.));
#1471=DIRECTION('',(0.,0.,-1.));
#1472=DIRECTION('',(1.,0.,0.));
#1473=DIRECTION('center_axis',(1.,0.,0.));
#1474=DIRECTION('ref_axis',(0.,0.,-1.));
#1475=DIRECTION('',(0.,1.,0.));
#1476=DIRECTION('',(0.,0.,-1.));
#1477=DIRECTION('',(0.,-1.,0.));
#1478=DIRECTION('center_axis',(0.,1.,0.));
#1479=DIRECTION('ref_axis',(0.,0.,1.));
#1480=DIRECTION('',(-1.,0.,0.));
#1481=DIRECTION('',(1.,0.,0.));
#1482=DIRECTION('',(-1.,0.,0.));
#1483=DIRECTION('',(0.,0.,1.));
#1484=DIRECTION('',(1.,0.,0.));
#1485=DIRECTION('',(0.,0.,-1.));
#1486=DIRECTION('',(-1.,0.,0.));
#1487=DIRECTION('',(0.,0.,1.));
#1488=DIRECTION('',(1.,0.,0.));
#1489=DIRECTION('',(0.,0.,-1.));
#1490=DIRECTION('',(-1.,0.,0.));
#1491=DIRECTION('',(0.,0.,1.));
#1492=DIRECTION('',(1.,0.,0.));
#1493=DIRECTION('',(0.,0.,-1.));
#1494=DIRECTION('center_axis',(0.,0.,1.));
#1495=DIRECTION('ref_axis',(1.,0.,0.));
#1496=DIRECTION('center_axis',(0.,0.,1.));
#1497=DIRECTION('ref_axis',(1.,0.,0.));
#1498=DIRECTION('',(-1.,0.,0.));
#1499=DIRECTION('center_axis',(0.,0.,1.));
#1500=DIRECTION('ref_axis',(1.,0.,0.));
#1501=DIRECTION('',(1.,0.,0.));
#1502=DIRECTION('center_axis',(0.,0.,1.));
#1503=DIRECTION('ref_axis',(1.,0.,0.));
#1504=DIRECTION('center_axis',(0.,0.,1.));
#1505=DIRECTION('ref_axis',(1.,0.,0.));
#1506=DIRECTION('center_axis',(0.,0.,-1.));
#1507=DIRECTION('ref_axis',(1.,0.,0.));
#1508=DIRECTION('',(1.,0.,0.));
#1509=DIRECTION('center_axis',(0.,0.,-1.));
#1510=DIRECTION('ref_axis',(1.,0.,0.));
#1511=DIRECTION('',(-1.,0.,0.));
#1512=DIRECTION('center_axis',(0.,0.,-1.));
#1513=DIRECTION('ref_axis',(1.,0.,0.));
#1514=DIRECTION('center_axis',(0.,0.,-1.));
#1515=DIRECTION('ref_axis',(1.,0.,0.));
#1516=DIRECTION('',(0.,0.,-1.));
#1517=DIRECTION('center_axis',(0.,0.,-1.));
#1518=DIRECTION('ref_axis',(1.,0.,0.));
#1519=DIRECTION('',(0.,0.,-1.));
#1520=DIRECTION('',(0.,0.,1.));
#1521=DIRECTION('center_axis',(0.,-1.,0.));
#1522=DIRECTION('ref_axis',(0.,0.,-1.));
#1523=DIRECTION('',(0.,0.,1.));
#1524=DIRECTION('center_axis',(0.,0.,-1.));
#1525=DIRECTION('ref_axis',(-1.,-1.22464679914735E-16,0.));
#1526=DIRECTION('',(0.,0.,-1.));
#1527=DIRECTION('center_axis',(0.,1.,0.));
#1528=DIRECTION('ref_axis',(0.,0.,1.));
#1529=DIRECTION('center_axis',(0.,0.,1.));
#1530=DIRECTION('ref_axis',(1.,0.,0.));
#1531=DIRECTION('',(5.02825269616464E-6,-0.999999999987358,0.));
#1532=DIRECTION('',(-0.931679220841708,-0.363282024674752,0.));
#1533=DIRECTION('',(0.363282024674747,-0.93167922084171,0.));
#1534=DIRECTION('',(0.931679220841709,0.363282024674751,0.));
#1535=DIRECTION('',(-9.99028949418121E-6,0.999999999950097,0.));
#1536=DIRECTION('center_axis',(0.363282024674752,-0.931679220841709,0.));
#1537=DIRECTION('ref_axis',(0.,0.,-1.));
#1538=DIRECTION('',(0.,0.,1.));
#1539=DIRECTION('',(0.931679220841708,0.363282024674752,0.));
#1540=DIRECTION('',(0.,0.,1.));
#1541=DIRECTION('center_axis',(0.931679220841711,0.363282024674745,0.));
#1542=DIRECTION('ref_axis',(0.,0.,-1.));
#1543=DIRECTION('',(-0.363282024674747,0.93167922084171,0.));
#1544=DIRECTION('',(0.,0.,1.));
#1545=DIRECTION('center_axis',(-0.36328202467475,0.931679220841709,0.));
#1546=DIRECTION('ref_axis',(0.,0.,1.));
#1547=DIRECTION('',(0.931679220841709,0.363282024674751,0.));
#1548=DIRECTION('',(0.,0.,1.));
#1549=DIRECTION('center_axis',(0.999999999987358,5.0282527014689E-6,0.));
#1550=DIRECTION('ref_axis',(0.,0.,-1.));
#1551=DIRECTION('',(5.02825269616464E-6,-0.999999999987358,0.));
#1552=DIRECTION('center_axis',(-0.999999999950097,-9.99028949325345E-6,
0.));
#1553=DIRECTION('ref_axis',(0.,0.,1.));
#1554=DIRECTION('',(9.99028949418121E-6,-0.999999999950097,0.));
#1555=DIRECTION('center_axis',(0.,0.,1.));
#1556=DIRECTION('ref_axis',(1.,0.,0.));
#1557=DIRECTION('center_axis',(-1.,0.,0.));
#1558=DIRECTION('ref_axis',(0.,0.,1.));
#1559=DIRECTION('',(0.,1.,0.));
#1560=DIRECTION('',(0.,0.,-1.));
#1561=DIRECTION('',(0.,-1.,0.));
#1562=DIRECTION('center_axis',(0.,1.,0.));
#1563=DIRECTION('ref_axis',(0.,0.,1.));
#1564=DIRECTION('',(0.,0.,-1.));
#1565=DIRECTION('',(-1.,0.,0.));
#1566=DIRECTION('',(1.,0.,0.));
#1567=DIRECTION('center_axis',(0.,0.,1.));
#1568=DIRECTION('ref_axis',(1.,0.,0.));
#1569=DIRECTION('',(0.,-1.,0.));
#1570=DIRECTION('center_axis',(0.,0.,1.));
#1571=DIRECTION('ref_axis',(1.,0.,0.));
#1572=DIRECTION('',(0.,1.,0.));
#1573=DIRECTION('center_axis',(1.,0.,0.));
#1574=DIRECTION('ref_axis',(0.,0.,-1.));
#1575=DIRECTION('center_axis',(-1.,0.,0.));
#1576=DIRECTION('ref_axis',(0.,0.,1.));
#1577=DIRECTION('',(0.,1.,0.));
#1578=DIRECTION('',(0.,0.,-1.));
#1579=DIRECTION('',(0.,-1.,0.));
#1580=DIRECTION('center_axis',(0.,1.,0.));
#1581=DIRECTION('ref_axis',(0.,0.,1.));
#1582=DIRECTION('',(0.,0.,-1.));
#1583=DIRECTION('',(-1.,0.,0.));
#1584=DIRECTION('',(1.,0.,0.));
#1585=DIRECTION('center_axis',(0.,0.,1.));
#1586=DIRECTION('ref_axis',(1.,0.,0.));
#1587=DIRECTION('',(0.,-1.,0.));
#1588=DIRECTION('center_axis',(0.,0.,1.));
#1589=DIRECTION('ref_axis',(1.,0.,0.));
#1590=DIRECTION('',(0.,1.,0.));
#1591=DIRECTION('center_axis',(1.,0.,0.));
#1592=DIRECTION('ref_axis',(0.,0.,-1.));
#1593=DIRECTION('center_axis',(-1.,0.,0.));
#1594=DIRECTION('ref_axis',(0.,0.,1.));
#1595=DIRECTION('',(0.,1.,0.));
#1596=DIRECTION('',(0.,0.,-1.));
#1597=DIRECTION('',(0.,-1.,0.));
#1598=DIRECTION('center_axis',(0.,1.,0.));
#1599=DIRECTION('ref_axis',(0.,0.,1.));
#1600=DIRECTION('',(0.,0.,-1.));
#1601=DIRECTION('',(-1.,0.,0.));
#1602=DIRECTION('',(1.,0.,0.));
#1603=DIRECTION('center_axis',(0.,0.,1.));
#1604=DIRECTION('ref_axis',(1.,0.,0.));
#1605=DIRECTION('',(0.,-1.,0.));
#1606=DIRECTION('center_axis',(0.,0.,1.));
#1607=DIRECTION('ref_axis',(1.,0.,0.));
#1608=DIRECTION('',(0.,1.,0.));
#1609=DIRECTION('center_axis',(1.,0.,0.));
#1610=DIRECTION('ref_axis',(0.,0.,-1.));
#1611=DIRECTION('center_axis',(0.,0.,-1.));
#1612=DIRECTION('ref_axis',(-1.,0.,0.));
#1613=DIRECTION('center_axis',(0.,0.,-1.));
#1614=DIRECTION('ref_axis',(1.,0.,0.));
#1615=DIRECTION('center_axis',(0.,0.,-1.));
#1616=DIRECTION('ref_axis',(1.,0.,0.));
#1617=DIRECTION('center_axis',(0.,0.,1.));
#1618=DIRECTION('ref_axis',(1.,0.,0.));
#1619=DIRECTION('center_axis',(0.,0.,1.));
#1620=DIRECTION('ref_axis',(1.,0.,0.));
#1621=DIRECTION('axis',(0.,0.,1.));
#1622=DIRECTION('refdir',(1.,0.,0.));
#1623=DIRECTION('center_axis',(-1.35525271560688E-16,-1.,0.));
#1624=DIRECTION('ref_axis',(0.,0.,-1.));
#1625=DIRECTION('',(-1.,1.3010426069826E-16,0.));
#1626=DIRECTION('',(0.,0.,-1.));
#1627=DIRECTION('',(-1.,1.3010426069826E-16,0.));
#1628=DIRECTION('',(0.,0.,-1.));
#1629=DIRECTION('center_axis',(-1.,0.,0.));
#1630=DIRECTION('ref_axis',(0.,0.,1.));
#1631=DIRECTION('',(0.,1.,0.));
#1632=DIRECTION('',(0.,0.,-1.));
#1633=DIRECTION('',(0.,1.,0.));
#1634=DIRECTION('center_axis',(0.,-1.,0.));
#1635=DIRECTION('ref_axis',(0.,0.,-1.));
#1636=DIRECTION('',(-1.,0.,0.));
#1637=DIRECTION('',(0.,0.,-1.));
#1638=DIRECTION('',(-1.,0.,0.));
#1639=DIRECTION('center_axis',(1.,0.,0.));
#1640=DIRECTION('ref_axis',(0.,0.,-1.));
#1641=DIRECTION('',(0.,-1.,0.));
#1642=DIRECTION('',(0.,0.,-1.));
#1643=DIRECTION('',(0.,-1.,0.));
#1644=DIRECTION('center_axis',(6.67201336914156E-17,1.,0.));
#1645=DIRECTION('ref_axis',(0.,0.,1.));
#1646=DIRECTION('',(1.,-5.69345140833413E-17,0.));
#1647=DIRECTION('',(0.,0.,-1.));
#1648=DIRECTION('',(1.,-5.69345140833413E-17,0.));
#1649=DIRECTION('center_axis',(-1.,-1.03257349760524E-16,0.));
#1650=DIRECTION('ref_axis',(0.,0.,1.));
#1651=DIRECTION('',(-1.32169407693471E-16,1.,0.));
#1652=DIRECTION('',(-1.32169407693471E-16,1.,0.));
#1653=DIRECTION('center_axis',(0.,0.,-1.));
#1654=DIRECTION('ref_axis',(-1.,0.,0.));
#1655=DIRECTION('center_axis',(0.,0.,-1.));
#1656=DIRECTION('ref_axis',(-1.,0.,0.));
#1657=DIRECTION('',(-1.,2.83943598074858E-17,1.66533453693773E-16));
#1658=DIRECTION('',(-1.66533453693773E-16,-9.10844963792882E-17,-1.));
#1659=DIRECTION('',(-1.,8.04272908661381E-16,1.66533453693773E-16));
#1660=DIRECTION('',(-1.66533453693773E-16,-1.75221797995122E-16,-1.));
#1661=DIRECTION('',(6.7762635780344E-17,1.,-6.74779818950665E-33));
#1662=DIRECTION('',(-1.,6.7762635780344E-17,6.7762635780344E-17));
#1663=DIRECTION('',(-6.7762635780344E-17,-2.15602338160709E-33,-1.));
#1664=DIRECTION('',(1.,-6.7762635780344E-17,-6.7762635780344E-17));
#1665=CARTESIAN_POINT('',(0.,0.,0.));
#1666=CARTESIAN_POINT('',(0.,0.,0.));
#1667=CARTESIAN_POINT('Origin',(0.,0.,6.5));
#1668=CARTESIAN_POINT('',(0.,11.,0.));
#1669=CARTESIAN_POINT('',(0.,0.,0.));
#1670=CARTESIAN_POINT('',(0.,11.,0.));
#1671=CARTESIAN_POINT('',(0.,0.,6.5));
#1672=CARTESIAN_POINT('',(0.,0.,6.5));
#1673=CARTESIAN_POINT('',(0.,11.,6.5));
#1674=CARTESIAN_POINT('',(0.,11.,6.5));
#1675=CARTESIAN_POINT('',(0.,11.,6.5));
#1676=CARTESIAN_POINT('Origin',(0.,0.,6.5));
#1677=CARTESIAN_POINT('',(20.,0.,0.));
#1678=CARTESIAN_POINT('',(0.,0.,0.));
#1679=CARTESIAN_POINT('',(20.,0.,6.5));
#1680=CARTESIAN_POINT('',(20.,0.,6.5));
#1681=CARTESIAN_POINT('',(0.,0.,6.5));
#1682=CARTESIAN_POINT('',(7.7,0.,1.65));
#1683=CARTESIAN_POINT('Origin',(7.7,0.,3.25));
#1684=CARTESIAN_POINT('',(16.9,0.,1.65));
#1685=CARTESIAN_POINT('Origin',(16.9,0.,3.25));
#1686=CARTESIAN_POINT('Origin',(20.,0.,6.5));
#1687=CARTESIAN_POINT('',(20.,11.,2.69098300562506));
#1688=CARTESIAN_POINT('',(20.,11.,0.));
#1689=CARTESIAN_POINT('',(20.,11.,2.69098300562506));
#1690=CARTESIAN_POINT('',(20.,11.,3.80901699437494));
#1691=CARTESIAN_POINT('Ctrl Pts',(20.,11.,2.69098300562509));
#1692=CARTESIAN_POINT('Ctrl Pts',(20.,10.9007936507937,3.25));
#1693=CARTESIAN_POINT('Ctrl Pts',(20.,11.,3.80901699437491));
#1694=CARTESIAN_POINT('',(20.,11.,6.5));
#1695=CARTESIAN_POINT('',(20.,11.,6.5));
#1696=CARTESIAN_POINT('',(20.,0.,6.5));
#1697=CARTESIAN_POINT('',(20.,0.,0.));
#1698=CARTESIAN_POINT('Origin',(0.,11.,6.5));
#1699=CARTESIAN_POINT('',(16.9,11.,0.0999999999999996));
#1700=CARTESIAN_POINT('Origin',(16.9,11.,3.25));
#1701=CARTESIAN_POINT('Origin',(16.9,11.,3.25));
#1702=CARTESIAN_POINT('',(20.,11.,0.));
#1703=CARTESIAN_POINT('',(20.,11.,6.5));
#1704=CARTESIAN_POINT('',(7.7,11.,0.1));
#1705=CARTESIAN_POINT('Origin',(7.7,11.,3.25));
#1706=CARTESIAN_POINT('Origin',(0.,0.,6.5));
#1707=CARTESIAN_POINT('',(1.6,5.5,6.5));
#1708=CARTESIAN_POINT('Origin',(3.1,5.5,6.5));
#1709=CARTESIAN_POINT('',(10.8,5.5,6.5));
#1710=CARTESIAN_POINT('Origin',(12.3,5.5,6.5));
#1711=CARTESIAN_POINT('Origin',(0.,0.,0.));
#1712=CARTESIAN_POINT('',(1.6,5.5,0.));
#1713=CARTESIAN_POINT('Origin',(3.1,5.5,0.));
#1714=CARTESIAN_POINT('',(10.8,5.5,0.));
#1715=CARTESIAN_POINT('Origin',(12.3,5.5,0.));
#1716=CARTESIAN_POINT('Origin',(12.3,5.5,0.));
#1717=CARTESIAN_POINT('',(10.8,5.5,0.));
#1718=CARTESIAN_POINT('Origin',(3.1,5.5,0.));
#1719=CARTESIAN_POINT('',(1.6,5.5,0.));
#1720=CARTESIAN_POINT('Origin',(16.9,11.,3.25));
#1721=CARTESIAN_POINT('',(16.9,9.45,1.65));
#1722=CARTESIAN_POINT('Origin',(16.9,9.45,3.25));
#1723=CARTESIAN_POINT('',(16.9,11.,0.1));
#1724=CARTESIAN_POINT('Origin',(16.9,11.,3.25));
#1725=CARTESIAN_POINT('',(16.9,11.,1.65));
#1726=CARTESIAN_POINT('Origin',(7.7,11.,3.25));
#1727=CARTESIAN_POINT('',(7.7,9.45,1.65));
#1728=CARTESIAN_POINT('',(7.7,11.,1.65));
#1729=CARTESIAN_POINT('Origin',(7.7,9.45,3.25));
#1730=CARTESIAN_POINT('Origin',(7.7,11.,3.25));
#1731=CARTESIAN_POINT('',(7.7,11.,0.1));
#1732=CARTESIAN_POINT('',(0.,0.,0.));
#1733=CARTESIAN_POINT('Origin',(1.04083408558608E-14,11.,0.25));
#1734=CARTESIAN_POINT('',(1.04083408558608E-14,11.,0.));
#1735=CARTESIAN_POINT('',(1.04083408558608E-14,0.,0.));
#1736=CARTESIAN_POINT('',(1.04083408558608E-14,11.,0.));
#1737=CARTESIAN_POINT('',(1.04083408558608E-14,0.,0.25));
#1738=CARTESIAN_POINT('',(1.04083408558608E-14,0.,0.25));
#1739=CARTESIAN_POINT('',(1.04083408558608E-14,11.,0.25));
#1740=CARTESIAN_POINT('',(1.04083408558608E-14,11.,0.25));
#1741=CARTESIAN_POINT('',(1.04083408558608E-14,11.,0.25));
#1742=CARTESIAN_POINT('Origin',(1.04083408558608E-14,0.,0.25));
#1743=CARTESIAN_POINT('',(25.,-1.10968055526366E-30,0.));
#1744=CARTESIAN_POINT('',(1.04083408558608E-14,0.,0.));
#1745=CARTESIAN_POINT('',(25.,-1.10968055526366E-30,0.25));
#1746=CARTESIAN_POINT('',(25.,-1.10968055526366E-30,0.25));
#1747=CARTESIAN_POINT('',(1.04083408558608E-14,0.,0.25));
#1748=CARTESIAN_POINT('Origin',(25.,11.,0.25));
#1749=CARTESIAN_POINT('',(25.,11.,0.));
#1750=CARTESIAN_POINT('',(25.,0.,0.));
#1751=CARTESIAN_POINT('',(25.,11.,0.25));
#1752=CARTESIAN_POINT('',(25.,11.,0.25));
#1753=CARTESIAN_POINT('',(25.,0.,0.25));
#1754=CARTESIAN_POINT('Origin',(1.04083408558608E-14,11.,0.25));
#1755=CARTESIAN_POINT('',(25.,11.,0.));
#1756=CARTESIAN_POINT('',(25.,11.,0.25));
#1757=CARTESIAN_POINT('Origin',(0.,0.,0.25));
#1758=CARTESIAN_POINT('',(10.8,5.5,0.25));
#1759=CARTESIAN_POINT('Origin',(12.3,5.5,0.25));
#1760=CARTESIAN_POINT('',(1.6,5.5,0.25));
#1761=CARTESIAN_POINT('Origin',(3.1,5.5,0.25));
#1762=CARTESIAN_POINT('Origin',(0.,0.,0.));
#1763=CARTESIAN_POINT('',(10.8,5.5,0.));
#1764=CARTESIAN_POINT('Origin',(12.3,5.5,0.));
#1765=CARTESIAN_POINT('',(1.6,5.5,0.));
#1766=CARTESIAN_POINT('Origin',(3.1,5.5,0.));
#1767=CARTESIAN_POINT('Origin',(3.1,5.5,0.));
#1768=CARTESIAN_POINT('',(1.6,5.5,0.));
#1769=CARTESIAN_POINT('Origin',(12.3,5.5,0.));
#1770=CARTESIAN_POINT('',(10.8,5.5,0.));
#1771=CARTESIAN_POINT('',(0.,0.,0.));
#1772=CARTESIAN_POINT('Origin',(6.4,3.25,0.));
#1773=CARTESIAN_POINT('',(6.4,0.,2.9));
#1774=CARTESIAN_POINT('',(6.4,0.,-2.9));
#1775=CARTESIAN_POINT('',(6.4,0.,2.9));
#1776=CARTESIAN_POINT('',(6.4,6.5,-2.9));
#1777=CARTESIAN_POINT('',(6.4,6.5,-2.9));
#1778=CARTESIAN_POINT('',(6.4,6.5,2.9));
#1779=CARTESIAN_POINT('',(6.4,6.5,2.9));
#1780=CARTESIAN_POINT('',(6.4,0.,2.9));
#1781=CARTESIAN_POINT('Origin',(0.,6.5,0.));
#1782=CARTESIAN_POINT('',(-6.4,6.5,-2.9));
#1783=CARTESIAN_POINT('',(-6.4,6.5,-2.9));
#1784=CARTESIAN_POINT('',(-6.4,6.5,2.9));
#1785=CARTESIAN_POINT('',(-6.4,6.5,2.9));
#1786=CARTESIAN_POINT('',(6.4,6.5,2.9));
#1787=CARTESIAN_POINT('',(-5.3000080715871,6.5,1.5));
#1788=CARTESIAN_POINT('',(-5.3000080715871,6.5,-1.5));
#1789=CARTESIAN_POINT('',(-5.3000080715871,6.5,1.5));
#1790=CARTESIAN_POINT('',(-5.00000406262541,6.5,-1.5));
#1791=CARTESIAN_POINT('',(-5.3000080715871,6.5,-1.5));
#1792=CARTESIAN_POINT('',(-5.00000406262541,6.5,1.5));
#1793=CARTESIAN_POINT('',(-5.00000406262541,6.5,-1.5));
#1794=CARTESIAN_POINT('',(-5.00000406262541,6.5,1.5));
#1795=CARTESIAN_POINT('',(-1.35,6.5,-1.45));
#1796=CARTESIAN_POINT('',(-1.35,6.5,1.45));
#1797=CARTESIAN_POINT('',(-1.35,6.5,-1.45));
#1798=CARTESIAN_POINT('',(-2.55,6.5,1.45));
#1799=CARTESIAN_POINT('',(-1.35,6.5,1.45));
#1800=CARTESIAN_POINT('',(-2.55,6.5,-1.45));
#1801=CARTESIAN_POINT('',(-2.55,6.5,1.45));
#1802=CARTESIAN_POINT('',(-2.55,6.5,-1.45));
#1803=CARTESIAN_POINT('Origin',(-6.4,3.25,0.));
#1804=CARTESIAN_POINT('',(-6.4,0.,-2.9));
#1805=CARTESIAN_POINT('',(-6.4,0.,-2.9));
#1806=CARTESIAN_POINT('',(-6.4,0.,2.9));
#1807=CARTESIAN_POINT('',(-6.4,0.,2.9));
#1808=CARTESIAN_POINT('',(-6.4,6.5,2.9));
#1809=CARTESIAN_POINT('Origin',(0.,0.,0.));
#1810=CARTESIAN_POINT('',(6.4,0.,-2.9));
#1811=CARTESIAN_POINT('',(-6.4,0.,2.9));
#1812=CARTESIAN_POINT('',(-4.63,0.,-0.2));
#1813=CARTESIAN_POINT('',(-5.53,0.,-0.2));
#1814=CARTESIAN_POINT('',(-4.63,0.,-0.2));
#1815=CARTESIAN_POINT('',(-5.53,0.,0.2));
#1816=CARTESIAN_POINT('',(-5.53,0.,-0.2));
#1817=CARTESIAN_POINT('',(-4.63,0.,0.2));
#1818=CARTESIAN_POINT('',(-5.53,0.,0.2));
#1819=CARTESIAN_POINT('',(-4.63,0.,0.2));
#1820=CARTESIAN_POINT('',(0.45,0.,-0.2));
#1821=CARTESIAN_POINT('',(-0.45,0.,-0.2));
#1822=CARTESIAN_POINT('',(0.45,0.,-0.2));
#1823=CARTESIAN_POINT('',(-0.45,0.,0.2));
#1824=CARTESIAN_POINT('',(-0.45,0.,-0.2));
#1825=CARTESIAN_POINT('',(0.45,0.,0.2));
#1826=CARTESIAN_POINT('',(-0.45,0.,0.2));
#1827=CARTESIAN_POINT('',(0.45,0.,0.2));
#1828=CARTESIAN_POINT('',(5.53,0.,-0.2));
#1829=CARTESIAN_POINT('',(4.63,0.,-0.2));
#1830=CARTESIAN_POINT('',(5.53,0.,-0.2));
#1831=CARTESIAN_POINT('',(4.63,0.,0.2));
#1832=CARTESIAN_POINT('',(4.63,0.,-0.2));
#1833=CARTESIAN_POINT('',(5.53,0.,0.2));
#1834=CARTESIAN_POINT('',(4.63,0.,0.2));
#1835=CARTESIAN_POINT('',(5.53,0.,0.2));
#1836=CARTESIAN_POINT('Origin',(0.,3.25,-2.9));
#1837=CARTESIAN_POINT('',(2.25,1.5,-2.9));
#1838=CARTESIAN_POINT('Origin',(3.25,1.5,-2.9));
#1839=CARTESIAN_POINT('',(-2.79174243050441,2.5,-2.9));
#1840=CARTESIAN_POINT('',(-3.70825756949559,2.5,-2.9));
#1841=CARTESIAN_POINT('',(-2.79174243050441,2.5,-2.9));
#1842=CARTESIAN_POINT('',(-3.70825756949559,0.5,-2.9));
#1843=CARTESIAN_POINT('Origin',(-3.25,1.5,-2.9));
#1844=CARTESIAN_POINT('',(-2.79174243050441,0.5,-2.9));
#1845=CARTESIAN_POINT('',(-3.70825756949559,0.5,-2.9));
#1846=CARTESIAN_POINT('Origin',(-3.25,1.5,-2.9));
#1847=CARTESIAN_POINT('Origin',(0.,3.25,2.9));
#1848=CARTESIAN_POINT('',(2.25,1.5,2.9));
#1849=CARTESIAN_POINT('Origin',(3.25,1.5,2.9));
#1850=CARTESIAN_POINT('',(-3.70825756949559,2.5,2.9));
#1851=CARTESIAN_POINT('',(-2.79174243050441,2.5,2.9));
#1852=CARTESIAN_POINT('',(-3.70825756949559,2.5,2.9));
#1853=CARTESIAN_POINT('',(-2.79174243050441,0.5,2.9));
#1854=CARTESIAN_POINT('Origin',(-3.25,1.5,2.9));
#1855=CARTESIAN_POINT('',(-3.70825756949559,0.5,2.9));
#1856=CARTESIAN_POINT('',(-2.79174243050441,0.5,2.9));
#1857=CARTESIAN_POINT('Origin',(-3.25,1.5,2.9));
#1858=CARTESIAN_POINT('Origin',(3.25,1.5,0.));
#1859=CARTESIAN_POINT('',(2.25,1.5,0.));
#1860=CARTESIAN_POINT('Origin',(-3.25,1.5,0.));
#1861=CARTESIAN_POINT('',(-2.79174243050441,2.5,2.9));
#1862=CARTESIAN_POINT('',(-2.79174243050441,0.5,-2.9));
#1863=CARTESIAN_POINT('Origin',(-2.5,2.5,0.));
#1864=CARTESIAN_POINT('',(-3.70825756949559,2.5,-2.9));
#1865=CARTESIAN_POINT('Origin',(-3.25,1.5,0.));
#1866=CARTESIAN_POINT('',(-3.70825756949559,0.5,2.9));
#1867=CARTESIAN_POINT('Origin',(-2.5,0.5,0.));
#1868=CARTESIAN_POINT('Origin',(0.31890035109056,8.83100159039961,1.5));
#1869=CARTESIAN_POINT('',(-5.00000479157131,6.64497002303335,1.5));
#1870=CARTESIAN_POINT('',(-5.00000479157131,6.64497002303335,1.5));
#1871=CARTESIAN_POINT('',(6.73446706608689,11.2204962337475,1.5));
#1872=CARTESIAN_POINT('',(6.73446706608688,11.2204962337475,1.5));
#1873=CARTESIAN_POINT('',(6.62548245868447,11.5,1.5));
#1874=CARTESIAN_POINT('',(6.62548245868447,11.5,1.5));
#1875=CARTESIAN_POINT('',(-5.30001156808936,6.84999008416321,1.5));
#1876=CARTESIAN_POINT('',(-5.30001156808936,6.84999008416321,1.5));
#1877=CARTESIAN_POINT('',(-5.3000080715871,6.5,1.5));
#1878=CARTESIAN_POINT('Origin',(0.867231137257791,8.93273312839043,-1.5));
#1879=CARTESIAN_POINT('',(-5.00000479157131,6.64497002303335,-1.5));
#1880=CARTESIAN_POINT('',(-5.00000479157131,6.64497002303335,-1.5));
#1881=CARTESIAN_POINT('',(6.73446706608689,11.2204962337475,-1.5));
#1882=CARTESIAN_POINT('',(-5.00000479157131,6.64497002303335,-1.5));
#1883=CARTESIAN_POINT('',(6.73446706608689,11.2204962337475,-1.5));
#1884=CARTESIAN_POINT('Origin',(6.67997476238568,11.3602481168737,-1.5));
#1885=CARTESIAN_POINT('',(6.62548245868447,11.5,-1.5));
#1886=CARTESIAN_POINT('',(6.73446706608689,11.2204962337475,-1.5));
#1887=CARTESIAN_POINT('',(6.62548245868447,11.5,-1.5));
#1888=CARTESIAN_POINT('Origin',(0.662735445297558,9.17499504208161,-1.5));
#1889=CARTESIAN_POINT('',(-5.30001156808936,6.84999008416321,-1.5));
#1890=CARTESIAN_POINT('',(-5.30001156808936,6.84999008416321,-1.5));
#1891=CARTESIAN_POINT('',(-5.30001156808936,6.84999008416321,-1.5));
#1892=CARTESIAN_POINT('Origin',(-5.00000239578569,6.16850518111711,-1.5));
#1893=CARTESIAN_POINT('',(-5.00000479157131,6.64497002303335,-1.5));
#1894=CARTESIAN_POINT('Origin',(-5.30000578396277,6.27101521168204,-1.5));
#1895=CARTESIAN_POINT('',(-5.30001156808936,6.84999008416321,-1.5));
#1896=CARTESIAN_POINT('Origin',(0.31890035109056,8.83100159039961,-1.5));
#1897=CARTESIAN_POINT('Origin',(-4.63,-1.5,0.));
#1898=CARTESIAN_POINT('',(-4.63,-3.5,0.2));
#1899=CARTESIAN_POINT('',(-4.63,-3.5,0.2));
#1900=CARTESIAN_POINT('',(-4.63,-3.5,-0.2));
#1901=CARTESIAN_POINT('',(-4.63,-3.5,0.2));
#1902=CARTESIAN_POINT('',(-4.63,0.,-0.2));
#1903=CARTESIAN_POINT('Origin',(-5.08,-3.5,0.));
#1904=CARTESIAN_POINT('',(-5.53,-3.5,0.2));
#1905=CARTESIAN_POINT('',(-5.53,-3.5,-0.2));
#1906=CARTESIAN_POINT('',(-5.53,-3.5,0.2));
#1907=CARTESIAN_POINT('',(-4.63,-3.5,-0.2));
#1908=CARTESIAN_POINT('',(-5.53,-3.5,0.2));
#1909=CARTESIAN_POINT('Origin',(-5.08,-1.5,0.2));
#1910=CARTESIAN_POINT('',(-5.53,0.,0.2));
#1911=CARTESIAN_POINT('Origin',(-5.08,-1.5,-0.2));
#1912=CARTESIAN_POINT('',(-5.53,-3.5,-0.2));
#1913=CARTESIAN_POINT('Origin',(-5.53,-1.5,0.));
#1914=CARTESIAN_POINT('Origin',(0.45,-1.5,0.));
#1915=CARTESIAN_POINT('',(0.45,-3.5,0.2));
#1916=CARTESIAN_POINT('',(0.45,-3.5,0.2));
#1917=CARTESIAN_POINT('',(0.45,-3.5,-0.2));
#1918=CARTESIAN_POINT('',(0.45,-3.5,0.2));
#1919=CARTESIAN_POINT('',(0.45,0.,-0.2));
#1920=CARTESIAN_POINT('Origin',(0.,-3.5,0.));
#1921=CARTESIAN_POINT('',(-0.45,-3.5,0.2));
#1922=CARTESIAN_POINT('',(-0.45,-3.5,-0.2));
#1923=CARTESIAN_POINT('',(-0.45,-3.5,0.2));
#1924=CARTESIAN_POINT('',(0.45,-3.5,-0.2));
#1925=CARTESIAN_POINT('',(-0.45,-3.5,0.2));
#1926=CARTESIAN_POINT('Origin',(0.,-1.5,0.2));
#1927=CARTESIAN_POINT('',(-0.45,0.,0.2));
#1928=CARTESIAN_POINT('Origin',(0.,-1.5,-0.2));
#1929=CARTESIAN_POINT('',(-0.45,-3.5,-0.2));
#1930=CARTESIAN_POINT('Origin',(-0.45,-1.5,0.));
#1931=CARTESIAN_POINT('Origin',(5.53,-1.5,0.));
#1932=CARTESIAN_POINT('',(5.53,-3.5,0.2));
#1933=CARTESIAN_POINT('',(5.53,-3.5,0.2));
#1934=CARTESIAN_POINT('',(5.53,-3.5,-0.2));
#1935=CARTESIAN_POINT('',(5.53,-3.5,0.2));
#1936=CARTESIAN_POINT('',(5.53,0.,-0.2));
#1937=CARTESIAN_POINT('Origin',(5.08,-3.5,0.));
#1938=CARTESIAN_POINT('',(4.63,-3.5,0.2));
#1939=CARTESIAN_POINT('',(4.63,-3.5,-0.2));
#1940=CARTESIAN_POINT('',(4.63,-3.5,0.2));
#1941=CARTESIAN_POINT('',(5.53,-3.5,-0.2));
#1942=CARTESIAN_POINT('',(4.63,-3.5,0.2));
#1943=CARTESIAN_POINT('Origin',(5.08,-1.5,0.2));
#1944=CARTESIAN_POINT('',(4.63,0.,0.2));
#1945=CARTESIAN_POINT('Origin',(5.08,-1.5,-0.2));
#1946=CARTESIAN_POINT('',(4.63,-3.5,-0.2));
#1947=CARTESIAN_POINT('Origin',(4.63,-1.5,0.));
#1948=CARTESIAN_POINT('Origin',(-1.95,6.39,-1.45));
#1949=CARTESIAN_POINT('Origin',(-1.95,6.39,-1.45));
#1950=CARTESIAN_POINT('Origin',(-1.95,6.39,0.));
#1951=CARTESIAN_POINT('Origin',(-1.95,6.39,1.45));
#1952=CARTESIAN_POINT('Origin',(-1.95,6.39,1.45));
#1953=CARTESIAN_POINT('',(0.,0.,0.));
#1954=CARTESIAN_POINT('Origin',(-6.40000000000002,2.9,1.57));
#1955=CARTESIAN_POINT('',(6.39999999999999,2.9,0.));
#1956=CARTESIAN_POINT('',(-6.40000000000002,2.9,0.));
#1957=CARTESIAN_POINT('',(6.39999999999999,2.9,0.));
#1958=CARTESIAN_POINT('',(-6.40000000000002,2.9,1.57));
#1959=CARTESIAN_POINT('',(-6.40000000000002,2.9,1.57));
#1960=CARTESIAN_POINT('',(6.39999999999999,2.9,1.57));
#1961=CARTESIAN_POINT('',(6.39999999999999,2.9,1.57));
#1962=CARTESIAN_POINT('',(6.39999999999999,2.9,1.57));
#1963=CARTESIAN_POINT('Origin',(-6.40000000000002,5.5,1.57));
#1964=CARTESIAN_POINT('',(-6.40000000000002,5.5,0.));
#1965=CARTESIAN_POINT('',(-6.40000000000002,2.9,0.));
#1966=CARTESIAN_POINT('',(-6.40000000000002,5.5,1.57));
#1967=CARTESIAN_POINT('',(-6.40000000000002,5.5,1.57));
#1968=CARTESIAN_POINT('',(-6.40000000000002,2.9,1.57));
#1969=CARTESIAN_POINT('Origin',(-32.6,5.5,1.57));
#1970=CARTESIAN_POINT('',(-32.6,5.5,0.));
#1971=CARTESIAN_POINT('',(-6.40000000000002,5.5,0.));
#1972=CARTESIAN_POINT('',(-32.6,5.5,1.57));
#1973=CARTESIAN_POINT('',(-32.6,5.5,1.57));
#1974=CARTESIAN_POINT('',(-6.40000000000002,5.5,1.57));
#1975=CARTESIAN_POINT('Origin',(-32.6,-5.5,1.57));
#1976=CARTESIAN_POINT('',(-32.6,-5.5,0.));
#1977=CARTESIAN_POINT('',(-32.6,5.5,0.));
#1978=CARTESIAN_POINT('',(-32.6,-5.5,1.57));
#1979=CARTESIAN_POINT('',(-32.6,-5.5,1.57));
#1980=CARTESIAN_POINT('',(-32.6,5.5,1.57));
#1981=CARTESIAN_POINT('Origin',(6.39999999999999,-5.5,1.57));
#1982=CARTESIAN_POINT('',(6.39999999999999,-5.5,0.));
#1983=CARTESIAN_POINT('',(-32.6,-5.5,0.));
#1984=CARTESIAN_POINT('',(6.39999999999999,-5.5,1.57));
#1985=CARTESIAN_POINT('',(6.39999999999999,-5.5,1.57));
#1986=CARTESIAN_POINT('',(-32.6,-5.5,1.57));
#1987=CARTESIAN_POINT('Origin',(6.39999999999999,2.9,1.57));
#1988=CARTESIAN_POINT('',(6.39999999999999,-5.5,0.));
#1989=CARTESIAN_POINT('',(6.39999999999999,-5.5,1.57));
#1990=CARTESIAN_POINT('Origin',(0.,0.,1.57));
#1991=CARTESIAN_POINT('Origin',(0.,0.,0.));
#1992=CARTESIAN_POINT('',(43.57,-4.15642633369118,85.5208475296747));
#1993=CARTESIAN_POINT('',(37.07,-4.15642633369118,85.5208475296747));
#1994=CARTESIAN_POINT('',(22.6,-9.6564263336912,67.1208475296746));
#1995=CARTESIAN_POINT('',(22.6,-9.65642633369118,67.1208475296746));
#1996=UNCERTAINTY_MEASURE_WITH_UNIT(LENGTH_MEASURE(0.01),#2008,
'DISTANCE_ACCURACY_VALUE',
'Maximum model space distance between geometric entities at asserted c
onnectivities');
#1997=UNCERTAINTY_MEASURE_WITH_UNIT(LENGTH_MEASURE(0.01),#2008,
'DISTANCE_ACCURACY_VALUE',
'Maximum model space distance between geometric entities at asserted c
onnectivities');
#1998=UNCERTAINTY_MEASURE_WITH_UNIT(LENGTH_MEASURE(0.01),#2008,
'DISTANCE_ACCURACY_VALUE',
'Maximum model space distance between geometric entities at asserted c
onnectivities');
#1999=UNCERTAINTY_MEASURE_WITH_UNIT(LENGTH_MEASURE(0.01),#2008,
'DISTANCE_ACCURACY_VALUE',
'Maximum model space distance between geometric entities at asserted c
onnectivities');
#2000=UNCERTAINTY_MEASURE_WITH_UNIT(LENGTH_MEASURE(0.01),#2008,
'DISTANCE_ACCURACY_VALUE',
'Maximum model space distance between geometric entities at asserted c
onnectivities');
#2001=UNCERTAINTY_MEASURE_WITH_UNIT(LENGTH_MEASURE(0.01),#2008,
'DISTANCE_ACCURACY_VALUE',
'Maximum model space distance between geometric entities at asserted c
onnectivities');
#2002=(
GEOMETRIC_REPRESENTATION_CONTEXT(3)
GLOBAL_UNCERTAINTY_ASSIGNED_CONTEXT((#1996))
GLOBAL_UNIT_ASSIGNED_CONTEXT((#2008,#2010,#2011))
REPRESENTATION_CONTEXT('','3D')
);
#2003=(
GEOMETRIC_REPRESENTATION_CONTEXT(3)
GLOBAL_UNCERTAINTY_ASSIGNED_CONTEXT((#1997))
GLOBAL_UNIT_ASSIGNED_CONTEXT((#2008,#2010,#2011))
REPRESENTATION_CONTEXT('','3D')
);
#2004=(
GEOMETRIC_REPRESENTATION_CONTEXT(3)
GLOBAL_UNCERTAINTY_ASSIGNED_CONTEXT((#1998))
GLOBAL_UNIT_ASSIGNED_CONTEXT((#2008,#2010,#2011))
REPRESENTATION_CONTEXT('','3D')
);
#2005=(
GEOMETRIC_REPRESENTATION_CONTEXT(3)
GLOBAL_UNCERTAINTY_ASSIGNED_CONTEXT((#1999))
GLOBAL_UNIT_ASSIGNED_CONTEXT((#2008,#2010,#2011))
REPRESENTATION_CONTEXT('','3D')
);
#2006=(
GEOMETRIC_REPRESENTATION_CONTEXT(3)
GLOBAL_UNCERTAINTY_ASSIGNED_CONTEXT((#2000))
GLOBAL_UNIT_ASSIGNED_CONTEXT((#2008,#2010,#2011))
REPRESENTATION_CONTEXT('','3D')
);
#2007=(
GEOMETRIC_REPRESENTATION_CONTEXT(3)
GLOBAL_UNCERTAINTY_ASSIGNED_CONTEXT((#2001))
GLOBAL_UNIT_ASSIGNED_CONTEXT((#2008,#2010,#2011))
REPRESENTATION_CONTEXT('','3D')
);
#2008=(
LENGTH_UNIT()
NAMED_UNIT(*)
SI_UNIT(.MILLI.,.METRE.)
);
#2009=(
LENGTH_UNIT()
NAMED_UNIT(*)
SI_UNIT($,.METRE.)
);
#2010=(
NAMED_UNIT(*)
PLANE_ANGLE_UNIT()
SI_UNIT($,.RADIAN.)
);
#2011=(
NAMED_UNIT(*)
SI_UNIT($,.STERADIAN.)
SOLID_ANGLE_UNIT()
);
#2012=SHAPE_DEFINITION_REPRESENTATION(#2017,#2026);
#2013=SHAPE_DEFINITION_REPRESENTATION(#2018,#2027);
#2014=SHAPE_DEFINITION_REPRESENTATION(#2019,#2028);
#2015=SHAPE_DEFINITION_REPRESENTATION(#2020,#2029);
#2016=SHAPE_DEFINITION_REPRESENTATION(#2021,#2030);
#2017=PRODUCT_DEFINITION_SHAPE('',$,#2032);
#2018=PRODUCT_DEFINITION_SHAPE('',$,#2033);
#2019=PRODUCT_DEFINITION_SHAPE('',$,#2034);
#2020=PRODUCT_DEFINITION_SHAPE('',$,#2035);
#2021=PRODUCT_DEFINITION_SHAPE('',$,#2036);
#2022=PRODUCT_DEFINITION_SHAPE($,$,#23);
#2023=PRODUCT_DEFINITION_SHAPE($,$,#24);
#2024=PRODUCT_DEFINITION_SHAPE($,$,#25);
#2025=PRODUCT_DEFINITION_SHAPE($,$,#26);
#2026=SHAPE_REPRESENTATION('',(#1247,#1339,#1340,#1341,#1342),#2002);
#2027=SHAPE_REPRESENTATION('',(#1248),#2003);
#2028=SHAPE_REPRESENTATION('',(#1272),#2004);
#2029=SHAPE_REPRESENTATION('',(#1285),#2005);
#2030=SHAPE_REPRESENTATION('',(#1330),#2006);
#2031=PRODUCT_DEFINITION_CONTEXT('part definition',#2048,'design');
#2032=PRODUCT_DEFINITION('Mod4','Mod4',#2037,#2031);
#2033=PRODUCT_DEFINITION('Mod4p3','Mod4p3',#2038,#2031);
#2034=PRODUCT_DEFINITION('Copperfoil^Mod4','Copperfoil^Mod4',#2039,#2031);
#2035=PRODUCT_DEFINITION('d2f-01l','d2f-01l',#2040,#2031);
#2036=PRODUCT_DEFINITION('Part1^Mod4','Part1^Mod4',#2041,#2031);
#2037=PRODUCT_DEFINITION_FORMATION('',$,#2050);
#2038=PRODUCT_DEFINITION_FORMATION('',$,#2051);
#2039=PRODUCT_DEFINITION_FORMATION('',$,#2052);
#2040=PRODUCT_DEFINITION_FORMATION('',$,#2053);
#2041=PRODUCT_DEFINITION_FORMATION('',$,#2054);
#2042=PRODUCT_RELATED_PRODUCT_CATEGORY('Mod4','Mod4',(#2050));
#2043=PRODUCT_RELATED_PRODUCT_CATEGORY('Mod4p3','Mod4p3',(#2051));
#2044=PRODUCT_RELATED_PRODUCT_CATEGORY('Copperfoil^Mod4',
'Copperfoil^Mod4',(#2052));
#2045=PRODUCT_RELATED_PRODUCT_CATEGORY('d2f-01l','d2f-01l',(#2053));
#2046=PRODUCT_RELATED_PRODUCT_CATEGORY('Part1^Mod4','Part1^Mod4',(#2054));
#2047=APPLICATION_PROTOCOL_DEFINITION('international standard',
'automotive_design',2009,#2048);
#2048=APPLICATION_CONTEXT(
'Core Data for Automotive Mechanical Design Process');
#2049=PRODUCT_CONTEXT('part definition',#2048,'mechanical');
#2050=PRODUCT('Mod4','Mod4',$,(#2049));
#2051=PRODUCT('Mod4p3','Mod4p3',$,(#2049));
#2052=PRODUCT('Copperfoil^Mod4','Copperfoil^Mod4',$,(#2049));
#2053=PRODUCT('d2f-01l','d2f-01l',$,(#2049));
#2054=PRODUCT('Part1^Mod4','Part1^Mod4',$,(#2049));
#2055=PRESENTATION_STYLE_ASSIGNMENT((#2060));
#2056=PRESENTATION_STYLE_ASSIGNMENT((#2061));
#2057=PRESENTATION_STYLE_ASSIGNMENT((#2062));
#2058=PRESENTATION_STYLE_ASSIGNMENT((#2063));
#2059=PRESENTATION_STYLE_ASSIGNMENT((#2064));
#2060=SURFACE_STYLE_USAGE(.BOTH.,#2065);
#2061=SURFACE_STYLE_USAGE(.BOTH.,#2066);
#2062=SURFACE_STYLE_USAGE(.BOTH.,#2067);
#2063=SURFACE_STYLE_USAGE(.BOTH.,#2068);
#2064=SURFACE_STYLE_USAGE(.BOTH.,#2069);
#2065=SURFACE_SIDE_STYLE('',(#2070));
#2066=SURFACE_SIDE_STYLE('',(#2071));
#2067=SURFACE_SIDE_STYLE('',(#2072));
#2068=SURFACE_SIDE_STYLE('',(#2073));
#2069=SURFACE_SIDE_STYLE('',(#2074));
#2070=SURFACE_STYLE_FILL_AREA(#2075);
#2071=SURFACE_STYLE_FILL_AREA(#2076);
#2072=SURFACE_STYLE_FILL_AREA(#2077);
#2073=SURFACE_STYLE_FILL_AREA(#2078);
#2074=SURFACE_STYLE_FILL_AREA(#2079);
#2075=FILL_AREA_STYLE('Steel - Satin',(#2080));
#2076=FILL_AREA_STYLE('Copper - Satin',(#2081));
#2077=FILL_AREA_STYLE('Opaque(207,207,207)',(#2082));
#2078=FILL_AREA_STYLE('Opaque(31,31,31)',(#2083));
#2079=FILL_AREA_STYLE('FR4',(#2084));
#2080=FILL_AREA_STYLE_COLOUR('Steel - Satin',#2085);
#2081=FILL_AREA_STYLE_COLOUR('Copper - Satin',#2086);
#2082=FILL_AREA_STYLE_COLOUR('Opaque(207,207,207)',#2087);
#2083=FILL_AREA_STYLE_COLOUR('Opaque(31,31,31)',#2088);
#2084=FILL_AREA_STYLE_COLOUR('FR4',#2089);
#2085=COLOUR_RGB('Steel - Satin',0.627450980392157,0.627450980392157,0.627450980392157);
#2086=COLOUR_RGB('Copper - Satin',0.,0.,0.);
#2087=COLOUR_RGB('Opaque(207,207,207)',0.811764705882353,0.811764705882353,
0.811764705882353);
#2088=COLOUR_RGB('Opaque(31,31,31)',0.12156862745098,0.12156862745098,0.12156862745098);
#2089=COLOUR_RGB('FR4',0.266666666666667,0.466666666666667,0.4);
ENDSEC;
END-ISO-10303-21;
