M48
; DRILL file {KiCad 9.0.2} date 2026-01-11T03:10:22+0530
; FORMAT={-:-/ absolute / metric / decimal}
; #@! TF.CreationDate,2026-01-11T03:10:22+05:30
; #@! TF.GenerationSoftware,Kicad,Pcbnew,9.0.2
; #@! TF.FileFunction,Plated,1,2,PTH
FMAT,2
METRIC
; #@! TA.AperFunction,Plated,PTH,ViaDrill
T1C0.300
; #@! TA.AperFunction,Plated,PTH,ViaDrill
T2C0.400
; #@! TA.AperFunction,Plated,PTH,ViaDrill
T3C0.500
; #@! TA.AperFunction,Plated,PTH,ComponentDrill
T4C0.500
; #@! TA.AperFunction,Plated,PTH,ComponentDrill
T5C1.000
; #@! TA.AperFunction,Plated,PTH,ComponentDrill
T6C1.020
%
G90
G05
T1
X133.829Y-56.28
X141.559Y-124.766
X200.301Y-68.399
T2
X102.841Y-61.411
X105.524Y-73.899
X108.801Y-69.649
X108.801Y-70.399
X115.414Y-50.87
X119.961Y-74.669
X120.875Y-75.787
T3
X108.801Y-74.149
X116.305Y-75.653
X120.875Y-71.926
X122.907Y-71.926
X125.828Y-71.977
X128.901Y-72.282
T4
X137.004Y-75.0
T5
X110.271Y-54.369
X112.811Y-54.369
X115.051Y-79.899
X115.351Y-54.369
X117.891Y-54.369
X119.351Y-80.588
X124.177Y-54.553
X124.177Y-57.093
X131.389Y-68.015
X131.389Y-70.555
X137.131Y-84.017
X139.24Y-117.867
X139.24Y-120.407
X139.24Y-122.947
X139.24Y-125.487
X139.24Y-128.027
X139.24Y-130.567
X145.361Y-63.903
X145.361Y-66.443
X145.361Y-68.983
X145.361Y-71.523
X145.361Y-74.063
X145.361Y-76.603
T6
X114.051Y-58.899
X121.383Y-87.827
X122.78Y-79.699
X140.484Y-64.205
M30
