M48
; DRILL file KiCad 10.0.3 date 2026-06-20T17:37:59
; FORMAT={-:-/ absolute / metric / decimal}
; #@! TF.CreationDate,2026-06-20T17:37:59+04:00
; #@! TF.GenerationSoftware,Kicad,Pcbnew,10.0.3
; #@! TF.FileFunction,Plated,1,2,PTH
FMAT,2
METRIC
; #@! TA.AperFunction,Plated,PTH,ViaDrill
T1C0.300
; #@! TA.AperFunction,Plated,PTH,ComponentDrill
T2C0.500
; #@! TA.AperFunction,Plated,PTH,ComponentDrill
T3C1.000
; #@! TA.AperFunction,Plated,PTH,ComponentDrill
T4C1.020
; #@! TA.AperFunction,Plated,PTH,ComponentDrill
T5C3.200
%
G90
G05
T1
X107.936Y-122.094
X107.936Y-127.324
X111.466Y-133.274
X119.601Y-45.299
X122.496Y-136.164
X122.911Y-127.049
X125.271Y-138.999
X126.458Y-135.299
X127.325Y-129.003
T2
X122.561Y-116.699
X124.061Y-145.489
X130.451Y-118.139
T3
X105.571Y-124.499
X105.571Y-127.039
X105.571Y-129.579
X105.571Y-132.119
X105.571Y-134.659
X121.061Y-101.099
X121.061Y-103.639
X123.601Y-101.099
X123.601Y-103.639
X126.141Y-101.099
X126.141Y-103.639
X129.661Y-130.479
X129.661Y-133.019
X129.661Y-135.559
X170.686Y-102.899
X170.686Y-105.439
X173.226Y-102.899
X173.226Y-105.439
X175.766Y-102.899
X175.766Y-105.439
T4
X130.341Y-122.809
T5
X105.571Y-143.309
M30
