%TF.GenerationSoftware,KiCad,Pcbnew,9.0.2*%
%TF.CreationDate,2026-01-11T03:10:19+05:30*%
%TF.ProjectId,sanket,73616e6b-6574-42e6-9b69-6361645f7063,6*%
%TF.SameCoordinates,Original*%
%TF.FileFunction,Copper,L2,Bot*%
%TF.FilePolarity,Positive*%
%FSLAX46Y46*%
G04 Gerber Fmt 4.6, Leading zero omitted, Abs format (unit mm)*
G04 Created by KiCad (PCBNEW 9.0.2) date 2026-01-11 03:10:19*
%MOMM*%
%LPD*%
G01*
G04 APERTURE LIST*
G04 Aperture macros list*
%AMRoundRect*
0 Rectangle with rounded corners*
0 $1 Rounding radius*
0 $2 $3 $4 $5 $6 $7 $8 $9 X,Y pos of 4 corners*
0 Add a 4 corners polygon primitive as box body*
4,1,4,$2,$3,$4,$5,$6,$7,$8,$9,$2,$3,0*
0 Add four circle primitives for the rounded corners*
1,1,$1+$1,$2,$3*
1,1,$1+$1,$4,$5*
1,1,$1+$1,$6,$7*
1,1,$1+$1,$8,$9*
0 Add four rect primitives between the rounded corners*
20,1,$1+$1,$2,$3,$4,$5,0*
20,1,$1+$1,$4,$5,$6,$7,0*
20,1,$1+$1,$6,$7,$8,$9,0*
20,1,$1+$1,$8,$9,$2,$3,0*%
G04 Aperture macros list end*
%TA.AperFunction,ComponentPad*%
%ADD10R,1.500000X1.500000*%
%TD*%
%TA.AperFunction,ComponentPad*%
%ADD11R,1.700000X1.700000*%
%TD*%
%TA.AperFunction,ComponentPad*%
%ADD12O,1.700000X1.700000*%
%TD*%
%TA.AperFunction,ComponentPad*%
%ADD13R,1.000000X1.000000*%
%TD*%
%TA.AperFunction,SMDPad,CuDef*%
%ADD14RoundRect,0.250000X-0.475000X0.250000X-0.475000X-0.250000X0.475000X-0.250000X0.475000X0.250000X0*%
%TD*%
%TA.AperFunction,SMDPad,CuDef*%
%ADD15RoundRect,0.093750X0.093750X0.106250X-0.093750X0.106250X-0.093750X-0.106250X0.093750X-0.106250X0*%
%TD*%
%TA.AperFunction,HeatsinkPad*%
%ADD16R,1.000000X1.600000*%
%TD*%
%TA.AperFunction,SMDPad,CuDef*%
%ADD17R,1.761200X0.850800*%
%TD*%
%TA.AperFunction,SMDPad,CuDef*%
%ADD18R,1.761200X3.150799*%
%TD*%
%TA.AperFunction,SMDPad,CuDef*%
%ADD19RoundRect,0.250000X0.475000X-0.250000X0.475000X0.250000X-0.475000X0.250000X-0.475000X-0.250000X0*%
%TD*%
%TA.AperFunction,SMDPad,CuDef*%
%ADD20RoundRect,0.250000X-0.250000X-0.475000X0.250000X-0.475000X0.250000X0.475000X-0.250000X0.475000X0*%
%TD*%
%TA.AperFunction,SMDPad,CuDef*%
%ADD21RoundRect,0.250000X0.250000X0.475000X-0.250000X0.475000X-0.250000X-0.475000X0.250000X-0.475000X0*%
%TD*%
%TA.AperFunction,SMDPad,CuDef*%
%ADD22R,1.450000X5.500000*%
%TD*%
%TA.AperFunction,SMDPad,CuDef*%
%ADD23RoundRect,0.250000X-0.262500X-0.450000X0.262500X-0.450000X0.262500X0.450000X-0.262500X0.450000X0*%
%TD*%
%TA.AperFunction,SMDPad,CuDef*%
%ADD24RoundRect,0.250000X0.450000X-0.262500X0.450000X0.262500X-0.450000X0.262500X-0.450000X-0.262500X0*%
%TD*%
%TA.AperFunction,SMDPad,CuDef*%
%ADD25RoundRect,0.150000X0.150000X-0.825000X0.150000X0.825000X-0.150000X0.825000X-0.150000X-0.825000X0*%
%TD*%
%TA.AperFunction,SMDPad,CuDef*%
%ADD26R,3.120000X2.250000*%
%TD*%
%TA.AperFunction,ViaPad*%
%ADD27C,0.600000*%
%TD*%
%TA.AperFunction,ViaPad*%
%ADD28C,0.800000*%
%TD*%
%TA.AperFunction,ViaPad*%
%ADD29C,0.500000*%
%TD*%
%TA.AperFunction,Conductor*%
%ADD30C,1.000000*%
%TD*%
%TA.AperFunction,Conductor*%
%ADD31C,0.600000*%
%TD*%
%TA.AperFunction,Conductor*%
%ADD32C,1.500000*%
%TD*%
%TA.AperFunction,Conductor*%
%ADD33C,0.200000*%
%TD*%
%TA.AperFunction,Conductor*%
%ADD34C,0.400000*%
%TD*%
%TA.AperFunction,Conductor*%
%ADD35C,2.000000*%
%TD*%
G04 APERTURE END LIST*
D10*
%TO.P,TP4,1,1*%
%TO.N,/3V3*%
X121383100Y-87826600D03*
%TD*%
%TO.P,TP1,1,1*%
%TO.N,/DeployerDetectionSW2OUT*%
X140483900Y-64204600D03*
%TD*%
D11*
%TO.P,J6,1,Pin_1*%
%TO.N,/DeployerDetectionSW1OUT*%
X145361100Y-76602600D03*
D12*
%TO.P,J6,2,Pin_2*%
%TO.N,/DeployerDetectionSW2OUT*%
X145361100Y-74062600D03*
%TO.P,J6,3,Pin_3*%
%TO.N,/BurnWire1OUT*%
X145361100Y-71522600D03*
%TO.P,J6,4,Pin_4*%
X145361100Y-68982600D03*
%TO.P,J6,5,Pin_5*%
%TO.N,GND*%
X145361100Y-66442600D03*
%TO.P,J6,6,Pin_6*%
X145361100Y-63902600D03*
%TD*%
D10*
%TO.P,TP3,1,1*%
%TO.N,Net-(U4-\u002AFAULT)*%
X122780100Y-79698600D03*
%TD*%
D13*
%TO.P,TP5,1,1*%
%TO.N,GND*%
X137004100Y-74999600D03*
%TD*%
D11*
%TO.P,J3,1,Pin_1*%
%TO.N,/3V3*%
X139240300Y-117867229D03*
D12*
%TO.P,J3,2,Pin_2*%
%TO.N,/DeployerDetectionSW1OUT*%
X139240300Y-120407229D03*
%TO.P,J3,3,Pin_3*%
%TO.N,/BurnWire1IN*%
X139240300Y-122947229D03*
%TO.P,J3,4,Pin_4*%
X139240300Y-125487229D03*
%TO.P,J3,5,Pin_5*%
%TO.N,/BurnWire1OUT*%
X139240300Y-128027229D03*
%TO.P,J3,6,Pin_6*%
X139240300Y-130567229D03*
%TD*%
D11*
%TO.P,J1,1,Pin_1*%
%TO.N,Net-(J1-Pin_1)*%
X124177100Y-57092600D03*
D12*
%TO.P,J1,2,Pin_2*%
%TO.N,GND*%
X124177100Y-54552600D03*
%TD*%
D11*
%TO.P,J7,1,Pin_1*%
%TO.N,/3V3*%
X115051100Y-79898600D03*
%TD*%
D10*
%TO.P,TP2,1,1*%
%TO.N,/TriggerOUT*%
X114051100Y-58898600D03*
%TD*%
D14*
%TO.P,C4,1*%
%TO.N,GND*%
X109301100Y-74115600D03*
%TO.P,C4,2*%
%TO.N,/3V3*%
X109301100Y-76015600D03*
%TD*%
D15*
%TO.P,U4,1,OUT*%
%TO.N,/burn*%
X122778600Y-73346600D03*
%TO.P,U4,2,ILIM*%
%TO.N,Net-(U4-ILIM)*%
X122778600Y-73996600D03*
%TO.P,U4,3,\u002AFAULT*%
%TO.N,Net-(U4-\u002AFAULT)*%
X122778600Y-74646600D03*
%TO.P,U4,4,EN*%
%TO.N,/EN*%
X121003600Y-74646600D03*
%TO.P,U4,5,GND*%
%TO.N,GND*%
X121003600Y-73996600D03*
%TO.P,U4,6,IN*%
%TO.N,/3V3*%
X121003600Y-73346600D03*
D16*
%TO.P,U4,7,EPAD*%
%TO.N,GND*%
X121891100Y-73996600D03*
%TD*%
D11*
%TO.P,J2,1,Pin_1*%
%TO.N,/burn*%
X131389100Y-70554600D03*
D12*
%TO.P,J2,2,Pin_2*%
%TO.N,Net-(J2-Pin_2)*%
X131389100Y-68014600D03*
%TD*%
D17*
%TO.P,U1,1,G*%
%TO.N,Net-(U1-G)*%
X127710100Y-62984101D03*
%TO.P,U1,2,D*%
%TO.N,/BurnWire1IN*%
X127710100Y-65284101D03*
%TO.P,U1,3,S*%
%TO.N,Net-(J2-Pin_2)*%
X127710100Y-67584101D03*
D18*
%TO.P,U1,4,D*%
%TO.N,/BurnWire1IN*%
X121660100Y-65284101D03*
%TD*%
D19*
%TO.P,C3,1*%
%TO.N,Net-(D1-K)*%
X106524100Y-72139600D03*
%TO.P,C3,2*%
%TO.N,Net-(U3-BOOT)*%
X106524100Y-70239600D03*
%TD*%
D14*
%TO.P,C5,1*%
%TO.N,GND*%
X112051100Y-74176600D03*
%TO.P,C5,2*%
%TO.N,/3V3*%
X112051100Y-76076600D03*
%TD*%
D19*
%TO.P,C9,1*%
%TO.N,/3V3*%
X102333100Y-73880100D03*
%TO.P,C9,2*%
%TO.N,Net-(U3-VSNS)*%
X102333100Y-71980100D03*
%TD*%
D11*
%TO.P,J5,1,Pin_1*%
%TO.N,/12V*%
X110271100Y-54368600D03*
D12*
%TO.P,J5,2,Pin_2*%
%TO.N,/TriggerOUT*%
X112811100Y-54368600D03*
%TO.P,J5,3,Pin_3*%
%TO.N,/EN*%
X115351100Y-54368600D03*
%TO.P,J5,4,Pin_4*%
%TO.N,GND*%
X117891100Y-54368600D03*
%TD*%
D20*
%TO.P,R4,1*%
%TO.N,Net-(U1-G)*%
X125106700Y-70249800D03*
%TO.P,R4,2*%
%TO.N,/burn*%
X127006700Y-70249800D03*
%TD*%
D14*
%TO.P,C12,1*%
%TO.N,GND*%
X118131900Y-71926200D03*
%TO.P,C12,2*%
%TO.N,/3V3*%
X118131900Y-73826200D03*
%TD*%
D21*
%TO.P,C7,1*%
%TO.N,GND*%
X128876100Y-73857600D03*
%TO.P,C7,2*%
%TO.N,/burn*%
X126976100Y-73857600D03*
%TD*%
%TO.P,C10,1*%
%TO.N,/12V*%
X107093100Y-60394600D03*
%TO.P,C10,2*%
%TO.N,GND*%
X105193100Y-60394600D03*
%TD*%
D11*
%TO.P,J4,1,Pin_1*%
%TO.N,Net-(J4-Pin_1)*%
X137131100Y-84016600D03*
%TD*%
D21*
%TO.P,C6,1*%
%TO.N,GND*%
X100743100Y-64204600D03*
%TO.P,C6,2*%
%TO.N,Net-(U3-VSNS)*%
X98843100Y-64204600D03*
%TD*%
D19*
%TO.P,R3,1*%
%TO.N,Net-(U1-G)*%
X127987100Y-60938199D03*
%TO.P,R3,2*%
%TO.N,Net-(J1-Pin_1)*%
X127987100Y-59038201D03*
%TD*%
D14*
%TO.P,C8,1*%
%TO.N,Net-(C8-Pad1)*%
X98777100Y-69030600D03*
%TO.P,C8,2*%
%TO.N,Net-(U3-VSNS)*%
X98777100Y-70930600D03*
%TD*%
D19*
%TO.P,R7,1*%
%TO.N,Net-(U3-VSNS)*%
X100936100Y-70361600D03*
%TO.P,R7,2*%
%TO.N,GND*%
X100936100Y-68461600D03*
%TD*%
D22*
%TO.P,L1,1,1*%
%TO.N,Net-(D1-K)*%
X105254100Y-78301600D03*
%TO.P,L1,2,2*%
%TO.N,/3V3*%
X101254100Y-78301600D03*
%TD*%
D23*
%TO.P,R6,1*%
%TO.N,Net-(C8-Pad1)*%
X99007600Y-66490600D03*
%TO.P,R6,2*%
%TO.N,GND*%
X100832600Y-66490600D03*
%TD*%
D24*
%TO.P,R8,1*%
%TO.N,/3V3*%
X104492100Y-73880100D03*
%TO.P,R8,2*%
%TO.N,Net-(U3-VSNS)*%
X104492100Y-72055100D03*
%TD*%
D11*
%TO.P,J7,1,Pin_1*%
%TO.N,/3V3*%
X119351100Y-80587600D03*
%TD*%
D23*
%TO.P,R13,1*%
%TO.N,/3V3*%
X119327600Y-84016600D03*
%TO.P,R13,2*%
%TO.N,Net-(U4-\u002AFAULT)*%
X121152600Y-84016600D03*
%TD*%
D25*
%TO.P,U3,1,BOOT*%
%TO.N,Net-(U3-BOOT)*%
X106651100Y-68076600D03*
%TO.P,U3,2,NC*%
%TO.N,unconnected-(U3-NC-Pad2)*%
X105381100Y-68076600D03*
%TO.P,U3,3,NC*%
%TO.N,unconnected-(U3-NC-Pad3)*%
X104111100Y-68076600D03*
%TO.P,U3,4,VSNS*%
%TO.N,Net-(U3-VSNS)*%
X102841100Y-68076600D03*
%TO.P,U3,5,ENA*%
%TO.N,/EN*%
X102841100Y-63126600D03*
%TO.P,U3,6,GND*%
%TO.N,GND*%
X104111100Y-63126600D03*
%TO.P,U3,7,VIN*%
%TO.N,/12V*%
X105381100Y-63126600D03*
%TO.P,U3,8,PH*%
%TO.N,Net-(D1-K)*%
X106651100Y-63126600D03*
%TD*%
D26*
%TO.P,D1,1,K*%
%TO.N,Net-(D1-K)*%
X112051100Y-63193600D03*
%TO.P,D1,2,A*%
%TO.N,GND*%
X112051100Y-70103600D03*
%TD*%
D23*
%TO.P,R12,1*%
%TO.N,Net-(U4-ILIM)*%
X127074600Y-77666600D03*
%TO.P,R12,2*%
%TO.N,GND*%
X128899600Y-77666600D03*
%TD*%
D27*
%TO.N,*%
X200301100Y-68398600D03*
D28*
%TO.N,GND*%
X125828100Y-71977000D03*
X128901500Y-72281800D03*
X122907100Y-71926200D03*
D27*
X108801100Y-69648600D03*
X120875100Y-75787000D03*
D28*
X108801100Y-74148600D03*
D27*
X115414100Y-50869600D03*
X108801100Y-70398600D03*
D28*
X120875100Y-71926200D03*
%TO.N,/3V3*%
X116305300Y-75652800D03*
D27*
X105524100Y-73898600D03*
%TO.N,/EN*%
X102841100Y-61410600D03*
X119960700Y-74669400D03*
D29*
%TO.N,/DeployerDetectionSW1OUT*%
X141558778Y-124766278D03*
%TO.N,/TriggerOUT*%
X133829100Y-56279800D03*
%TD*%
D30*
%TO.N,GND*%
X115602100Y-74176600D02*
X112051100Y-74176600D01*
X118131900Y-71926200D02*
X121620700Y-71926200D01*
D31*
X128876100Y-72307200D02*
X128901500Y-72281800D01*
D30*
X106778100Y-53282600D02*
X106778100Y-58362600D01*
D31*
X104111100Y-63126600D02*
X104111100Y-63756410D01*
D30*
X145361100Y-66442600D02*
X145361100Y-63902600D01*
X121891100Y-72196600D02*
X121891100Y-73996600D01*
X108834100Y-74115600D02*
X109301100Y-74115600D01*
D31*
X128876100Y-73857600D02*
X128876100Y-77643100D01*
D32*
X124177100Y-54552600D02*
X118745100Y-54552600D01*
D30*
X112051100Y-74176600D02*
X111990100Y-74115600D01*
D32*
X118745100Y-54552600D02*
X118561100Y-54368600D01*
D30*
X118211495Y-71846605D02*
X118131900Y-71926200D01*
D31*
X104111100Y-61476600D02*
X105193100Y-60394600D01*
D30*
X118131900Y-71926200D02*
X117852500Y-71926200D01*
D31*
X128645600Y-73894100D02*
X128683100Y-73856600D01*
D33*
X115414100Y-50869600D02*
X115541100Y-50869600D01*
D30*
X117852500Y-71926200D02*
X115602100Y-74176600D01*
X125828100Y-71977000D02*
X125777300Y-71926200D01*
X125777300Y-71926200D02*
X121620700Y-71926200D01*
X105193100Y-59947600D02*
X105193100Y-60394600D01*
D31*
X100743100Y-68268600D02*
X100936100Y-68461600D01*
D33*
X121003600Y-73996600D02*
X121891100Y-73996600D01*
D30*
X106778100Y-58362600D02*
X105193100Y-59947600D01*
D31*
X128876100Y-73857600D02*
X128876100Y-72307200D01*
D30*
X111990100Y-74115600D02*
X109301100Y-74115600D01*
X121620700Y-71926200D02*
X121891100Y-72196600D01*
X115414100Y-50869600D02*
X109191100Y-50869600D01*
X109191100Y-50869600D02*
X106778100Y-53282600D01*
D31*
X104111100Y-63126600D02*
X104111100Y-61476600D01*
D30*
X108801100Y-74148600D02*
X108834100Y-74115600D01*
%TO.N,/3V3*%
X119327600Y-84016600D02*
X119327600Y-80611100D01*
D33*
X119960410Y-73826200D02*
X120440010Y-73346600D01*
X105505600Y-73880100D02*
X105524100Y-73898600D01*
D30*
X118081100Y-74161400D02*
X118081100Y-76991000D01*
X102206100Y-83127600D02*
X101254100Y-82175600D01*
X115795100Y-76163000D02*
X115647700Y-76015600D01*
D33*
X121383100Y-87826600D02*
X136013500Y-87826600D01*
X104492100Y-73880100D02*
X105505600Y-73880100D01*
D30*
X115051100Y-79898600D02*
X115051100Y-76015600D01*
D31*
X119381500Y-73826200D02*
X118131900Y-73826200D01*
D33*
X119859100Y-87826600D02*
X119327600Y-87295100D01*
D30*
X119327600Y-80611100D02*
X119351100Y-80587600D01*
X116305300Y-75652800D02*
X115795100Y-76163000D01*
D33*
X136013500Y-87826600D02*
X139240300Y-91053400D01*
X119327600Y-87295100D02*
X119327600Y-84016600D01*
D30*
X115647700Y-76015600D02*
X115051100Y-76015600D01*
D33*
X102707764Y-73880100D02*
X104492100Y-73880100D01*
X116305300Y-75652800D02*
X116180300Y-75777800D01*
D30*
X119351100Y-78261000D02*
X119351100Y-80587600D01*
X109301100Y-76015600D02*
X110080100Y-76015600D01*
X109801100Y-76294600D02*
X109801100Y-83127600D01*
X115051100Y-76015600D02*
X109301100Y-76015600D01*
D33*
X119381500Y-73826200D02*
X119960410Y-73826200D01*
D30*
X118233500Y-74009000D02*
X118081100Y-74161400D01*
X110080100Y-76015600D02*
X109801100Y-76294600D01*
D33*
X121383100Y-87826600D02*
X119859100Y-87826600D01*
D30*
X101254100Y-82175600D02*
X101254100Y-78301600D01*
X118081100Y-76991000D02*
X119351100Y-78261000D01*
X109801100Y-83127600D02*
X102206100Y-83127600D01*
X118131900Y-73826200D02*
X116305300Y-75652800D01*
D33*
X120440010Y-73346600D02*
X121003600Y-73346600D01*
X139240300Y-91053400D02*
X139240300Y-118616229D01*
D31*
%TO.N,/12V*%
X105381100Y-63126600D02*
X105381100Y-62106600D01*
D30*
X110271100Y-57216600D02*
X110271100Y-54368600D01*
D31*
X105381100Y-62106600D02*
X107093100Y-60394600D01*
D30*
X107093100Y-60394600D02*
X110271100Y-57216600D01*
D34*
%TO.N,/burn*%
X124939100Y-73857600D02*
X124430100Y-73348600D01*
D31*
X124939100Y-73857600D02*
X126976100Y-73857600D01*
D30*
X127006700Y-70249800D02*
X127057500Y-70300600D01*
D33*
X123669100Y-73348600D02*
X122780600Y-73348600D01*
D30*
X127057500Y-70300600D02*
X131135100Y-70300600D01*
D34*
X124430100Y-73348600D02*
X123669100Y-73348600D01*
D31*
X126976100Y-73857600D02*
X126976100Y-70280400D01*
D30*
%TO.N,Net-(D1-K)*%
X115712100Y-63193600D02*
X112051100Y-63193600D01*
X115779100Y-63126600D02*
X115712100Y-63193600D01*
X115779100Y-63126600D02*
X116301100Y-63648600D01*
X116301100Y-63648600D02*
X116301100Y-71398600D01*
X106524100Y-72139600D02*
X106524100Y-77031600D01*
D31*
X106651100Y-63126600D02*
X111984100Y-63126600D01*
X111984100Y-63126600D02*
X112051100Y-63193600D01*
D30*
X106524100Y-77031600D02*
X105254100Y-78301600D01*
D33*
X110751100Y-63126600D02*
X110842100Y-63035600D01*
D30*
X116301100Y-71398600D02*
X115560100Y-72139600D01*
X115560100Y-72139600D02*
X106524100Y-72139600D01*
D34*
%TO.N,/EN*%
X102841100Y-61410600D02*
X102841100Y-63126600D01*
D33*
X121003600Y-74646600D02*
X119983500Y-74646600D01*
X119983500Y-74646600D02*
X119960700Y-74669400D01*
%TO.N,/DeployerDetectionSW1OUT*%
X145224456Y-121100600D02*
X145259100Y-121100600D01*
X145259100Y-121100600D02*
X145361100Y-120998600D01*
X141558778Y-124766278D02*
X145224456Y-121100600D01*
X145361100Y-120998600D02*
X145361100Y-75853600D01*
D30*
%TO.N,/BurnWire1IN*%
X132559100Y-65373000D02*
X127810100Y-65373000D01*
D32*
X140377471Y-123696229D02*
X139240300Y-123696229D01*
X141322100Y-69157600D02*
X137537500Y-65373000D01*
D35*
X142769900Y-77158600D02*
X142769900Y-117798600D01*
D32*
X142769900Y-117798600D02*
X142769900Y-121303800D01*
X142769900Y-121303800D02*
X140377471Y-123696229D01*
X142769900Y-77158600D02*
X141322100Y-75710800D01*
D30*
X127810100Y-65373000D02*
X121760100Y-65373000D01*
D32*
X139240300Y-125487229D02*
X139240300Y-122947229D01*
D30*
X133829100Y-65373000D02*
X132559100Y-65373000D01*
D32*
X141322100Y-75710800D02*
X141322100Y-69157600D01*
X137537500Y-65373000D02*
X133829100Y-65373000D01*
D33*
%TO.N,/DeployerDetectionSW2OUT*%
X140483900Y-65271400D02*
X140483900Y-64204600D01*
X145361100Y-73313600D02*
X143481100Y-71433600D01*
X143481100Y-68268600D02*
X140483900Y-65271400D01*
X143481100Y-71433600D02*
X143481100Y-68268600D01*
D30*
%TO.N,/TriggerOUT*%
X112801100Y-54378600D02*
X112801100Y-57648600D01*
D34*
X133829100Y-54552600D02*
X131441500Y-52165000D01*
X131441500Y-52165000D02*
X115744300Y-52165000D01*
X115744300Y-52165000D02*
X113540700Y-54368600D01*
X133829100Y-56279800D02*
X133829100Y-54552600D01*
D30*
X112811100Y-54368600D02*
X112801100Y-54378600D01*
X112801100Y-57648600D02*
X114051100Y-58898600D01*
D32*
%TO.N,/BurnWire1OUT*%
X139240300Y-130567229D02*
X139240300Y-128027229D01*
D31*
%TO.N,Net-(J1-Pin_1)*%
X124177100Y-58311800D02*
X124177100Y-57092600D01*
X124888300Y-59023000D02*
X124177100Y-58311800D01*
X127971900Y-59023000D02*
X124888300Y-59023000D01*
%TO.N,Net-(J2-Pin_2)*%
X127810100Y-67673000D02*
X131047500Y-67673000D01*
D34*
%TO.N,Net-(U1-G)*%
X123093801Y-70249800D02*
X119859100Y-67015099D01*
X120875100Y-60750200D02*
X127810100Y-60750200D01*
D31*
X127810100Y-63073000D02*
X127810100Y-61115200D01*
D34*
X119859100Y-67015099D02*
X119859100Y-61766200D01*
X119859100Y-61766200D02*
X120875100Y-60750200D01*
X125144200Y-70249800D02*
X123093801Y-70249800D01*
D33*
%TO.N,Net-(U4-\u002AFAULT)*%
X122778600Y-74646600D02*
X122778600Y-79697100D01*
D34*
X122780100Y-83127600D02*
X122780100Y-79698600D01*
X121891100Y-84016600D02*
X122780100Y-83127600D01*
X121152600Y-84016600D02*
X121891100Y-84016600D01*
D33*
%TO.N,Net-(U4-ILIM)*%
X122778600Y-73996600D02*
X123809100Y-73996600D01*
X123809100Y-73996600D02*
X127074600Y-77262100D01*
%TO.N,Net-(U3-VSNS)*%
X104492100Y-72055100D02*
X102408100Y-72055100D01*
X98777100Y-70930600D02*
X97756100Y-70930600D01*
X97756100Y-70930600D02*
X97253100Y-70427600D01*
X102408100Y-72055100D02*
X102333100Y-71980100D01*
X102333100Y-71980100D02*
X102333100Y-71758600D01*
X97253100Y-65794600D02*
X98843100Y-64204600D01*
X99346100Y-70361600D02*
X98777100Y-70930600D01*
X102841100Y-68076600D02*
X102841100Y-70404100D01*
X102333100Y-71758600D02*
X100936100Y-70361600D01*
X102841100Y-70404100D02*
X104492100Y-72055100D01*
X97253100Y-70427600D02*
X97253100Y-65794600D01*
X100936100Y-70361600D02*
X99346100Y-70361600D01*
%TO.N,Net-(C8-Pad1)*%
X98777100Y-66721100D02*
X99007600Y-66490600D01*
X98777100Y-69030600D02*
X98777100Y-66721100D01*
%TO.N,Net-(U3-BOOT)*%
X106524100Y-70239600D02*
X106524100Y-68203600D01*
X106524100Y-68203600D02*
X106651100Y-68076600D01*
%TD*%
%TA.AperFunction,Conductor*%
%TO.N,GND*%
G36*
X123235577Y-71183885D02*
G01*
X123256219Y-71200519D01*
X123683581Y-71627881D01*
X123717066Y-71689204D01*
X123719900Y-71715562D01*
X123719900Y-72825725D01*
X123700215Y-72892764D01*
X123647411Y-72938519D01*
X123624019Y-72945238D01*
X123624223Y-72945997D01*
X123616374Y-72948100D01*
X123616373Y-72948100D01*
X123514513Y-72975393D01*
X123514510Y-72975394D01*
X123455655Y-73009374D01*
X123423187Y-73028120D01*
X123423186Y-73028120D01*
X123417356Y-73031487D01*
X123401867Y-73035637D01*
X123390291Y-73043077D01*
X123355356Y-73048100D01*
X123226766Y-73048100D01*
X123183153Y-73040177D01*
X122997867Y-72970561D01*
X122997860Y-72970558D01*
X122992665Y-72969321D01*
X122991389Y-72969017D01*
X122970045Y-72961829D01*
X122940886Y-72948954D01*
X122916285Y-72946100D01*
X122640923Y-72946100D01*
X122640914Y-72946101D01*
X122616313Y-72948954D01*
X122616309Y-72948955D01*
X122515678Y-72993388D01*
X122437889Y-73071177D01*
X122393454Y-73171812D01*
X122390600Y-73196411D01*
X122390600Y-73496776D01*
X122390601Y-73496785D01*
X122393454Y-73521386D01*
X122393455Y-73521390D01*
X122437664Y-73621513D01*
X122446736Y-73690791D01*
X122437665Y-73721685D01*
X122393454Y-73821813D01*
X122390600Y-73846411D01*
X122390600Y-74146776D01*
X122390601Y-74146785D01*
X122393454Y-74171386D01*
X122393455Y-74171390D01*
X122437664Y-74271513D01*
X122446736Y-74340791D01*
X122437665Y-74371685D01*
X122393454Y-74471813D01*
X122390600Y-74496411D01*
X122390600Y-74796776D01*
X122390601Y-74796785D01*
X122393454Y-74821386D01*
X122396058Y-74827283D01*
X122400784Y-74839764D01*
X122404328Y-74850902D01*
X122405479Y-74860429D01*
X122472101Y-75063845D01*
X122472260Y-75064343D01*
X122472286Y-75065519D01*
X122478100Y-75101949D01*
X122478100Y-76221800D01*
X122458415Y-76288839D01*
X122405611Y-76334594D01*
X122354100Y-76345800D01*
X120766062Y-76345800D01*
X120699023Y-76326115D01*
X120678381Y-76309481D01*
X120251019Y-75882119D01*
X120217534Y-75820796D01*
X120214700Y-75794438D01*
X120214700Y-75189717D01*
X120234385Y-75122678D01*
X120287189Y-75076923D01*
X120292106Y-75074805D01*
X120549074Y-74970697D01*
X120576199Y-74967994D01*
X120602756Y-74961829D01*
X120614183Y-74964209D01*
X120618599Y-74963769D01*
X120637345Y-74968850D01*
X120637920Y-74969055D01*
X120786627Y-75023878D01*
X120800219Y-75027027D01*
X120806962Y-75029436D01*
X120808354Y-75030448D01*
X120815339Y-75032777D01*
X120841311Y-75044245D01*
X120841314Y-75044246D01*
X120865915Y-75047100D01*
X121141284Y-75047099D01*
X121165886Y-75044246D01*
X121266522Y-74999811D01*
X121344311Y-74922022D01*
X121388746Y-74821386D01*
X121391600Y-74796785D01*
X121391599Y-74686617D01*
X121411283Y-74619580D01*
X121440113Y-74588243D01*
X121520815Y-74526318D01*
X121615991Y-74402283D01*
X121615991Y-74402282D01*
X121675815Y-74257853D01*
X121675816Y-74257848D01*
X121685526Y-74184100D01*
X121127600Y-74184100D01*
X121118914Y-74181549D01*
X121109953Y-74182838D01*
X121085912Y-74171859D01*
X121060561Y-74164415D01*
X121054633Y-74157574D01*
X121046397Y-74153813D01*
X121032107Y-74131578D01*
X121014806Y-74111611D01*
X121012518Y-74101096D01*
X121008623Y-74095035D01*
X121003600Y-74060100D01*
X121003600Y-73933100D01*
X121023285Y-73866061D01*
X121076089Y-73820306D01*
X121127600Y-73809100D01*
X121685525Y-73809100D01*
X121685525Y-73809099D01*
X121675816Y-73735351D01*
X121675815Y-73735346D01*
X121615991Y-73590917D01*
X121615991Y-73590916D01*
X121520814Y-73466881D01*
X121440112Y-73404955D01*
X121398910Y-73348527D01*
X121391599Y-73306580D01*
X121391599Y-73196423D01*
X121391599Y-73196416D01*
X121388746Y-73171814D01*
X121344311Y-73071178D01*
X121266522Y-72993389D01*
X121225765Y-72975393D01*
X121165887Y-72948954D01*
X121141285Y-72946100D01*
X120865923Y-72946100D01*
X120865914Y-72946101D01*
X120841313Y-72948954D01*
X120841311Y-72948954D01*
X120814728Y-72960692D01*
X120806554Y-72963959D01*
X120795554Y-72967909D01*
X120786627Y-72969321D01*
X120598695Y-73038603D01*
X120598140Y-73038803D01*
X120596616Y-73038893D01*
X120556231Y-73046100D01*
X120400447Y-73046100D01*
X120370793Y-73054046D01*
X120300943Y-73052383D01*
X120243081Y-73013220D01*
X120215577Y-72948992D01*
X120214700Y-72934271D01*
X120214700Y-71715562D01*
X120234385Y-71648523D01*
X120251019Y-71627881D01*
X120678381Y-71200519D01*
X120739704Y-71167034D01*
X120766062Y-71164200D01*
X123168538Y-71164200D01*
X123235577Y-71183885D01*
G37*
%TD.AperFunction*%
%TD*%
%TA.AperFunction,Conductor*%
%TO.N,GND*%
G36*
X103805015Y-59418307D02*
G01*
X103859386Y-59456886D01*
X104134814Y-59732314D01*
X104181933Y-59807302D01*
X104193100Y-59873028D01*
X104193100Y-60144600D01*
X104547100Y-60144600D01*
X104801100Y-60398600D01*
X104801100Y-60644600D01*
X104193101Y-60644600D01*
X104193101Y-60919583D01*
X104203593Y-61022295D01*
X104203593Y-61022296D01*
X104258741Y-61188720D01*
X104350782Y-61337942D01*
X104350785Y-61337946D01*
X104373782Y-61360943D01*
X104420901Y-61435931D01*
X104430817Y-61523938D01*
X104401566Y-61607531D01*
X104368124Y-61647811D01*
X104361100Y-61654301D01*
X104361100Y-64598895D01*
X104363590Y-64598699D01*
X104363595Y-64598698D01*
X104521299Y-64552881D01*
X104662656Y-64469282D01*
X104778782Y-64353156D01*
X104791900Y-64330976D01*
X104852814Y-64266688D01*
X104935589Y-64235197D01*
X105023831Y-64242739D01*
X105050583Y-64253492D01*
X105129707Y-64292173D01*
X105197840Y-64302100D01*
X105197846Y-64302100D01*
X105504311Y-64302100D01*
X105590654Y-64321807D01*
X105653849Y-64369801D01*
X105792699Y-64527939D01*
X108126133Y-64832300D01*
X109559500Y-65019261D01*
X111551100Y-65148600D01*
X114218672Y-65148600D01*
X114305015Y-65168307D01*
X114359386Y-65206886D01*
X115242814Y-66090314D01*
X115289933Y-66165302D01*
X115301100Y-66231028D01*
X115301100Y-70566172D01*
X115281393Y-70652515D01*
X115242814Y-70706886D01*
X114609386Y-71340314D01*
X114581116Y-71358077D01*
X114555015Y-71378893D01*
X114543981Y-71381411D01*
X114534398Y-71387433D01*
X114468672Y-71398600D01*
X114310100Y-71398600D01*
X114223757Y-71378893D01*
X114154516Y-71323674D01*
X114116089Y-71243882D01*
X114111100Y-71199600D01*
X114111100Y-70353600D01*
X109991100Y-70353600D01*
X109991100Y-71172672D01*
X109971393Y-71259015D01*
X109916174Y-71328256D01*
X109836382Y-71366683D01*
X109747818Y-71366683D01*
X109704669Y-71351437D01*
X108228532Y-70629482D01*
X108159627Y-70573844D01*
X108158882Y-70572891D01*
X107665042Y-69937953D01*
X107665043Y-69937953D01*
X107665041Y-69937952D01*
X107665040Y-69937951D01*
X107483221Y-69849026D01*
X107414317Y-69793388D01*
X107410537Y-69788431D01*
X107401893Y-69776719D01*
X107401893Y-69776718D01*
X107321250Y-69667450D01*
X107211982Y-69586807D01*
X107083799Y-69541954D01*
X107083796Y-69541953D01*
X107072369Y-69537955D01*
X107073161Y-69535690D01*
X107070493Y-69534436D01*
X107050631Y-69530556D01*
X107030923Y-69515829D01*
X107008662Y-69505362D01*
X106995898Y-69489657D01*
X106979686Y-69477543D01*
X106968319Y-69455724D01*
X106952805Y-69436635D01*
X106948119Y-69416947D01*
X106938769Y-69398999D01*
X106937994Y-69374410D01*
X106932299Y-69350479D01*
X106936618Y-69330709D01*
X106935982Y-69310479D01*
X106945953Y-69287988D01*
X106951205Y-69263957D01*
X106971879Y-69229517D01*
X106974517Y-69225986D01*
X106997230Y-69203767D01*
X106995922Y-69202459D01*
X107007583Y-69190798D01*
X107090298Y-69108083D01*
X107141673Y-69002993D01*
X107151600Y-68934860D01*
X107151600Y-68930777D01*
X109991100Y-68930777D01*
X109991100Y-69853600D01*
X111801100Y-69853600D01*
X112301100Y-69853600D01*
X114111100Y-69853600D01*
X114111100Y-68930777D01*
X114104698Y-68871227D01*
X114104696Y-68871218D01*
X114054453Y-68736512D01*
X114054452Y-68736509D01*
X113968289Y-68621410D01*
X113853190Y-68535247D01*
X113853187Y-68535246D01*
X113718481Y-68485003D01*
X113718472Y-68485001D01*
X113658923Y-68478600D01*
X112301100Y-68478600D01*
X112301100Y-69853600D01*
X111801100Y-69853600D01*
X111801100Y-68478600D01*
X110443277Y-68478600D01*
X110383727Y-68485001D01*
X110383718Y-68485003D01*
X110249012Y-68535246D01*
X110249009Y-68535247D01*
X110133910Y-68621410D01*
X110047747Y-68736509D01*
X110047746Y-68736512D01*
X109997503Y-68871218D01*
X109997501Y-68871227D01*
X109991100Y-68930777D01*
X107151600Y-68930777D01*
X107151600Y-67218340D01*
X107141673Y-67150207D01*
X107090298Y-67045117D01*
X107007583Y-66962402D01*
X107007582Y-66962401D01*
X106902492Y-66911026D01*
X106834365Y-66901100D01*
X106834360Y-66901100D01*
X106467840Y-66901100D01*
X106467834Y-66901100D01*
X106399707Y-66911026D01*
X106294617Y-66962401D01*
X106211902Y-67045116D01*
X106211901Y-67045118D01*
X106194880Y-67079936D01*
X106139254Y-67148850D01*
X106059236Y-67186805D01*
X105970674Y-67186282D01*
X105891109Y-67147385D01*
X105837320Y-67079936D01*
X105820298Y-67045118D01*
X105820297Y-67045116D01*
X105737582Y-66962401D01*
X105632492Y-66911026D01*
X105564365Y-66901100D01*
X105564360Y-66901100D01*
X105197840Y-66901100D01*
X105197834Y-66901100D01*
X105129707Y-66911026D01*
X105024617Y-66962401D01*
X104941902Y-67045116D01*
X104941901Y-67045118D01*
X104924880Y-67079936D01*
X104869254Y-67148850D01*
X104789236Y-67186805D01*
X104700674Y-67186282D01*
X104621109Y-67147385D01*
X104567320Y-67079936D01*
X104550298Y-67045118D01*
X104550297Y-67045116D01*
X104467582Y-66962401D01*
X104362492Y-66911026D01*
X104294365Y-66901100D01*
X104294360Y-66901100D01*
X103927840Y-66901100D01*
X103927834Y-66901100D01*
X103859707Y-66911026D01*
X103754617Y-66962401D01*
X103671902Y-67045116D01*
X103671901Y-67045118D01*
X103654880Y-67079936D01*
X103599254Y-67148850D01*
X103519236Y-67186805D01*
X103430674Y-67186282D01*
X103351109Y-67147385D01*
X103297320Y-67079936D01*
X103280298Y-67045118D01*
X103280297Y-67045116D01*
X103197582Y-66962401D01*
X103092492Y-66911026D01*
X103024365Y-66901100D01*
X103024360Y-66901100D01*
X102657840Y-66901100D01*
X102657834Y-66901100D01*
X102589707Y-66911026D01*
X102484617Y-66962401D01*
X102401901Y-67045117D01*
X102350526Y-67150207D01*
X102340600Y-67218334D01*
X102340600Y-67600011D01*
X102339820Y-67603426D01*
X102340482Y-67606867D01*
X102330001Y-67646445D01*
X102320893Y-67686354D01*
X102318708Y-67689092D01*
X102317812Y-67692480D01*
X102291192Y-67723596D01*
X102265674Y-67755595D01*
X102262518Y-67757114D01*
X102260240Y-67759778D01*
X102222767Y-67776258D01*
X102185882Y-67794022D01*
X102182377Y-67794022D01*
X102179171Y-67795432D01*
X102138266Y-67794022D01*
X102097318Y-67794022D01*
X102094161Y-67792501D01*
X102090660Y-67792381D01*
X102073972Y-67782779D01*
X102017526Y-67755595D01*
X102012239Y-67751228D01*
X101790838Y-67561827D01*
X101773421Y-67538372D01*
X101752586Y-67517881D01*
X101747320Y-67503223D01*
X101738038Y-67490724D01*
X101732521Y-67462033D01*
X101722642Y-67434533D01*
X101724256Y-67419045D01*
X101721317Y-67403754D01*
X101728796Y-67375506D01*
X101731827Y-67346447D01*
X101742471Y-67323865D01*
X101743987Y-67318141D01*
X101746620Y-67315062D01*
X101750827Y-67306139D01*
X101779457Y-67259722D01*
X101834604Y-67093300D01*
X101845100Y-66990570D01*
X101845100Y-66740600D01*
X101082600Y-66740600D01*
X101082600Y-67256600D01*
X101127814Y-67301814D01*
X101132905Y-67309916D01*
X101140490Y-67315751D01*
X101156262Y-67347087D01*
X101174933Y-67376802D01*
X101176004Y-67386313D01*
X101180306Y-67394860D01*
X101186100Y-67442528D01*
X101186100Y-68262600D01*
X101166393Y-68348943D01*
X101111174Y-68418184D01*
X101031382Y-68456611D01*
X100987100Y-68461600D01*
X100885100Y-68461600D01*
X100798757Y-68441893D01*
X100729516Y-68386674D01*
X100691089Y-68306882D01*
X100686100Y-68262600D01*
X100686100Y-67895600D01*
X100640886Y-67850386D01*
X100635794Y-67842283D01*
X100628210Y-67836449D01*
X100612437Y-67805112D01*
X100593767Y-67775398D01*
X100591873Y-67764253D01*
X100588394Y-67757340D01*
X100588129Y-67742215D01*
X100582600Y-67709672D01*
X100582600Y-65634600D01*
X100551386Y-65603386D01*
X100504267Y-65528398D01*
X100493100Y-65462672D01*
X100493100Y-65085600D01*
X100993100Y-65085600D01*
X101024314Y-65116814D01*
X101071433Y-65191802D01*
X101082600Y-65257528D01*
X101082600Y-66240600D01*
X101845099Y-66240600D01*
X101845099Y-65990622D01*
X101845098Y-65990616D01*
X101834606Y-65887904D01*
X101834606Y-65887903D01*
X101779458Y-65721479D01*
X101687417Y-65572257D01*
X101687414Y-65572253D01*
X101564975Y-65449814D01*
X101517856Y-65374826D01*
X101507940Y-65286819D01*
X101537191Y-65203226D01*
X101564975Y-65168386D01*
X101585414Y-65147946D01*
X101585417Y-65147942D01*
X101677457Y-64998721D01*
X101732604Y-64832300D01*
X101743100Y-64729570D01*
X101743100Y-64454600D01*
X100993100Y-64454600D01*
X100993100Y-65085600D01*
X100493100Y-65085600D01*
X100493100Y-63954600D01*
X100993100Y-63954600D01*
X101743099Y-63954600D01*
X101743099Y-63679622D01*
X101743098Y-63679616D01*
X101732606Y-63576904D01*
X101732606Y-63576903D01*
X101677458Y-63410479D01*
X101585417Y-63261257D01*
X101585414Y-63261253D01*
X101461446Y-63137285D01*
X101461442Y-63137282D01*
X101312221Y-63045242D01*
X101145800Y-62990095D01*
X101043070Y-62979600D01*
X100993100Y-62979600D01*
X100993100Y-63954600D01*
X100493100Y-63954600D01*
X100493100Y-62979599D01*
X100443134Y-62979600D01*
X100443122Y-62979601D01*
X100340404Y-62990093D01*
X100340403Y-62990093D01*
X100173979Y-63045241D01*
X100173970Y-63045245D01*
X100104568Y-63088053D01*
X100020734Y-63116607D01*
X99932813Y-63105959D01*
X99858219Y-63058218D01*
X99811727Y-62982840D01*
X99801100Y-62918680D01*
X99801100Y-61344708D01*
X102340600Y-61344708D01*
X102340600Y-61476492D01*
X102359722Y-61547858D01*
X102374708Y-61603787D01*
X102413939Y-61671736D01*
X102416171Y-61678972D01*
X102420893Y-61684893D01*
X102429130Y-61720984D01*
X102440044Y-61756364D01*
X102440600Y-61771236D01*
X102440600Y-61784369D01*
X102435720Y-61828169D01*
X102356862Y-62177664D01*
X102352878Y-62192595D01*
X102350528Y-62200201D01*
X102340600Y-62268337D01*
X102340600Y-63984865D01*
X102350526Y-64052992D01*
X102401901Y-64158082D01*
X102401902Y-64158083D01*
X102484617Y-64240798D01*
X102589707Y-64292173D01*
X102657840Y-64302100D01*
X102657846Y-64302100D01*
X103024354Y-64302100D01*
X103024360Y-64302100D01*
X103092493Y-64292173D01*
X103171611Y-64253494D01*
X103257835Y-64233277D01*
X103344293Y-64252474D01*
X103413859Y-64307282D01*
X103430297Y-64330972D01*
X103443417Y-64353156D01*
X103559543Y-64469282D01*
X103700900Y-64552881D01*
X103858604Y-64598698D01*
X103858609Y-64598699D01*
X103861100Y-64598895D01*
X103861100Y-61654303D01*
X103861099Y-61654302D01*
X103858611Y-61654499D01*
X103858605Y-61654500D01*
X103700899Y-61700318D01*
X103622403Y-61746742D01*
X103538052Y-61773732D01*
X103450344Y-61761450D01*
X103376651Y-61712330D01*
X103331569Y-61636100D01*
X103324026Y-61547858D01*
X103328884Y-61523951D01*
X103341600Y-61476493D01*
X103341600Y-61344710D01*
X103341600Y-61344708D01*
X103307492Y-61217414D01*
X103241600Y-61103286D01*
X103148415Y-61010101D01*
X103148416Y-61010101D01*
X103124296Y-60996175D01*
X103034286Y-60944208D01*
X102906992Y-60910100D01*
X102775208Y-60910100D01*
X102647914Y-60944208D01*
X102533784Y-61010101D01*
X102440601Y-61103284D01*
X102389525Y-61191750D01*
X102374708Y-61217414D01*
X102340600Y-61344708D01*
X99801100Y-61344708D01*
X99801100Y-60481028D01*
X99820807Y-60394685D01*
X99859386Y-60340314D01*
X100742814Y-59456886D01*
X100817802Y-59409767D01*
X100883528Y-59398600D01*
X103718672Y-59398600D01*
X103805015Y-59418307D01*
G37*
%TD.AperFunction*%
%TD*%
%TA.AperFunction,Conductor*%
%TO.N,GND*%
G36*
X145859966Y-64762360D02*
G01*
X145863120Y-64768121D01*
X146192206Y-66265127D01*
X146190635Y-66273943D01*
X146183291Y-66279066D01*
X146183075Y-66279112D01*
X145363396Y-66443140D01*
X145358804Y-66443140D01*
X144539124Y-66279112D01*
X144531684Y-66274128D01*
X144529947Y-66265343D01*
X144529993Y-66265127D01*
X144859080Y-64768121D01*
X144864203Y-64760777D01*
X144870507Y-64758933D01*
X145851693Y-64758933D01*
X145859966Y-64762360D01*
G37*
%TD.AperFunction*%
%TD*%
%TA.AperFunction,Conductor*%
%TO.N,GND*%
G36*
X146183075Y-64066087D02*
G01*
X146190515Y-64071071D01*
X146192252Y-64079856D01*
X146192206Y-64080072D01*
X145863120Y-65577079D01*
X145857997Y-65584423D01*
X145851693Y-65586267D01*
X144870507Y-65586267D01*
X144862234Y-65582840D01*
X144859080Y-65577079D01*
X144529993Y-64080072D01*
X144531564Y-64071256D01*
X144538908Y-64066133D01*
X144539086Y-64066095D01*
X145358806Y-63902059D01*
X145363394Y-63902059D01*
X146183075Y-64066087D01*
G37*
%TD.AperFunction*%
%TD*%
%TA.AperFunction,Conductor*%
%TO.N,GND*%
G36*
X128883632Y-73865820D02*
G01*
X128885053Y-73867241D01*
X129353103Y-74423557D01*
X129355807Y-74432093D01*
X129355427Y-74434208D01*
X129178473Y-75074019D01*
X129172964Y-75081079D01*
X129167196Y-75082600D01*
X128585004Y-75082600D01*
X128576731Y-75079173D01*
X128573727Y-75074019D01*
X128396772Y-74434208D01*
X128397870Y-74425321D01*
X128399096Y-74423557D01*
X128867147Y-73867241D01*
X128875096Y-73863116D01*
X128883632Y-73865820D01*
G37*
%TD.AperFunction*%
%TD*%
%TA.AperFunction,Conductor*%
%TO.N,GND*%
G36*
X129175876Y-76457527D02*
G01*
X129178729Y-76462180D01*
X129390975Y-77114493D01*
X129390276Y-77123420D01*
X129388534Y-77125953D01*
X128908285Y-77657978D01*
X128900198Y-77661823D01*
X128891760Y-77658823D01*
X128890915Y-77657978D01*
X128410330Y-77125582D01*
X128407330Y-77117144D01*
X128407676Y-77114861D01*
X128573854Y-76462909D01*
X128579218Y-76455740D01*
X128585191Y-76454100D01*
X129167603Y-76454100D01*
X129175876Y-76457527D01*
G37*
%TD.AperFunction*%
%TD*%
%TA.AperFunction,Conductor*%
%TO.N,GND*%
G36*
X124009594Y-53722457D02*
G01*
X124013262Y-53728877D01*
X124177640Y-54550304D01*
X124177640Y-54554896D01*
X124013262Y-55376322D01*
X124008278Y-55383762D01*
X124001145Y-55385708D01*
X122504489Y-55303209D01*
X122496417Y-55299332D01*
X122493433Y-55291527D01*
X122493433Y-53813672D01*
X122496860Y-53805399D01*
X122504487Y-53801990D01*
X124001145Y-53719491D01*
X124009594Y-53722457D01*
G37*
%TD.AperFunction*%
%TD*%
%TA.AperFunction,Conductor*%
%TO.N,GND*%
G36*
X119556689Y-53800887D02*
G01*
X119564236Y-53805705D01*
X119566345Y-53812407D01*
X119566345Y-55290244D01*
X119562918Y-55298517D01*
X119554645Y-55301944D01*
X119554008Y-55301927D01*
X117738727Y-55203000D01*
X117730653Y-55199128D01*
X117727681Y-55190680D01*
X117727885Y-55189055D01*
X117890100Y-54368600D01*
X118054681Y-53546154D01*
X118059665Y-53538715D01*
X118068195Y-53536931D01*
X119556689Y-53800887D01*
G37*
%TD.AperFunction*%
%TD*%
%TA.AperFunction,Conductor*%
%TO.N,GND*%
G36*
X105186363Y-60390824D02*
G01*
X105192706Y-60397145D01*
X105193600Y-60401941D01*
X105175379Y-61112845D01*
X105171741Y-61121027D01*
X105169269Y-61122825D01*
X104801100Y-61322867D01*
X104801100Y-61322868D01*
X104555827Y-61456137D01*
X104131563Y-61031873D01*
X104693100Y-60187494D01*
X105186363Y-60390824D01*
G37*
%TD.AperFunction*%
%TD*%
%TA.AperFunction,Conductor*%
%TO.N,GND*%
G36*
X129175469Y-72636027D02*
G01*
X129178473Y-72641181D01*
X129355427Y-73280991D01*
X129354329Y-73289878D01*
X129353103Y-73291642D01*
X128885053Y-73847958D01*
X128877104Y-73852083D01*
X128868568Y-73849379D01*
X128867147Y-73847958D01*
X128399096Y-73291642D01*
X128396392Y-73283106D01*
X128396772Y-73280991D01*
X128573727Y-72641181D01*
X128579236Y-72634121D01*
X128585004Y-72632600D01*
X129167196Y-72632600D01*
X129175469Y-72636027D01*
G37*
%TD.AperFunction*%
%TD*%
%TA.AperFunction,Conductor*%
%TO.N,GND*%
G36*
X129282745Y-72357606D02*
G01*
X129290177Y-72362599D01*
X129291977Y-72370977D01*
X129203489Y-72907917D01*
X129177849Y-73063505D01*
X129177715Y-73064316D01*
X129172989Y-73071922D01*
X129166171Y-73074114D01*
X128586755Y-73074114D01*
X128578482Y-73070687D01*
X128575106Y-73063505D01*
X128510167Y-72370314D01*
X128512807Y-72361761D01*
X128519502Y-72357757D01*
X128899192Y-72281265D01*
X128903808Y-72281265D01*
X129282745Y-72357606D01*
G37*
%TD.AperFunction*%
%TD*%
%TA.AperFunction,Conductor*%
%TO.N,/3V3*%
G36*
X119359310Y-80594935D02*
G01*
X119359377Y-80595002D01*
X120183924Y-81432017D01*
X120187289Y-81440316D01*
X120186354Y-81444810D01*
X119830630Y-82280482D01*
X119824237Y-82286752D01*
X119819865Y-82287600D01*
X118835639Y-82287600D01*
X118827366Y-82284173D01*
X118824717Y-82280095D01*
X118503823Y-81444689D01*
X118504055Y-81435738D01*
X118506465Y-81432228D01*
X119342765Y-80594944D01*
X119351035Y-80591513D01*
X119359310Y-80594935D01*
G37*
%TD.AperFunction*%
%TD*%
%TA.AperFunction,Conductor*%
%TO.N,/3V3*%
G36*
X122141327Y-87083730D02*
G01*
X122879063Y-87723101D01*
X122883070Y-87731109D01*
X122883100Y-87731943D01*
X122883100Y-87921256D01*
X122879673Y-87929529D01*
X122879063Y-87930098D01*
X122141327Y-88569469D01*
X122132830Y-88572297D01*
X122125396Y-88568906D01*
X121390390Y-87834879D01*
X121386958Y-87826608D01*
X121390379Y-87818332D01*
X121390390Y-87818321D01*
X121485737Y-87723101D01*
X122125397Y-87084292D01*
X122133672Y-87080872D01*
X122141327Y-87083730D01*
G37*
%TD.AperFunction*%
%TD*%
%TA.AperFunction,Conductor*%
%TO.N,/3V3*%
G36*
X118708507Y-73346871D02*
G01*
X119348320Y-73523827D01*
X119355379Y-73529335D01*
X119356900Y-73535103D01*
X119356900Y-74117296D01*
X119353473Y-74125569D01*
X119348319Y-74128573D01*
X118708508Y-74305527D01*
X118699621Y-74304429D01*
X118697857Y-74303203D01*
X118141541Y-73835153D01*
X118137416Y-73827204D01*
X118140120Y-73818668D01*
X118141541Y-73817247D01*
X118483748Y-73529335D01*
X118697857Y-73349195D01*
X118706393Y-73346492D01*
X118708507Y-73346871D01*
G37*
%TD.AperFunction*%
%TD*%
%TA.AperFunction,Conductor*%
%TO.N,/3V3*%
G36*
X119335440Y-84024376D02*
G01*
X119336285Y-84025221D01*
X119815309Y-84555889D01*
X119818309Y-84564327D01*
X119816701Y-84569675D01*
X119430995Y-85223346D01*
X119423839Y-85228730D01*
X119420918Y-85229100D01*
X119234282Y-85229100D01*
X119226009Y-85225673D01*
X119224205Y-85223346D01*
X119144259Y-85087859D01*
X118838497Y-84569673D01*
X118837245Y-84560808D01*
X118839888Y-84555891D01*
X119318915Y-84025220D01*
X119327002Y-84021376D01*
X119335440Y-84024376D01*
G37*
%TD.AperFunction*%
%TD*%
%TA.AperFunction,Conductor*%
%TO.N,/3V3*%
G36*
X119851537Y-78891027D02*
G01*
X119854083Y-78894845D01*
X120198132Y-79730392D01*
X120198113Y-79739347D01*
X120195591Y-79743115D01*
X119359378Y-80580312D01*
X119351107Y-80583744D01*
X119342832Y-80580322D01*
X119342822Y-80580312D01*
X119063244Y-80300405D01*
X118506607Y-79743114D01*
X118503186Y-79734840D01*
X118504066Y-79730396D01*
X118848117Y-78894845D01*
X118854436Y-78888500D01*
X118858936Y-78887600D01*
X119843264Y-78887600D01*
X119851537Y-78891027D01*
G37*
%TD.AperFunction*%
%TD*%
%TA.AperFunction,Conductor*%
%TO.N,/3V3*%
G36*
X120640803Y-87084293D02*
G01*
X121375809Y-87818321D01*
X121379241Y-87826592D01*
X121375820Y-87834868D01*
X121375809Y-87834879D01*
X120640803Y-88568906D01*
X120632527Y-88572327D01*
X120624872Y-88569469D01*
X119887137Y-87930098D01*
X119883130Y-87922090D01*
X119883100Y-87921256D01*
X119883100Y-87731943D01*
X119886527Y-87723670D01*
X119887137Y-87723101D01*
X120624873Y-87083729D01*
X120633369Y-87080902D01*
X120640803Y-87084293D01*
G37*
%TD.AperFunction*%
%TD*%
%TA.AperFunction,Conductor*%
%TO.N,/3V3*%
G36*
X120866658Y-73162490D02*
G01*
X120871164Y-73166157D01*
X120999455Y-73339643D01*
X121001619Y-73348333D01*
X120999455Y-73353557D01*
X120871164Y-73527042D01*
X120863490Y-73531656D01*
X120857710Y-73531063D01*
X120636253Y-73449421D01*
X120629676Y-73443344D01*
X120628600Y-73438443D01*
X120628600Y-73254756D01*
X120632027Y-73246483D01*
X120636250Y-73243779D01*
X120857710Y-73162136D01*
X120866658Y-73162490D01*
G37*
%TD.AperFunction*%
%TD*%
%TA.AperFunction,Conductor*%
%TO.N,/3V3*%
G36*
X139343293Y-116170656D02*
G01*
X139343793Y-116171188D01*
X140083032Y-117008992D01*
X140085936Y-117017463D01*
X140082537Y-117025001D01*
X139248578Y-117859941D01*
X139240307Y-117863373D01*
X139232032Y-117859951D01*
X139232022Y-117859941D01*
X139039168Y-117666861D01*
X138398061Y-117024999D01*
X138394640Y-117016726D01*
X138397566Y-117008993D01*
X139136807Y-116171188D01*
X139144850Y-116167252D01*
X139145580Y-116167229D01*
X139335020Y-116167229D01*
X139343293Y-116170656D01*
G37*
%TD.AperFunction*%
%TD*%
%TA.AperFunction,Conductor*%
%TO.N,/12V*%
G36*
X110279366Y-54375876D02*
G01*
X111115591Y-55213084D01*
X111119013Y-55221359D01*
X111118132Y-55225807D01*
X110774083Y-56061355D01*
X110767764Y-56067700D01*
X110763264Y-56068600D01*
X109778936Y-56068600D01*
X109770663Y-56065173D01*
X109768117Y-56061355D01*
X109669817Y-55822627D01*
X109424067Y-55225805D01*
X109424086Y-55216852D01*
X109426604Y-55213088D01*
X110262823Y-54375886D01*
X110271093Y-54372455D01*
X110279366Y-54375876D01*
G37*
%TD.AperFunction*%
%TD*%
%TA.AperFunction,Conductor*%
%TO.N,/12V*%
G36*
X106601981Y-60191155D02*
G01*
X107086363Y-60390824D01*
X107092706Y-60397145D01*
X107093600Y-60401941D01*
X107075379Y-61112845D01*
X107071741Y-61121027D01*
X107069269Y-61122825D01*
X106463506Y-61451964D01*
X106454600Y-61452903D01*
X106449647Y-61449957D01*
X106038337Y-61038647D01*
X106034910Y-61030374D01*
X106036867Y-61023896D01*
X106587780Y-60195492D01*
X106595214Y-60190502D01*
X106601981Y-60191155D01*
G37*
%TD.AperFunction*%
%TD*%
%TA.AperFunction,Conductor*%
%TO.N,/burn*%
G36*
X126482848Y-73360582D02*
G01*
X126486509Y-73363080D01*
X126968925Y-73849360D01*
X126972319Y-73857647D01*
X126968925Y-73865840D01*
X126486509Y-74352119D01*
X126478250Y-74355579D01*
X126473895Y-74354757D01*
X125983492Y-74160527D01*
X125977062Y-74154294D01*
X125976100Y-74149649D01*
X125976100Y-73565550D01*
X125979527Y-73557277D01*
X125983490Y-73554672D01*
X126473897Y-73360442D01*
X126482848Y-73360582D01*
G37*
%TD.AperFunction*%
%TD*%
%TA.AperFunction,Conductor*%
%TO.N,/burn*%
G36*
X122925581Y-73162928D02*
G01*
X123146015Y-73245750D01*
X123152554Y-73251867D01*
X123153600Y-73256702D01*
X123153600Y-73440389D01*
X123150173Y-73448662D01*
X123145879Y-73451392D01*
X122923403Y-73531849D01*
X122914458Y-73531440D01*
X122909978Y-73527749D01*
X122782705Y-73353585D01*
X122780590Y-73344884D01*
X122782783Y-73339673D01*
X122912102Y-73166869D01*
X122919801Y-73162300D01*
X122925581Y-73162928D01*
G37*
%TD.AperFunction*%
%TD*%
%TA.AperFunction,Conductor*%
%TO.N,/burn*%
G36*
X130542108Y-69707709D02*
G01*
X130543084Y-69708580D01*
X131381173Y-70545683D01*
X131384605Y-70553954D01*
X131381183Y-70562229D01*
X131380537Y-70562829D01*
X130545366Y-71281555D01*
X130536860Y-71284354D01*
X130531923Y-71282842D01*
X129694989Y-70803969D01*
X129689511Y-70796886D01*
X129689100Y-70793814D01*
X129689100Y-69811052D01*
X129692527Y-69802779D01*
X129699484Y-69799427D01*
X130533503Y-69705232D01*
X130542108Y-69707709D01*
G37*
%TD.AperFunction*%
%TD*%
%TA.AperFunction,Conductor*%
%TO.N,/burn*%
G36*
X127014232Y-70258020D02*
G01*
X127015651Y-70259439D01*
X127483495Y-70815509D01*
X127486199Y-70824044D01*
X127485675Y-70826640D01*
X127278719Y-71466700D01*
X127272913Y-71473517D01*
X127267586Y-71474800D01*
X126685416Y-71474800D01*
X126677143Y-71471373D01*
X126674013Y-71465720D01*
X126527036Y-70826155D01*
X126528523Y-70817327D01*
X126529476Y-70816017D01*
X126997747Y-70259440D01*
X127005696Y-70255316D01*
X127014232Y-70258020D01*
G37*
%TD.AperFunction*%
%TD*%
%TA.AperFunction,Conductor*%
%TO.N,/burn*%
G36*
X127275469Y-72636027D02*
G01*
X127278473Y-72641181D01*
X127455427Y-73280991D01*
X127454329Y-73289878D01*
X127453103Y-73291642D01*
X126985053Y-73847958D01*
X126977104Y-73852083D01*
X126968568Y-73849379D01*
X126967147Y-73847958D01*
X126499096Y-73291642D01*
X126496392Y-73283106D01*
X126496772Y-73280991D01*
X126673727Y-72641181D01*
X126679236Y-72634121D01*
X126685004Y-72632600D01*
X127267196Y-72632600D01*
X127275469Y-72636027D01*
G37*
%TD.AperFunction*%
%TD*%
%TA.AperFunction,Conductor*%
%TO.N,Net-(D1-K)*%
G36*
X113617041Y-62196570D02*
G01*
X114604632Y-62690366D01*
X114610500Y-62697131D01*
X114611100Y-62700831D01*
X114611100Y-63686369D01*
X114607673Y-63694642D01*
X114604632Y-63696834D01*
X113617045Y-64190627D01*
X113608113Y-64191262D01*
X113605502Y-64190014D01*
X112835648Y-63696834D01*
X112065477Y-63203450D01*
X112060360Y-63196104D01*
X112061937Y-63187289D01*
X112065476Y-63183749D01*
X113605504Y-62197184D01*
X113614317Y-62195608D01*
X113617041Y-62196570D01*
G37*
%TD.AperFunction*%
%TD*%
%TA.AperFunction,Conductor*%
%TO.N,Net-(D1-K)*%
G36*
X110497626Y-62156772D02*
G01*
X112036902Y-63183463D01*
X112041883Y-63190905D01*
X112040144Y-63199689D01*
X112036537Y-63203165D01*
X110497769Y-64149003D01*
X110488926Y-64150415D01*
X110484766Y-64148501D01*
X110187840Y-63932784D01*
X109495923Y-63430103D01*
X109491244Y-63422468D01*
X109491100Y-63420637D01*
X109491100Y-62832822D01*
X109494527Y-62824549D01*
X109496260Y-62823121D01*
X110484594Y-62156805D01*
X110493369Y-62155021D01*
X110497626Y-62156772D01*
G37*
%TD.AperFunction*%
%TD*%
%TA.AperFunction,Conductor*%
%TO.N,/EN*%
G36*
X103040019Y-61855027D02*
G01*
X103043159Y-61860725D01*
X103128972Y-62241052D01*
X103128681Y-62247260D01*
X102852222Y-63093553D01*
X102846395Y-63100353D01*
X102837467Y-63101042D01*
X102830667Y-63095215D01*
X102829978Y-63093553D01*
X102770616Y-62911835D01*
X102553517Y-62247257D01*
X102553227Y-62241054D01*
X102639041Y-61860724D01*
X102644205Y-61853409D01*
X102650454Y-61851600D01*
X103031746Y-61851600D01*
X103040019Y-61855027D01*
G37*
%TD.AperFunction*%
%TD*%
%TA.AperFunction,Conductor*%
%TO.N,/EN*%
G36*
X120866658Y-74462490D02*
G01*
X120871164Y-74466157D01*
X120999455Y-74639643D01*
X121001619Y-74648333D01*
X120999455Y-74653557D01*
X120871164Y-74827042D01*
X120863490Y-74831656D01*
X120857710Y-74831063D01*
X120636253Y-74749421D01*
X120629676Y-74743344D01*
X120628600Y-74738443D01*
X120628600Y-74554756D01*
X120632027Y-74546483D01*
X120636250Y-74543779D01*
X120857710Y-74462136D01*
X120866658Y-74462490D01*
G37*
%TD.AperFunction*%
%TD*%
%TA.AperFunction,Conductor*%
%TO.N,/EN*%
G36*
X120031670Y-74379146D02*
G01*
X120546803Y-74543997D01*
X120553637Y-74549781D01*
X120554936Y-74555139D01*
X120554936Y-74738716D01*
X120551509Y-74746989D01*
X120547629Y-74749560D01*
X120032292Y-74958342D01*
X120023338Y-74958272D01*
X120017055Y-74951891D01*
X120016431Y-74949818D01*
X119960169Y-74671720D01*
X119960169Y-74667080D01*
X119983900Y-74549781D01*
X120016636Y-74387968D01*
X120021636Y-74380540D01*
X120030424Y-74378821D01*
X120031670Y-74379146D01*
G37*
%TD.AperFunction*%
%TD*%
%TA.AperFunction,Conductor*%
%TO.N,/DeployerDetectionSW1OUT*%
G36*
X141844232Y-124351419D02*
G01*
X141973636Y-124480823D01*
X141977063Y-124489096D01*
X141975789Y-124494405D01*
X141772597Y-124893480D01*
X141765790Y-124899297D01*
X141756862Y-124898597D01*
X141755709Y-124897925D01*
X141560051Y-124768296D01*
X141556759Y-124765004D01*
X141427130Y-124569346D01*
X141425418Y-124560557D01*
X141430422Y-124553130D01*
X141431561Y-124552465D01*
X141830653Y-124349265D01*
X141839578Y-124348566D01*
X141844232Y-124351419D01*
G37*
%TD.AperFunction*%
%TD*%
%TA.AperFunction,Conductor*%
%TO.N,/DeployerDetectionSW1OUT*%
G36*
X145369366Y-76609876D02*
G01*
X146203337Y-77444828D01*
X146206759Y-77453102D01*
X146203832Y-77460836D01*
X145464593Y-78298641D01*
X145456550Y-78302577D01*
X145455820Y-78302600D01*
X145266380Y-78302600D01*
X145258107Y-78299173D01*
X145257607Y-78298641D01*
X144518367Y-77460836D01*
X144515463Y-77452365D01*
X144518860Y-77444830D01*
X145352823Y-76609886D01*
X145361093Y-76606455D01*
X145369366Y-76609876D01*
G37*
%TD.AperFunction*%
%TD*%
%TA.AperFunction,Conductor*%
%TO.N,/BurnWire1IN*%
G36*
X139943559Y-122491401D02*
G01*
X139945507Y-122498663D01*
X139905874Y-123107166D01*
X140938995Y-124140287D01*
X140942422Y-124148560D01*
X140938995Y-124156833D01*
X140930722Y-124160260D01*
X140928378Y-124160023D01*
X139085867Y-123783226D01*
X139078448Y-123778211D01*
X139076734Y-123769488D01*
X139238650Y-122952692D01*
X139243618Y-122945244D01*
X139927330Y-122488175D01*
X139936112Y-122486427D01*
X139943559Y-122491401D01*
G37*
%TD.AperFunction*%
%TD*%
%TA.AperFunction,Conductor*%
%TO.N,/BurnWire1IN*%
G36*
X122547983Y-64450379D02*
G01*
X123414697Y-64869805D01*
X123420651Y-64876493D01*
X123421300Y-64880336D01*
X123421300Y-65864952D01*
X123417873Y-65873225D01*
X123413785Y-65875878D01*
X122547983Y-66207505D01*
X122539031Y-66207264D01*
X122535323Y-66204646D01*
X122211984Y-65864952D01*
X121667174Y-65292584D01*
X121663954Y-65284229D01*
X121667581Y-65276046D01*
X122534832Y-64452427D01*
X122543190Y-64449216D01*
X122547983Y-64450379D01*
G37*
%TD.AperFunction*%
%TD*%
%TA.AperFunction,Conductor*%
%TO.N,/BurnWire1IN*%
G36*
X139897300Y-123077702D02*
G01*
X140064022Y-123111066D01*
X140071462Y-123116050D01*
X140073408Y-123123183D01*
X139990909Y-124619840D01*
X139987032Y-124627912D01*
X139979227Y-124630896D01*
X138501373Y-124630896D01*
X138493100Y-124627469D01*
X138489691Y-124619840D01*
X138407191Y-123123183D01*
X138410157Y-123114734D01*
X138416577Y-123111066D01*
X139238006Y-122946688D01*
X139242594Y-122946688D01*
X139897300Y-123077702D01*
G37*
%TD.AperFunction*%
%TD*%
%TA.AperFunction,Conductor*%
%TO.N,/BurnWire1IN*%
G36*
X139987500Y-123806989D02*
G01*
X139990909Y-123814618D01*
X140073408Y-125311274D01*
X140070442Y-125319723D01*
X140064022Y-125323391D01*
X139242596Y-125487769D01*
X139238004Y-125487769D01*
X138416577Y-125323391D01*
X138409137Y-125318407D01*
X138407191Y-125311274D01*
X138489691Y-123814618D01*
X138493568Y-123806546D01*
X138501373Y-123803562D01*
X139979227Y-123803562D01*
X139987500Y-123806989D01*
G37*
%TD.AperFunction*%
%TD*%
%TA.AperFunction,Conductor*%
%TO.N,/DeployerDetectionSW2OUT*%
G36*
X140491471Y-64212272D02*
G01*
X140492434Y-64213134D01*
X141227076Y-64947776D01*
X141230503Y-64956049D01*
X141228500Y-64962596D01*
X140861556Y-65506077D01*
X140860132Y-65507803D01*
X140727042Y-65640893D01*
X140718769Y-65644320D01*
X140711302Y-65641628D01*
X140548893Y-65507007D01*
X140425780Y-65404957D01*
X139891315Y-64961938D01*
X139887133Y-64954020D01*
X139889646Y-64945621D01*
X140475028Y-64214095D01*
X140482871Y-64209778D01*
X140491471Y-64212272D01*
G37*
%TD.AperFunction*%
%TD*%
%TA.AperFunction,Conductor*%
%TO.N,/DeployerDetectionSW2OUT*%
G36*
X144754198Y-72563128D02*
G01*
X144934373Y-72695483D01*
X145824326Y-73349233D01*
X145828964Y-73356892D01*
X145827135Y-73365151D01*
X145366151Y-74056788D01*
X145358711Y-74061772D01*
X145354125Y-74061773D01*
X144537478Y-73898777D01*
X144530036Y-73893797D01*
X144528092Y-73886550D01*
X144562240Y-73356892D01*
X144604398Y-72703002D01*
X144607800Y-72695484D01*
X144739000Y-72564284D01*
X144747272Y-72560858D01*
X144754198Y-72563128D01*
G37*
%TD.AperFunction*%
%TD*%
%TA.AperFunction,Conductor*%
%TO.N,/TriggerOUT*%
G36*
X113633003Y-54532072D02*
G01*
X113640442Y-54537056D01*
X113642179Y-54545841D01*
X113642117Y-54546129D01*
X113303164Y-56043151D01*
X113297995Y-56050463D01*
X113291753Y-56052267D01*
X112310568Y-56052267D01*
X112302295Y-56048840D01*
X112299125Y-56043007D01*
X111979904Y-54546015D01*
X111981530Y-54537209D01*
X111988907Y-54532132D01*
X111989051Y-54532102D01*
X111989201Y-54532072D01*
X112808806Y-54368059D01*
X112813394Y-54368059D01*
X113633003Y-54532072D01*
G37*
%TD.AperFunction*%
%TD*%
%TA.AperFunction,Conductor*%
%TO.N,/TriggerOUT*%
G36*
X114107783Y-53525468D02*
G01*
X114379647Y-53797332D01*
X114383074Y-53805605D01*
X114380336Y-53813126D01*
X113524583Y-54832810D01*
X113516640Y-54836945D01*
X113509132Y-54835025D01*
X112814437Y-54372002D01*
X112809454Y-54364564D01*
X112648013Y-53548778D01*
X112649768Y-53539998D01*
X112657219Y-53535031D01*
X112659380Y-53534808D01*
X114099480Y-53522114D01*
X114107783Y-53525468D01*
G37*
%TD.AperFunction*%
%TD*%
%TA.AperFunction,Conductor*%
%TO.N,/TriggerOUT*%
G36*
X134026798Y-55788031D02*
G01*
X134030165Y-55795126D01*
X134073229Y-56220489D01*
X134070653Y-56229065D01*
X134063917Y-56233133D01*
X133831428Y-56280327D01*
X133826772Y-56280327D01*
X133594282Y-56233133D01*
X133586856Y-56228129D01*
X133584970Y-56220490D01*
X133628035Y-55795125D01*
X133632277Y-55787240D01*
X133639675Y-55784604D01*
X134018525Y-55784604D01*
X134026798Y-55788031D01*
G37*
%TD.AperFunction*%
%TD*%
%TA.AperFunction,Conductor*%
%TO.N,/TriggerOUT*%
G36*
X113303600Y-57606978D02*
G01*
X113867400Y-57893761D01*
X114358685Y-58143658D01*
X114364505Y-58150463D01*
X114364158Y-58158640D01*
X114052990Y-58895126D01*
X114046613Y-58901413D01*
X114046596Y-58901420D01*
X113310193Y-59199030D01*
X113301239Y-59198952D01*
X113295893Y-59194391D01*
X113111302Y-58899600D01*
X112312313Y-57623615D01*
X112310827Y-57614786D01*
X112316021Y-57607491D01*
X112322230Y-57605707D01*
X113298296Y-57605707D01*
X113303600Y-57606978D01*
G37*
%TD.AperFunction*%
%TD*%
%TA.AperFunction,Conductor*%
%TO.N,/BurnWire1OUT*%
G36*
X139987500Y-128886989D02*
G01*
X139990909Y-128894618D01*
X140073408Y-130391274D01*
X140070442Y-130399723D01*
X140064022Y-130403391D01*
X139242596Y-130567769D01*
X139238004Y-130567769D01*
X138416577Y-130403391D01*
X138409137Y-130398407D01*
X138407191Y-130391274D01*
X138489691Y-128894618D01*
X138493568Y-128886546D01*
X138501373Y-128883562D01*
X139979227Y-128883562D01*
X139987500Y-128886989D01*
G37*
%TD.AperFunction*%
%TD*%
%TA.AperFunction,Conductor*%
%TO.N,/BurnWire1OUT*%
G36*
X139897300Y-128157702D02*
G01*
X140064022Y-128191066D01*
X140071462Y-128196050D01*
X140073408Y-128203183D01*
X139990909Y-129699840D01*
X139987032Y-129707912D01*
X139979227Y-129710896D01*
X138501373Y-129710896D01*
X138493100Y-129707469D01*
X138489691Y-129699840D01*
X138407191Y-128203183D01*
X138410157Y-128194734D01*
X138416577Y-128191066D01*
X139238006Y-128026688D01*
X139242594Y-128026688D01*
X139897300Y-128157702D01*
G37*
%TD.AperFunction*%
%TD*%
%TA.AperFunction,Conductor*%
%TO.N,Net-(J1-Pin_1)*%
G36*
X124184671Y-57100267D02*
G01*
X124185611Y-57101111D01*
X125020643Y-57936143D01*
X125024070Y-57944416D01*
X125022406Y-57950431D01*
X124729948Y-58438408D01*
X124728185Y-58440666D01*
X124313751Y-58855100D01*
X124305478Y-58858527D01*
X124297205Y-58855100D01*
X124296704Y-58854567D01*
X123498675Y-57949991D01*
X123495772Y-57941520D01*
X123498331Y-57934919D01*
X124168224Y-57102049D01*
X124176077Y-57097752D01*
X124184671Y-57100267D01*
G37*
%TD.AperFunction*%
%TD*%
%TA.AperFunction,Conductor*%
%TO.N,Net-(J1-Pin_1)*%
G36*
X127419475Y-58559994D02*
G01*
X127421019Y-58561093D01*
X127977458Y-59029248D01*
X127981583Y-59037197D01*
X127978879Y-59045733D01*
X127977458Y-59047154D01*
X127421265Y-59515101D01*
X127412729Y-59517805D01*
X127410373Y-59517355D01*
X126770440Y-59325500D01*
X126763499Y-59319842D01*
X126762100Y-59314293D01*
X126762100Y-58732105D01*
X126765527Y-58723832D01*
X126770924Y-58720764D01*
X127410614Y-58558704D01*
X127419475Y-58559994D01*
G37*
%TD.AperFunction*%
%TD*%
%TA.AperFunction,Conductor*%
%TO.N,Net-(J2-Pin_2)*%
G36*
X129008413Y-67370193D02*
G01*
X129015009Y-67376249D01*
X129016100Y-67381183D01*
X129016100Y-67962261D01*
X129012673Y-67970534D01*
X129005400Y-67973918D01*
X128593895Y-68009226D01*
X128587810Y-68008106D01*
X127732585Y-67595433D01*
X127726624Y-67588752D01*
X127727133Y-67579811D01*
X127733178Y-67574093D01*
X128586487Y-67219432D01*
X128594986Y-67219247D01*
X129008413Y-67370193D01*
G37*
%TD.AperFunction*%
%TD*%
%TA.AperFunction,Conductor*%
%TO.N,Net-(J2-Pin_2)*%
G36*
X131221061Y-67184684D02*
G01*
X131225423Y-67191679D01*
X131389146Y-68009833D01*
X131387409Y-68018618D01*
X131387395Y-68018639D01*
X130923318Y-68711710D01*
X130915867Y-68716677D01*
X130907170Y-68714977D01*
X129783514Y-67976466D01*
X129778482Y-67969059D01*
X129778240Y-67966689D01*
X129778240Y-67383247D01*
X129781667Y-67374974D01*
X129788395Y-67371650D01*
X131212408Y-67182377D01*
X131221061Y-67184684D01*
G37*
%TD.AperFunction*%
%TD*%
%TA.AperFunction,Conductor*%
%TO.N,Net-(U1-G)*%
G36*
X127514777Y-60441264D02*
G01*
X127516289Y-60442599D01*
X127617306Y-60548710D01*
X127978051Y-60927643D01*
X127981273Y-60935998D01*
X127977644Y-60944184D01*
X127975622Y-60945728D01*
X127326192Y-61337604D01*
X127317338Y-61338944D01*
X127313425Y-61337163D01*
X126767078Y-60953693D01*
X126762275Y-60946135D01*
X126762100Y-60944116D01*
X126762100Y-60560282D01*
X126765527Y-60552009D01*
X126772069Y-60548711D01*
X127506090Y-60439096D01*
X127514777Y-60441264D01*
G37*
%TD.AperFunction*%
%TD*%
%TA.AperFunction,Conductor*%
%TO.N,Net-(U1-G)*%
G36*
X128108632Y-62136728D02*
G01*
X128111865Y-62142881D01*
X128187287Y-62552226D01*
X128185416Y-62560983D01*
X128183566Y-62563080D01*
X127718854Y-62977297D01*
X127710398Y-62980244D01*
X127702335Y-62976348D01*
X127702317Y-62976327D01*
X127336719Y-62564203D01*
X127333792Y-62555740D01*
X127334678Y-62551921D01*
X127507092Y-62140478D01*
X127513450Y-62134173D01*
X127517883Y-62133301D01*
X128100359Y-62133301D01*
X128108632Y-62136728D01*
G37*
%TD.AperFunction*%
%TD*%
%TA.AperFunction,Conductor*%
%TO.N,Net-(U1-G)*%
G36*
X127994414Y-60945941D02*
G01*
X128400955Y-61431849D01*
X128403636Y-61440393D01*
X128402049Y-61445320D01*
X128113498Y-61932462D01*
X128106333Y-61937833D01*
X128103431Y-61938199D01*
X127519566Y-61938199D01*
X127511293Y-61934772D01*
X127508124Y-61928941D01*
X127397991Y-61412931D01*
X127399615Y-61404127D01*
X127402157Y-61401329D01*
X127978171Y-60944283D01*
X127986780Y-60941826D01*
X127994414Y-60945941D01*
G37*
%TD.AperFunction*%
%TD*%
%TA.AperFunction,Conductor*%
%TO.N,Net-(U1-G)*%
G36*
X124618102Y-69756281D02*
G01*
X124866404Y-70006571D01*
X125099525Y-70241560D01*
X125102919Y-70249847D01*
X125099525Y-70258040D01*
X124618104Y-70743317D01*
X124609845Y-70746777D01*
X124603822Y-70745136D01*
X124600760Y-70743317D01*
X124472946Y-70667383D01*
X124112424Y-70453200D01*
X124107062Y-70446028D01*
X124106700Y-70443141D01*
X124106700Y-70056458D01*
X124110127Y-70048185D01*
X124112421Y-70046400D01*
X124603824Y-69754462D01*
X124612685Y-69753184D01*
X124618102Y-69756281D01*
G37*
%TD.AperFunction*%
%TD*%
%TA.AperFunction,Conductor*%
%TO.N,Net-(U4-\u002AFAULT)*%
G36*
X122881534Y-78202027D02*
G01*
X122882098Y-78202632D01*
X123522214Y-78940376D01*
X123525048Y-78948871D01*
X123521660Y-78956307D01*
X122788379Y-79691301D01*
X122780110Y-79694738D01*
X122771833Y-79691321D01*
X122771817Y-79691306D01*
X122037784Y-78956294D01*
X122034363Y-78948018D01*
X122037212Y-78940374D01*
X122675101Y-78202647D01*
X122683104Y-78198631D01*
X122683951Y-78198600D01*
X122873261Y-78198600D01*
X122881534Y-78202027D01*
G37*
%TD.AperFunction*%
%TD*%
%TA.AperFunction,Conductor*%
%TO.N,Net-(U4-\u002AFAULT)*%
G36*
X122785871Y-74651370D02*
G01*
X122952582Y-74783663D01*
X122956932Y-74791489D01*
X122956428Y-74796469D01*
X122881239Y-75026042D01*
X122875407Y-75032837D01*
X122870120Y-75034100D01*
X122687080Y-75034100D01*
X122678807Y-75030673D01*
X122675961Y-75026042D01*
X122662689Y-74985521D01*
X122600771Y-74796467D01*
X122601453Y-74787540D01*
X122604613Y-74783665D01*
X122771327Y-74651370D01*
X122779938Y-74648913D01*
X122785871Y-74651370D01*
G37*
%TD.AperFunction*%
%TD*%
%TA.AperFunction,Conductor*%
%TO.N,Net-(U4-\u002AFAULT)*%
G36*
X122788368Y-79705879D02*
G01*
X122788379Y-79705890D01*
X123523011Y-80441502D01*
X123526432Y-80449778D01*
X123524167Y-80456689D01*
X122983606Y-81193819D01*
X122975950Y-81198464D01*
X122974171Y-81198600D01*
X122586029Y-81198600D01*
X122577756Y-81195173D01*
X122576594Y-81193819D01*
X122036032Y-80456689D01*
X122033903Y-80447991D01*
X122037187Y-80441503D01*
X122771821Y-79705889D01*
X122780092Y-79702458D01*
X122788368Y-79705879D01*
G37*
%TD.AperFunction*%
%TD*%
%TA.AperFunction,Conductor*%
%TO.N,Net-(U4-\u002AFAULT)*%
G36*
X121605918Y-83404174D02*
G01*
X121606267Y-83404434D01*
X121951681Y-83672141D01*
X121952787Y-83673116D01*
X122226051Y-83946380D01*
X122229478Y-83954653D01*
X122226051Y-83962926D01*
X122225272Y-83963638D01*
X121672465Y-84424687D01*
X121663916Y-84427354D01*
X121657630Y-84424812D01*
X121160505Y-84024246D01*
X121156213Y-84016387D01*
X121158338Y-84008318D01*
X121589593Y-83406863D01*
X121597197Y-83402138D01*
X121605918Y-83404174D01*
G37*
%TD.AperFunction*%
%TD*%
%TA.AperFunction,Conductor*%
%TO.N,Net-(U4-ILIM)*%
G36*
X122924489Y-73812136D02*
G01*
X123145948Y-73893779D01*
X123152524Y-73899855D01*
X123153600Y-73904756D01*
X123153600Y-74088443D01*
X123150173Y-74096716D01*
X123145947Y-74099421D01*
X122924489Y-74181063D01*
X122915541Y-74180709D01*
X122911035Y-74177042D01*
X122853635Y-74099421D01*
X122782743Y-74003555D01*
X122780580Y-73994867D01*
X122782743Y-73989644D01*
X122911035Y-73816156D01*
X122918709Y-73811543D01*
X122924489Y-73812136D01*
G37*
%TD.AperFunction*%
%TD*%
%TA.AperFunction,Conductor*%
%TO.N,Net-(U4-ILIM)*%
G36*
X126500644Y-76543380D02*
G01*
X127237277Y-76962243D01*
X127242775Y-76969311D01*
X127242866Y-76975166D01*
X127076918Y-77660651D01*
X127071640Y-77667885D01*
X127068714Y-77669161D01*
X126574426Y-77808186D01*
X126565534Y-77807127D01*
X126559995Y-77800091D01*
X126559756Y-77799065D01*
X126352600Y-76686449D01*
X126354454Y-76677691D01*
X126355824Y-76676042D01*
X126486589Y-76545277D01*
X126494861Y-76541851D01*
X126500644Y-76543380D01*
G37*
%TD.AperFunction*%
%TD*%
%TA.AperFunction,Conductor*%
%TO.N,Net-(U3-VSNS)*%
G36*
X102851533Y-68107984D02*
G01*
X102852222Y-68109646D01*
X103128223Y-68954538D01*
X103127647Y-68963237D01*
X102944287Y-69344966D01*
X102937616Y-69350940D01*
X102933741Y-69351600D01*
X102748459Y-69351600D01*
X102740186Y-69348173D01*
X102737913Y-69344966D01*
X102554552Y-68963237D01*
X102553976Y-68954539D01*
X102829978Y-68109645D01*
X102835805Y-68102846D01*
X102844733Y-68102157D01*
X102851533Y-68107984D01*
G37*
%TD.AperFunction*%
%TD*%
%TA.AperFunction,Conductor*%
%TO.N,Net-(U3-BOOT)*%
G36*
X106658758Y-68113020D02*
G01*
X106659602Y-68115536D01*
X106855433Y-69035382D01*
X106853804Y-69044187D01*
X106853361Y-69044822D01*
X106627609Y-69346904D01*
X106619912Y-69351480D01*
X106618237Y-69351600D01*
X106434055Y-69351600D01*
X106425782Y-69348173D01*
X106422506Y-69341774D01*
X106351587Y-68904603D01*
X106352138Y-68898740D01*
X106637161Y-68113977D01*
X106643206Y-68107372D01*
X106652152Y-68106975D01*
X106658758Y-68113020D01*
G37*
%TD.AperFunction*%
%TD*%
M02*
