%TF.GenerationSoftware,KiCad,Pcbnew,9.0.2*%
%TF.CreationDate,2026-01-11T03:10:19+05:30*%
%TF.ProjectId,sanket,73616e6b-6574-42e6-9b69-6361645f7063,6*%
%TF.SameCoordinates,Original*%
%TF.FileFunction,Soldermask,Bot*%
%TF.FilePolarity,Negative*%
%FSLAX46Y46*%
G04 Gerber Fmt 4.6, Leading zero omitted, Abs format (unit mm)*
G04 Created by KiCad (PCBNEW 9.0.2) date 2026-01-11 03:10:19*
%MOMM*%
%LPD*%
G01*
G04 APERTURE LIST*
G04 Aperture macros list*
%AMRoundRect*
0 Rectangle with rounded corners*
0 $1 Rounding radius*
0 $2 $3 $4 $5 $6 $7 $8 $9 X,Y pos of 4 corners*
0 Add a 4 corners polygon primitive as box body*
4,1,4,$2,$3,$4,$5,$6,$7,$8,$9,$2,$3,0*
0 Add four circle primitives for the rounded corners*
1,1,$1+$1,$2,$3*
1,1,$1+$1,$4,$5*
1,1,$1+$1,$6,$7*
1,1,$1+$1,$8,$9*
0 Add four rect primitives between the rounded corners*
20,1,$1+$1,$2,$3,$4,$5,0*
20,1,$1+$1,$4,$5,$6,$7,0*
20,1,$1+$1,$6,$7,$8,$9,0*
20,1,$1+$1,$8,$9,$2,$3,0*%
G04 Aperture macros list end*
%ADD10R,1.500000X1.500000*%
%ADD11R,1.700000X1.700000*%
%ADD12O,1.700000X1.700000*%
%ADD13C,3.200000*%
%ADD14R,1.000000X1.000000*%
%ADD15RoundRect,0.250000X-0.475000X0.250000X-0.475000X-0.250000X0.475000X-0.250000X0.475000X0.250000X0*%
%ADD16RoundRect,0.093750X0.093750X0.106250X-0.093750X0.106250X-0.093750X-0.106250X0.093750X-0.106250X0*%
%ADD17R,1.000000X1.600000*%
%ADD18R,1.761200X0.850800*%
%ADD19R,1.761200X3.150799*%
%ADD20RoundRect,0.250000X0.475000X-0.250000X0.475000X0.250000X-0.475000X0.250000X-0.475000X-0.250000X0*%
%ADD21RoundRect,0.250000X-0.250000X-0.475000X0.250000X-0.475000X0.250000X0.475000X-0.250000X0.475000X0*%
%ADD22RoundRect,0.250000X0.250000X0.475000X-0.250000X0.475000X-0.250000X-0.475000X0.250000X-0.475000X0*%
%ADD23R,1.450000X5.500000*%
%ADD24RoundRect,0.250000X-0.262500X-0.450000X0.262500X-0.450000X0.262500X0.450000X-0.262500X0.450000X0*%
%ADD25RoundRect,0.250000X0.450000X-0.262500X0.450000X0.262500X-0.450000X0.262500X-0.450000X-0.262500X0*%
%ADD26RoundRect,0.150000X0.150000X-0.825000X0.150000X0.825000X-0.150000X0.825000X-0.150000X-0.825000X0*%
%ADD27RoundRect,0.102000X-1.560000X1.125000X-1.560000X-1.125000X1.560000X-1.125000X1.560000X1.125000X0*%
G04 APERTURE END LIST*
D10*
%TO.C,TP4*%
X121383100Y-87826600D03*
%TD*%
%TO.C,TP1*%
X140483900Y-64204600D03*
%TD*%
D11*
%TO.C,J6*%
X145361100Y-76602600D03*
D12*
X145361100Y-74062600D03*
X145361100Y-71522600D03*
X145361100Y-68982600D03*
X145361100Y-66442600D03*
X145361100Y-63902600D03*
%TD*%
D10*
%TO.C,TP3*%
X122780100Y-79698600D03*
%TD*%
D13*
%TO.C,H3*%
X182306100Y-140098600D03*
%TD*%
%TO.C,H1*%
X102296100Y-54368600D03*
%TD*%
%TO.C,H4*%
X102296100Y-140098600D03*
%TD*%
%TO.C,H2*%
X182306100Y-54368600D03*
%TD*%
D14*
%TO.C,TP5*%
X137004100Y-74999600D03*
%TD*%
D11*
%TO.C,J3*%
X139240300Y-117867229D03*
D12*
X139240300Y-120407229D03*
X139240300Y-122947229D03*
X139240300Y-125487229D03*
X139240300Y-128027229D03*
X139240300Y-130567229D03*
%TD*%
D11*
%TO.C,J1*%
X124177100Y-57092600D03*
D12*
X124177100Y-54552600D03*
%TD*%
D11*
%TO.C,J7*%
X115051100Y-79898600D03*
%TD*%
D10*
%TO.C,TP2*%
X114051100Y-58898600D03*
%TD*%
D15*
%TO.C,C4*%
X109301100Y-74115600D03*
X109301100Y-76015600D03*
%TD*%
D16*
%TO.C,U4*%
X122778600Y-73346600D03*
X122778600Y-73996600D03*
X122778600Y-74646600D03*
X121003600Y-74646600D03*
X121003600Y-73996600D03*
X121003600Y-73346600D03*
D17*
X121891100Y-73996600D03*
%TD*%
D11*
%TO.C,J2*%
X131389100Y-70554600D03*
D12*
X131389100Y-68014600D03*
%TD*%
D18*
%TO.C,U1*%
X127710100Y-62984101D03*
X127710100Y-65284101D03*
X127710100Y-67584101D03*
D19*
X121660100Y-65284101D03*
%TD*%
D20*
%TO.C,C3*%
X106524100Y-72139600D03*
X106524100Y-70239600D03*
%TD*%
D15*
%TO.C,C5*%
X112051100Y-74176600D03*
X112051100Y-76076600D03*
%TD*%
D20*
%TO.C,C9*%
X102333100Y-73880100D03*
X102333100Y-71980100D03*
%TD*%
D11*
%TO.C,J5*%
X110271100Y-54368600D03*
D12*
X112811100Y-54368600D03*
X115351100Y-54368600D03*
X117891100Y-54368600D03*
%TD*%
D21*
%TO.C,R4*%
X125106700Y-70249800D03*
X127006700Y-70249800D03*
%TD*%
D15*
%TO.C,C12*%
X118131900Y-71926200D03*
X118131900Y-73826200D03*
%TD*%
D22*
%TO.C,C7*%
X128876100Y-73857600D03*
X126976100Y-73857600D03*
%TD*%
%TO.C,C10*%
X107093100Y-60394600D03*
X105193100Y-60394600D03*
%TD*%
D11*
%TO.C,J4*%
X137131100Y-84016600D03*
%TD*%
D22*
%TO.C,C6*%
X100743100Y-64204600D03*
X98843100Y-64204600D03*
%TD*%
D20*
%TO.C,R3*%
X127987100Y-60938199D03*
X127987100Y-59038201D03*
%TD*%
D15*
%TO.C,C8*%
X98777100Y-69030600D03*
X98777100Y-70930600D03*
%TD*%
D20*
%TO.C,R7*%
X100936100Y-70361600D03*
X100936100Y-68461600D03*
%TD*%
D23*
%TO.C,L1*%
X105254100Y-78301600D03*
X101254100Y-78301600D03*
%TD*%
D24*
%TO.C,R6*%
X99007600Y-66490600D03*
X100832600Y-66490600D03*
%TD*%
D25*
%TO.C,R8*%
X104492100Y-73880100D03*
X104492100Y-72055100D03*
%TD*%
D11*
%TO.C,J7*%
X119351100Y-80587600D03*
%TD*%
D24*
%TO.C,R13*%
X119327600Y-84016600D03*
X121152600Y-84016600D03*
%TD*%
D26*
%TO.C,U3*%
X106651100Y-68076600D03*
X105381100Y-68076600D03*
X104111100Y-68076600D03*
X102841100Y-68076600D03*
X102841100Y-63126600D03*
X104111100Y-63126600D03*
X105381100Y-63126600D03*
X106651100Y-63126600D03*
%TD*%
D27*
%TO.C,D1*%
X112051100Y-63193600D03*
X112051100Y-70103600D03*
%TD*%
D24*
%TO.C,R12*%
X127074600Y-77666600D03*
X128899600Y-77666600D03*
%TD*%
M02*
