%TF.GenerationSoftware,KiCad,Pcbnew,9.0.2*%
%TF.CreationDate,2026-01-11T03:10:19+05:30*%
%TF.ProjectId,sanket,73616e6b-6574-42e6-9b69-6361645f7063,6*%
%TF.SameCoordinates,Original*%
%TF.FileFunction,Copper,L1,Top*%
%TF.FilePolarity,Positive*%
%FSLAX46Y46*%
G04 Gerber Fmt 4.6, Leading zero omitted, Abs format (unit mm)*
G04 Created by KiCad (PCBNEW 9.0.2) date 2026-01-11 03:10:19*
%MOMM*%
%LPD*%
G01*
G04 APERTURE LIST*
G04 Aperture macros list*
%AMRoundRect*
0 Rectangle with rounded corners*
0 $1 Rounding radius*
0 $2 $3 $4 $5 $6 $7 $8 $9 X,Y pos of 4 corners*
0 Add a 4 corners polygon primitive as box body*
4,1,4,$2,$3,$4,$5,$6,$7,$8,$9,$2,$3,0*
0 Add four circle primitives for the rounded corners*
1,1,$1+$1,$2,$3*
1,1,$1+$1,$4,$5*
1,1,$1+$1,$6,$7*
1,1,$1+$1,$8,$9*
0 Add four rect primitives between the rounded corners*
20,1,$1+$1,$2,$3,$4,$5,0*
20,1,$1+$1,$4,$5,$6,$7,0*
20,1,$1+$1,$6,$7,$8,$9,0*
20,1,$1+$1,$8,$9,$2,$3,0*%
G04 Aperture macros list end*
%TA.AperFunction,ComponentPad*%
%ADD10R,1.500000X1.500000*%
%TD*%
%TA.AperFunction,ComponentPad*%
%ADD11R,1.700000X1.700000*%
%TD*%
%TA.AperFunction,ComponentPad*%
%ADD12O,1.700000X1.700000*%
%TD*%
%TA.AperFunction,SMDPad,CuDef*%
%ADD13RoundRect,0.250000X0.450000X-0.262500X0.450000X0.262500X-0.450000X0.262500X-0.450000X-0.262500X0*%
%TD*%
%TA.AperFunction,SMDPad,CuDef*%
%ADD14RoundRect,0.250000X-0.262500X-0.450000X0.262500X-0.450000X0.262500X0.450000X-0.262500X0.450000X0*%
%TD*%
%TA.AperFunction,SMDPad,CuDef*%
%ADD15RoundRect,0.225000X0.225000X0.250000X-0.225000X0.250000X-0.225000X-0.250000X0.225000X-0.250000X0*%
%TD*%
%TA.AperFunction,SMDPad,CuDef*%
%ADD16RoundRect,0.250000X0.262500X0.450000X-0.262500X0.450000X-0.262500X-0.450000X0.262500X-0.450000X0*%
%TD*%
%TA.AperFunction,ComponentPad*%
%ADD17R,1.000000X1.000000*%
%TD*%
%TA.AperFunction,SMDPad,CuDef*%
%ADD18RoundRect,0.250000X-0.475000X0.250000X-0.475000X-0.250000X0.475000X-0.250000X0.475000X0.250000X0*%
%TD*%
%TA.AperFunction,SMDPad,CuDef*%
%ADD19RoundRect,0.100000X0.100000X-0.225000X0.100000X0.225000X-0.100000X0.225000X-0.100000X-0.225000X0*%
%TD*%
%TA.AperFunction,SMDPad,CuDef*%
%ADD20RoundRect,0.250000X0.475000X-0.250000X0.475000X0.250000X-0.475000X0.250000X-0.475000X-0.250000X0*%
%TD*%
%TA.AperFunction,ViaPad*%
%ADD21C,0.600000*%
%TD*%
%TA.AperFunction,ViaPad*%
%ADD22C,0.800000*%
%TD*%
%TA.AperFunction,ViaPad*%
%ADD23C,0.500000*%
%TD*%
%TA.AperFunction,Conductor*%
%ADD24C,1.000000*%
%TD*%
%TA.AperFunction,Conductor*%
%ADD25C,0.200000*%
%TD*%
%TA.AperFunction,Conductor*%
%ADD26C,0.400000*%
%TD*%
%TA.AperFunction,Conductor*%
%ADD27C,1.500000*%
%TD*%
%TA.AperFunction,Conductor*%
%ADD28C,0.600000*%
%TD*%
%TA.AperFunction,Conductor*%
%ADD29C,2.000000*%
%TD*%
G04 APERTURE END LIST*
D10*
%TO.P,TP4,1,1*%
%TO.N,/3V3*%
X121383100Y-87826600D03*
%TD*%
%TO.P,TP1,1,1*%
%TO.N,/DeployerDetectionSW2OUT*%
X140483900Y-64204600D03*
%TD*%
D11*
%TO.P,J6,1,Pin_1*%
%TO.N,/DeployerDetectionSW1OUT*%
X145361100Y-76602600D03*
D12*
%TO.P,J6,2,Pin_2*%
%TO.N,/DeployerDetectionSW2OUT*%
X145361100Y-74062600D03*
%TO.P,J6,3,Pin_3*%
%TO.N,/BurnWire1OUT*%
X145361100Y-71522600D03*
%TO.P,J6,4,Pin_4*%
X145361100Y-68982600D03*
%TO.P,J6,5,Pin_5*%
%TO.N,GND*%
X145361100Y-66442600D03*
%TO.P,J6,6,Pin_6*%
X145361100Y-63902600D03*
%TD*%
D13*
%TO.P,R5,1*%
%TO.N,Net-(J4-Pin_1)*%
X137004100Y-80103100D03*
%TO.P,R5,2*%
%TO.N,GND*%
X137004100Y-78278100D03*
%TD*%
D10*
%TO.P,TP3,1,1*%
%TO.N,Net-(U4-\u002AFAULT)*%
X122780100Y-79698600D03*
%TD*%
D14*
%TO.P,R1,1*%
%TO.N,/DeployerDetectionSW2OUT*%
X140587400Y-59378600D03*
%TO.P,R1,2*%
%TO.N,GND*%
X142412400Y-59378600D03*
%TD*%
D15*
%TO.P,R11,1*%
%TO.N,/burn*%
X126095100Y-70554600D03*
%TO.P,R11,2*%
%TO.N,/3V3*%
X124545100Y-70554600D03*
%TD*%
D16*
%TO.P,R2,1*%
%TO.N,/DeployerDetectionSW2OUT*%
X140480100Y-61410600D03*
%TO.P,R2,2*%
%TO.N,/TriggerIN*%
X138655100Y-61410600D03*
%TD*%
D17*
%TO.P,TP5,1,1*%
%TO.N,GND*%
X137004100Y-74999600D03*
%TD*%
D11*
%TO.P,J3,1,Pin_1*%
%TO.N,/3V3*%
X139240300Y-117867229D03*
D12*
%TO.P,J3,2,Pin_2*%
%TO.N,/DeployerDetectionSW1OUT*%
X139240300Y-120407229D03*
%TO.P,J3,3,Pin_3*%
%TO.N,/BurnWire1IN*%
X139240300Y-122947229D03*
%TO.P,J3,4,Pin_4*%
X139240300Y-125487229D03*
%TO.P,J3,5,Pin_5*%
%TO.N,/BurnWire1OUT*%
X139240300Y-128027229D03*
%TO.P,J3,6,Pin_6*%
X139240300Y-130567229D03*
%TD*%
D11*
%TO.P,J1,1,Pin_1*%
%TO.N,Net-(J1-Pin_1)*%
X124177100Y-57092600D03*
D12*
%TO.P,J1,2,Pin_2*%
%TO.N,GND*%
X124177100Y-54552600D03*
%TD*%
D18*
%TO.P,C1,1*%
%TO.N,GND*%
X135962700Y-57463400D03*
%TO.P,C1,2*%
%TO.N,/TriggerIN*%
X135962700Y-59363400D03*
%TD*%
D19*
%TO.P,U2,1,NC*%
%TO.N,unconnected-(U2-NC-Pad1)*%
X132518700Y-59465000D03*
%TO.P,U2,2,A*%
%TO.N,/TriggerIN*%
X133168700Y-59465000D03*
%TO.P,U2,3,GND*%
%TO.N,GND*%
X133818700Y-59465000D03*
%TO.P,U2,4,Y*%
%TO.N,/TriggerOUT*%
X133818700Y-57565000D03*
%TO.P,U2,5,VCC*%
%TO.N,/3V3*%
X132518700Y-57565000D03*
%TD*%
D11*
%TO.P,J7,1,Pin_1*%
%TO.N,/3V3*%
X115051100Y-79898600D03*
%TD*%
D20*
%TO.P,C2,1*%
%TO.N,GND*%
X130273100Y-59449800D03*
%TO.P,C2,2*%
%TO.N,/3V3*%
X130273100Y-57549800D03*
%TD*%
D10*
%TO.P,TP2,1,1*%
%TO.N,/TriggerOUT*%
X114051100Y-58898600D03*
%TD*%
D13*
%TO.P,R16,1*%
%TO.N,/3V3*%
X118589100Y-76293100D03*
%TO.P,R16,2*%
%TO.N,/EN*%
X118589100Y-74468100D03*
%TD*%
D11*
%TO.P,J2,1,Pin_1*%
%TO.N,/burn*%
X131389100Y-70554600D03*
D12*
%TO.P,J2,2,Pin_2*%
%TO.N,Net-(J2-Pin_2)*%
X131389100Y-68014600D03*
%TD*%
D11*
%TO.P,J5,1,Pin_1*%
%TO.N,/12V*%
X110271100Y-54368600D03*
D12*
%TO.P,J5,2,Pin_2*%
%TO.N,/TriggerOUT*%
X112811100Y-54368600D03*
%TO.P,J5,3,Pin_3*%
%TO.N,/EN*%
X115351100Y-54368600D03*
%TO.P,J5,4,Pin_4*%
%TO.N,GND*%
X117891100Y-54368600D03*
%TD*%
D11*
%TO.P,J4,1,Pin_1*%
%TO.N,Net-(J4-Pin_1)*%
X137131100Y-84016600D03*
%TD*%
%TO.P,J7,1,Pin_1*%
%TO.N,/3V3*%
X119351100Y-80587600D03*
%TD*%
D21*
%TO.N,*%
X200301100Y-68398600D03*
D22*
%TO.N,GND*%
X125828100Y-71977000D03*
X128901500Y-72281800D03*
X122907100Y-71926200D03*
D21*
X108801100Y-69648600D03*
X120875100Y-75787000D03*
D22*
X108801100Y-74148600D03*
D21*
X115414100Y-50869600D03*
X108801100Y-70398600D03*
D22*
X120875100Y-71926200D03*
%TO.N,/3V3*%
X116305300Y-75652800D03*
D21*
X105524100Y-73898600D03*
%TO.N,/EN*%
X102841100Y-61410600D03*
X119960700Y-74669400D03*
D23*
%TO.N,/DeployerDetectionSW1OUT*%
X141558778Y-124766278D03*
%TO.N,/TriggerOUT*%
X133829100Y-56279800D03*
%TD*%
D24*
%TO.N,/3V3*%
X120199500Y-77412600D02*
X119351100Y-78261000D01*
X120551100Y-77412600D02*
X120199500Y-77412600D01*
X120551100Y-77412600D02*
X118581500Y-77412600D01*
X123034100Y-77412600D02*
X120551100Y-77412600D01*
D25*
%TO.N,/TriggerIN*%
X134027301Y-60648600D02*
X135810300Y-60648600D01*
D26*
X138655100Y-61410600D02*
X138655100Y-60496200D01*
D25*
X135962700Y-60496200D02*
X135962700Y-59363400D01*
X133168700Y-59789999D02*
X134027301Y-60648600D01*
D26*
X137522300Y-59363400D02*
X135962700Y-59363400D01*
D25*
X135810300Y-60648600D02*
X135962700Y-60496200D01*
X133168700Y-59465000D02*
X133168700Y-59789999D01*
D26*
X138655100Y-60496200D02*
X137522300Y-59363400D01*
D27*
%TO.N,GND*%
X135861100Y-72840600D02*
X137012019Y-72840600D01*
D26*
X131004700Y-58718200D02*
X133625900Y-58718200D01*
D24*
X115414100Y-51891600D02*
X117891100Y-54368600D01*
X137004100Y-72848519D02*
X137004100Y-73856600D01*
X137004100Y-72848519D02*
X143410019Y-66442600D01*
X137004100Y-73856600D02*
X135988100Y-72840600D01*
D28*
X124735900Y-52825400D02*
X130120700Y-52825400D01*
D27*
X129460300Y-72840600D02*
X135861100Y-72840600D01*
D24*
X108801100Y-69648600D02*
X108801100Y-70398600D01*
D26*
X133818700Y-59465000D02*
X133818700Y-59033400D01*
D28*
X132660700Y-55365400D02*
X135403900Y-55365400D01*
D26*
X133625900Y-58718200D02*
X133818700Y-58911000D01*
D28*
X135403900Y-55365400D02*
X135962700Y-55924200D01*
D24*
X115414100Y-50869600D02*
X115414100Y-51891600D01*
X125828100Y-71977000D02*
X128596700Y-71977000D01*
X128596700Y-71977000D02*
X128901500Y-72281800D01*
D26*
X135388700Y-57463400D02*
X135962700Y-57463400D01*
D24*
X108801100Y-74148600D02*
X108801100Y-70398600D01*
D28*
X124177100Y-53384200D02*
X124735900Y-52825400D01*
X130120700Y-52825400D02*
X132660700Y-55365400D01*
D24*
X135988100Y-72840600D02*
X135861100Y-72840600D01*
D28*
X142412400Y-58879900D02*
X140995900Y-57463400D01*
D24*
X137004100Y-73856600D02*
X137004100Y-74999600D01*
D28*
X137004100Y-78278100D02*
X137004100Y-74999600D01*
D27*
X128901500Y-72281800D02*
X129460300Y-72840600D01*
D26*
X133818700Y-58911000D02*
X133818700Y-59465000D01*
D24*
X143410019Y-66442600D02*
X145361100Y-66442600D01*
D28*
X124177100Y-54552600D02*
X124177100Y-53384200D01*
D24*
X142412400Y-59378600D02*
X142412400Y-58879900D01*
D26*
X133818700Y-59033400D02*
X135388700Y-57463400D01*
D27*
X137012019Y-72840600D02*
X137004100Y-72848519D01*
D26*
X130273100Y-59449800D02*
X131004700Y-58718200D01*
D28*
X135962700Y-55924200D02*
X135962700Y-57463400D01*
X140995900Y-57463400D02*
X135962700Y-57463400D01*
D24*
%TO.N,/3V3*%
X124558100Y-73094600D02*
X124558100Y-75888600D01*
D28*
X124558100Y-73094600D02*
X124558100Y-70567600D01*
D26*
X118542100Y-77452000D02*
X118589100Y-77499000D01*
D25*
X107278300Y-75652800D02*
X105524100Y-73898600D01*
D24*
X124558100Y-75888600D02*
X123034100Y-77412600D01*
D26*
X118589100Y-77420200D02*
X118581500Y-77412600D01*
X118542100Y-76340100D02*
X118542100Y-77452000D01*
D25*
X116305300Y-75652800D02*
X107278300Y-75652800D01*
D26*
X124545100Y-63277800D02*
X130273100Y-57549800D01*
X130273100Y-57549800D02*
X132503500Y-57549800D01*
X118589100Y-77499000D02*
X118589100Y-77420200D01*
X124545100Y-70554600D02*
X124545100Y-63277800D01*
D28*
%TO.N,/burn*%
X126095100Y-70554600D02*
X128749100Y-70554600D01*
D24*
X128749100Y-70554600D02*
X131389100Y-70554600D01*
D25*
%TO.N,/EN*%
X119960700Y-74669400D02*
X119930300Y-74639000D01*
D26*
X104111100Y-58489600D02*
X111223100Y-58489600D01*
X102841100Y-61410600D02*
X102841100Y-59759600D01*
X102841100Y-59759600D02*
X104111100Y-58489600D01*
X117593500Y-56611000D02*
X115351100Y-54368600D01*
X119930300Y-74639000D02*
X117593500Y-74639000D01*
X111223100Y-58489600D02*
X111226600Y-58493100D01*
X111226600Y-58493100D02*
X115351100Y-54368600D01*
X117593500Y-74639000D02*
X117593500Y-56611000D01*
D25*
%TO.N,/DeployerDetectionSW1OUT*%
X141558778Y-124766278D02*
X141558778Y-123474707D01*
X141558778Y-123474707D02*
X139240300Y-121156229D01*
D26*
%TO.N,/DeployerDetectionSW2OUT*%
X140480100Y-61410600D02*
X140480100Y-64556400D01*
D28*
X140587400Y-59378600D02*
X140587400Y-61303300D01*
D26*
%TO.N,/TriggerOUT*%
X133829100Y-57554600D02*
X133818700Y-57565000D01*
X133829100Y-56279800D02*
X133829100Y-57554600D01*
D29*
%TO.N,/BurnWire1OUT*%
X142917894Y-82238600D02*
X142917894Y-122878600D01*
D27*
X142917894Y-82238600D02*
X142917894Y-73211221D01*
X141703678Y-128027229D02*
X139240300Y-128027229D01*
X142917894Y-122878600D02*
X142917894Y-126813013D01*
X142917894Y-73211221D02*
X144606515Y-71522600D01*
X145361100Y-71522600D02*
X145361100Y-68982600D01*
X142917894Y-126813013D02*
X141703678Y-128027229D01*
X144606515Y-71522600D02*
X145361100Y-71522600D01*
D28*
%TO.N,Net-(J4-Pin_1)*%
X137004100Y-83889600D02*
X137131100Y-84016600D01*
X137004100Y-80103100D02*
X137004100Y-83889600D01*
D24*
%TO.N,/3V3*%
X119351100Y-80587600D02*
X119351100Y-78261000D01*
D26*
X118581500Y-77412600D02*
X118581500Y-77491400D01*
X118581500Y-77491400D02*
X119351100Y-78261000D01*
%TD*%
%TA.AperFunction,Conductor*%
%TO.N,GND*%
G36*
X123235577Y-71183885D02*
G01*
X123256219Y-71200519D01*
X123683581Y-71627881D01*
X123717066Y-71689204D01*
X123719900Y-71715562D01*
X123719900Y-75684781D01*
X123700215Y-75751820D01*
X123683581Y-75772462D01*
X123146562Y-76309481D01*
X123085239Y-76342966D01*
X123058881Y-76345800D01*
X120766062Y-76345800D01*
X120699023Y-76326115D01*
X120678381Y-76309481D01*
X120251019Y-75882119D01*
X120217534Y-75820796D01*
X120214700Y-75794438D01*
X120214700Y-75171959D01*
X120234385Y-75104920D01*
X120263213Y-75073584D01*
X120268009Y-75069902D01*
X120268014Y-75069900D01*
X120361200Y-74976714D01*
X120427092Y-74862586D01*
X120461200Y-74735292D01*
X120461200Y-74603508D01*
X120427092Y-74476214D01*
X120361200Y-74362086D01*
X120268014Y-74268900D01*
X120263207Y-74265211D01*
X120222008Y-74208781D01*
X120214700Y-74166840D01*
X120214700Y-71715562D01*
X120234385Y-71648523D01*
X120251019Y-71627881D01*
X120678381Y-71200519D01*
X120739704Y-71167034D01*
X120766062Y-71164200D01*
X123168538Y-71164200D01*
X123235577Y-71183885D01*
G37*
%TD.AperFunction*%
%TD*%
%TA.AperFunction,Conductor*%
%TO.N,/TriggerIN*%
G36*
X138592827Y-60153442D02*
G01*
X138593849Y-60154610D01*
X139049518Y-60750738D01*
X139051820Y-60759392D01*
X139050215Y-60763930D01*
X138663962Y-61397921D01*
X138656731Y-61403204D01*
X138647883Y-61401826D01*
X138645293Y-61399682D01*
X138166161Y-60869938D01*
X138163153Y-60861504D01*
X138163703Y-60858499D01*
X138194196Y-60763930D01*
X138302025Y-60429515D01*
X138304884Y-60424839D01*
X138576282Y-60153441D01*
X138584554Y-60150015D01*
X138592827Y-60153442D01*
G37*
%TD.AperFunction*%
%TD*%
%TA.AperFunction,Conductor*%
%TO.N,/TriggerIN*%
G36*
X135970939Y-59370573D02*
G01*
X136455272Y-59851058D01*
X136458732Y-59859317D01*
X136456203Y-59866629D01*
X136066213Y-60358965D01*
X136058390Y-60363322D01*
X136057042Y-60363400D01*
X135868358Y-60363400D01*
X135860085Y-60359973D01*
X135859187Y-60358965D01*
X135837022Y-60330984D01*
X135469195Y-59866627D01*
X135466745Y-59858016D01*
X135470126Y-59851059D01*
X135954460Y-59370573D01*
X135962747Y-59367180D01*
X135970939Y-59370573D01*
G37*
%TD.AperFunction*%
%TD*%
%TA.AperFunction,Conductor*%
%TO.N,/TriggerIN*%
G36*
X133364454Y-59440903D02*
G01*
X133368969Y-59448636D01*
X133369072Y-59449885D01*
X133380688Y-59855668D01*
X133377499Y-59864036D01*
X133377266Y-59864276D01*
X133248386Y-59993156D01*
X133240113Y-59996583D01*
X133231840Y-59993156D01*
X133231195Y-59992456D01*
X133061658Y-59792811D01*
X133058915Y-59784287D01*
X133059506Y-59781451D01*
X133165658Y-59471118D01*
X133171577Y-59464402D01*
X133175137Y-59463316D01*
X133355795Y-59438628D01*
X133364454Y-59440903D01*
G37*
%TD.AperFunction*%
%TD*%
%TA.AperFunction,Conductor*%
%TO.N,/TriggerIN*%
G36*
X136539999Y-58885276D02*
G01*
X137180616Y-59160358D01*
X137186866Y-59166771D01*
X137187700Y-59171109D01*
X137187700Y-59555690D01*
X137184273Y-59563963D01*
X137180616Y-59566441D01*
X136539999Y-59841523D01*
X136531045Y-59841638D01*
X136527851Y-59839725D01*
X135972341Y-59372353D01*
X135968216Y-59364404D01*
X135970920Y-59355868D01*
X135972341Y-59354447D01*
X136203032Y-59160358D01*
X136527851Y-58887073D01*
X136536387Y-58884370D01*
X136539999Y-58885276D01*
G37*
%TD.AperFunction*%
%TD*%
%TA.AperFunction,Conductor*%
%TO.N,GND*%
G36*
X117062044Y-52829581D02*
G01*
X118353290Y-53655426D01*
X118358413Y-53662770D01*
X118356842Y-53671586D01*
X118356722Y-53671771D01*
X117893105Y-54367358D01*
X117889858Y-54370605D01*
X117194271Y-54834222D01*
X117185486Y-54835959D01*
X117178046Y-54830975D01*
X117177926Y-54830790D01*
X116352081Y-53539544D01*
X116350511Y-53530730D01*
X116353663Y-53524971D01*
X117047470Y-52831164D01*
X117055742Y-52827738D01*
X117062044Y-52829581D01*
G37*
%TD.AperFunction*%
%TD*%
%TA.AperFunction,Conductor*%
%TO.N,GND*%
G36*
X142069010Y-58112451D02*
G01*
X142069057Y-58112498D01*
X142481127Y-58534872D01*
X142616551Y-58673682D01*
X142619875Y-58681996D01*
X142619391Y-58685185D01*
X142415016Y-59372880D01*
X142409375Y-59379834D01*
X142406596Y-59380908D01*
X141911014Y-59502849D01*
X141902162Y-59501498D01*
X141896922Y-59494532D01*
X141638336Y-58534872D01*
X141639492Y-58525992D01*
X141641356Y-58523559D01*
X142052465Y-58112450D01*
X142060737Y-58109024D01*
X142069010Y-58112451D01*
G37*
%TD.AperFunction*%
%TD*%
%TA.AperFunction,Conductor*%
%TO.N,GND*%
G36*
X137304487Y-77256527D02*
G01*
X137307059Y-77260410D01*
X137513656Y-77770759D01*
X137513584Y-77779713D01*
X137510990Y-77783515D01*
X137012279Y-78271103D01*
X137003968Y-78274436D01*
X136995921Y-78271103D01*
X136497209Y-77783515D01*
X136493689Y-77775281D01*
X136494542Y-77770762D01*
X136701141Y-77260410D01*
X136707422Y-77254027D01*
X136711986Y-77253100D01*
X137296214Y-77253100D01*
X137304487Y-77256527D01*
G37*
%TD.AperFunction*%
%TD*%
%TA.AperFunction,Conductor*%
%TO.N,GND*%
G36*
X137012364Y-75006880D02*
G01*
X137200594Y-75195487D01*
X137498655Y-75494145D01*
X137502074Y-75502422D01*
X137501237Y-75506755D01*
X137307042Y-75992245D01*
X137300788Y-75998654D01*
X137296179Y-75999600D01*
X136712021Y-75999600D01*
X136703748Y-75996173D01*
X136701158Y-75992245D01*
X136506962Y-75506755D01*
X136507071Y-75497801D01*
X136509544Y-75494145D01*
X136995819Y-75006896D01*
X137004088Y-75003462D01*
X137012364Y-75006880D01*
G37*
%TD.AperFunction*%
%TD*%
%TA.AperFunction,Conductor*%
%TO.N,GND*%
G36*
X145192443Y-65613064D02*
G01*
X145197566Y-65620408D01*
X145197612Y-65620624D01*
X145361640Y-66440304D01*
X145361640Y-66444896D01*
X145197612Y-67264575D01*
X145192628Y-67272015D01*
X145183843Y-67273752D01*
X145183627Y-67273706D01*
X143686621Y-66944619D01*
X143679277Y-66939496D01*
X143677433Y-66933192D01*
X143677433Y-65952007D01*
X143680860Y-65943734D01*
X143686620Y-65940580D01*
X145183627Y-65611493D01*
X145192443Y-65613064D01*
G37*
%TD.AperFunction*%
%TD*%
%TA.AperFunction,Conductor*%
%TO.N,GND*%
G36*
X124337620Y-52816327D02*
G01*
X124339348Y-52817752D01*
X124751173Y-53229577D01*
X124754320Y-53235307D01*
X125008166Y-54375097D01*
X125006620Y-54383917D01*
X124999289Y-54389060D01*
X124999036Y-54389114D01*
X124181157Y-54552356D01*
X124172373Y-54550614D01*
X124172356Y-54550603D01*
X123480106Y-54086899D01*
X123475139Y-54079447D01*
X123476895Y-54070668D01*
X124321379Y-52819478D01*
X124328846Y-52814539D01*
X124337620Y-52816327D01*
G37*
%TD.AperFunction*%
%TD*%
%TA.AperFunction,Conductor*%
%TO.N,GND*%
G36*
X135244941Y-57252473D02*
G01*
X135956749Y-57460744D01*
X135963726Y-57466356D01*
X135964891Y-57469468D01*
X136070434Y-57951051D01*
X136068857Y-57959866D01*
X136061510Y-57964985D01*
X136060620Y-57965144D01*
X135031337Y-58108570D01*
X135022670Y-58106318D01*
X135021449Y-58105255D01*
X134750395Y-57834201D01*
X134746968Y-57825928D01*
X134749791Y-57818306D01*
X135232783Y-57256078D01*
X135240773Y-57252036D01*
X135244941Y-57252473D01*
G37*
%TD.AperFunction*%
%TD*%
%TA.AperFunction,Conductor*%
%TO.N,GND*%
G36*
X131164204Y-58524736D02*
G01*
X131170462Y-58531140D01*
X131171302Y-58535493D01*
X131171302Y-58916507D01*
X131170821Y-58919826D01*
X131000776Y-59494656D01*
X130995143Y-59501617D01*
X130988691Y-59503005D01*
X130279704Y-59450364D01*
X130271707Y-59446334D01*
X130269546Y-59442614D01*
X130261132Y-59418941D01*
X130098156Y-58960393D01*
X130098614Y-58951452D01*
X130104826Y-58945617D01*
X131155250Y-58524633D01*
X131164204Y-58524736D01*
G37*
%TD.AperFunction*%
%TD*%
%TA.AperFunction,Conductor*%
%TO.N,GND*%
G36*
X136263023Y-56466827D02*
G01*
X136265628Y-56470792D01*
X136459857Y-56961194D01*
X136459717Y-56970147D01*
X136457219Y-56973808D01*
X135970940Y-57456225D01*
X135962653Y-57459619D01*
X135954460Y-57456225D01*
X135468180Y-56973808D01*
X135464720Y-56965549D01*
X135465541Y-56961198D01*
X135659772Y-56470791D01*
X135666005Y-56464362D01*
X135670650Y-56463400D01*
X136254750Y-56463400D01*
X136263023Y-56466827D01*
G37*
%TD.AperFunction*%
%TD*%
%TA.AperFunction,Conductor*%
%TO.N,GND*%
G36*
X136539307Y-56984071D02*
G01*
X137179120Y-57161027D01*
X137186179Y-57166535D01*
X137187700Y-57172303D01*
X137187700Y-57754496D01*
X137184273Y-57762769D01*
X137179119Y-57765773D01*
X136539308Y-57942727D01*
X136530421Y-57941629D01*
X136528657Y-57940403D01*
X135972341Y-57472353D01*
X135968216Y-57464404D01*
X135970920Y-57455868D01*
X135972341Y-57454447D01*
X136314548Y-57166535D01*
X136528657Y-56986395D01*
X136537193Y-56983692D01*
X136539307Y-56984071D01*
G37*
%TD.AperFunction*%
%TD*%
%TA.AperFunction,Conductor*%
%TO.N,/3V3*%
G36*
X124552287Y-70559197D02*
G01*
X124971978Y-70886035D01*
X124972250Y-70886247D01*
X124976672Y-70894034D01*
X124976526Y-70897812D01*
X124860007Y-71470234D01*
X124854999Y-71477657D01*
X124848542Y-71479600D01*
X124267256Y-71479600D01*
X124258983Y-71476173D01*
X124255899Y-71470713D01*
X124212841Y-71296889D01*
X124114053Y-70898076D01*
X124115390Y-70889225D01*
X124118217Y-70886038D01*
X124537911Y-70559197D01*
X124546544Y-70556818D01*
X124552287Y-70559197D01*
G37*
%TD.AperFunction*%
%TD*%
%TA.AperFunction,Conductor*%
%TO.N,/3V3*%
G36*
X118597061Y-76300316D02*
G01*
X119072499Y-76790981D01*
X119075795Y-76799307D01*
X119073918Y-76805481D01*
X118745558Y-77312758D01*
X118738186Y-77317841D01*
X118735736Y-77318100D01*
X118349046Y-77318100D01*
X118340773Y-77314673D01*
X118338774Y-77312001D01*
X118059194Y-76799307D01*
X118057679Y-76796530D01*
X118056728Y-76787627D01*
X118060000Y-76782348D01*
X118580708Y-76299874D01*
X118589104Y-76296766D01*
X118597061Y-76300316D01*
G37*
%TD.AperFunction*%
%TD*%
%TA.AperFunction,Conductor*%
%TO.N,/3V3*%
G36*
X130274116Y-57552513D02*
G01*
X130276875Y-57556536D01*
X130476177Y-58040026D01*
X130476162Y-58048981D01*
X130470890Y-58054796D01*
X129572773Y-58536518D01*
X129563863Y-58537408D01*
X129558970Y-58534480D01*
X129287653Y-58263163D01*
X129284226Y-58254890D01*
X129285007Y-58250688D01*
X129545293Y-57574980D01*
X129551463Y-57568495D01*
X129555904Y-57567493D01*
X130265758Y-57549299D01*
X130274116Y-57552513D01*
G37*
%TD.AperFunction*%
%TD*%
%TA.AperFunction,Conductor*%
%TO.N,/3V3*%
G36*
X130850399Y-57071676D02*
G01*
X131491016Y-57346758D01*
X131497266Y-57353171D01*
X131498100Y-57357509D01*
X131498100Y-57742090D01*
X131494673Y-57750363D01*
X131491016Y-57752841D01*
X130850399Y-58027923D01*
X130841445Y-58028038D01*
X130838251Y-58026125D01*
X130282741Y-57558753D01*
X130278616Y-57550804D01*
X130281320Y-57542268D01*
X130282741Y-57540847D01*
X130513432Y-57346758D01*
X130838251Y-57073473D01*
X130846787Y-57070770D01*
X130850399Y-57071676D01*
G37*
%TD.AperFunction*%
%TD*%
%TA.AperFunction,Conductor*%
%TO.N,/3V3*%
G36*
X124745418Y-69633027D02*
G01*
X124748025Y-69636998D01*
X124974750Y-70210346D01*
X124974606Y-70219299D01*
X124971059Y-70223879D01*
X124552289Y-70550001D01*
X124543656Y-70552381D01*
X124537911Y-70550001D01*
X124119140Y-70223879D01*
X124114718Y-70216092D01*
X124115448Y-70210349D01*
X124342175Y-69636998D01*
X124348404Y-69630564D01*
X124353055Y-69629600D01*
X124737145Y-69629600D01*
X124745418Y-69633027D01*
G37*
%TD.AperFunction*%
%TD*%
%TA.AperFunction,Conductor*%
%TO.N,/burn*%
G36*
X126425743Y-70106616D02*
G01*
X126986344Y-70252324D01*
X126993488Y-70257721D01*
X126995100Y-70263647D01*
X126995100Y-70845552D01*
X126991673Y-70853825D01*
X126986343Y-70856876D01*
X126425743Y-71002583D01*
X126416874Y-71001347D01*
X126413304Y-70998094D01*
X126099018Y-70561434D01*
X126096967Y-70552718D01*
X126099019Y-70547765D01*
X126413305Y-70111103D01*
X126420918Y-70106392D01*
X126425743Y-70106616D01*
G37*
%TD.AperFunction*%
%TD*%
%TA.AperFunction,Conductor*%
%TO.N,/burn*%
G36*
X130540847Y-69707586D02*
G01*
X130544613Y-69710106D01*
X130886524Y-70051616D01*
X131381812Y-70546322D01*
X131385244Y-70554593D01*
X131381822Y-70562868D01*
X131381812Y-70562878D01*
X130544615Y-71399091D01*
X130536340Y-71402513D01*
X130531892Y-71401632D01*
X129696345Y-71057583D01*
X129690000Y-71051264D01*
X129689100Y-71046764D01*
X129689100Y-70062435D01*
X129692527Y-70054162D01*
X129696342Y-70051617D01*
X130531894Y-69707567D01*
X130540847Y-69707586D01*
G37*
%TD.AperFunction*%
%TD*%
%TA.AperFunction,Conductor*%
%TO.N,/EN*%
G36*
X116184104Y-54206396D02*
G01*
X116188419Y-54211678D01*
X116680098Y-55410505D01*
X116680067Y-55419460D01*
X116677546Y-55423218D01*
X116405718Y-55695046D01*
X116397445Y-55698473D01*
X116393005Y-55697598D01*
X115194178Y-55205919D01*
X115187824Y-55199609D01*
X115187141Y-55192826D01*
X115348872Y-54375577D01*
X115353839Y-54368127D01*
X115358077Y-54366372D01*
X116175325Y-54204641D01*
X116184104Y-54206396D01*
G37*
%TD.AperFunction*%
%TD*%
%TA.AperFunction,Conductor*%
%TO.N,/EN*%
G36*
X119900080Y-74378864D02*
G01*
X119904312Y-74385738D01*
X119961230Y-74667080D01*
X119961230Y-74671720D01*
X119904561Y-74951830D01*
X119899561Y-74959259D01*
X119890773Y-74960978D01*
X119890442Y-74960906D01*
X119375513Y-74841105D01*
X119368231Y-74835892D01*
X119366464Y-74829709D01*
X119366464Y-74449388D01*
X119369891Y-74441115D01*
X119376778Y-74437770D01*
X119891461Y-74376440D01*
X119900080Y-74378864D01*
G37*
%TD.AperFunction*%
%TD*%
%TA.AperFunction,Conductor*%
%TO.N,/EN*%
G36*
X115306901Y-54359006D02*
G01*
X115344121Y-54366372D01*
X115351572Y-54371339D01*
X115353327Y-54375578D01*
X115515058Y-55192823D01*
X115513303Y-55201604D01*
X115508021Y-55205919D01*
X114309194Y-55697598D01*
X114300239Y-55697567D01*
X114296481Y-55695046D01*
X114024653Y-55423218D01*
X114021226Y-55414945D01*
X114022101Y-55410505D01*
X114106009Y-55205919D01*
X114513781Y-54211676D01*
X114520090Y-54205324D01*
X114526873Y-54204641D01*
X115306901Y-54359006D01*
G37*
%TD.AperFunction*%
%TD*%
%TA.AperFunction,Conductor*%
%TO.N,/DeployerDetectionSW1OUT*%
G36*
X141658553Y-124274509D02*
G01*
X141661406Y-124279163D01*
X141799916Y-124705029D01*
X141799216Y-124713957D01*
X141792409Y-124719774D01*
X141791118Y-124720114D01*
X141561106Y-124766805D01*
X141556450Y-124766805D01*
X141326437Y-124720114D01*
X141319011Y-124715110D01*
X141317299Y-124706320D01*
X141317635Y-124705040D01*
X141456150Y-124279163D01*
X141461967Y-124272356D01*
X141467276Y-124271082D01*
X141650280Y-124271082D01*
X141658553Y-124274509D01*
G37*
%TD.AperFunction*%
%TD*%
%TA.AperFunction,Conductor*%
%TO.N,/DeployerDetectionSW1OUT*%
G36*
X140063921Y-120571051D02*
G01*
X140071363Y-120576031D01*
X140073307Y-120583278D01*
X139997001Y-121766825D01*
X139993598Y-121774345D01*
X139862400Y-121905543D01*
X139854127Y-121908970D01*
X139847200Y-121906699D01*
X138777073Y-121120595D01*
X138772435Y-121112936D01*
X138774264Y-121104677D01*
X139235249Y-120413039D01*
X139242688Y-120408056D01*
X139247274Y-120408055D01*
X140063921Y-120571051D01*
G37*
%TD.AperFunction*%
%TD*%
%TA.AperFunction,Conductor*%
%TO.N,/DeployerDetectionSW2OUT*%
G36*
X140682456Y-62708027D02*
G01*
X140683607Y-62709366D01*
X141226055Y-63446518D01*
X141228198Y-63455212D01*
X141224920Y-63461709D01*
X140492178Y-64197288D01*
X140483912Y-64200731D01*
X140475632Y-64197320D01*
X140475610Y-64197299D01*
X140475599Y-64197288D01*
X139740963Y-63461673D01*
X139737543Y-63453398D01*
X139739784Y-63446520D01*
X140276596Y-62709412D01*
X140284237Y-62704742D01*
X140286054Y-62704600D01*
X140674183Y-62704600D01*
X140682456Y-62708027D01*
G37*
%TD.AperFunction*%
%TD*%
%TA.AperFunction,Conductor*%
%TO.N,/DeployerDetectionSW2OUT*%
G36*
X140487940Y-61418376D02*
G01*
X140488785Y-61419221D01*
X140968495Y-61950649D01*
X140971495Y-61959087D01*
X140970519Y-61963202D01*
X140683175Y-62616113D01*
X140676706Y-62622305D01*
X140672466Y-62623100D01*
X140287734Y-62623100D01*
X140279461Y-62619673D01*
X140277025Y-62616113D01*
X139989680Y-61963202D01*
X139989484Y-61954249D01*
X139991702Y-61950652D01*
X140471415Y-61419220D01*
X140479502Y-61415376D01*
X140487940Y-61418376D01*
G37*
%TD.AperFunction*%
%TD*%
%TA.AperFunction,Conductor*%
%TO.N,/DeployerDetectionSW2OUT*%
G36*
X140595240Y-59386376D02*
G01*
X140596085Y-59387221D01*
X141076501Y-59919431D01*
X141079501Y-59927869D01*
X141079053Y-59930531D01*
X140889849Y-60582660D01*
X140884252Y-60589651D01*
X140878612Y-60591100D01*
X140296188Y-60591100D01*
X140287915Y-60587673D01*
X140284951Y-60582660D01*
X140095746Y-59930531D01*
X140096732Y-59921631D01*
X140098294Y-59919436D01*
X140578715Y-59387220D01*
X140586802Y-59383376D01*
X140595240Y-59386376D01*
G37*
%TD.AperFunction*%
%TD*%
%TA.AperFunction,Conductor*%
%TO.N,/DeployerDetectionSW2OUT*%
G36*
X140885477Y-60201527D02*
G01*
X140888794Y-60208201D01*
X140991740Y-60954371D01*
X140989476Y-60963035D01*
X140987879Y-60964753D01*
X140489430Y-61403388D01*
X140480956Y-61406281D01*
X140472918Y-61402334D01*
X140472467Y-61401790D01*
X140022367Y-60823305D01*
X140019991Y-60814671D01*
X140020870Y-60811457D01*
X140284342Y-60205137D01*
X140290782Y-60198915D01*
X140295073Y-60198100D01*
X140877204Y-60198100D01*
X140885477Y-60201527D01*
G37*
%TD.AperFunction*%
%TD*%
%TA.AperFunction,Conductor*%
%TO.N,/TriggerOUT*%
G36*
X134063917Y-56326466D02*
G01*
X134071343Y-56331470D01*
X134073229Y-56339110D01*
X134030165Y-56764474D01*
X134025923Y-56772360D01*
X134018525Y-56774996D01*
X133639675Y-56774996D01*
X133631402Y-56771569D01*
X133628035Y-56764475D01*
X133621731Y-56702213D01*
X133584970Y-56339108D01*
X133587546Y-56330534D01*
X133594281Y-56326466D01*
X133826775Y-56279272D01*
X133831425Y-56279272D01*
X134063917Y-56326466D01*
G37*
%TD.AperFunction*%
%TD*%
%TA.AperFunction,Conductor*%
%TO.N,/BurnWire1OUT*%
G36*
X140912912Y-127276619D02*
G01*
X140920983Y-127280496D01*
X140923967Y-127288301D01*
X140923967Y-128766156D01*
X140920540Y-128774429D01*
X140912911Y-128777838D01*
X139416254Y-128860337D01*
X139407805Y-128857371D01*
X139404137Y-128850951D01*
X139239759Y-128029525D01*
X139239759Y-128024933D01*
X139387169Y-127288301D01*
X139404137Y-127203505D01*
X139409121Y-127196066D01*
X139416253Y-127194120D01*
X140912912Y-127276619D01*
G37*
%TD.AperFunction*%
%TD*%
%TA.AperFunction,Conductor*%
%TO.N,/BurnWire1OUT*%
G36*
X144894940Y-70824920D02*
G01*
X145360505Y-71519950D01*
X145362261Y-71524190D01*
X145524959Y-72346325D01*
X145523204Y-72355106D01*
X145517367Y-72359632D01*
X144463671Y-72730605D01*
X144454730Y-72730120D01*
X144451513Y-72727842D01*
X143406874Y-71683203D01*
X143403447Y-71674930D01*
X143406874Y-71666657D01*
X143409318Y-71664786D01*
X144879398Y-70821282D01*
X144888277Y-70820138D01*
X144894940Y-70824920D01*
G37*
%TD.AperFunction*%
%TD*%
%TA.AperFunction,Conductor*%
%TO.N,/BurnWire1OUT*%
G36*
X146108300Y-69842360D02*
G01*
X146111709Y-69849989D01*
X146194208Y-71346645D01*
X146191242Y-71355094D01*
X146184822Y-71358762D01*
X145363396Y-71523140D01*
X145358804Y-71523140D01*
X144537377Y-71358762D01*
X144529937Y-71353778D01*
X144527991Y-71346645D01*
X144610491Y-69849989D01*
X144614368Y-69841917D01*
X144622173Y-69838933D01*
X146100027Y-69838933D01*
X146108300Y-69842360D01*
G37*
%TD.AperFunction*%
%TD*%
%TA.AperFunction,Conductor*%
%TO.N,/BurnWire1OUT*%
G36*
X146018100Y-69113073D02*
G01*
X146184822Y-69146437D01*
X146192262Y-69151421D01*
X146194208Y-69158554D01*
X146111709Y-70655211D01*
X146107832Y-70663283D01*
X146100027Y-70666267D01*
X144622173Y-70666267D01*
X144613900Y-70662840D01*
X144610491Y-70655211D01*
X144527991Y-69158554D01*
X144530957Y-69150105D01*
X144537377Y-69146437D01*
X145358806Y-68982059D01*
X145363394Y-68982059D01*
X146018100Y-69113073D01*
G37*
%TD.AperFunction*%
%TD*%
%TA.AperFunction,Conductor*%
%TO.N,Net-(J4-Pin_1)*%
G36*
X137012278Y-80110095D02*
G01*
X137510990Y-80597683D01*
X137514510Y-80605917D01*
X137513656Y-80610439D01*
X137307059Y-81120790D01*
X137300778Y-81127173D01*
X137296214Y-81128100D01*
X136711986Y-81128100D01*
X136703713Y-81124673D01*
X136701141Y-81120790D01*
X136494543Y-80610439D01*
X136494615Y-80601485D01*
X136497206Y-80597686D01*
X136995921Y-80110095D01*
X137004232Y-80106763D01*
X137012278Y-80110095D01*
G37*
%TD.AperFunction*%
%TD*%
%TA.AperFunction,Conductor*%
%TO.N,Net-(J4-Pin_1)*%
G36*
X137306402Y-82320027D02*
G01*
X137307604Y-82321436D01*
X137914295Y-83158824D01*
X137916373Y-83167534D01*
X137913401Y-83173642D01*
X137139365Y-84008682D01*
X137131227Y-84012420D01*
X137122830Y-84009309D01*
X137122506Y-84008996D01*
X136287044Y-83172551D01*
X136283622Y-83164276D01*
X136284847Y-83159070D01*
X136284970Y-83158824D01*
X136700872Y-82323087D01*
X136707626Y-82317207D01*
X136711347Y-82316600D01*
X137298129Y-82316600D01*
X137306402Y-82320027D01*
G37*
%TD.AperFunction*%
%TD*%
%TA.AperFunction,Conductor*%
%TO.N,/3V3*%
G36*
X119851537Y-78891027D02*
G01*
X119854083Y-78894845D01*
X120198132Y-79730392D01*
X120198113Y-79739347D01*
X120195591Y-79743115D01*
X119359378Y-80580312D01*
X119351107Y-80583744D01*
X119342832Y-80580322D01*
X119342822Y-80580312D01*
X119063244Y-80300405D01*
X118506607Y-79743114D01*
X118503186Y-79734840D01*
X118504066Y-79730396D01*
X118848117Y-78894845D01*
X118854436Y-78888500D01*
X118858936Y-78887600D01*
X119843264Y-78887600D01*
X119851537Y-78891027D01*
G37*
%TD.AperFunction*%
%TD*%
M02*
