%TF.GenerationSoftware,KiCad,Pcbnew,10.0.3*%
%TF.CreationDate,2026-06-20T17:38:10+04:00*%
%TF.ProjectId,sanket,73616e6b-6574-42e6-9b69-6361645f7063,6*%
%TF.SameCoordinates,Original*%
%TF.FileFunction,Profile,NP*%
%FSLAX46Y46*%
G04 Gerber Fmt 4.6, Leading zero omitted, Abs format (unit mm)*
G04 Created by KiCad (PCBNEW 10.0.3) date 2026-06-20 17:38:10*
%MOMM*%
%LPD*%
G01*
G04 APERTURE LIST*
%TA.AperFunction,Profile*%
%ADD10C,0.100000*%
%TD*%
%TA.AperFunction,Profile*%
%ADD11C,0.050000*%
%TD*%
G04 APERTURE END LIST*
D10*
X100491100Y-58498600D02*
X100491100Y-90793600D01*
X100491100Y-58498600D02*
G75*
G02*
X101691100Y-57298600I1200000J0D01*
G01*
X100491100Y-113513600D02*
X100491100Y-148098600D01*
X100491100Y-113513600D02*
G75*
G02*
X101691100Y-112313600I1200000J0D01*
G01*
X101691100Y-91993600D02*
G75*
G02*
X100491100Y-90793600I-100J1199900D01*
G01*
X101691100Y-91993600D02*
X102221100Y-91993600D01*
X101691100Y-149298600D02*
G75*
G02*
X100491100Y-148098600I0J1200000D01*
G01*
X101691100Y-149298600D02*
X137101100Y-149298600D01*
X102221100Y-91993600D02*
G75*
G02*
X103421100Y-93193600I-100J-1200100D01*
G01*
X102221100Y-112313600D02*
X101691100Y-112313600D01*
X103421100Y-93193600D02*
X103421100Y-111113600D01*
X103421100Y-111113600D02*
G75*
G02*
X102221100Y-112313600I-1200000J0D01*
G01*
X107161100Y-63293600D02*
G75*
G02*
X103981100Y-63293600I-1590000J0D01*
G01*
X103981100Y-63293600D02*
G75*
G02*
X107161100Y-63293600I1590000J0D01*
G01*
X107161100Y-143303600D02*
G75*
G02*
X103981100Y-143303600I-1590000J0D01*
G01*
X103981100Y-143303600D02*
G75*
G02*
X107161100Y-143303600I1590000J0D01*
G01*
X120313415Y-91198600D02*
G75*
G02*
X116741413Y-91198600I-1786001J0D01*
G01*
X116741413Y-91198600D02*
G75*
G02*
X120313415Y-91198600I1786001J0D01*
G01*
X135377414Y-95698600D02*
G75*
G02*
X133377414Y-95698600I-1000000J0D01*
G01*
X133377414Y-95698600D02*
G75*
G02*
X135377414Y-95698600I1000000J0D01*
G01*
X137101100Y-57298600D02*
X101691100Y-57298600D01*
X137101100Y-57298600D02*
G75*
G02*
X138301100Y-58498600I-100J-1200100D01*
G01*
X138301100Y-59018600D02*
X138301100Y-58498600D01*
X138301100Y-147578600D02*
G75*
G02*
X139501100Y-146378600I1200000J0D01*
G01*
X138301100Y-148098600D02*
G75*
G02*
X137101100Y-149298600I-1200000J0D01*
G01*
X138301100Y-148098600D02*
X138301100Y-147578600D01*
X139501100Y-60218600D02*
G75*
G02*
X138301100Y-59018600I-100J1199900D01*
G01*
X139501100Y-146378600D02*
X157371100Y-146378600D01*
X140419156Y-96698600D02*
G75*
G02*
X140419156Y-94698600I458244J1000000D01*
G01*
X140419156Y-96698600D02*
X141335672Y-96698600D01*
X141335672Y-94698600D02*
X140419156Y-94698600D01*
X141335672Y-94698600D02*
G75*
G02*
X141335672Y-96698600I-458272J-1000000D01*
G01*
X143024786Y-110898600D02*
G75*
G02*
X140024786Y-110898600I-1500000J0D01*
G01*
X140024786Y-110898600D02*
G75*
G02*
X143024786Y-110898600I1500000J0D01*
G01*
X143024786Y-120098600D02*
G75*
G02*
X140024786Y-120098600I-1500000J0D01*
G01*
X140024786Y-120098600D02*
G75*
G02*
X143024786Y-120098600I1500000J0D01*
G01*
X146130787Y-134898600D02*
G75*
G02*
X142558785Y-134898600I-1786001J0D01*
G01*
X142558785Y-134898600D02*
G75*
G02*
X146130787Y-134898600I1786001J0D01*
G01*
X145894786Y-143498600D02*
G75*
G02*
X142794786Y-143498600I-1550000J0D01*
G01*
X142794786Y-143498600D02*
G75*
G02*
X145894786Y-143498600I1550000J0D01*
G01*
D11*
X150691100Y-99348600D02*
X153691100Y-99348600D01*
X153691100Y-104858600D01*
X150691100Y-104858600D01*
X150691100Y-99348600D01*
D10*
X153977414Y-63098600D02*
G75*
G02*
X151077414Y-63098600I-1450000J0D01*
G01*
X151077414Y-63098600D02*
G75*
G02*
X153977414Y-63098600I1450000J0D01*
G01*
X154313415Y-71698600D02*
G75*
G02*
X150741413Y-71698600I-1786001J0D01*
G01*
X150741413Y-71698600D02*
G75*
G02*
X154313415Y-71698600I1786001J0D01*
G01*
X156847414Y-86498600D02*
G75*
G02*
X153847414Y-86498600I-1500000J0D01*
G01*
X153847414Y-86498600D02*
G75*
G02*
X156847414Y-86498600I1500000J0D01*
G01*
X156847414Y-95698600D02*
G75*
G02*
X153847414Y-95698600I-1500000J0D01*
G01*
X153847414Y-95698600D02*
G75*
G02*
X156847414Y-95698600I1500000J0D01*
G01*
X155536528Y-111898600D02*
G75*
G02*
X155536528Y-109898600I458272J1000000D01*
G01*
X155536528Y-111898600D02*
X156453043Y-111898600D01*
X156453043Y-109898600D02*
X155536528Y-109898600D01*
X156453043Y-109898600D02*
G75*
G02*
X156453043Y-111898600I-458243J-1000000D01*
G01*
X157371100Y-60218600D02*
X139501100Y-60218600D01*
X157371100Y-146378600D02*
G75*
G02*
X158571100Y-147578600I0J-1200000D01*
G01*
X158571100Y-58498600D02*
X158571100Y-59018600D01*
X158571100Y-58498600D02*
G75*
G02*
X159771100Y-57298600I1200000J0D01*
G01*
X158571100Y-59018600D02*
G75*
G02*
X157371100Y-60218600I-1200000J0D01*
G01*
X158571100Y-147578600D02*
X158571100Y-148098600D01*
X159771100Y-149298600D02*
G75*
G02*
X158571100Y-148098600I0J1200000D01*
G01*
X159771100Y-149298600D02*
X195181100Y-149298600D01*
X163494786Y-110898600D02*
G75*
G02*
X161494786Y-110898600I-1000000J0D01*
G01*
X161494786Y-110898600D02*
G75*
G02*
X163494786Y-110898600I1000000J0D01*
G01*
D11*
X166461100Y-69098600D02*
X169001100Y-69098600D01*
X169001100Y-76718600D01*
X166461100Y-76718600D01*
X166461100Y-69098600D01*
X166461100Y-81798600D02*
X169001100Y-81798600D01*
X169001100Y-89418600D01*
X166461100Y-89418600D01*
X166461100Y-81798600D01*
X170601100Y-66048600D02*
X182101100Y-66048600D01*
X182101100Y-92048600D01*
X170601100Y-92048600D01*
X170601100Y-66048600D01*
X173341100Y-57298600D02*
X159771100Y-57298600D01*
X173341100Y-57298600D02*
X173341100Y-63818600D01*
X173341100Y-63818600D02*
X179341100Y-63818600D01*
D10*
X180130787Y-115398600D02*
G75*
G02*
X176558785Y-115398600I-1786001J0D01*
G01*
X176558785Y-115398600D02*
G75*
G02*
X180130787Y-115398600I1786001J0D01*
G01*
D11*
X179341100Y-57298600D02*
X195181100Y-57298600D01*
X179341100Y-63818600D02*
X179341100Y-57298600D01*
X184241100Y-69098600D02*
X186781100Y-69098600D01*
X186781100Y-76718600D01*
X184241100Y-76718600D01*
X184241100Y-69098600D01*
X184241100Y-81798600D02*
X186781100Y-81798600D01*
X186781100Y-89418600D01*
X184241100Y-89418600D01*
X184241100Y-81798600D01*
D10*
X192891100Y-63293600D02*
G75*
G02*
X189711100Y-63293600I-1590000J0D01*
G01*
X189711100Y-63293600D02*
G75*
G02*
X192891100Y-63293600I1590000J0D01*
G01*
X192891100Y-143303600D02*
G75*
G02*
X189711100Y-143303600I-1590000J0D01*
G01*
X189711100Y-143303600D02*
G75*
G02*
X192891100Y-143303600I1590000J0D01*
G01*
X193451100Y-93193600D02*
G75*
G02*
X194651100Y-91993600I1200000J0D01*
G01*
X193451100Y-111113600D02*
X193451100Y-93193600D01*
X194651100Y-91993600D02*
X195181100Y-91993600D01*
X194651100Y-112313600D02*
G75*
G02*
X193451100Y-111113600I-100J1199900D01*
G01*
X195181100Y-57298600D02*
G75*
G02*
X196381100Y-58498600I-100J-1200100D01*
G01*
X195181100Y-112313600D02*
X194651100Y-112313600D01*
X195181100Y-112313600D02*
G75*
G02*
X196381100Y-113513600I-100J-1200100D01*
G01*
X196381100Y-90793600D02*
G75*
G02*
X195181100Y-91993600I-1200000J0D01*
G01*
X196381100Y-90793600D02*
X196381100Y-58498600D01*
X196381100Y-148098600D02*
G75*
G02*
X195181100Y-149298600I-1200000J0D01*
G01*
X196381100Y-148098600D02*
X196381100Y-113513600D01*
M02*
