%TF.GenerationSoftware,KiCad,Pcbnew,9.0.2*%
%TF.CreationDate,2026-01-11T03:10:19+05:30*%
%TF.ProjectId,sanket,73616e6b-6574-42e6-9b69-6361645f7063,6*%
%TF.SameCoordinates,Original*%
%TF.FileFunction,Profile,NP*%
%FSLAX46Y46*%
G04 Gerber Fmt 4.6, Leading zero omitted, Abs format (unit mm)*
G04 Created by KiCad (PCBNEW 9.0.2) date 2026-01-11 03:10:19*
%MOMM*%
%LPD*%
G01*
G04 APERTURE LIST*
%TA.AperFunction,Profile*%
%ADD10C,0.250000*%
%TD*%
%TA.AperFunction,Profile*%
%ADD11C,0.200000*%
%TD*%
%TA.AperFunction,Profile*%
%ADD12C,0.050000*%
%TD*%
G04 APERTURE END LIST*
D10*
X187101100Y-87098600D02*
X186581100Y-87098600D01*
X186581100Y-107368600D02*
X187101100Y-107368600D01*
D11*
X188301100Y-128339600D02*
X182470100Y-128339600D01*
D12*
X126615500Y-53841400D02*
X128952300Y-53841400D01*
X128952300Y-55365400D01*
X126615500Y-55365400D01*
X126615500Y-53841400D01*
D10*
X133286100Y-143978600D02*
G75*
G02*
X132086101Y-145178600I-1200000J0D01*
G01*
X103886100Y-140098600D02*
G75*
G02*
X100706100Y-140098600I-1590000J0D01*
G01*
X100706100Y-140098600D02*
G75*
G02*
X103886100Y-140098600I1590000J0D01*
G01*
X152406100Y-142248600D02*
X134486100Y-142248600D01*
X96301100Y-108568600D02*
G75*
G02*
X97501100Y-107368600I1200000J0D01*
G01*
X185381100Y-88298600D02*
G75*
G02*
X186581100Y-87098600I1200000J0D01*
G01*
X96301100Y-85898601D02*
X96301100Y-50488600D01*
X154806100Y-145178600D02*
G75*
G02*
X153606100Y-143978600I0J1200000D01*
G01*
X97501100Y-49288600D02*
X132086100Y-49288600D01*
X133286100Y-50488600D02*
X133286100Y-51018601D01*
X183896100Y-54368600D02*
G75*
G02*
X180716100Y-54368600I-1590000J0D01*
G01*
X180716100Y-54368600D02*
G75*
G02*
X183896100Y-54368600I1590000J0D01*
G01*
X188301100Y-108568600D02*
X188301100Y-121973600D01*
D11*
X188301100Y-143978600D02*
G75*
G02*
X187101100Y-145178600I-1200000J0D01*
G01*
D12*
X168881100Y-115258600D02*
X176501100Y-115258600D01*
X176501100Y-117798600D01*
X168881100Y-117798600D01*
X168881100Y-115258600D01*
D10*
X186581100Y-107368600D02*
G75*
G02*
X185381100Y-106168600I0J1200000D01*
G01*
X153606100Y-51018600D02*
X153606100Y-50488600D01*
X183951100Y-101324914D02*
G75*
G02*
X181051100Y-101324914I-1450000J0D01*
G01*
X181051100Y-101324914D02*
G75*
G02*
X183951100Y-101324914I1450000J0D01*
G01*
X153606100Y-51018600D02*
G75*
G02*
X152406100Y-52218600I-1200000J0D01*
G01*
X131987101Y-127142286D02*
G75*
G02*
X128415099Y-127142286I-1786001J0D01*
G01*
X128415099Y-127142286D02*
G75*
G02*
X131987101Y-127142286I1786001J0D01*
G01*
X185381100Y-88298600D02*
X185381100Y-106168600D01*
D11*
X153606100Y-143978600D02*
X153606100Y-143448600D01*
X182470100Y-128339600D02*
X182470100Y-121973600D01*
X182470100Y-121973600D02*
X188301100Y-121973600D01*
D12*
X153551100Y-119398600D02*
X179551100Y-119398600D01*
X179551100Y-130898600D01*
X153551100Y-130898600D01*
X153551100Y-119398600D01*
D10*
X133286100Y-143448600D02*
X133286100Y-143978600D01*
X97501100Y-87098600D02*
G75*
G02*
X96301100Y-85898601I0J1200000D01*
G01*
X175687101Y-101324914D02*
G75*
G02*
X172115099Y-101324914I-1786001J0D01*
G01*
X172115099Y-101324914D02*
G75*
G02*
X175687101Y-101324914I1786001J0D01*
G01*
X134486100Y-52218600D02*
X152406100Y-52218600D01*
X103651100Y-93142286D02*
G75*
G02*
X100551100Y-93142286I-1550000J0D01*
G01*
X100551100Y-93142286D02*
G75*
G02*
X103651100Y-93142286I1550000J0D01*
G01*
X98021100Y-87098600D02*
X97501100Y-87098600D01*
X187101100Y-107368600D02*
G75*
G02*
X188301100Y-108568600I0J-1200000D01*
G01*
D12*
X156181100Y-133038600D02*
X163801100Y-133038600D01*
X163801100Y-135578600D01*
X156181100Y-135578600D01*
X156181100Y-133038600D01*
D10*
X152406100Y-142248600D02*
G75*
G02*
X153606100Y-143448600I0J-1200000D01*
G01*
X99221100Y-106168600D02*
X99221100Y-88298600D01*
X132086101Y-145178600D02*
X97501100Y-145178600D01*
X97501100Y-145178600D02*
G75*
G02*
X96301100Y-143978600I0J1200000D01*
G01*
X134486100Y-52218600D02*
G75*
G02*
X133286100Y-51018601I0J1200000D01*
G01*
X156187101Y-67324914D02*
G75*
G02*
X152615099Y-67324914I-1786001J0D01*
G01*
X152615099Y-67324914D02*
G75*
G02*
X156187101Y-67324914I1786001J0D01*
G01*
X96301100Y-50488600D02*
G75*
G02*
X97501100Y-49288600I1200000J0D01*
G01*
X99221100Y-106168600D02*
G75*
G02*
X98021101Y-107368600I-1200000J0D01*
G01*
X187101100Y-145178600D02*
X154806100Y-145178600D01*
X153606100Y-50488600D02*
G75*
G02*
X154806100Y-49288600I1200000J0D01*
G01*
X132086100Y-49288600D02*
G75*
G02*
X133286100Y-50488600I0J-1200000D01*
G01*
X103886100Y-54368600D02*
G75*
G02*
X100706100Y-54368600I-1590000J0D01*
G01*
X100706100Y-54368600D02*
G75*
G02*
X103886100Y-54368600I1590000J0D01*
G01*
D11*
X188301100Y-50488600D02*
X188301100Y-85898600D01*
D12*
X126564700Y-56279800D02*
X128901500Y-56279800D01*
X128901500Y-57803800D01*
X126564700Y-57803800D01*
X126564700Y-56279800D01*
D10*
X96301100Y-143978600D02*
X96301100Y-108568600D01*
X183896100Y-140098600D02*
G75*
G02*
X180716100Y-140098600I-1590000J0D01*
G01*
X180716100Y-140098600D02*
G75*
G02*
X183896100Y-140098600I1590000J0D01*
G01*
X188301100Y-85898600D02*
G75*
G02*
X187101100Y-87098600I-1200000J0D01*
G01*
X97501100Y-107368600D02*
X98021101Y-107368600D01*
D11*
X187101100Y-49288600D02*
G75*
G02*
X188301100Y-50488600I0J-1200000D01*
G01*
D10*
X98021100Y-87098600D02*
G75*
G02*
X99221100Y-88298600I0J-1200000D01*
G01*
D12*
X168881100Y-133038600D02*
X176501100Y-133038600D01*
X176501100Y-135578600D01*
X168881100Y-135578600D01*
X168881100Y-133038600D01*
D10*
X112487101Y-93142286D02*
G75*
G02*
X108915099Y-93142286I-1786001J0D01*
G01*
X108915099Y-93142286D02*
G75*
G02*
X112487101Y-93142286I1786001J0D01*
G01*
X188301100Y-128339600D02*
X188301100Y-143978600D01*
D12*
X156181100Y-115258600D02*
X163801100Y-115258600D01*
X163801100Y-117798600D01*
X156181100Y-117798600D01*
X156181100Y-115258600D01*
D11*
X154806100Y-49288600D02*
X187101100Y-49288600D01*
D10*
X133286100Y-143448600D02*
G75*
G02*
X134486100Y-142248600I1200000J0D01*
G01*
M02*
