%TF.GenerationSoftware,KiCad,Pcbnew,10.0.3*%
%TF.CreationDate,2026-06-20T17:42:38+04:00*%
%TF.ProjectId,Resistor_board,52657369-7374-46f7-925f-626f6172642e,rev?*%
%TF.SameCoordinates,Original*%
%TF.FileFunction,Legend,Top*%
%TF.FilePolarity,Positive*%
%FSLAX46Y46*%
G04 Gerber Fmt 4.6, Leading zero omitted, Abs format (unit mm)*
G04 Created by KiCad (PCBNEW 10.0.3) date 2026-06-20 17:42:38*
%MOMM*%
%LPD*%
G01*
G04 APERTURE LIST*
%ADD10C,0.100000*%
%ADD11C,0.150000*%
%ADD12C,0.127000*%
%ADD13C,0.120000*%
%ADD14C,1.320000*%
G04 APERTURE END LIST*
D10*
X121797217Y-52954800D02*
X121925789Y-53002419D01*
X121925789Y-53002419D02*
X122140074Y-53002419D01*
X122140074Y-53002419D02*
X122225789Y-52954800D01*
X122225789Y-52954800D02*
X122268646Y-52907180D01*
X122268646Y-52907180D02*
X122311503Y-52811942D01*
X122311503Y-52811942D02*
X122311503Y-52716704D01*
X122311503Y-52716704D02*
X122268646Y-52621466D01*
X122268646Y-52621466D02*
X122225789Y-52573847D01*
X122225789Y-52573847D02*
X122140074Y-52526228D01*
X122140074Y-52526228D02*
X121968646Y-52478609D01*
X121968646Y-52478609D02*
X121882931Y-52430990D01*
X121882931Y-52430990D02*
X121840074Y-52383371D01*
X121840074Y-52383371D02*
X121797217Y-52288133D01*
X121797217Y-52288133D02*
X121797217Y-52192895D01*
X121797217Y-52192895D02*
X121840074Y-52097657D01*
X121840074Y-52097657D02*
X121882931Y-52050038D01*
X121882931Y-52050038D02*
X121968646Y-52002419D01*
X121968646Y-52002419D02*
X122182931Y-52002419D01*
X122182931Y-52002419D02*
X122311503Y-52050038D01*
X123082932Y-53002419D02*
X123082932Y-52478609D01*
X123082932Y-52478609D02*
X123040074Y-52383371D01*
X123040074Y-52383371D02*
X122954360Y-52335752D01*
X122954360Y-52335752D02*
X122782932Y-52335752D01*
X122782932Y-52335752D02*
X122697217Y-52383371D01*
X123082932Y-52954800D02*
X122997217Y-53002419D01*
X122997217Y-53002419D02*
X122782932Y-53002419D01*
X122782932Y-53002419D02*
X122697217Y-52954800D01*
X122697217Y-52954800D02*
X122654360Y-52859561D01*
X122654360Y-52859561D02*
X122654360Y-52764323D01*
X122654360Y-52764323D02*
X122697217Y-52669085D01*
X122697217Y-52669085D02*
X122782932Y-52621466D01*
X122782932Y-52621466D02*
X122997217Y-52621466D01*
X122997217Y-52621466D02*
X123082932Y-52573847D01*
X123511503Y-52335752D02*
X123511503Y-53002419D01*
X123511503Y-52430990D02*
X123554360Y-52383371D01*
X123554360Y-52383371D02*
X123640075Y-52335752D01*
X123640075Y-52335752D02*
X123768646Y-52335752D01*
X123768646Y-52335752D02*
X123854360Y-52383371D01*
X123854360Y-52383371D02*
X123897218Y-52478609D01*
X123897218Y-52478609D02*
X123897218Y-53002419D01*
X124325789Y-53002419D02*
X124325789Y-52002419D01*
X124411504Y-52621466D02*
X124668646Y-53002419D01*
X124668646Y-52335752D02*
X124325789Y-52716704D01*
X125397217Y-52954800D02*
X125311503Y-53002419D01*
X125311503Y-53002419D02*
X125140075Y-53002419D01*
X125140075Y-53002419D02*
X125054360Y-52954800D01*
X125054360Y-52954800D02*
X125011503Y-52859561D01*
X125011503Y-52859561D02*
X125011503Y-52478609D01*
X125011503Y-52478609D02*
X125054360Y-52383371D01*
X125054360Y-52383371D02*
X125140075Y-52335752D01*
X125140075Y-52335752D02*
X125311503Y-52335752D01*
X125311503Y-52335752D02*
X125397217Y-52383371D01*
X125397217Y-52383371D02*
X125440075Y-52478609D01*
X125440075Y-52478609D02*
X125440075Y-52573847D01*
X125440075Y-52573847D02*
X125011503Y-52669085D01*
X125697218Y-52335752D02*
X126040075Y-52335752D01*
X125825789Y-52002419D02*
X125825789Y-52859561D01*
X125825789Y-52859561D02*
X125868646Y-52954800D01*
X125868646Y-52954800D02*
X125954361Y-53002419D01*
X125954361Y-53002419D02*
X126040075Y-53002419D01*
X127411504Y-52954800D02*
X127325789Y-53002419D01*
X127325789Y-53002419D02*
X127154361Y-53002419D01*
X127154361Y-53002419D02*
X127068646Y-52954800D01*
X127068646Y-52954800D02*
X127025789Y-52907180D01*
X127025789Y-52907180D02*
X126982932Y-52811942D01*
X126982932Y-52811942D02*
X126982932Y-52526228D01*
X126982932Y-52526228D02*
X127025789Y-52430990D01*
X127025789Y-52430990D02*
X127068646Y-52383371D01*
X127068646Y-52383371D02*
X127154361Y-52335752D01*
X127154361Y-52335752D02*
X127325789Y-52335752D01*
X127325789Y-52335752D02*
X127411504Y-52383371D01*
X127925790Y-53002419D02*
X127840075Y-52954800D01*
X127840075Y-52954800D02*
X127797218Y-52907180D01*
X127797218Y-52907180D02*
X127754361Y-52811942D01*
X127754361Y-52811942D02*
X127754361Y-52526228D01*
X127754361Y-52526228D02*
X127797218Y-52430990D01*
X127797218Y-52430990D02*
X127840075Y-52383371D01*
X127840075Y-52383371D02*
X127925790Y-52335752D01*
X127925790Y-52335752D02*
X128054361Y-52335752D01*
X128054361Y-52335752D02*
X128140075Y-52383371D01*
X128140075Y-52383371D02*
X128182933Y-52430990D01*
X128182933Y-52430990D02*
X128225790Y-52526228D01*
X128225790Y-52526228D02*
X128225790Y-52811942D01*
X128225790Y-52811942D02*
X128182933Y-52907180D01*
X128182933Y-52907180D02*
X128140075Y-52954800D01*
X128140075Y-52954800D02*
X128054361Y-53002419D01*
X128054361Y-53002419D02*
X127925790Y-53002419D01*
X128611504Y-52335752D02*
X128611504Y-53002419D01*
X128611504Y-52430990D02*
X128654361Y-52383371D01*
X128654361Y-52383371D02*
X128740076Y-52335752D01*
X128740076Y-52335752D02*
X128868647Y-52335752D01*
X128868647Y-52335752D02*
X128954361Y-52383371D01*
X128954361Y-52383371D02*
X128997219Y-52478609D01*
X128997219Y-52478609D02*
X128997219Y-53002419D01*
X129425790Y-52335752D02*
X129425790Y-53002419D01*
X129425790Y-52430990D02*
X129468647Y-52383371D01*
X129468647Y-52383371D02*
X129554362Y-52335752D01*
X129554362Y-52335752D02*
X129682933Y-52335752D01*
X129682933Y-52335752D02*
X129768647Y-52383371D01*
X129768647Y-52383371D02*
X129811505Y-52478609D01*
X129811505Y-52478609D02*
X129811505Y-53002419D01*
X130582933Y-52954800D02*
X130497219Y-53002419D01*
X130497219Y-53002419D02*
X130325791Y-53002419D01*
X130325791Y-53002419D02*
X130240076Y-52954800D01*
X130240076Y-52954800D02*
X130197219Y-52859561D01*
X130197219Y-52859561D02*
X130197219Y-52478609D01*
X130197219Y-52478609D02*
X130240076Y-52383371D01*
X130240076Y-52383371D02*
X130325791Y-52335752D01*
X130325791Y-52335752D02*
X130497219Y-52335752D01*
X130497219Y-52335752D02*
X130582933Y-52383371D01*
X130582933Y-52383371D02*
X130625791Y-52478609D01*
X130625791Y-52478609D02*
X130625791Y-52573847D01*
X130625791Y-52573847D02*
X130197219Y-52669085D01*
X131397220Y-52954800D02*
X131311505Y-53002419D01*
X131311505Y-53002419D02*
X131140077Y-53002419D01*
X131140077Y-53002419D02*
X131054362Y-52954800D01*
X131054362Y-52954800D02*
X131011505Y-52907180D01*
X131011505Y-52907180D02*
X130968648Y-52811942D01*
X130968648Y-52811942D02*
X130968648Y-52526228D01*
X130968648Y-52526228D02*
X131011505Y-52430990D01*
X131011505Y-52430990D02*
X131054362Y-52383371D01*
X131054362Y-52383371D02*
X131140077Y-52335752D01*
X131140077Y-52335752D02*
X131311505Y-52335752D01*
X131311505Y-52335752D02*
X131397220Y-52383371D01*
X131654363Y-52335752D02*
X131997220Y-52335752D01*
X131782934Y-52002419D02*
X131782934Y-52859561D01*
X131782934Y-52859561D02*
X131825791Y-52954800D01*
X131825791Y-52954800D02*
X131911506Y-53002419D01*
X131911506Y-53002419D02*
X131997220Y-53002419D01*
X132640077Y-52954800D02*
X132554363Y-53002419D01*
X132554363Y-53002419D02*
X132382935Y-53002419D01*
X132382935Y-53002419D02*
X132297220Y-52954800D01*
X132297220Y-52954800D02*
X132254363Y-52859561D01*
X132254363Y-52859561D02*
X132254363Y-52478609D01*
X132254363Y-52478609D02*
X132297220Y-52383371D01*
X132297220Y-52383371D02*
X132382935Y-52335752D01*
X132382935Y-52335752D02*
X132554363Y-52335752D01*
X132554363Y-52335752D02*
X132640077Y-52383371D01*
X132640077Y-52383371D02*
X132682935Y-52478609D01*
X132682935Y-52478609D02*
X132682935Y-52573847D01*
X132682935Y-52573847D02*
X132254363Y-52669085D01*
X133068649Y-53002419D02*
X133068649Y-52335752D01*
X133068649Y-52526228D02*
X133111506Y-52430990D01*
X133111506Y-52430990D02*
X133154364Y-52383371D01*
X133154364Y-52383371D02*
X133240078Y-52335752D01*
X133240078Y-52335752D02*
X133325792Y-52335752D01*
X128508646Y-53972419D02*
X129127693Y-53972419D01*
X129127693Y-53972419D02*
X128794360Y-54353371D01*
X128794360Y-54353371D02*
X128937217Y-54353371D01*
X128937217Y-54353371D02*
X129032455Y-54400990D01*
X129032455Y-54400990D02*
X129080074Y-54448609D01*
X129080074Y-54448609D02*
X129127693Y-54543847D01*
X129127693Y-54543847D02*
X129127693Y-54781942D01*
X129127693Y-54781942D02*
X129080074Y-54877180D01*
X129080074Y-54877180D02*
X129032455Y-54924800D01*
X129032455Y-54924800D02*
X128937217Y-54972419D01*
X128937217Y-54972419D02*
X128651503Y-54972419D01*
X128651503Y-54972419D02*
X128556265Y-54924800D01*
X128556265Y-54924800D02*
X128508646Y-54877180D01*
X131527693Y-54872419D02*
X130956265Y-54872419D01*
X131241979Y-54872419D02*
X131241979Y-53872419D01*
X131241979Y-53872419D02*
X131146741Y-54015276D01*
X131146741Y-54015276D02*
X131051503Y-54110514D01*
X131051503Y-54110514D02*
X130956265Y-54158133D01*
D11*
X112144819Y-53811904D02*
X112144819Y-53240476D01*
X113144819Y-53526190D02*
X112144819Y-53526190D01*
X113144819Y-52907142D02*
X112144819Y-52907142D01*
X112144819Y-52907142D02*
X112144819Y-52526190D01*
X112144819Y-52526190D02*
X112192438Y-52430952D01*
X112192438Y-52430952D02*
X112240057Y-52383333D01*
X112240057Y-52383333D02*
X112335295Y-52335714D01*
X112335295Y-52335714D02*
X112478152Y-52335714D01*
X112478152Y-52335714D02*
X112573390Y-52383333D01*
X112573390Y-52383333D02*
X112621009Y-52430952D01*
X112621009Y-52430952D02*
X112668628Y-52526190D01*
X112668628Y-52526190D02*
X112668628Y-52907142D01*
X112144819Y-52002380D02*
X112144819Y-51383333D01*
X112144819Y-51383333D02*
X112525771Y-51716666D01*
X112525771Y-51716666D02*
X112525771Y-51573809D01*
X112525771Y-51573809D02*
X112573390Y-51478571D01*
X112573390Y-51478571D02*
X112621009Y-51430952D01*
X112621009Y-51430952D02*
X112716247Y-51383333D01*
X112716247Y-51383333D02*
X112954342Y-51383333D01*
X112954342Y-51383333D02*
X113049580Y-51430952D01*
X113049580Y-51430952D02*
X113097200Y-51478571D01*
X113097200Y-51478571D02*
X113144819Y-51573809D01*
X113144819Y-51573809D02*
X113144819Y-51859523D01*
X113144819Y-51859523D02*
X113097200Y-51954761D01*
X113097200Y-51954761D02*
X113049580Y-52002380D01*
X111844819Y-63411904D02*
X111844819Y-62840476D01*
X112844819Y-63126190D02*
X111844819Y-63126190D01*
X112844819Y-62507142D02*
X111844819Y-62507142D01*
X111844819Y-62507142D02*
X111844819Y-62126190D01*
X111844819Y-62126190D02*
X111892438Y-62030952D01*
X111892438Y-62030952D02*
X111940057Y-61983333D01*
X111940057Y-61983333D02*
X112035295Y-61935714D01*
X112035295Y-61935714D02*
X112178152Y-61935714D01*
X112178152Y-61935714D02*
X112273390Y-61983333D01*
X112273390Y-61983333D02*
X112321009Y-62030952D01*
X112321009Y-62030952D02*
X112368628Y-62126190D01*
X112368628Y-62126190D02*
X112368628Y-62507142D01*
X112178152Y-61078571D02*
X112844819Y-61078571D01*
X111797200Y-61316666D02*
X112511485Y-61554761D01*
X112511485Y-61554761D02*
X112511485Y-60935714D01*
X121944819Y-55211904D02*
X121944819Y-54640476D01*
X122944819Y-54926190D02*
X121944819Y-54926190D01*
X122944819Y-54307142D02*
X121944819Y-54307142D01*
X121944819Y-54307142D02*
X121944819Y-53926190D01*
X121944819Y-53926190D02*
X121992438Y-53830952D01*
X121992438Y-53830952D02*
X122040057Y-53783333D01*
X122040057Y-53783333D02*
X122135295Y-53735714D01*
X122135295Y-53735714D02*
X122278152Y-53735714D01*
X122278152Y-53735714D02*
X122373390Y-53783333D01*
X122373390Y-53783333D02*
X122421009Y-53830952D01*
X122421009Y-53830952D02*
X122468628Y-53926190D01*
X122468628Y-53926190D02*
X122468628Y-54307142D01*
X122944819Y-52783333D02*
X122944819Y-53354761D01*
X122944819Y-53069047D02*
X121944819Y-53069047D01*
X121944819Y-53069047D02*
X122087676Y-53164285D01*
X122087676Y-53164285D02*
X122182914Y-53259523D01*
X122182914Y-53259523D02*
X122230533Y-53354761D01*
X121924819Y-63821904D02*
X121924819Y-63250476D01*
X122924819Y-63536190D02*
X121924819Y-63536190D01*
X122924819Y-62917142D02*
X121924819Y-62917142D01*
X121924819Y-62917142D02*
X121924819Y-62536190D01*
X121924819Y-62536190D02*
X121972438Y-62440952D01*
X121972438Y-62440952D02*
X122020057Y-62393333D01*
X122020057Y-62393333D02*
X122115295Y-62345714D01*
X122115295Y-62345714D02*
X122258152Y-62345714D01*
X122258152Y-62345714D02*
X122353390Y-62393333D01*
X122353390Y-62393333D02*
X122401009Y-62440952D01*
X122401009Y-62440952D02*
X122448628Y-62536190D01*
X122448628Y-62536190D02*
X122448628Y-62917142D01*
X122020057Y-61964761D02*
X121972438Y-61917142D01*
X121972438Y-61917142D02*
X121924819Y-61821904D01*
X121924819Y-61821904D02*
X121924819Y-61583809D01*
X121924819Y-61583809D02*
X121972438Y-61488571D01*
X121972438Y-61488571D02*
X122020057Y-61440952D01*
X122020057Y-61440952D02*
X122115295Y-61393333D01*
X122115295Y-61393333D02*
X122210533Y-61393333D01*
X122210533Y-61393333D02*
X122353390Y-61440952D01*
X122353390Y-61440952D02*
X122924819Y-62012380D01*
X122924819Y-62012380D02*
X122924819Y-61393333D01*
X132724819Y-63288333D02*
X133439104Y-63288333D01*
X133439104Y-63288333D02*
X133581961Y-63335952D01*
X133581961Y-63335952D02*
X133677200Y-63431190D01*
X133677200Y-63431190D02*
X133724819Y-63574047D01*
X133724819Y-63574047D02*
X133724819Y-63669285D01*
X133724819Y-62288333D02*
X133724819Y-62859761D01*
X133724819Y-62574047D02*
X132724819Y-62574047D01*
X132724819Y-62574047D02*
X132867676Y-62669285D01*
X132867676Y-62669285D02*
X132962914Y-62764523D01*
X132962914Y-62764523D02*
X133010533Y-62859761D01*
%TO.C,TP3*%
D12*
X114374100Y-51480000D02*
X114805900Y-51480000D01*
X114374100Y-51665000D02*
X114374100Y-51480000D01*
X114374100Y-54020000D02*
X114374100Y-53835000D01*
X114805900Y-51480000D02*
X114805900Y-51665000D01*
X114805900Y-53835000D02*
X114805900Y-54020000D01*
X114805900Y-54020000D02*
X114374100Y-54020000D01*
%TO.C,TP4*%
X114374100Y-61480000D02*
X114805900Y-61480000D01*
X114374100Y-61665000D02*
X114374100Y-61480000D01*
X114374100Y-64020000D02*
X114374100Y-63835000D01*
X114805900Y-61480000D02*
X114805900Y-61665000D01*
X114805900Y-63835000D02*
X114805900Y-64020000D01*
X114805900Y-64020000D02*
X114374100Y-64020000D01*
%TO.C,TP1*%
X120074100Y-51480000D02*
X120505900Y-51480000D01*
X120074100Y-51665000D02*
X120074100Y-51480000D01*
X120074100Y-54020000D02*
X120074100Y-53835000D01*
X120505900Y-51480000D02*
X120505900Y-51665000D01*
X120505900Y-53835000D02*
X120505900Y-54020000D01*
X120505900Y-54020000D02*
X120074100Y-54020000D01*
%TO.C,TP2*%
X120074100Y-61580000D02*
X120505900Y-61580000D01*
X120074100Y-61765000D02*
X120074100Y-61580000D01*
X120074100Y-64120000D02*
X120074100Y-63935000D01*
X120505900Y-61580000D02*
X120505900Y-61765000D01*
X120505900Y-63935000D02*
X120505900Y-64120000D01*
X120505900Y-64120000D02*
X120074100Y-64120000D01*
%TO.C,J1*%
D13*
X125490000Y-58377358D02*
X125490000Y-58762642D01*
X125490000Y-60917358D02*
X125490000Y-61230000D01*
X125490000Y-69990000D02*
X125490000Y-63990000D01*
X126350000Y-58377358D02*
X126350000Y-58762642D01*
X126350000Y-60917358D02*
X126350000Y-61230000D01*
X126350000Y-63990000D02*
X126350000Y-69990000D01*
X126350000Y-69990000D02*
X125490000Y-69990000D01*
X127190000Y-61230000D02*
X127190000Y-63990000D01*
X128030000Y-58377358D02*
X128030000Y-58762642D01*
X128030000Y-60917358D02*
X128030000Y-61230000D01*
X128030000Y-69990000D02*
X128030000Y-63990000D01*
X128890000Y-58377358D02*
X128890000Y-58762642D01*
X128890000Y-60917358D02*
X128890000Y-61230000D01*
X128890000Y-63990000D02*
X128890000Y-69990000D01*
X128890000Y-69990000D02*
X128030000Y-69990000D01*
X129730000Y-61230000D02*
X129730000Y-63990000D01*
X130570000Y-58460000D02*
X130570000Y-58762642D01*
X130570000Y-60917358D02*
X130570000Y-61230000D01*
X131000000Y-56030000D02*
X132270000Y-56030000D01*
X131430000Y-58460000D02*
X131430000Y-58762642D01*
X131430000Y-60917358D02*
X131430000Y-61230000D01*
X132270000Y-56030000D02*
X132270000Y-57300000D01*
X130570000Y-63990000D02*
X131430000Y-63990000D01*
X131430000Y-69990000D01*
X130570000Y-69990000D01*
X130570000Y-63990000D01*
G36*
X130570000Y-63990000D02*
G01*
X131430000Y-63990000D01*
X131430000Y-69990000D01*
X130570000Y-69990000D01*
X130570000Y-63990000D01*
G37*
X124540000Y-61230000D02*
X132380000Y-61230000D01*
X132380000Y-63990000D01*
X124540000Y-63990000D01*
X124540000Y-61230000D01*
%TO.C,SW1*%
D14*
X152007400Y-58900000D02*
G75*
G02*
X150687400Y-58900000I-660000J0D01*
G01*
X150687400Y-58900000D02*
G75*
G02*
X152007400Y-58900000I660000J0D01*
G01*
%TD*%
M02*
