%TF.GenerationSoftware,KiCad,Pcbnew,10.0.3*%
%TF.CreationDate,2026-06-20T17:42:38+04:00*%
%TF.ProjectId,Resistor_board,52657369-7374-46f7-925f-626f6172642e,rev?*%
%TF.SameCoordinates,Original*%
%TF.FileFunction,Copper,L1,Top*%
%TF.FilePolarity,Positive*%
%FSLAX46Y46*%
G04 Gerber Fmt 4.6, Leading zero omitted, Abs format (unit mm)*
G04 Created by KiCad (PCBNEW 10.0.3) date 2026-06-20 17:42:38*
%MOMM*%
%LPD*%
G01*
G04 APERTURE LIST*
%TA.AperFunction,ComponentPad*%
%ADD10C,1.530000*%
%TD*%
%TA.AperFunction,ComponentPad*%
%ADD11R,1.700000X1.700000*%
%TD*%
%TA.AperFunction,ComponentPad*%
%ADD12C,1.700000*%
%TD*%
%TA.AperFunction,ComponentPad*%
%ADD13C,1.701800*%
%TD*%
%TA.AperFunction,Conductor*%
%ADD14C,0.200000*%
%TD*%
G04 APERTURE END LIST*
D10*
%TO.P,TP3,TP*%
%TO.N,/BurnWireIN*%
X114590000Y-52750000D03*
%TD*%
%TO.P,TP4,TP*%
%TO.N,/GND*%
X114590000Y-62750000D03*
%TD*%
%TO.P,TP1,TP*%
%TO.N,/BurnWireIN*%
X120290000Y-52750000D03*
%TD*%
%TO.P,TP2,TP*%
%TO.N,/GND*%
X120290000Y-62850000D03*
%TD*%
D11*
%TO.P,J1,1,Pin_1*%
%TO.N,/DeployerDetectionSWOUT*%
X131000000Y-57300000D03*
D12*
%TO.P,J1,2,Pin_2*%
%TO.N,/DeployerDetectionSWIN*%
X131000000Y-59840000D03*
%TO.P,J1,3,Pin_3*%
%TO.N,/BurnWireIN*%
X128460000Y-57300000D03*
%TO.P,J1,4,Pin_4*%
%TO.N,/GND*%
X128460000Y-59840000D03*
%TO.P,J1,5,Pin_5*%
%TO.N,/BurnWireIN*%
X125920000Y-57300000D03*
%TO.P,J1,6,Pin_6*%
%TO.N,/GND*%
X125920000Y-59840000D03*
%TD*%
D13*
%TO.P,SW1,1,B*%
%TO.N,/DeployerDetectionSWOUT*%
X147537400Y-58900000D03*
%TO.P,SW1,2,C*%
%TO.N,unconnected-(SW1-C-Pad2)*%
X142457400Y-58900000D03*
%TO.P,SW1,3,A*%
%TO.N,/DeployerDetectionSWIN*%
X137377400Y-58900000D03*
%TD*%
%TO.N,/DeployerDetectionSWOUT*%
D14*
X131000000Y-57300000D02*
X145900000Y-57300000D01*
X145900000Y-57300000D02*
X147500000Y-58900000D01*
%TO.N,/DeployerDetectionSWIN*%
X131940000Y-58900000D02*
X137340000Y-58900000D01*
X137230000Y-59000000D02*
X137490000Y-58740000D01*
X131000000Y-59840000D02*
X131940000Y-58900000D01*
%TD*%
%TA.AperFunction,Conductor*%
%TO.N,/DeployerDetectionSWIN*%
G36*
X132303120Y-58803427D02*
G01*
X132306547Y-58811700D01*
X132306547Y-58987084D01*
X132303120Y-58995357D01*
X132294847Y-58998784D01*
X132293694Y-58998727D01*
X132010711Y-58970711D01*
X131847752Y-59912649D01*
X131842965Y-59920216D01*
X131835130Y-59922303D01*
X131006049Y-59844506D01*
X130998132Y-59840321D01*
X130995493Y-59833950D01*
X130917696Y-59004869D01*
X130920335Y-58996312D01*
X130927347Y-58992248D01*
X131869289Y-58829289D01*
X131937849Y-58800891D01*
X131942326Y-58800000D01*
X132294847Y-58800000D01*
X132303120Y-58803427D01*
G37*
%TD.AperFunction*%
%TD*%
%TA.AperFunction,Conductor*%
%TO.N,/DeployerDetectionSWOUT*%
G36*
X131856239Y-56456511D02*
G01*
X131859837Y-56458680D01*
X132694296Y-57194967D01*
X132697062Y-57198593D01*
X132698809Y-57202163D01*
X132700000Y-57207305D01*
X132700000Y-57392392D01*
X132699109Y-57396871D01*
X132697589Y-57400539D01*
X132694521Y-57404833D01*
X131859981Y-58141191D01*
X131856033Y-58143486D01*
X131854145Y-58144133D01*
X131845545Y-58143732D01*
X131844176Y-58143115D01*
X131840715Y-58140726D01*
X131008933Y-57309921D01*
X131006395Y-57306129D01*
X131005710Y-57304480D01*
X131005708Y-57300014D01*
X131005705Y-57295532D01*
X131006386Y-57293885D01*
X131008925Y-57290085D01*
X131840586Y-56459401D01*
X131844373Y-56456873D01*
X131846223Y-56456108D01*
X131854834Y-56455979D01*
X131856239Y-56456511D01*
G37*
%TD.AperFunction*%
%TD*%
%TA.AperFunction,Conductor*%
%TO.N,/BurnWireIN*%
G36*
X126518671Y-57546358D02*
G01*
X126529702Y-57556149D01*
X127035269Y-58061717D01*
X127035269Y-58061716D01*
X127035270Y-58061717D01*
X127035270Y-58061716D01*
X127043893Y-58058144D01*
X127053698Y-58039247D01*
X127054955Y-58034967D01*
X127057952Y-58030517D01*
X127058423Y-58029848D01*
X127074622Y-58007554D01*
X127075837Y-58005169D01*
X127080016Y-57999247D01*
X127081845Y-57997795D01*
X127091172Y-57985609D01*
X127100648Y-57975575D01*
X127160984Y-57940355D01*
X127230790Y-57943345D01*
X127284507Y-57979514D01*
X127290577Y-57986519D01*
X127302207Y-58003770D01*
X127302826Y-58003391D01*
X127305373Y-58007548D01*
X127344727Y-58061715D01*
X127344728Y-58061716D01*
X127850297Y-57556147D01*
X127911619Y-57522663D01*
X127981311Y-57527647D01*
X128037244Y-57569519D01*
X128045363Y-57581828D01*
X128059896Y-57607000D01*
X128059899Y-57607004D01*
X128059901Y-57607007D01*
X128152993Y-57700099D01*
X128178169Y-57714634D01*
X128226384Y-57765202D01*
X128239606Y-57833809D01*
X128213638Y-57898673D01*
X128203849Y-57909702D01*
X127698281Y-58415268D01*
X127700896Y-58448498D01*
X127700897Y-58448499D01*
X127698631Y-58483720D01*
X127695512Y-58498568D01*
X127662466Y-58560129D01*
X127605262Y-58593113D01*
X127593981Y-58596036D01*
X127562879Y-58600000D01*
X126819151Y-58600000D01*
X126784209Y-58594975D01*
X126769646Y-58590698D01*
X126756296Y-58582117D01*
X126740934Y-58578138D01*
X126727508Y-58563614D01*
X126710870Y-58552920D01*
X126703695Y-58537853D01*
X126693506Y-58526831D01*
X126682481Y-58493308D01*
X126680451Y-58481822D01*
X126678942Y-58450521D01*
X126681716Y-58415269D01*
X126681714Y-58415267D01*
X126681714Y-58415266D01*
X126176149Y-57909702D01*
X126142664Y-57848379D01*
X126147648Y-57778688D01*
X126189519Y-57722754D01*
X126201822Y-57714639D01*
X126227007Y-57700099D01*
X126320099Y-57607007D01*
X126334634Y-57581830D01*
X126385199Y-57533616D01*
X126453805Y-57520391D01*
X126518671Y-57546358D01*
G37*
%TD.AperFunction*%
%TA.AperFunction,Conductor*%
G36*
X129058671Y-57546358D02*
G01*
X129069701Y-57556148D01*
X129600574Y-58087021D01*
X129621723Y-58115272D01*
X129634331Y-58138361D01*
X129648807Y-58195076D01*
X129649372Y-58195051D01*
X129649495Y-58197772D01*
X129649500Y-58197790D01*
X129649500Y-58197863D01*
X129649503Y-58197899D01*
X129655907Y-58257482D01*
X129655908Y-58257484D01*
X129706201Y-58392327D01*
X129706204Y-58392333D01*
X129708678Y-58396340D01*
X129719345Y-58418141D01*
X129723874Y-58430283D01*
X129728860Y-58499975D01*
X129695376Y-58561299D01*
X129638364Y-58593766D01*
X129629037Y-58596147D01*
X129598366Y-58600000D01*
X129359151Y-58600000D01*
X129324209Y-58594975D01*
X129309646Y-58590698D01*
X129296296Y-58582117D01*
X129280934Y-58578138D01*
X129267508Y-58563614D01*
X129250870Y-58552920D01*
X129243695Y-58537853D01*
X129233506Y-58526831D01*
X129222481Y-58493308D01*
X129220451Y-58481822D01*
X129218942Y-58450521D01*
X129221716Y-58415269D01*
X129221714Y-58415267D01*
X129221714Y-58415266D01*
X128716149Y-57909702D01*
X128682664Y-57848379D01*
X128687648Y-57778688D01*
X128729519Y-57722754D01*
X128741822Y-57714639D01*
X128767007Y-57700099D01*
X128860099Y-57607007D01*
X128874634Y-57581830D01*
X128925199Y-57533616D01*
X128993805Y-57520391D01*
X129058671Y-57546358D01*
G37*
%TD.AperFunction*%
%TA.AperFunction,Conductor*%
G36*
X127171150Y-51941962D02*
G01*
X127188584Y-51947077D01*
X127202592Y-51955705D01*
X127216686Y-51959267D01*
X127244221Y-51981347D01*
X127247267Y-51984604D01*
X127252086Y-51989755D01*
X127270101Y-52014561D01*
X128044557Y-53418261D01*
X129628728Y-56289571D01*
X129641205Y-56322581D01*
X129641226Y-56322675D01*
X129643889Y-56329738D01*
X129645537Y-56342040D01*
X129649599Y-56349900D01*
X129650982Y-56382682D01*
X129651313Y-56385152D01*
X129651229Y-56386030D01*
X129649500Y-56402127D01*
X129649500Y-56404338D01*
X129648987Y-56409767D01*
X129647606Y-56413225D01*
X129641843Y-56441102D01*
X129638506Y-56450125D01*
X129637062Y-56455045D01*
X129605769Y-56507782D01*
X129069702Y-57043849D01*
X129008379Y-57077334D01*
X128938687Y-57072350D01*
X128882754Y-57030478D01*
X128874634Y-57018169D01*
X128860099Y-56992993D01*
X128767007Y-56899901D01*
X128767004Y-56899899D01*
X128767000Y-56899896D01*
X128741828Y-56885363D01*
X128693613Y-56834796D01*
X128680391Y-56766189D01*
X128706359Y-56701324D01*
X128716135Y-56690310D01*
X129221716Y-56184728D01*
X129167550Y-56145375D01*
X129160189Y-56141624D01*
X128978214Y-56048902D01*
X128776130Y-55983242D01*
X128566251Y-55950000D01*
X128566246Y-55950000D01*
X128353754Y-55950000D01*
X128353749Y-55950000D01*
X128153513Y-55981715D01*
X128153505Y-55981715D01*
X128153506Y-55981716D01*
X128143865Y-55983242D01*
X127941784Y-56048903D01*
X127752438Y-56145380D01*
X127698282Y-56184727D01*
X127698282Y-56184728D01*
X128203850Y-56690296D01*
X128237335Y-56751619D01*
X128232351Y-56821311D01*
X128190479Y-56877244D01*
X128178173Y-56885362D01*
X128152996Y-56899898D01*
X128152990Y-56899903D01*
X128059903Y-56992990D01*
X128059898Y-56992996D01*
X128045362Y-57018173D01*
X127994793Y-57066387D01*
X127926185Y-57079607D01*
X127861322Y-57053637D01*
X127850296Y-57043850D01*
X127344728Y-56538282D01*
X127344727Y-56538282D01*
X127305376Y-56592443D01*
X127304386Y-56594060D01*
X127288810Y-56614408D01*
X127279350Y-56624424D01*
X127219007Y-56659646D01*
X127149201Y-56656652D01*
X127095492Y-56620486D01*
X127089415Y-56613472D01*
X127077814Y-56596216D01*
X127077174Y-56596609D01*
X127074630Y-56592458D01*
X127074616Y-56592439D01*
X127035270Y-56538282D01*
X127035268Y-56538282D01*
X126529702Y-57043849D01*
X126468379Y-57077334D01*
X126398687Y-57072350D01*
X126342754Y-57030478D01*
X126334634Y-57018169D01*
X126320099Y-56992993D01*
X126227007Y-56899901D01*
X126227004Y-56899899D01*
X126227000Y-56899896D01*
X126201828Y-56885363D01*
X126153613Y-56834796D01*
X126140391Y-56766189D01*
X126166359Y-56701324D01*
X126176135Y-56690310D01*
X126681716Y-56184728D01*
X126627550Y-56145375D01*
X126620189Y-56141624D01*
X126438214Y-56048902D01*
X126236130Y-55983242D01*
X126026251Y-55950000D01*
X126026246Y-55950000D01*
X125813754Y-55950000D01*
X125813749Y-55950000D01*
X125613513Y-55981715D01*
X125613505Y-55981715D01*
X125613506Y-55981716D01*
X125603865Y-55983242D01*
X125401784Y-56048903D01*
X125212438Y-56145380D01*
X125158282Y-56184727D01*
X125158282Y-56184728D01*
X125663850Y-56690296D01*
X125697335Y-56751619D01*
X125692351Y-56821311D01*
X125650479Y-56877244D01*
X125638173Y-56885362D01*
X125612996Y-56899898D01*
X125612990Y-56899903D01*
X125519903Y-56992990D01*
X125519898Y-56992996D01*
X125505362Y-57018173D01*
X125454793Y-57066387D01*
X125386185Y-57079607D01*
X125321322Y-57053637D01*
X125310296Y-57043850D01*
X124804728Y-56538282D01*
X124804727Y-56538282D01*
X124765380Y-56592438D01*
X124668903Y-56781784D01*
X124603242Y-56983865D01*
X124601798Y-56992990D01*
X124570000Y-57193753D01*
X124570000Y-57406246D01*
X124595860Y-57569519D01*
X124601715Y-57606485D01*
X124601716Y-57606493D01*
X124603242Y-57616131D01*
X124635248Y-57714634D01*
X124668904Y-57818217D01*
X124765375Y-58007550D01*
X124804728Y-58061716D01*
X125310297Y-57556147D01*
X125371619Y-57522663D01*
X125441311Y-57527647D01*
X125497244Y-57569519D01*
X125505363Y-57581828D01*
X125519896Y-57607000D01*
X125519899Y-57607004D01*
X125519901Y-57607007D01*
X125612993Y-57700099D01*
X125638169Y-57714634D01*
X125686384Y-57765202D01*
X125699606Y-57833809D01*
X125673638Y-57898673D01*
X125663849Y-57909702D01*
X125149690Y-58423859D01*
X125133181Y-58432873D01*
X125119663Y-58445960D01*
X125103148Y-58449272D01*
X125088367Y-58457344D01*
X125069602Y-58456002D01*
X125051158Y-58459702D01*
X125025450Y-58452844D01*
X125018675Y-58452360D01*
X125016796Y-58451641D01*
X125013292Y-58450269D01*
X124923274Y-58408575D01*
X124856345Y-58388533D01*
X124856342Y-58388532D01*
X124714038Y-58367294D01*
X124714034Y-58367293D01*
X124714028Y-58367293D01*
X124194947Y-58364516D01*
X124128013Y-58344473D01*
X124082542Y-58291425D01*
X124071610Y-58240518D01*
X124071610Y-58192747D01*
X124043056Y-58012469D01*
X124041529Y-58002829D01*
X124041528Y-58002825D01*
X124041528Y-58002824D01*
X123982111Y-57819957D01*
X123982110Y-57819954D01*
X123897324Y-57653554D01*
X123894814Y-57648627D01*
X123894808Y-57648619D01*
X123871205Y-57616131D01*
X123837339Y-57569519D01*
X123781797Y-57493071D01*
X123781793Y-57493066D01*
X123781789Y-57493062D01*
X123781787Y-57493059D01*
X123645831Y-57357103D01*
X123645823Y-57357096D01*
X123645818Y-57357092D01*
X123552371Y-57289199D01*
X123552370Y-57289198D01*
X123552370Y-57289197D01*
X123500855Y-57251771D01*
X123500852Y-57251769D01*
X123490266Y-57244078D01*
X123490265Y-57244077D01*
X123490263Y-57244076D01*
X123484188Y-57240980D01*
X123484184Y-57240978D01*
X123435373Y-57216108D01*
X123318935Y-57156779D01*
X123318932Y-57156778D01*
X123318931Y-57156777D01*
X123318928Y-57156776D01*
X123318904Y-57156768D01*
X123136064Y-57097361D01*
X123009449Y-57077307D01*
X122946143Y-57067280D01*
X122946142Y-57067280D01*
X122753858Y-57067280D01*
X122753857Y-57067280D01*
X122690551Y-57077307D01*
X122573578Y-57095834D01*
X122573570Y-57095834D01*
X122573571Y-57095835D01*
X122563930Y-57097361D01*
X122381094Y-57156768D01*
X122381070Y-57156776D01*
X122209729Y-57244080D01*
X122054198Y-57357079D01*
X122054169Y-57357101D01*
X121918211Y-57493059D01*
X121918189Y-57493088D01*
X121805190Y-57648619D01*
X121717886Y-57819960D01*
X121717878Y-57819984D01*
X121658471Y-58002820D01*
X121656945Y-58012461D01*
X121656944Y-58012469D01*
X121651784Y-58045048D01*
X121628390Y-58192748D01*
X121628390Y-58226127D01*
X121608705Y-58293166D01*
X121555901Y-58338921D01*
X121503727Y-58350125D01*
X114362639Y-58311938D01*
X114295706Y-58291895D01*
X114275621Y-58275621D01*
X111248926Y-55248926D01*
X111248921Y-55248921D01*
X111227774Y-55220670D01*
X111215167Y-55197581D01*
X111200000Y-55138156D01*
X111200000Y-52082043D01*
X111205023Y-52047107D01*
X111209427Y-52032109D01*
X111247180Y-51973351D01*
X111248555Y-51972159D01*
X111303406Y-51944690D01*
X111310952Y-51943047D01*
X111337294Y-51940211D01*
X113362891Y-51939792D01*
X113397818Y-51944809D01*
X113407122Y-51947539D01*
X113411136Y-51948717D01*
X113469919Y-51986483D01*
X113498951Y-52050017D01*
X113499426Y-52053314D01*
X113494899Y-52108456D01*
X113494301Y-52110343D01*
X113486580Y-52129177D01*
X113417684Y-52264396D01*
X113417679Y-52264405D01*
X113356147Y-52453777D01*
X113356146Y-52453780D01*
X113356146Y-52453782D01*
X113325000Y-52650430D01*
X113325000Y-52849568D01*
X113349409Y-53003680D01*
X113356147Y-53046222D01*
X113417679Y-53235594D01*
X113508077Y-53413008D01*
X113511894Y-53418262D01*
X113521438Y-53445006D01*
X113535579Y-53450863D01*
X113535579Y-53450862D01*
X113535580Y-53450863D01*
X113535580Y-53450864D01*
X113972977Y-53013465D01*
X114034297Y-52979983D01*
X114103988Y-52984967D01*
X114159922Y-53026838D01*
X114168041Y-53039147D01*
X114172123Y-53046216D01*
X114181898Y-53063147D01*
X114276853Y-53158102D01*
X114300847Y-53171955D01*
X114349063Y-53222522D01*
X114362285Y-53291129D01*
X114336317Y-53355994D01*
X114326528Y-53367023D01*
X113889133Y-53804416D01*
X113889134Y-53804416D01*
X113889134Y-53804417D01*
X113926994Y-53831924D01*
X114104405Y-53922320D01*
X114293777Y-53983852D01*
X114490437Y-54015000D01*
X114689562Y-54015000D01*
X114689563Y-54015000D01*
X114886222Y-53983852D01*
X115075594Y-53922320D01*
X115253005Y-53831924D01*
X115290863Y-53804418D01*
X115290863Y-53804417D01*
X114853469Y-53367023D01*
X114819985Y-53305701D01*
X114824969Y-53236009D01*
X114866841Y-53180076D01*
X114879151Y-53171956D01*
X114879153Y-53171955D01*
X114903147Y-53158102D01*
X114998102Y-53063147D01*
X115011956Y-53039150D01*
X115062523Y-52990935D01*
X115131130Y-52977712D01*
X115195995Y-53003680D01*
X115207024Y-53013470D01*
X115644417Y-53450863D01*
X115644418Y-53450863D01*
X115671924Y-53413005D01*
X115762320Y-53235594D01*
X115823852Y-53046222D01*
X115855000Y-52849563D01*
X115855000Y-52650436D01*
X115823852Y-52453777D01*
X115762320Y-52264405D01*
X115762318Y-52264402D01*
X115762318Y-52264400D01*
X115696624Y-52135470D01*
X115685240Y-52102064D01*
X115682678Y-52088423D01*
X115689649Y-52018902D01*
X115694894Y-52012297D01*
X115733094Y-51964191D01*
X115735833Y-51962259D01*
X115786985Y-51941278D01*
X115788926Y-51940956D01*
X115809169Y-51939286D01*
X119063491Y-51938614D01*
X119098418Y-51943631D01*
X119106209Y-51945917D01*
X119111736Y-51947539D01*
X119170519Y-51985305D01*
X119199551Y-52048839D01*
X119200026Y-52052136D01*
X119195499Y-52107278D01*
X119194901Y-52109165D01*
X119187180Y-52127999D01*
X119117681Y-52264397D01*
X119087547Y-52357138D01*
X119056147Y-52453777D01*
X119056146Y-52453780D01*
X119056146Y-52453782D01*
X119025000Y-52650430D01*
X119025000Y-52849568D01*
X119049409Y-53003680D01*
X119056147Y-53046222D01*
X119117679Y-53235594D01*
X119208077Y-53413008D01*
X119211894Y-53418262D01*
X119221438Y-53445006D01*
X119235579Y-53450863D01*
X119235579Y-53450862D01*
X119235580Y-53450863D01*
X119235580Y-53450864D01*
X119672977Y-53013465D01*
X119734297Y-52979983D01*
X119803988Y-52984967D01*
X119859922Y-53026838D01*
X119868041Y-53039147D01*
X119872123Y-53046216D01*
X119881898Y-53063147D01*
X119976853Y-53158102D01*
X120000847Y-53171955D01*
X120049063Y-53222522D01*
X120062285Y-53291129D01*
X120036317Y-53355994D01*
X120026528Y-53367023D01*
X119589133Y-53804416D01*
X119589134Y-53804416D01*
X119589134Y-53804417D01*
X119626994Y-53831924D01*
X119804405Y-53922320D01*
X119993777Y-53983852D01*
X120190437Y-54015000D01*
X120389562Y-54015000D01*
X120389563Y-54015000D01*
X120586222Y-53983852D01*
X120775594Y-53922320D01*
X120953005Y-53831924D01*
X120990863Y-53804418D01*
X120990863Y-53804417D01*
X120553469Y-53367023D01*
X120519985Y-53305701D01*
X120524969Y-53236009D01*
X120566841Y-53180076D01*
X120579151Y-53171956D01*
X120579153Y-53171955D01*
X120603147Y-53158102D01*
X120698102Y-53063147D01*
X120711956Y-53039150D01*
X120762523Y-52990935D01*
X120831130Y-52977712D01*
X120895995Y-53003680D01*
X120907024Y-53013470D01*
X121344417Y-53450863D01*
X121344418Y-53450863D01*
X121371924Y-53413005D01*
X121462320Y-53235594D01*
X121523852Y-53046222D01*
X121555000Y-52849563D01*
X121555000Y-52650436D01*
X121523852Y-52453777D01*
X121462320Y-52264403D01*
X121462317Y-52264397D01*
X121462317Y-52264396D01*
X121396024Y-52134292D01*
X121384639Y-52100887D01*
X121382077Y-52087244D01*
X121389048Y-52017726D01*
X121393359Y-52012297D01*
X121432493Y-51963013D01*
X121435232Y-51961081D01*
X121486385Y-51940100D01*
X121488323Y-51939779D01*
X121508568Y-51938108D01*
X127136219Y-51936946D01*
X127171150Y-51941962D01*
G37*
%TD.AperFunction*%
%TD*%
%TA.AperFunction,Conductor*%
%TO.N,/GND*%
G36*
X121692918Y-58856645D02*
G01*
X121759848Y-58876688D01*
X121802733Y-58924340D01*
X121805187Y-58929155D01*
X121918202Y-59084708D01*
X121918206Y-59084713D01*
X122054176Y-59220683D01*
X122054181Y-59220687D01*
X122189862Y-59319264D01*
X122209737Y-59333704D01*
X122321735Y-59390770D01*
X122381064Y-59421000D01*
X122381067Y-59421001D01*
X122551637Y-59476422D01*
X122563939Y-59480419D01*
X122753857Y-59510500D01*
X122753858Y-59510500D01*
X122946142Y-59510500D01*
X122946143Y-59510500D01*
X123136061Y-59480419D01*
X123136064Y-59480418D01*
X123136065Y-59480418D01*
X123318932Y-59421001D01*
X123318935Y-59421000D01*
X123490263Y-59333704D01*
X123645825Y-59220682D01*
X123781792Y-59084715D01*
X123894814Y-58929153D01*
X123894819Y-58929144D01*
X123895398Y-58928200D01*
X123895711Y-58927916D01*
X123897677Y-58925211D01*
X123898245Y-58925623D01*
X123947210Y-58881324D01*
X124001784Y-58868992D01*
X124711334Y-58872787D01*
X124778263Y-58892829D01*
X124823735Y-58945876D01*
X124833309Y-59015087D01*
X124810986Y-59069668D01*
X124765378Y-59132443D01*
X124668904Y-59321782D01*
X124603242Y-59523869D01*
X124603242Y-59523872D01*
X124570000Y-59733753D01*
X124570000Y-59946246D01*
X124603242Y-60156127D01*
X124603242Y-60156130D01*
X124668904Y-60358217D01*
X124765375Y-60547550D01*
X124804728Y-60601716D01*
X125437036Y-59969407D01*
X125454075Y-60032993D01*
X125519901Y-60147007D01*
X125612993Y-60240099D01*
X125727007Y-60305925D01*
X125790590Y-60322962D01*
X125158282Y-60955269D01*
X125158282Y-60955270D01*
X125212449Y-60994624D01*
X125401782Y-61091095D01*
X125603870Y-61156757D01*
X125813754Y-61190000D01*
X126026246Y-61190000D01*
X126236127Y-61156757D01*
X126236130Y-61156757D01*
X126438217Y-61091095D01*
X126627554Y-60994622D01*
X126681716Y-60955270D01*
X126681717Y-60955270D01*
X126049408Y-60322962D01*
X126112993Y-60305925D01*
X126227007Y-60240099D01*
X126320099Y-60147007D01*
X126385925Y-60032993D01*
X126402962Y-59969409D01*
X127035270Y-60601717D01*
X127035270Y-60601716D01*
X127074622Y-60547554D01*
X127079514Y-60537954D01*
X127127488Y-60487157D01*
X127195308Y-60470361D01*
X127261444Y-60492897D01*
X127300486Y-60537954D01*
X127305375Y-60547550D01*
X127344728Y-60601716D01*
X127977036Y-59969407D01*
X127994075Y-60032993D01*
X128059901Y-60147007D01*
X128152993Y-60240099D01*
X128267007Y-60305925D01*
X128330590Y-60322962D01*
X127698282Y-60955269D01*
X127698282Y-60955270D01*
X127752449Y-60994624D01*
X127941782Y-61091095D01*
X128143870Y-61156757D01*
X128353754Y-61190000D01*
X128566246Y-61190000D01*
X128776127Y-61156757D01*
X128776130Y-61156757D01*
X128978217Y-61091095D01*
X129167554Y-60994622D01*
X129221716Y-60955270D01*
X129221717Y-60955270D01*
X128589408Y-60322962D01*
X128652993Y-60305925D01*
X128767007Y-60240099D01*
X128860099Y-60147007D01*
X128925925Y-60032993D01*
X128942962Y-59969409D01*
X129575270Y-60601717D01*
X129575270Y-60601716D01*
X129575682Y-60601151D01*
X129631012Y-60558486D01*
X129700626Y-60552507D01*
X129762421Y-60585113D01*
X129796778Y-60645952D01*
X129800000Y-60674037D01*
X129800000Y-62854791D01*
X129780315Y-62921830D01*
X129727511Y-62967585D01*
X129696197Y-62977135D01*
X125811494Y-63618420D01*
X125027482Y-63747844D01*
X125007287Y-63749500D01*
X121443465Y-63749500D01*
X121376426Y-63729815D01*
X121330671Y-63677011D01*
X121320727Y-63607853D01*
X121343147Y-63552614D01*
X121371924Y-63513005D01*
X121462320Y-63335594D01*
X121523852Y-63146222D01*
X121555000Y-62949563D01*
X121555000Y-62750436D01*
X121523852Y-62553777D01*
X121462320Y-62364405D01*
X121371924Y-62186994D01*
X121344417Y-62149135D01*
X121344417Y-62149134D01*
X120781127Y-62712423D01*
X120765245Y-62653147D01*
X120698102Y-62536853D01*
X120603147Y-62441898D01*
X120486853Y-62374755D01*
X120427574Y-62358871D01*
X120990864Y-61795581D01*
X120990863Y-61795580D01*
X120953008Y-61768077D01*
X120775594Y-61677679D01*
X120586222Y-61616147D01*
X120389563Y-61585000D01*
X120190437Y-61585000D01*
X119993777Y-61616147D01*
X119804405Y-61677679D01*
X119626990Y-61768077D01*
X119589135Y-61795580D01*
X119589135Y-61795581D01*
X120152425Y-62358871D01*
X120093147Y-62374755D01*
X119976853Y-62441898D01*
X119881898Y-62536853D01*
X119814755Y-62653147D01*
X119798871Y-62712425D01*
X119235581Y-62149135D01*
X119235580Y-62149135D01*
X119208077Y-62186990D01*
X119117679Y-62364405D01*
X119056147Y-62553777D01*
X119025000Y-62750436D01*
X119025000Y-62949563D01*
X119056147Y-63146222D01*
X119117679Y-63335594D01*
X119208075Y-63513005D01*
X119236853Y-63552614D01*
X119260333Y-63618420D01*
X119244508Y-63686474D01*
X119194402Y-63735169D01*
X119136535Y-63749500D01*
X115670810Y-63749500D01*
X115603771Y-63729815D01*
X115558016Y-63677011D01*
X115548072Y-63607853D01*
X115570492Y-63552614D01*
X115671924Y-63413005D01*
X115762320Y-63235594D01*
X115823852Y-63046222D01*
X115855000Y-62849563D01*
X115855000Y-62650436D01*
X115823852Y-62453777D01*
X115762320Y-62264405D01*
X115671924Y-62086994D01*
X115644417Y-62049135D01*
X115644417Y-62049134D01*
X115081127Y-62612423D01*
X115065245Y-62553147D01*
X114998102Y-62436853D01*
X114903147Y-62341898D01*
X114786853Y-62274755D01*
X114727574Y-62258871D01*
X115231286Y-61755159D01*
X115290864Y-61695580D01*
X115253008Y-61668077D01*
X115075594Y-61577679D01*
X114886222Y-61516147D01*
X114689563Y-61485000D01*
X114490437Y-61485000D01*
X114293777Y-61516147D01*
X114104405Y-61577679D01*
X113926990Y-61668077D01*
X113889135Y-61695580D01*
X113889135Y-61695581D01*
X114452425Y-62258871D01*
X114393147Y-62274755D01*
X114276853Y-62341898D01*
X114181898Y-62436853D01*
X114114755Y-62553147D01*
X114098871Y-62612425D01*
X113535581Y-62049135D01*
X113535580Y-62049135D01*
X113508077Y-62086990D01*
X113417679Y-62264405D01*
X113356147Y-62453777D01*
X113325000Y-62650436D01*
X113325000Y-62849563D01*
X113356147Y-63046222D01*
X113417679Y-63235594D01*
X113508075Y-63413005D01*
X113609508Y-63552614D01*
X113632988Y-63618420D01*
X113617163Y-63686474D01*
X113567057Y-63735169D01*
X113509190Y-63749500D01*
X111224000Y-63749500D01*
X111156961Y-63729815D01*
X111111206Y-63677011D01*
X111100000Y-63625500D01*
X111100000Y-59614050D01*
X111119685Y-59547011D01*
X111172489Y-59501256D01*
X111241647Y-59491312D01*
X111262316Y-59496118D01*
X111295009Y-59506741D01*
X111343938Y-59522639D01*
X111438898Y-59537679D01*
X111533857Y-59552720D01*
X111533858Y-59552720D01*
X111726142Y-59552720D01*
X111726143Y-59552720D01*
X111916061Y-59522639D01*
X111916064Y-59522638D01*
X111916065Y-59522638D01*
X112098932Y-59463221D01*
X112098935Y-59463220D01*
X112270263Y-59375924D01*
X112425825Y-59262902D01*
X112561792Y-59126935D01*
X112674814Y-58971373D01*
X112722913Y-58876972D01*
X112770885Y-58826179D01*
X112834053Y-58809272D01*
X121692918Y-58856645D01*
G37*
%TD.AperFunction*%
%TD*%
%TA.AperFunction,Conductor*%
%TO.N,/DeployerDetectionSWOUT*%
G36*
X146395717Y-57649657D02*
G01*
X146743191Y-57758772D01*
X147773248Y-58082236D01*
X147780114Y-58087984D01*
X147780907Y-58096896D01*
X147524199Y-58916254D01*
X147518455Y-58923124D01*
X147516201Y-58924019D01*
X146733716Y-59144029D01*
X146724824Y-59142970D01*
X146719507Y-59136633D01*
X146645047Y-58924019D01*
X146249963Y-57795892D01*
X146250462Y-57786953D01*
X146252729Y-57783757D01*
X146383940Y-57652546D01*
X146392212Y-57649120D01*
X146395717Y-57649657D01*
G37*
%TD.AperFunction*%
%TD*%
%TA.AperFunction,Conductor*%
%TO.N,/DeployerDetectionSWIN*%
G36*
X136981687Y-58159545D02*
G01*
X137379481Y-58894430D01*
X137380406Y-58903337D01*
X137379481Y-58905570D01*
X136981687Y-59640454D01*
X136974735Y-59646098D01*
X136966152Y-59645342D01*
X135686151Y-59003237D01*
X135680293Y-58996464D01*
X135679697Y-58992779D01*
X135679697Y-58807220D01*
X135683124Y-58798947D01*
X135686149Y-58796763D01*
X136966154Y-58154656D01*
X136975083Y-58154011D01*
X136981687Y-58159545D01*
G37*
%TD.AperFunction*%
%TD*%
M02*
