0
SECTION
2
HEADER
9
$INSUNITS
70
4
9
$ACADVER
1
AC1014
9
$HANDSEED
5
FFFF
0
ENDSEC
0
SECTION
2
TABLES
0
TABLE
2
VPORT
5
8
100
AcDbSymbolTable
0
ENDTAB
0
TABLE
2
LTYPE
5
5
100
AcDbSymbolTable
0
LTYPE
5
14
100
AcDbSymbolTableRecord
100
AcDbLinetypeTableRecord
2
BYBLOCK
70
0
0
LTYPE
5
15
100
AcDbSymbolTableRecord
100
AcDbLinetypeTableRecord
2
BYLAYER
70
0
0
LTYPE
5
16
100
AcDbSymbolTableRecord
100
AcDbLinetypeTableRecord
2
DASHED
70
0
3
Dashed __ __ __ __ __ __ __ __ __ __ __ __ __ _
72
65
73
2
40
0.75
49
0.5
74
0
49
-0.25
74
0
0
ENDTAB
0
TABLE
2
LAYER
5
2
100
AcDbSymbolTable
70
2
0
LAYER
5
50
100
AcDbSymbolTableRecord
100
AcDbLayerTableRecord
2
0
70
0
62
7
6
CONTINUOUS
0
ENDTAB
0
TABLE
2
STYLE
5
3
100
AcDbSymbolTable
70
1
0
STYLE
5
11
100
AcDbSymbolTableRecord
100
AcDbTextStyleTableRecord
2
STANDARD
70
0
0
ENDTAB
0
TABLE
2
VIEW
5
6
100
AcDbSymbolTable
70
0
0
ENDTAB
0
TABLE
2
UCS
5
7
100
AcDbSymbolTable
70
0
0
ENDTAB
0
TABLE
2
APPID
5
9
100
AcDbSymbolTable
70
2
0
APPID
5
12
100
AcDbSymbolTableRecord
100
AcDbRegAppTableRecord
2
ACAD
70
0
0
ENDTAB
0
TABLE
2
DIMSTYLE
5
A
100
AcDbSymbolTable
70
1
0
ENDTAB
0
TABLE
2
BLOCK_RECORD
5
1
100
AcDbSymbolTable
70
1
0
BLOCK_RECORD
5
1F
100
AcDbSymbolTableRecord
100
AcDbBlockTableRecord
2
*MODEL_SPACE
0
BLOCK_RECORD
5
1B
100
AcDbSymbolTableRecord
100
AcDbBlockTableRecord
2
*PAPER_SPACE
0
ENDTAB
0
ENDSEC
0
SECTION
2
BLOCKS
0
BLOCK
5
20
100
AcDbEntity
100
AcDbBlockBegin
2
*MODEL_SPACE
0
ENDBLK
5
21
100
AcDbEntity
100
AcDbBlockEnd
0
BLOCK
5
1C
100
AcDbEntity
100
AcDbBlockBegin
2
*PAPER_SPACE
0
ENDBLK
5
1D
100
AcDbEntity
100
AcDbBlockEnd
0
ENDSEC
0
SECTION
2
ENTITIES
0
CIRCLE
5
100
100
AcDbEntity
8
0
100
AcDbCircle
10
18.962381195330348
20
-93.808526550808494
30
0
40
1.0000000000000009
210
0
220
-0
230
1
0
CIRCLE
5
101
100
AcDbEntity
8
0
100
AcDbCircle
10
34.16238119533039
20
-65.691155037133285
30
0
40
1.0000000000000009
210
0
220
-0
230
1
0
LWPOLYLINE
5
102
100
AcDbEntity
8
0
100
AcDbPolyline
90
40
70
1
43
0.0
10
-18.237618804669605
20
-31.804840793970936
42
0.41421356237309664
10
-19.437618804669611
20
-33.004840793970935
10
-19.437618804669611
20
-68.414840793970939
42
0.41421356237309015
10
-18.237618804669612
20
-69.614840793970941
10
-17.717618804669495
20
-69.614840793970799
42
-0.41421356237306522
10
-16.517618804669493
20
-70.81484079397093
10
-16.517618804669624
20
-88.684840793970935
42
-0.41421356237306473
10
-17.717618804669492
20
-89.884840793970938
10
-18.237618804669612
20
-89.884840793970952
42
0.41421356237310103
10
-19.437618804669615
20
-91.08484079397094
10
-19.437618804669611
20
-126.49484079397095
42
0.41421356237309503
10
-18.237618804669616
20
-127.69484079397095
10
16.347381195330385
20
-127.69484079397094
42
0.41421356237310103
10
17.547381195330381
20
-126.49484079397095
10
17.547381195330406
20
-125.96484079397094
42
-0.41421356237309503
10
18.74738119533038
20
-124.76484079397096
10
36.667381195330371
20
-124.76484079397093
42
-0.41421356237309936
10
37.867381195330374
20
-125.96484079397095
10
37.867381195330367
20
-126.49484079397092
42
0.41421356237310153
10
39.067381195330377
20
-127.69484079397095
10
71.362381195330386
20
-127.69484079397094
42
0.41421356237310153
10
72.562381195330389
20
-126.49484079397097
10
72.562381195330389
20
-91.08484079397094
42
0.41421356237309287
10
71.362381195330386
20
-89.884840793970938
10
70.84238119533039
20
-89.884840793970952
42
-0.41421356237309503
10
69.642381195330373
20
-88.684840793970935
10
69.642381195330387
20
-70.814840793970959
42
-0.41421356237309725
10
70.84238119533039
20
-69.614840793970941
10
71.362381195330386
20
-69.614840793970941
42
0.41421356237309936
10
72.562381195330389
20
-68.414840793970953
10
72.562381195330374
20
-33.004840793970928
42
0.41421356237309825
10
71.362381195330386
20
-31.804840793970939
10
39.067381195330377
20
-31.804840793970932
42
0.41421356237309503
10
37.867381195330381
20
-33.004840793970935
10
37.867381195330381
20
-33.534840793970943
42
-0.41421356237309503
10
36.667381195330378
20
-34.734840793970946
10
18.74738119533038
20
-34.734840793970946
42
-0.41421356237309503
10
17.547381195330381
20
-33.534840793970943
10
17.547381195330381
20
-33.004840793970928
42
0.41421356237309237
10
16.347381195330382
20
-31.804840793970932
0
CIRCLE
5
103
100
AcDbEntity
8
0
100
AcDbCircle
10
9.7623811953303523
20
-72.83852655080851
30
0
40
1.5000000000000009
210
0
220
-0
230
1
0
CIRCLE
5
104
100
AcDbEntity
8
0
100
AcDbCircle
10
18.962381195330352
20
-72.83852655080851
30
0
40
1.5000000000000009
210
0
220
-0
230
1
0
CIRCLE
5
105
100
AcDbEntity
8
0
100
AcDbCircle
10
34.162381195330397
20
-86.661155037133256
30
0
40
1.5000000000000009
210
0
220
-0
230
1
0
CIRCLE
5
106
100
AcDbEntity
8
0
100
AcDbCircle
10
43.362381195330393
20
-86.661155037133227
30
0
40
1.4999999999999969
210
0
220
-0
230
1
0
CIRCLE
5
107
100
AcDbEntity
8
0
100
AcDbCircle
10
-13.637618804669653
20
-75.658526550808446
30
0
40
1.55000000000003
210
0
220
-0
230
1
0
CIRCLE
5
108
100
AcDbEntity
8
0
100
AcDbCircle
10
-5.0376188046696369
20
-75.658526550808489
30
0
40
1.7860010000000011
210
0
220
-0
230
1
0
CIRCLE
5
109
100
AcDbEntity
8
0
100
AcDbCircle
10
14.462381195330355
20
-109.65852655080849
30
0
40
1.7860010000000026
210
0
220
-0
230
1
0
CIRCLE
5
110
100
AcDbEntity
8
0
100
AcDbCircle
10
66.762381195330391
20
-83.841155037133262
30
0
40
1.4500000000000068
210
0
220
-0
230
1
0
CIRCLE
5
111
100
AcDbEntity
8
0
100
AcDbCircle
10
58.162381195330397
20
-83.841155037133262
30
0
40
1.7860009999999973
210
0
220
-0
230
1
0
CIRCLE
5
112
100
AcDbEntity
8
0
100
AcDbCircle
10
38.662381195330376
20
-49.841155037133262
30
0
40
1.7860010000000026
210
0
220
-0
230
1
0
CIRCLE
5
113
100
AcDbEntity
8
0
100
AcDbCircle
10
66.567381195330398
20
-122.61484079397093
30
0
40
1.5900000000000023
210
0
220
-0
230
1
0
CIRCLE
5
114
100
AcDbEntity
8
0
100
AcDbCircle
10
-13.442618804669625
20
-122.61484079397094
30
0
40
1.5899999999999981
210
0
220
-0
230
1
0
CIRCLE
5
115
100
AcDbEntity
8
0
100
AcDbCircle
10
-13.442618804669625
20
-36.88484079397093
30
0
40
1.5900000000000023
210
0
220
-0
230
1
0
CIRCLE
5
116
100
AcDbEntity
8
0
100
AcDbCircle
10
66.567381195330398
20
-36.88484079397093
30
0
40
1.5900000000000023
210
0
220
-0
230
1
0
CIRCLE
5
117
100
AcDbEntity
8
0
100
AcDbCircle
10
-5.4676188046696161
20
-36.88484079397093
30
0
40
0.50800000000000145
210
0
220
-0
230
1
0
CIRCLE
5
118
100
AcDbEntity
8
0
100
AcDbCircle
10
-2.9276188046696117
20
-36.88484079397093
30
0
40
0.50800000000000112
210
0
220
-0
230
1
0
CIRCLE
5
119
100
AcDbEntity
8
0
100
AcDbCircle
10
-0.38761880466961163
20
-36.88484079397093
30
0
40
0.50800000000000112
210
0
220
-0
230
1
0
CIRCLE
5
120
100
AcDbEntity
8
0
100
AcDbCircle
10
2.1523811953303884
20
-36.88484079397093
30
0
40
0.50800000000000112
210
0
220
-0
230
1
0
CIRCLE
5
121
100
AcDbEntity
8
0
100
AcDbCircle
10
4.6923811953303884
20
-36.88484079397093
30
0
40
0.50800000000000112
210
0
220
-0
230
1
0
LWPOLYLINE
5
122
100
AcDbEntity
8
0
100
AcDbPolyline
90
4
70
1
43
0.0
10
35.162381195330397
20
-72.649412606628871
10
35.16238119533039
20
-71.732897467637699
42
0.64174243050441782
10
33.162381195330397
20
-71.732897467637699
10
33.16238119533039
20
-72.649412606628871
42
0.64174243050440871
0
LWPOLYLINE
5
123
100
AcDbEntity
8
0
100
AcDbPolyline
90
4
70
1
43
0.0
10
17.962381195330341
20
-86.850268981312908
10
17.962381195330352
20
-87.766784120304081
42
0.64174243050441904
10
19.962381195330355
20
-87.766784120304081
10
19.962381195330348
20
-86.850268981312908
42
0.64174243050440938
0
LWPOLYLINE
5
124
100
AcDbEntity
8
0
100
AcDbPolyline
90
4
70
1
43
0.0
10
29.575000000000003
20
-52.580000000000254
10
29.575000000000003
20
-52.260000000000261
10
29.895000000000003
20
-52.260000000000261
10
29.895000000000003
20
-52.580000000000254
0
LWPOLYLINE
5
125
100
AcDbEntity
8
0
100
AcDbPolyline
90
4
70
1
43
0.0
10
29.575000000000003
20
-52.260000000000261
10
29.415000000000006
20
-52.100000000000257
10
30.055000000000007
20
-52.100000000000257
10
29.895000000000003
20
-52.260000000000261
0
LWPOLYLINE
5
126
100
AcDbEntity
8
0
100
AcDbPolyline
90
4
70
1
43
0.0
10
30.055000000000007
20
-52.740000000000258
10
29.895000000000003
20
-52.580000000000254
10
29.895000000000003
20
-52.260000000000261
10
30.055000000000007
20
-52.100000000000257
0
LWPOLYLINE
5
127
100
AcDbEntity
8
0
100
AcDbPolyline
90
4
70
1
43
0.0
10
29.415000000000006
20
-52.740000000000258
10
29.575000000000003
20
-52.580000000000254
10
29.895000000000003
20
-52.580000000000254
10
30.055000000000007
20
-52.740000000000258
0
LWPOLYLINE
5
128
100
AcDbEntity
8
0
100
AcDbPolyline
90
4
70
1
43
0.0
10
29.575000000000003
20
-52.580000000000254
10
29.415000000000006
20
-52.740000000000258
10
29.415000000000006
20
-52.100000000000257
10
29.575000000000003
20
-52.260000000000261
0
LWPOLYLINE
5
129
100
AcDbEntity
8
0
100
AcDbPolyline
90
4
70
1
43
0.0
10
27.035
20
-52.260000000000261
10
26.875
20
-52.100000000000257
10
27.515000000000001
20
-52.100000000000257
10
27.355
20
-52.260000000000261
0
LWPOLYLINE
5
130
100
AcDbEntity
8
0
100
AcDbPolyline
90
4
70
1
43
0.0
10
27.515000000000001
20
-52.740000000000258
10
27.355
20
-52.580000000000254
10
27.355
20
-52.260000000000261
10
27.515000000000001
20
-52.100000000000257
0
LWPOLYLINE
5
131
100
AcDbEntity
8
0
100
AcDbPolyline
90
4
70
1
43
0.0
10
27.035
20
-52.260000000000261
10
27.355
20
-52.260000000000261
10
27.355
20
-52.580000000000254
10
27.035
20
-52.580000000000254
0
LWPOLYLINE
5
132
100
AcDbEntity
8
0
100
AcDbPolyline
90
4
70
1
43
0.0
10
27.035
20
-52.580000000000254
10
26.875
20
-52.740000000000258
10
26.875
20
-52.100000000000257
10
27.035
20
-52.260000000000261
0
LINE
5
133
100
AcDbEntity
8
0
100
AcDbLine
10
27.035
20
-52.580000000000254
30
0
11
27.355
21
-52.580000000000254
31
0
0
LWPOLYLINE
5
134
100
AcDbEntity
8
0
100
AcDbPolyline
90
4
70
1
43
0.0
10
26.875
20
-52.740000000000258
10
27.035
20
-52.580000000000254
10
27.355
20
-52.580000000000254
10
27.515000000000001
20
-52.740000000000258
0
LWPOLYLINE
5
135
100
AcDbEntity
8
0
100
AcDbPolyline
90
4
70
1
43
0.0
10
27.035
20
-54.80000000000026
10
26.875
20
-54.640000000000263
10
27.515000000000001
20
-54.640000000000263
10
27.355
20
-54.80000000000026
0
LWPOLYLINE
5
136
100
AcDbEntity
8
0
100
AcDbPolyline
90
4
70
1
43
0.0
10
27.035
20
-54.80000000000026
10
27.355
20
-54.80000000000026
10
27.355
20
-55.12000000000026
10
27.035
20
-55.12000000000026
0
LWPOLYLINE
5
137
100
AcDbEntity
8
0
100
AcDbPolyline
90
4
70
1
43
0.0
10
27.515000000000001
20
-55.280000000000264
10
27.355
20
-55.12000000000026
10
27.355
20
-54.80000000000026
10
27.515000000000001
20
-54.640000000000263
0
LWPOLYLINE
5
138
100
AcDbEntity
8
0
100
AcDbPolyline
90
4
70
1
43
0.0
10
26.875
20
-55.280000000000264
10
27.035
20
-55.12000000000026
10
27.355
20
-55.12000000000026
10
27.515000000000001
20
-55.280000000000264
0
LWPOLYLINE
5
139
100
AcDbEntity
8
0
100
AcDbPolyline
90
4
70
1
43
0.0
10
27.035
20
-55.12000000000026
10
26.875
20
-55.280000000000264
10
26.875
20
-54.640000000000263
10
27.035
20
-54.80000000000026
0
LWPOLYLINE
5
140
100
AcDbEntity
8
0
100
AcDbPolyline
90
4
70
1
43
0.0
10
29.575000000000003
20
-54.80000000000026
10
29.415000000000006
20
-54.640000000000263
10
30.055000000000007
20
-54.640000000000263
10
29.895000000000003
20
-54.80000000000026
0
LWPOLYLINE
5
141
100
AcDbEntity
8
0
100
AcDbPolyline
90
4
70
1
43
0.0
10
29.575000000000003
20
-55.12000000000026
10
29.575000000000003
20
-54.80000000000026
10
29.895000000000003
20
-54.80000000000026
10
29.895000000000003
20
-55.12000000000026
0
LINE
5
142
100
AcDbEntity
8
0
100
AcDbLine
10
29.895000000000003
20
-55.12000000000026
30
0
11
29.895000000000003
21
-54.80000000000026
31
0
0
LWPOLYLINE
5
143
100
AcDbEntity
8
0
100
AcDbPolyline
90
4
70
1
43
0.0
10
30.055000000000007
20
-55.280000000000264
10
29.895000000000003
20
-55.12000000000026
10
29.895000000000003
20
-54.80000000000026
10
30.055000000000007
20
-54.640000000000263
0
LWPOLYLINE
5
144
100
AcDbEntity
8
0
100
AcDbPolyline
90
4
70
1
43
0.0
10
29.415000000000006
20
-55.280000000000264
10
29.575000000000003
20
-55.12000000000026
10
29.895000000000003
20
-55.12000000000026
10
30.055000000000007
20
-55.280000000000264
0
LWPOLYLINE
5
145
100
AcDbEntity
8
0
100
AcDbPolyline
90
4
70
1
43
0.0
10
29.575000000000003
20
-55.12000000000026
10
29.415000000000006
20
-55.280000000000264
10
29.415000000000006
20
-54.640000000000263
10
29.575000000000003
20
-54.80000000000026
0
LWPOLYLINE
5
146
100
AcDbEntity
8
0
100
AcDbPolyline
90
4
70
1
43
0.0
10
29.575000000000003
20
-57.340000000000266
10
29.415000000000006
20
-57.180000000000263
10
30.055000000000007
20
-57.180000000000263
10
29.895000000000003
20
-57.340000000000266
0
LWPOLYLINE
5
147
100
AcDbEntity
8
0
100
AcDbPolyline
90
4
70
1
43
0.0
10
29.575000000000003
20
-57.660000000000267
10
29.575000000000003
20
-57.340000000000266
10
29.895000000000003
20
-57.340000000000266
10
29.895000000000003
20
-57.660000000000267
0
LWPOLYLINE
5
148
100
AcDbEntity
8
0
100
AcDbPolyline
90
4
70
1
43
0.0
10
30.055000000000007
20
-57.820000000000263
10
29.895000000000003
20
-57.660000000000267
10
29.895000000000003
20
-57.340000000000266
10
30.055000000000007
20
-57.180000000000263
0
LWPOLYLINE
5
149
100
AcDbEntity
8
0
100
AcDbPolyline
90
4
70
1
43
0.0
10
29.415000000000006
20
-57.820000000000263
10
29.575000000000003
20
-57.660000000000267
10
29.895000000000003
20
-57.660000000000267
10
30.055000000000007
20
-57.820000000000263
0
LWPOLYLINE
5
150
100
AcDbEntity
8
0
100
AcDbPolyline
90
4
70
1
43
0.0
10
29.575000000000003
20
-57.660000000000267
10
29.415000000000006
20
-57.820000000000263
10
29.415000000000006
20
-57.180000000000263
10
29.575000000000003
20
-57.340000000000266
0
LWPOLYLINE
5
151
100
AcDbEntity
8
0
100
AcDbPolyline
90
4
70
1
43
0.0
10
27.515000000000001
20
-57.820000000000263
10
27.355
20
-57.660000000000267
10
27.355
20
-57.340000000000266
10
27.515000000000001
20
-57.180000000000263
0
LWPOLYLINE
5
152
100
AcDbEntity
8
0
100
AcDbPolyline
90
4
70
1
43
0.0
10
27.035
20
-57.340000000000266
10
26.875
20
-57.180000000000263
10
27.515000000000001
20
-57.180000000000263
10
27.355
20
-57.340000000000266
0
LWPOLYLINE
5
153
100
AcDbEntity
8
0
100
AcDbPolyline
90
4
70
1
43
0.0
10
27.035
20
-57.340000000000266
10
27.355
20
-57.340000000000266
10
27.355
20
-57.660000000000267
10
27.035
20
-57.660000000000267
0
LWPOLYLINE
5
154
100
AcDbEntity
8
0
100
AcDbPolyline
90
4
70
1
43
0.0
10
26.875
20
-57.820000000000263
10
27.035
20
-57.660000000000267
10
27.355
20
-57.660000000000267
10
27.515000000000001
20
-57.820000000000263
0
LWPOLYLINE
5
155
100
AcDbEntity
8
0
100
AcDbPolyline
90
4
70
1
43
0.0
10
27.035
20
-57.660000000000267
10
26.875
20
-57.820000000000263
10
26.875
20
-57.180000000000263
10
27.035
20
-57.340000000000266
0
LWPOLYLINE
5
156
100
AcDbEntity
8
0
100
AcDbPolyline
90
4
70
1
43
0.0
10
26.105000000000548
20
-102.16000000000042
10
25.785000000000547
20
-102.16000000000042
10
25.785000000000544
20
-101.84000000000042
10
26.105000000000544
20
-101.84000000000042
0
LWPOLYLINE
5
157
100
AcDbEntity
8
0
100
AcDbPolyline
90
4
70
1
43
0.0
10
26.265000000000541
20
-101.68000000000042
10
26.105000000000544
20
-101.84000000000042
10
25.785000000000547
20
-101.84000000000042
10
25.62500000000054
20
-101.68000000000042
0
LWPOLYLINE
5
158
100
AcDbEntity
8
0
100
AcDbPolyline
90
4
70
1
43
0.0
10
26.105000000000548
20
-101.84000000000042
10
26.265000000000548
20
-101.68000000000042
10
26.265000000000541
20
-102.32000000000042
10
26.105000000000544
20
-102.16000000000042
0
LWPOLYLINE
5
159
100
AcDbEntity
8
0
100
AcDbPolyline
90
4
70
1
43
0.0
10
26.105000000000548
20
-102.16000000000042
10
26.265000000000548
20
-102.32000000000042
10
25.62500000000054
20
-102.32000000000042
10
25.785000000000544
20
-102.16000000000042
0
LWPOLYLINE
5
160
100
AcDbEntity
8
0
100
AcDbPolyline
90
4
70
1
43
0.0
10
25.62500000000054
20
-101.68000000000042
10
25.785000000000544
20
-101.84000000000042
10
25.785000000000544
20
-102.16000000000042
10
25.62500000000054
20
-102.32000000000042
0
LWPOLYLINE
5
161
100
AcDbEntity
8
0
100
AcDbPolyline
90
4
70
1
43
0.0
10
26.265000000000541
20
-104.22000000000041
10
26.105000000000544
20
-104.38000000000042
10
25.785000000000547
20
-104.38000000000042
10
25.625000000000547
20
-104.22000000000041
0
LINE
5
162
100
AcDbEntity
8
0
100
AcDbLine
10
26.265000000000541
20
-104.22000000000041
30
0
11
26.265000000000541
21
-104.86000000000041
31
0
0
LWPOLYLINE
5
163
100
AcDbEntity
8
0
100
AcDbPolyline
90
4
70
1
43
0.0
10
26.105000000000548
20
-104.70000000000041
10
25.785000000000547
20
-104.70000000000041
10
25.785000000000547
20
-104.38000000000042
10
26.105000000000548
20
-104.38000000000042
0
LWPOLYLINE
5
164
100
AcDbEntity
8
0
100
AcDbPolyline
90
4
70
1
43
0.0
10
26.105000000000548
20
-104.38000000000042
10
26.265000000000548
20
-104.22000000000041
10
26.265000000000541
20
-104.86000000000041
10
26.105000000000548
20
-104.70000000000041
0
LWPOLYLINE
5
165
100
AcDbEntity
8
0
100
AcDbPolyline
90
4
70
1
43
0.0
10
26.105000000000548
20
-104.70000000000041
10
26.265000000000548
20
-104.86000000000041
10
25.625000000000547
20
-104.86000000000041
10
25.785000000000544
20
-104.70000000000041
0
LWPOLYLINE
5
166
100
AcDbEntity
8
0
100
AcDbPolyline
90
4
70
1
43
0.0
10
25.62500000000054
20
-104.22000000000041
10
25.785000000000544
20
-104.38000000000042
10
25.785000000000547
20
-104.70000000000041
10
25.625000000000547
20
-104.86000000000041
0
LWPOLYLINE
5
167
100
AcDbEntity
8
0
100
AcDbPolyline
90
4
70
1
43
0.0
10
23.565000000000538
20
-101.84000000000042
10
23.565000000000538
20
-102.16000000000042
10
23.245000000000537
20
-102.16000000000042
10
23.245000000000537
20
-101.84000000000042
0
LWPOLYLINE
5
168
100
AcDbEntity
8
0
100
AcDbPolyline
90
4
70
1
43
0.0
10
23.725000000000538
20
-101.68000000000042
10
23.565000000000538
20
-101.84000000000042
10
23.245000000000537
20
-101.84000000000042
10
23.085000000000537
20
-101.68000000000042
0
LWPOLYLINE
5
169
100
AcDbEntity
8
0
100
AcDbPolyline
90
4
70
1
43
0.0
10
23.565000000000538
20
-101.84000000000042
10
23.725000000000538
20
-101.68000000000042
10
23.725000000000538
20
-102.32000000000042
10
23.565000000000538
20
-102.16000000000042
0
LWPOLYLINE
5
170
100
AcDbEntity
8
0
100
AcDbPolyline
90
4
70
1
43
0.0
10
23.565000000000538
20
-102.16000000000042
10
23.725000000000538
20
-102.32000000000042
10
23.085000000000537
20
-102.32000000000042
10
23.245000000000537
20
-102.16000000000042
0
LINE
5
171
100
AcDbEntity
8
0
100
AcDbLine
10
23.245000000000537
20
-101.84000000000042
30
0
11
23.245000000000537
21
-102.16000000000042
31
0
0
LWPOLYLINE
5
172
100
AcDbEntity
8
0
100
AcDbPolyline
90
4
70
1
43
0.0
10
23.085000000000537
20
-101.68000000000042
10
23.245000000000537
20
-101.84000000000042
10
23.245000000000537
20
-102.16000000000042
10
23.085000000000537
20
-102.32000000000042
0
LWPOLYLINE
5
173
100
AcDbEntity
8
0
100
AcDbPolyline
90
4
70
1
43
0.0
10
23.725000000000538
20
-104.22000000000041
10
23.565000000000538
20
-104.38000000000042
10
23.245000000000541
20
-104.38000000000042
10
23.085000000000541
20
-104.22000000000041
0
LWPOLYLINE
5
174
100
AcDbEntity
8
0
100
AcDbPolyline
90
4
70
1
43
0.0
10
23.565000000000541
20
-104.38000000000042
10
23.565000000000541
20
-104.70000000000041
10
23.245000000000541
20
-104.70000000000041
10
23.245000000000541
20
-104.38000000000042
0
LWPOLYLINE
5
175
100
AcDbEntity
8
0
100
AcDbPolyline
90
4
70
1
43
0.0
10
23.565000000000541
20
-104.38000000000042
10
23.725000000000541
20
-104.22000000000041
10
23.725000000000538
20
-104.86000000000041
10
23.565000000000541
20
-104.70000000000041
0
LWPOLYLINE
5
176
100
AcDbEntity
8
0
100
AcDbPolyline
90
4
70
1
43
0.0
10
23.565000000000541
20
-104.70000000000041
10
23.725000000000541
20
-104.86000000000041
10
23.085000000000541
20
-104.86000000000041
10
23.245000000000537
20
-104.70000000000041
0
LWPOLYLINE
5
177
100
AcDbEntity
8
0
100
AcDbPolyline
90
4
70
1
43
0.0
10
23.085000000000537
20
-104.22000000000041
10
23.245000000000537
20
-104.38000000000042
10
23.245000000000541
20
-104.70000000000041
10
23.085000000000541
20
-104.86000000000041
0
LWPOLYLINE
5
178
100
AcDbEntity
8
0
100
AcDbPolyline
90
4
70
1
43
0.0
10
23.725000000000541
20
-106.76000000000043
10
23.565000000000541
20
-106.92000000000043
10
23.245000000000541
20
-106.92000000000043
10
23.085000000000541
20
-106.76000000000043
0
LWPOLYLINE
5
179
100
AcDbEntity
8
0
100
AcDbPolyline
90
4
70
1
43
0.0
10
23.565000000000541
20
-106.92000000000043
10
23.565000000000541
20
-107.24000000000044
10
23.245000000000541
20
-107.24000000000044
10
23.245000000000541
20
-106.92000000000043
0
LWPOLYLINE
5
180
100
AcDbEntity
8
0
100
AcDbPolyline
90
4
70
1
43
0.0
10
23.565000000000541
20
-106.92000000000043
10
23.725000000000541
20
-106.76000000000043
10
23.725000000000541
20
-107.40000000000043
10
23.565000000000541
20
-107.24000000000044
0
LWPOLYLINE
5
181
100
AcDbEntity
8
0
100
AcDbPolyline
90
4
70
1
43
0.0
10
23.565000000000541
20
-107.24000000000044
10
23.725000000000541
20
-107.40000000000043
10
23.085000000000541
20
-107.40000000000043
10
23.245000000000541
20
-107.24000000000044
0
LWPOLYLINE
5
182
100
AcDbEntity
8
0
100
AcDbPolyline
90
4
70
1
43
0.0
10
23.085000000000537
20
-106.76000000000043
10
23.245000000000537
20
-106.92000000000043
10
23.245000000000541
20
-107.24000000000044
10
23.085000000000541
20
-107.40000000000043
0
LWPOLYLINE
5
183
100
AcDbEntity
8
0
100
AcDbPolyline
90
4
70
1
43
0.0
10
26.265000000000548
20
-106.76000000000043
10
26.105000000000548
20
-106.92000000000043
10
25.785000000000547
20
-106.92000000000043
10
25.625000000000547
20
-106.76000000000043
0
LWPOLYLINE
5
184
100
AcDbEntity
8
0
100
AcDbPolyline
90
4
70
1
43
0.0
10
26.105000000000548
20
-107.24000000000044
10
25.785000000000547
20
-107.24000000000044
10
25.785000000000547
20
-106.92000000000043
10
26.105000000000548
20
-106.92000000000043
0
LWPOLYLINE
5
185
100
AcDbEntity
8
0
100
AcDbPolyline
90
4
70
1
43
0.0
10
26.105000000000548
20
-106.92000000000043
10
26.265000000000548
20
-106.76000000000043
10
26.265000000000548
20
-107.40000000000043
10
26.105000000000548
20
-107.24000000000044
0
LWPOLYLINE
5
186
100
AcDbEntity
8
0
100
AcDbPolyline
90
4
70
1
43
0.0
10
26.105000000000548
20
-107.24000000000044
10
26.265000000000548
20
-107.40000000000043
10
25.625000000000547
20
-107.40000000000043
10
25.785000000000547
20
-107.24000000000044
0
LINE
5
187
100
AcDbEntity
8
0
100
AcDbLine
10
25.785000000000547
20
-106.92000000000043
30
0
11
25.785000000000547
21
-107.24000000000044
31
0
0
LWPOLYLINE
5
188
100
AcDbEntity
8
0
100
AcDbPolyline
90
4
70
1
43
0.0
10
25.62500000000054
20
-106.76000000000043
10
25.785000000000544
20
-106.92000000000043
10
25.785000000000547
20
-107.24000000000044
10
25.625000000000547
20
-107.40000000000043
0
ENDSEC
0
SECTION
2
OBJECTS
0
DICTIONARY
5
C
100
AcDbDictionary
3
ACAD_GROUP
350
D
3
ACAD_MLINESTYLE
350
17
0
DICTIONARY
5
D
100
AcDbDictionary
0
DICTIONARY
5
1A
330
C
100
AcDbDictionary
0
DICTIONARY
5
17
100
AcDbDictionary
0
ENDSEC
0
EOF
